<?xml version="1.0"?>
<svg width="410.39758" height="500" xmlns="http://www.w3.org/2000/svg" xmlns:svg="http://www.w3.org/2000/svg">
 <defs>
  <style>.a{fill:#004d71;}.b{fill:#0090d0;}.c{fill:#4d4d4d;}.d{fill:#cccbcb;}.e{fill:#f2f7ff;}.f{fill:#ebba91;}.g{fill:#006b98;}.h{opacity:0.1;}.h,.m,.v,.w{isolation:isolate;}.i{fill:#dd0031;}.j{fill:#c3002f;}.k,.m{fill:#fff;}.l{fill:#6d4136;}.m{opacity:0.2;}.n{fill:#e6ab7a;}.o{fill:#f2c6a2;}.p{fill:#402312;}.q{fill:#b84b5e;}.r{fill:#221f1f;}.s{fill:#00425c;}.t{fill:#28aae1;}.u{fill:#323031;}.v{fill:#75a4bb;opacity:0.5;}.w{opacity:0.06;}.x{fill:#6d4237;}.y{fill:#4a2c25;}.z{fill:#784b3d;}</style>
 </defs>
 <title>mascot-ajs-lean</title>
 <g class="layer">
  <title>Layer 1</title>
  <path class="a" d="m203.62,373.68c-3.15,30.46 33.86,-31.92 70.14,-5.95c28.27,20.27 82.15,5.34 77.3,-20.87c-8.62,-46.84 7.16,-126.93 -31.43,-159.21c-55.09,-45.99 -112,146.47 -116.01,186.03z" id="svg_1"/>
  <path class="b" d="m263.69,182.8c-28.52,132.51 -172.68,158.23 -34.71,218.79c-41.13,-99.75 54.25,-90.53 42.35,-219.4l-7.64,0.61z" id="svg_2"/>
  <polygon class="c" id="svg_3" points="294.268 405.106 386.856 429.618 383.458 445.394 283.832 421.973 294.268 405.106"/>
  <path class="c" d="m380.79,300.63s-0.73,29.12 -6.43,42.1c-7.89,18.21 -30.22,75.85 -30.22,75.85l-15.05,55.82l-16.01,1.69l14.56,-61.15l0,0l10.43,-55.1a115.11,115.11 0 0 1 -35.55,3.52l-0.12,49.39l-9.83,7.52l0,0l-8.74,1.82s-6.19,-57.27 -11.77,-71.59a99.5,99.5 0 0 1 -6.31,-28.03l115.04,-21.84z" id="svg_4"/>
  <path class="d" d="m383.46,445.39l4.97,25.61s-5.21,19.29 5.34,24.51c6.92,3.4 9.47,4.49 9.47,4.49c2.06,-19.42 7.16,-69.65 7.16,-69.65c-6.31,-0.97 -23.67,-0.73 -23.67,-0.73l-3.27,15.77z" id="svg_5"/>
  <path class="d" d="m329.09,474.4l24.88,7.76s19.66,-3.03 23.79,7.89c2.66,7.28 3.39,9.83 3.39,9.83c-19.53,0 -70.01,-0.37 -70.01,-0.37c-0.37,-6.43 1.82,-23.54 1.82,-23.54l16.13,-1.57z" id="svg_6"/>
  <path class="e" d="m267.24,328.69c-3.39,-12.98 -6.43,-25.36 -9.1,-36.89c-5.94,-26.08 -10.07,-48.17 -12.86,-64.07c-2.91,-17.23 -5.82,-35.55 -5.82,-35.55c9.22,-5.46 20.75,-9.22 29.6,-12.14c6.92,-2.3 11.05,-2.06 11.05,-2.06c5.34,0.61 14.07,4.73 19.41,3.88c5.46,-0.97 12.87,-7.64 17.84,-10.19a67.04,67.04 0 0 1 9.95,-0.24a89.38,89.38 0 0 1 34.83,8.01s2.79,15.17 6.19,35.55c3.15,18.93 7.04,42.35 9.95,62.25c1.21,8.86 2.3,17.11 3.03,23.91c-8.37,2.06 -16.87,4 -25.24,6.07c-22.21,5.34 -44.53,10.67 -66.74,16.14c-7.28,1.82 -14.68,3.51 -22.09,5.33z" id="svg_7"/>
  <path class="f" d="m374.72,255.36l-10.68,1.7c-5.09,2.06 -15.77,5.95 -27.54,10.07c-15.9,5.46 -33.74,11.29 -41.5,13.47c-13.47,3.64 -40.78,8.74 -40.78,8.74l-16.62,-27.79l8.61,-15.77l11.29,22.81l2.43,4.73c22.2,-3.4 50.48,-12.01 70.5,-19.41c15.65,0.6 31.91,1.45 44.29,1.45z" id="svg_38"/>
  <path class="f" d="m385.76,267.26s-24.27,-0.25 -49.26,-0.13c-19.66,0.13 -39.93,0.37 -49.15,1.1c-8.13,3.15 -27.42,5.09 -27.42,5.09l-2.43,-4.73s11.89,-13.23 30.7,-14.68c9.71,-1.22 25.6,-0.85 42.23,-0.12c15.65,0.6 31.91,1.57 44.29,1.57l8.5,-13.22l1.09,-0.13l1.45,25.25z" id="svg_39" transform="matrix(1 0 0 1 0 0)"/>
  <path class="g" d="m362.1,179.16c14.08,7.52 19.78,4.73 26.58,62.85l-19.3,1.22c-1.33,-22.57 -1.94,-33.13 -2.79,-39.68l-4.49,-24.39z" id="svg_40"/>
  <path class="f" d="m384.31,240.44l-1.09,1.7l-8.5,13.22c-12.38,0 -28.64,-0.85 -44.29,-1.57a88.19,88.19 0 0 0 8.98,-2.19c2.79,-0.85 8.25,-6.79 11.04,-9.95a20.55,20.55 0 0 1 3.89,-3.28c3.51,-2.18 10.55,-7.03 13.95,-12.62l10.68,4.25l5.34,10.44z" id="svg_41" transform="matrix(1 0 0 1 0 0)"/>
  <path class="h" d="m330.43,253.79s7.52,-1.52 9.95,-2.62c5.53,2.1 34.34,4.19 34.34,4.19c-26.21,-0.36 -44.29,-1.57 -44.29,-1.57z" id="svg_42"/>
  <path class="h" d="m284.92,268.1s26.94,-1.45 51.46,-0.97l-12.99,4.37c0.1,0 -36.04,-3.27 -51.02,-0.75c0,0 9.74,-1.98 12.55,-2.65z" id="svg_43"/>
  <path class="h" d="m260.05,266.15a13.97,13.97 0 0 0 3.52,2.56c1.7,0.73 9.7,1.58 21.48,-0.61l-25,5.22l-2.55,-4.73a25.78,25.78 0 0 1 2.55,-2.44z" id="svg_44"/>
  <path class="h" d="m374.72,255.36l8.5,-13.22l1.09,-0.13l0.24,4.49a45.2,45.2 0 0 0 -9.83,8.86z" id="svg_45"/>
  <path class="g" d="m239.3,192.02s-12.14,5.58 -14.56,22.81c-0.61,4.01 -1.7,9.35 -0.85,16.14c1.45,7.89 6.67,25 14.19,44.05l21.97,-13.35s-13.84,-26.57 -15.41,-36.64c-0.12,0 -0.85,-16.39 -5.34,-33.01z" id="svg_46"/>
  <polygon class="i" id="svg_47" points="112.975 162.411 112.975 162.411 112.975 162.411 0 202.698 17.231 352.077 112.975 405.106 112.975 405.106 112.975 405.106 208.718 352.077 225.949 202.698 112.975 162.411"/>
  <polygon class="j" id="svg_48" points="112.975 162.411 112.975 189.35 112.975 189.229 112.975 312.154 112.975 312.154 112.975 405.106 112.975 405.106 208.718 352.077 225.949 202.698 112.975 162.411"/>
  <path class="k" d="m112.97,189.23l-70.62,158.36l26.33,0l14.2,-35.44l59.95,0l14.19,35.44l26.34,0l-70.39,-158.36zm20.63,101.08l-41.25,0l20.62,-49.63l20.63,49.63z" id="svg_49"/>
  <path class="l" d="m305.43,24.68s-35.43,-38.71 -73.66,-19.17c-38.34,19.66 -26.21,81.79 -37.98,103.14s-20.63,17.24 -20.63,17.24s21.24,25.11 56.43,10.8c35.07,-14.45 75.84,-112.01 75.84,-112.01z" id="svg_50"/>
  <path class="m" d="m215.63,75.89s-2.66,2.31 -4.24,10.8s-5.46,10.07 -5.46,10.07s5.82,-1.82 8.13,-5.7c2.42,-3.88 2.67,-8.01 5.82,-8.74l-4.25,-6.43z" id="svg_51"/>
  <path class="m" d="m219.64,90.33s-3.76,2.67 -6.07,15.17c-4.37,23.42 -13.1,24.15 -22.08,25.12c0,0 11.16,2.91 19.78,-4.86s8.37,-21.35 11.28,-21.84l-2.91,-13.59z" id="svg_52"/>
  <path class="n" d="m345.11,107.56c0.61,8.62 5.34,14.81 10.56,14.81c9.83,-0.13 4.73,-8.98 5.82,-21.12c0.73,-8.61 -3.03,-10.31 -8.13,-9.95c-5.34,0.37 -8.98,7.65 -8.25,16.26z" id="svg_53"/>
  <path class="n" d="m238.69,113.51c0.24,8.61 -3.64,15.41 -8.74,15.89c-9.83,0.98 -5.7,-8.49 -8.13,-20.38c-1.7,-8.38 1.82,-10.56 7.04,-10.8c5.1,-0.12 9.59,6.67 9.83,15.29z" id="svg_54"/>
  <path class="o" d="m243.54,174.55c8.86,7.03 17.84,8.61 27.19,9.82a144.01,144.01 0 0 0 22.32,0.85a153.21,153.21 0 0 0 37.99,-8.13c6.55,-2.42 12.25,-5.46 15.77,-9.1c13.71,-13.95 9.47,-51.21 6.43,-85.91c-0.73,-7.89 -1.82,-11.89 -6.19,-18.57c-0.97,-1.45 -3.15,-2.67 -5.21,-3.4c-2.19,-0.72 -10.8,-1.09 -15.54,-1.21c-10.43,-0.24 -19.53,0.85 -39.68,2.06c-12.62,0.73 -24.02,1.7 -33.12,2.67c-11.17,1.22 -18.81,2.43 -20.15,3.64c-3.64,3.04 -6.31,12.02 -6.92,21.24a42.87,42.87 0 0 0 -0.12,5.58c1.1,43.44 4.98,69.17 17.23,80.46z" id="svg_55"/>
  <path class="p" d="m266.72,154.4s24.76,14.44 54.37,-7.04c0,0 1.69,24.39 -23.42,27.67s-30.95,-20.63 -30.95,-20.63z" id="svg_56"/>
  <path class="q" d="m281.89,173.21s-2.79,-11.04 10.92,-8.49l5.58,1.94l-2.3,-3.4s12.5,-5.1 20.63,0.85a23.39,23.39 0 0 1 -15.54,10.31s-10.8,3.04 -19.29,-1.21z" id="svg_57"/>
  <path class="k" d="m266.72,154.4s24.76,14.44 54.37,-7.04c0,0 -0.85,14.2 -24.76,17.84c-25.12,3.89 -29.61,-10.8 -29.61,-10.8z" id="svg_58"/>
  <path class="r" d="m282.25,119.21c0.25,9.59 -9.34,15.9 -19.17,14.56c-8.01,-1.09 -13.59,-7.16 -13.71,-13.83a13.42,13.42 0 0 1 4.73,-10.44a13.73,13.73 0 0 1 1.58,-1.21a19.34,19.34 0 0 1 3.52,-1.82a13.43,13.43 0 0 1 3.15,-0.85a16.17,16.17 0 0 1 3.4,-0.36a19.21,19.21 0 0 1 4.61,0.6a14.28,14.28 0 0 1 2.43,0.85c5.46,2.19 9.34,6.8 9.46,12.5z" id="svg_59"/>
  <path class="k" d="m282.25,121.03c0.25,8.5 -8.85,14.2 -18.2,12.86c-7.76,-1.09 -13.1,-6.55 -13.22,-12.62a11.55,11.55 0 0 1 4.61,-9.34a17.75,17.75 0 0 1 1.57,-1.09a13.66,13.66 0 0 1 3.28,-1.58l0.12,0a12.32,12.32 0 0 1 3.04,-0.73c0.36,0 0.72,-0.12 1.09,-0.12a13.93,13.93 0 0 1 2.3,-0.12a4.98,4.98 0 0 1 1.34,0.12l0,0a22.65,22.65 0 0 1 3.03,0.49c0.37,0.12 0.73,0.24 1.22,0.36a4.31,4.31 0 0 1 1.09,0.49c5.09,2.06 8.61,6.18 8.73,11.28z" id="svg_60"/>
  <path class="s" d="m278.49,120.91c0.12,4.98 -3.03,8.98 -6.91,9.1s-7.16,-3.88 -7.28,-8.74c-0.13,-4.97 3.03,-8.98 6.91,-9.1s7.16,3.76 7.28,8.74z" id="svg_61"/>
  <path class="t" d="m277.16,120.91c0.12,4 -2.43,7.4 -5.71,7.4c-3.15,0.12 -5.94,-3.15 -5.94,-7.16c-0.12,-4 2.43,-7.4 5.7,-7.4c3.28,-0.12 5.95,3.16 5.95,7.16z" id="svg_62"/>
  <path class="u" d="m274.85,120.91c0,2.43 -1.45,4.37 -3.4,4.49c-1.94,0 -3.51,-1.94 -3.64,-4.25c0,-2.42 1.46,-4.37 3.4,-4.49c2.06,-0.12 3.64,1.82 3.64,4.25z" id="svg_63"/>
  <path class="k" d="m270.48,118.48a1.7,1.7 0 1 1 -1.7,-1.7a2.06,2.06 0 0 1 1.7,1.7z" id="svg_64"/>
  <path class="v" d="m254.83,115.33c0.49,-0.37 1.09,-0.73 1.7,-1.09a16.49,16.49 0 0 1 3.64,-1.58a13,13 0 0 1 3.28,-0.73a34.28,34.28 0 0 1 3.51,-0.24a21.08,21.08 0 0 1 4.74,0.6c0.85,0.25 1.7,0.49 2.42,0.73a15.01,15.01 0 0 1 8.01,6.56c-0.72,-4.49 -4.12,-8.01 -8.61,-9.83a8.46,8.46 0 0 0 -2.31,-0.73a18.05,18.05 0 0 0 -4.37,-0.61a14.91,14.91 0 0 0 -3.27,0.24a12.32,12.32 0 0 0 -3.04,0.73a14.57,14.57 0 0 0 -3.39,1.58a17.76,17.76 0 0 0 -1.58,1.09a12.13,12.13 0 0 0 -4.61,8.01a13.13,13.13 0 0 1 3.88,-4.73z" id="svg_65"/>
  <path class="r" d="m300.94,118.85c0.24,9.58 10.07,15.41 19.78,13.71c7.89,-1.46 13.23,-7.77 13.11,-14.44a13.62,13.62 0 0 0 -5.22,-10.19a20.58,20.58 0 0 0 -1.7,-1.22a16.73,16.73 0 0 0 -3.64,-1.7a13,13 0 0 0 -3.28,-0.72a17.08,17.08 0 0 0 -3.52,-0.13a28.13,28.13 0 0 0 -4.61,0.73a20.23,20.23 0 0 0 -2.42,0.97c-4.98,2.43 -8.62,7.16 -8.5,12.99z" id="svg_66"/>
  <path class="k" d="m332.49,119.58c0.12,5.94 -5.09,11.77 -12.74,13.1c-9.22,1.7 -18.57,-3.52 -18.69,-12.01c-0.12,-5.1 3.28,-9.47 8.26,-11.77c0.36,-0.12 0.72,-0.37 1.09,-0.49l1.09,-0.36a27.51,27.51 0 0 1 3.03,-0.73l0,0c0.49,0 0.85,-0.12 1.34,-0.12l2.3,0a3.36,3.36 0 0 1 1.1,0.12a22.36,22.36 0 0 1 3.03,0.61l0.12,0a16.87,16.87 0 0 1 3.4,1.45a7.3,7.3 0 0 1 1.58,1.09a11.76,11.76 0 0 1 5.09,9.11z" id="svg_67"/>
  <path class="s" d="m319.02,119.94c0.12,4.97 -3.03,8.98 -6.91,9.1s-7.16,-3.88 -7.28,-8.74c-0.13,-4.97 3.03,-8.98 6.91,-9.1s7.16,3.76 7.28,8.74z" id="svg_68"/>
  <path class="t" d="m317.69,119.94c0.12,4 -2.43,7.4 -5.71,7.4s-5.94,-3.15 -5.94,-7.16c-0.12,-4 2.43,-7.4 5.7,-7.4s5.95,3.15 5.95,7.16z" id="svg_69"/>
  <path class="u" d="m315.38,120.06c0,2.43 -1.45,4.37 -3.4,4.49c-1.94,0 -3.51,-1.94 -3.64,-4.25c0,-2.42 1.46,-4.37 3.4,-4.49c2.06,-0.12 3.64,1.82 3.64,4.25z" id="svg_70"/>
  <path class="k" d="m311.01,117.63a1.7,1.7 0 1 1 -1.69,-1.7a1.82,1.82 0 0 1 1.69,1.7z" id="svg_71"/>
  <path class="v" d="m328.12,113.63c-0.48,-0.36 -1.09,-0.73 -1.69,-1.09a17.32,17.32 0 0 0 -3.77,-1.46a31.04,31.04 0 0 0 -3.27,-0.61a34.1,34.1 0 0 0 -3.52,-0.12a19.35,19.35 0 0 0 -4.61,0.85a14.28,14.28 0 0 0 -2.43,0.85a15.63,15.63 0 0 0 -7.77,6.92c0.49,-4.49 3.77,-8.13 8.13,-10.19a12.94,12.94 0 0 1 2.31,-0.85a17.42,17.42 0 0 1 4.37,-0.85a14.82,14.82 0 0 1 3.27,0.12a22.36,22.36 0 0 1 3.04,0.6a17.91,17.91 0 0 1 3.52,1.46a7.3,7.3 0 0 1 1.57,1.09a12.13,12.13 0 0 1 4.98,7.77a12.06,12.06 0 0 0 -4.13,-4.49z" id="svg_72"/>
  <polygon class="w" id="svg_73" points="249.612 105.742 276.551 100.402 274.974 93.121 246.821 100.766 249.612 105.742"/>
  <polygon class="x" id="svg_74" points="273.639 91.908 245.365 99.674 248.156 104.528 275.216 99.189 273.639 91.908"/>
  <polygon class="w" id="svg_75" points="334.07 105.62 308.708 100.281 310.286 93.364 336.74 101.13 334.07 105.62"/>
  <polygon class="x" id="svg_76" points="333.463 103.8 308.102 98.461 309.558 91.665 336.012 99.31 333.463 103.8"/>
  <path class="w" d="m225.71,101.74s28.39,-14.2 43.44,-14.32c0,0 16.38,-13.23 20.75,-25.12c0,0 -0.73,9.46 -0.36,10.68s-7.65,10.92 -10.08,12.38c0,0 11.41,-5.59 11.77,-12.14c0,0 -1.21,9.95 -3.76,12.74a145.86,145.86 0 0 1 22.82,0.24s8,-6.06 8.98,-14.56c0,0 0.6,9.83 -2.43,15.54c0,0 24.75,0.72 33.98,8.49l-2.67,-7.28l-28.28,-3.4l1.58,-15.53l-14.08,-0.61l-11.52,-7.89l-10.93,-3.27l-59.21,44.05z" id="svg_77"/>
  <path class="y" d="m222.55,115.09s-38.47,-91.62 60.55,-99.39c0.13,0 -69.53,17.35 -60.55,99.39z" id="svg_78"/>
  <path class="z" d="m358.58,97c-0.6,4.01 -2.06,14.32 -2.42,17.24l0,2.18a242.29,242.29 0 0 0 -7.16,-23.3a41.91,41.91 0 0 0 -9.11,-3.88c-10.31,-3.04 -23.78,-3.16 -23.78,-3.16c4,-6.67 2.79,-12.74 2.43,-13.83l0,-0.24c-1.22,7.28 -8.38,12.98 -8.38,12.98c-7.88,-1.09 -23.66,-0.36 -23.66,-0.36a11.95,11.95 0 0 0 3.52,-10.32c-3.64,7.77 -12.13,10.92 -12.13,10.92c8.49,-6.43 11.77,-24.51 11.77,-24.51c-5.83,13.59 -21.36,25.48 -21.36,25.48c-19.29,1.58 -39.68,13.23 -39.68,13.23c-1.82,4.98 -1.21,24.39 -1.21,24.39l0,-0.12c-0.13,-0.48 -0.61,-2.06 -1.34,-4.12c-1.21,-3.89 -2.91,-9.47 -3.15,-10.93c-1.7,-9.34 -12.5,-41.01 12.13,-69.16c15.17,-17.36 41.26,-23.55 51.33,-24.03c10.19,-0.24 36.4,4.25 53.03,20.26c23.06,22.09 20.99,50.85 19.17,61.28z" id="svg_79"/>
  <path class="m" d="m282.13,26.5s7.65,14.2 -4,25.24c-18.2,17.11 -17.84,26.7 -17.84,26.7s-4.85,-5.46 -3.28,-14.56c1.22,-6.8 11.17,-12.38 12.02,-18.93c0,0 0.85,2.67 -2.67,8.61c0,0 -3.28,4.13 -3.52,8.38c0,0 -0.24,-4.13 11.16,-13.6c10.68,-8.85 9.47,-14.92 8.13,-21.84z" id="svg_80"/>
  <ellipse class="w" cx="113.1" cy="493.45" id="svg_81" rx="88.95" ry="6.55"/>
  <text fill="#1167a0" font-family="Fantasy" font-size="24" id="svg_82" stroke-width="0" text-anchor="middle" transform="rotate(-8.51397 309.599 239.6)" x="309.6" xml:space="preserve" y="249.2">GoZoom</text>
 </g>
</svg>