<?xml version="1.0"?>
<svg width="458.86718" height="600" xmlns="http://www.w3.org/2000/svg" xmlns:svg="http://www.w3.org/2000/svg">
 <defs>
  <style>.a{fill:#dd4814;}.b{fill:#ebba91;}.c{fill:#004d71;}.d{fill:#0090d0;}.e{fill:#cccbcb;}.f{fill:#eda972;}.g{fill:#4d4d4d;}.h{fill:#f2f7ff;}.i{fill:#006b98;}.j{fill:#e3a876;}.k{fill:#221f1f;}.l,.t{fill:#fff;}.m{fill:#00425c;}.n{fill:#28aae1;}.o{fill:#323031;}.p{fill:#75a4bb;opacity:0.5;}.p,.q,.t{isolation:isolate;}.q{opacity:0.06;}.r{fill:#95613c;}.s{fill:#c39769;}.t{opacity:0.2;}.u{fill:#90191c;}.v{fill:#c4c3c3;}.w{fill:#1f4c6d;}</style>
 </defs>
 <title>mascot-torch</title>
 <g class="layer">
  <title>Layer 1</title>
  <path class="a" d="m108.7,63.21a32.06,32.06 0 0 1 2.85,-9.5a23.95,23.95 0 0 1 5.22,-7.14a21.89,21.89 0 0 1 7.25,-4.47a25.36,25.36 0 0 1 8.95,-1.56a22.66,22.66 0 0 1 5.24,0.53a21.83,21.83 0 0 1 3.66,1.2l-2.53,6.55a16.33,16.33 0 0 0 -3.16,-0.88a23.06,23.06 0 0 0 -3.85,-0.34a12.96,12.96 0 0 0 -4.93,0.91a11.55,11.55 0 0 0 -4.12,2.8a16.39,16.39 0 0 0 -3.11,4.84a26.82,26.82 0 0 0 -1.87,7.03c-0.12,0.82 -0.19,1.63 -0.26,2.4s-0.1,1.5 -0.1,2.2a15.85,15.85 0 0 0 0.7,5.07a9,9 0 0 0 1.98,3.47a7.8,7.8 0 0 0 3.11,1.99a12.78,12.78 0 0 0 4.14,0.62a20.17,20.17 0 0 0 4.65,-0.53a31.89,31.89 0 0 0 3.9,-1.19l0.48,6.6a22.6,22.6 0 0 1 -4.65,1.58a28.12,28.12 0 0 1 -6.48,0.63a19.01,19.01 0 0 1 -7.21,-1.3a15.23,15.23 0 0 1 -5.48,-3.66a16.27,16.27 0 0 1 -3.47,-5.79a22.7,22.7 0 0 1 -1.22,-7.59c0,-0.72 0.03,-1.43 0.07,-2.2c0.05,-0.72 0.15,-1.48 0.24,-2.27z" id="svg_1"/>
  <path class="a" d="m142.86,69.12a22.18,22.18 0 0 1 2.22,-7.18a18.14,18.14 0 0 1 4.12,-5.31a17.14,17.14 0 0 1 5.65,-3.28a19.96,19.96 0 0 1 6.79,-1.13a16.71,16.71 0 0 1 5.75,0.94a12.51,12.51 0 0 1 4.45,2.7a11.68,11.68 0 0 1 2.85,4.33a15.83,15.83 0 0 1 1,5.77c0,0.5 -0.02,1 -0.05,1.53s-0.09,1.05 -0.16,1.63a22.32,22.32 0 0 1 -2.23,7.2a17.73,17.73 0 0 1 -4.12,5.29a17.21,17.21 0 0 1 -5.62,3.26a19.86,19.86 0 0 1 -6.8,1.12a16.71,16.71 0 0 1 -5.74,-0.93a12.18,12.18 0 0 1 -4.45,-2.71a11.74,11.74 0 0 1 -2.87,-4.33a15.49,15.49 0 0 1 -1.03,-5.79c0,-0.5 0.02,-1.01 0.04,-1.53c0.05,-0.46 0.1,-1.01 0.2,-1.58zm9.35,0c-0.09,0.57 -0.14,1.1 -0.19,1.63s-0.07,1 -0.07,1.46a9.93,9.93 0 0 0 0.43,3.13a5.51,5.51 0 0 0 1.2,2.08a4.29,4.29 0 0 0 1.82,1.15a7.86,7.86 0 0 0 2.34,0.36a7.71,7.71 0 0 0 2.85,-0.53a6.52,6.52 0 0 0 2.47,-1.69a9.54,9.54 0 0 0 1.89,-3.04a18.65,18.65 0 0 0 1.19,-4.58c0.1,-0.57 0.15,-1.14 0.19,-1.65c0.05,-0.52 0.08,-1 0.08,-1.46a9.93,9.93 0 0 0 -0.43,-3.13a5.51,5.51 0 0 0 -1.2,-2.08a4.62,4.62 0 0 0 -1.84,-1.15a7.28,7.28 0 0 0 -2.37,-0.34a7.71,7.71 0 0 0 -2.85,0.53a6.71,6.71 0 0 0 -2.44,1.7a9.54,9.54 0 0 0 -1.89,3.04a19.77,19.77 0 0 0 -1.18,4.57z" id="svg_2"/>
  <path class="a" d="m201.23,82.64a19.26,19.26 0 0 1 -2.01,1.44a12.18,12.18 0 0 1 -2.18,1.05a13.21,13.21 0 0 1 -2.54,0.67a19.17,19.17 0 0 1 -3.08,0.24a10.4,10.4 0 0 1 -4.5,-0.93a9.19,9.19 0 0 1 -3.4,-2.66a12.56,12.56 0 0 1 -2.16,-4.17a18.34,18.34 0 0 1 -0.76,-5.45a24.6,24.6 0 0 1 0.29,-3.76a27.9,27.9 0 0 1 1.96,-7.06a19.22,19.22 0 0 1 3.4,-5.29a14.22,14.22 0 0 1 4.57,-3.33a13.1,13.1 0 0 1 5.48,-1.14a13.71,13.71 0 0 1 4.9,0.76a10.47,10.47 0 0 1 3.45,2.2l2.2,-15.29l9.29,0l-6.61,45.47l-8.11,0l-0.19,-2.75zm-10.75,-13.57a21.8,21.8 0 0 0 -0.28,3.52a7.67,7.67 0 0 0 1.26,4.79a5.07,5.07 0 0 0 4.19,1.6a9.61,9.61 0 0 0 3.09,-0.53a13.97,13.97 0 0 0 2.8,-1.41l2.27,-15.72a9.33,9.33 0 0 0 -2.34,-1.39a7.31,7.31 0 0 0 -2.95,-0.55a6.49,6.49 0 0 0 -5.43,2.49a14.81,14.81 0 0 0 -2.61,7.2z" id="svg_3"/>
  <path class="a" d="m228.01,71.25a7.77,7.77 0 0 0 1.67,5.72c1.2,1.31 3.04,1.98 5.51,1.98a26.75,26.75 0 0 0 4.79,-0.4a33.71,33.71 0 0 0 3.8,-0.86l1.01,5.79a17.68,17.68 0 0 1 -4.98,1.89a26.93,26.93 0 0 1 -6.03,0.67a21.05,21.05 0 0 1 -6.34,-0.89a13.23,13.23 0 0 1 -4.79,-2.63a11.55,11.55 0 0 1 -3.02,-4.24a14.6,14.6 0 0 1 -1.03,-5.72c0,-0.5 0.03,-1 0.05,-1.53s0.1,-1.05 0.17,-1.62a24.4,24.4 0 0 1 2.2,-7.4a18.05,18.05 0 0 1 4,-5.38a16.11,16.11 0 0 1 5.5,-3.28a20.25,20.25 0 0 1 6.75,-1.1a12.68,12.68 0 0 1 4.62,0.79a10.77,10.77 0 0 1 3.73,2.22a10.18,10.18 0 0 1 2.49,3.47a11.05,11.05 0 0 1 0.89,4.57c0,0.34 -0.03,0.65 -0.05,0.98s-0.07,0.7 -0.12,1.06l-0.84,5.91l-19.98,0zm7.9,-12.33a7.33,7.33 0 0 0 -2.16,0.31a5.26,5.26 0 0 0 -1.89,1.06a7.51,7.51 0 0 0 -1.6,1.98a12.67,12.67 0 0 0 -1.25,3.07l11.25,0c0.05,-0.29 0.08,-0.55 0.1,-0.82s0.02,-0.5 0.02,-0.74a6.36,6.36 0 0 0 -0.33,-2.22a3.86,3.86 0 0 0 -0.96,-1.51a3.61,3.61 0 0 0 -1.44,-0.84a5.57,5.57 0 0 0 -1.74,-0.29z" id="svg_4"/>
  <path class="a" d="m251.75,85.37l0.79,-5.53l5.34,0l4.81,-33.15l-5.34,0l0.82,-5.53l19.98,0l-0.79,5.53l-5.39,0l-4.78,33.15l5.36,0l-0.81,5.53l-19.99,0z" id="svg_5"/>
  <path class="a" d="m282.27,92.19c0.45,0.12 1,0.22 1.67,0.33s1.37,0.22 2.11,0.34c0.74,0.1 1.5,0.19 2.29,0.26s1.54,0.12 2.25,0.12a14.55,14.55 0 0 0 3.38,-0.33a7.17,7.17 0 0 0 2.49,-1.06a5.38,5.38 0 0 0 1.65,-1.93a9.24,9.24 0 0 0 0.88,-2.97l0.53,-3.64a16.05,16.05 0 0 1 -1.84,1.08a10.53,10.53 0 0 1 -2.04,0.79a19.47,19.47 0 0 1 -2.34,0.5a18.33,18.33 0 0 1 -2.8,0.17a10.74,10.74 0 0 1 -4.5,-0.91a9.61,9.61 0 0 1 -3.42,-2.61a12.17,12.17 0 0 1 -2.18,-4.12a18.18,18.18 0 0 1 -0.77,-5.43a24.6,24.6 0 0 1 0.29,-3.76a28.12,28.12 0 0 1 1.94,-7.06a18.6,18.6 0 0 1 3.37,-5.29a14.22,14.22 0 0 1 4.57,-3.32a13.32,13.32 0 0 1 5.53,-1.15a18.98,18.98 0 0 1 2.85,0.19a12.66,12.66 0 0 1 2.32,0.57a12.15,12.15 0 0 1 1.94,0.96a12.49,12.49 0 0 1 1.68,1.29l0.83,-2.37l8.28,0l-4.93,34.08a18.11,18.11 0 0 1 -2.13,6.71a12.27,12.27 0 0 1 -3.87,4.11a15.18,15.18 0 0 1 -5.41,2.06a39.73,39.73 0 0 1 -6.75,0.58c-0.93,0 -1.89,-0.05 -2.85,-0.12c-0.96,-0.1 -1.89,-0.22 -2.77,-0.36s-1.7,-0.31 -2.45,-0.48a13.49,13.49 0 0 1 -1.86,-0.5l2.06,-6.73zm7.2,-23.12q-0.14,0.9 -0.22,1.8c-0.02,0.57 -0.04,1.1 -0.04,1.6a7.42,7.42 0 0 0 1.29,4.79c0.86,1.05 2.27,1.58 4.26,1.58a8.99,8.99 0 0 0 2.97,-0.51a12.38,12.38 0 0 0 2.7,-1.34l2.3,-15.79a8.05,8.05 0 0 0 -2.32,-1.34a7.69,7.69 0 0 0 -2.85,-0.51a6.62,6.62 0 0 0 -5.48,2.49a15.26,15.26 0 0 0 -2.61,7.23z" id="svg_6"/>
  <path class="a" d="m320.7,52.89l7.85,0l0.38,3.38a21.49,21.49 0 0 1 5.13,-2.97a14.77,14.77 0 0 1 5.55,-1.05a15.36,15.36 0 0 1 3.9,0.43a7.48,7.48 0 0 1 3.02,1.43a6.8,6.8 0 0 1 1.93,2.75a11.81,11.81 0 0 1 0.7,4.34c0,0.52 -0.03,1.07 -0.05,1.65a11.78,11.78 0 0 1 -0.21,1.82l-3.02,20.72l-9.29,0l3,-20.72c0.04,-0.36 0.07,-0.7 0.11,-1.01c0.03,-0.29 0.05,-0.57 0.05,-0.88a3.4,3.4 0 0 0 -0.91,-2.71a4.31,4.31 0 0 0 -2.8,-0.74a10.21,10.21 0 0 0 -3.78,0.72a18.07,18.07 0 0 0 -3.49,1.84l-3.42,23.48l-9.39,0l4.74,-32.48z" id="svg_7"/>
  <path class="a" d="m360.02,52.89l9.34,0l-4.72,32.48l-9.33,0l4.71,-32.48zm1.8,-13.07l9.52,0l-1,6.9l-9.53,0l1.01,-6.9z" id="svg_8"/>
  <path class="a" d="m375.65,52.89l4.53,0l1.24,-8.45l9.43,-0.64l-1.34,9.09l8.81,0l-0.89,6.08l-8.81,0l-2.1,14.7c-0.05,0.31 -0.07,0.57 -0.1,0.83s-0.02,0.51 -0.02,0.75a2.87,2.87 0 0 0 0.86,2.41a4.37,4.37 0 0 0 2.7,0.67a18.17,18.17 0 0 0 2.56,-0.19c0.84,-0.12 1.56,-0.26 2.16,-0.38l-0.24,6.75c-0.53,0.19 -1.08,0.33 -1.63,0.48c-0.6,0.14 -1.24,0.26 -1.89,0.36c-0.67,0.09 -1.31,0.16 -1.99,0.23a18.12,18.12 0 0 1 -1.93,0.1a19.67,19.67 0 0 1 -4.12,-0.38a7.94,7.94 0 0 1 -3.16,-1.37a6.35,6.35 0 0 1 -2.03,-2.65a10.87,10.87 0 0 1 -0.72,-4.24c0,-0.5 0.02,-1.03 0.05,-1.6a15.29,15.29 0 0 1 0.21,-1.8l2.11,-14.69l-4.81,0l1.12,-6.06z" id="svg_9"/>
  <path class="a" d="m409.52,71.25a7.77,7.77 0 0 0 1.67,5.72c1.2,1.31 3.04,1.98 5.51,1.98a26.75,26.75 0 0 0 4.78,-0.4a33.71,33.71 0 0 0 3.81,-0.86l1,5.79a17.68,17.68 0 0 1 -4.97,1.89a26.93,26.93 0 0 1 -6.03,0.67a21.05,21.05 0 0 1 -6.35,-0.89a13.43,13.43 0 0 1 -4.78,-2.63a11.55,11.55 0 0 1 -3.02,-4.24a14.6,14.6 0 0 1 -1.03,-5.72c0,-0.5 0.03,-1 0.05,-1.53s0.1,-1.05 0.17,-1.62a24.4,24.4 0 0 1 2.2,-7.4a18.05,18.05 0 0 1 4,-5.38a16.11,16.11 0 0 1 5.5,-3.28a20.25,20.25 0 0 1 6.75,-1.1a12.68,12.68 0 0 1 4.62,0.79a10.77,10.77 0 0 1 3.73,2.22a10.18,10.18 0 0 1 2.49,3.47a11.05,11.05 0 0 1 0.89,4.57c0,0.34 -0.03,0.65 -0.05,0.98s-0.07,0.7 -0.12,1.06l-0.84,5.91l-19.98,0zm7.9,-12.33a7.33,7.33 0 0 0 -2.16,0.31a5.26,5.26 0 0 0 -1.89,1.06a7.51,7.51 0 0 0 -1.6,1.98a12.67,12.67 0 0 0 -1.25,3.07l11.25,0c0.05,-0.29 0.07,-0.55 0.1,-0.82s0.02,-0.5 0.02,-0.74a6.36,6.36 0 0 0 -0.33,-2.22a3.86,3.86 0 0 0 -0.96,-1.51a3.61,3.61 0 0 0 -1.44,-0.84a5.57,5.57 0 0 0 -1.74,-0.29z" id="svg_10"/>
  <path class="a" d="m438.95,52.89l7.85,0l0.27,4.45a14.59,14.59 0 0 1 4.55,-3.95a10.19,10.19 0 0 1 4.66,-1.14c0.39,0 0.82,0 1.29,0.02s0.91,0.05 1.3,0.1l-1.65,7.85a11.75,11.75 0 0 0 -1.61,-0.22c-0.55,-0.02 -1.15,-0.05 -1.84,-0.05a6.79,6.79 0 0 0 -3.64,1.13a15.71,15.71 0 0 0 -3.44,2.96l-3.09,21.3l-9.38,0l4.73,-32.45z" id="svg_11"/>
  <path class="a" d="m39.73,0s5.81,8.93 -9,22.95s-27.04,27.21 -27.04,46.58s15.94,28.38 24.22,30.2c0,0 -11.06,-5.63 -10.2,-17.86c0,0 -0.1,-8.08 9.14,-15.31c0,0 -2.34,9.04 6.06,9.88c0,0 4.78,-0.31 5.74,-4.35s-0.74,-7.14 -3.61,-10.01s-7.13,-11.37 0.43,-18.93c0,0 -2.23,6.27 10.41,13.62s17.11,15.72 18.28,19.67s1.92,16.16 -12.54,23.29c0,0 24.77,-5.53 28.08,-28.7c0,0 3.4,-21.46 -19.46,-33.69c0,0 1.2,6.86 -5.62,7.22c-6.51,0.34 -8.29,-8.49 -7.35,-11.48s2.01,-7.76 2.01,-7.76s4.47,-13.52 -9.55,-25.32z" id="svg_12"/>
  <path class="b" d="m145.68,315.29l-48.66,-19.91s-16.27,-14.55 -47.93,-48.87c-13.93,-15.08 5.76,-35.68 5.76,-35.68l3.81,-4.62l1.03,24.74s20.82,37.82 43.92,55.89l39.25,15.79l2.82,12.66z" id="svg_13"/>
  <path class="c" d="m324.84,491.44c2.83,27.74 -30.73,-29.08 -63.78,-5.41c-25.73,18.45 -74.72,4.86 -70.29,-18.95c7.9,-42.63 -6.51,-115.46 28.62,-144.77c50.14,-41.82 101.79,133.13 105.45,169.13z" id="svg_14"/>
  <path class="d" d="m273.29,317.61c25.97,120.56 157.07,143.96 31.62,198.98c37.43,-90.73 -49.33,-82.37 -38.56,-199.5l6.94,0.52z" id="svg_15"/>
  <path class="e" d="m219.66,576.74l-22.64,7.03s-17.93,-2.8 -21.64,7.23c-2.44,6.58 -3.13,9 -3.13,9c17.73,0 63.63,-0.31 63.63,-0.31c0.31,-5.82 -1.65,-21.42 -1.65,-21.42l-14.57,-1.53z" id="svg_16"/>
  <path class="e" d="m276.69,576.74l22.64,7.03s17.93,-2.8 21.64,7.23c2.44,6.58 3.13,9 3.13,9c-17.73,0 -63.64,-0.31 -63.64,-0.31c-0.31,-5.82 1.65,-21.42 1.65,-21.42l14.58,-1.53z" id="svg_17"/>
  <path class="f" d="m206.11,462.91l28.1,115.36l-14.55,-1.53l-12.57,-55.26c-4.88,-23.67 -29.44,-68.31 -29.44,-68.31l28.46,9.74z" id="svg_18"/>
  <path class="f" d="m246.56,464.47l15.58,113.8l14.55,-1.53l-9.5,-59.14c-2.18,-24.08 2.56,-59.45 2.56,-59.45l-23.19,6.32z" id="svg_19"/>
  <polygon class="g" id="svg_20" points="276.689 576.737 262.114 578.245 253.522 520.016 268.145 520.016 276.689 576.737"/>
  <polygon class="g" id="svg_21" points="220.949 522.601 234.232 578.245 219.657 576.737 206.637 522.601 220.949 522.601"/>
  <path class="g" d="m178.47,457c7.8,16.75 19.36,41.4 30.11,70.87l13.37,0l-10.48,-55.43c12.21,4.71 19.03,4.9 29.99,4.11l13.76,51.29l13.31,-1.82c-1.63,-23.88 -2.68,-47.84 2.94,-62.1a90.76,90.76 0 0 0 5.7,-25.54l-106.05,-13.11s1.15,18.42 7.35,31.73z" id="svg_22"/>
  <path class="h" d="m277.17,438.4c1.75,-12.06 3.2,-23.55 4.43,-34.29c2.7,-24.17 4.18,-44.59 4.97,-59.26c0.87,-15.84 0.94,-25.01 0.94,-25.01c-7.47,-7.54 -18.31,-11.77 -26.45,-14.02a80.45,80.45 0 0 0 -11.13,-2.35c-4.78,1.08 -12.28,5.77 -17.11,5.48c-5,-0.31 -12.45,-5.55 -17.18,-7.32a68.7,68.7 0 0 0 -9.07,0.81c-7.85,1.15 -17.67,3.35 -30.04,4.55c0,0 -1.53,20.25 -2.56,39.03c-0.96,17.43 -1.99,38.97 -2.51,57.32c-0.24,8.16 -0.36,15.7 -0.32,21.97c7.81,0.96 15.63,1.94 23.44,2.9q30.98,3.84 61.93,7.66c6.87,0.81 13.77,1.67 20.66,2.53z" id="svg_23"/>
  <path class="i" d="m176.51,306.96s-24.49,-3.82 -39.28,-11.58l-6.84,16.85c19.69,12.56 44.63,18.95 44.63,18.95l1.49,-24.22z" id="svg_24"/>
  <path class="b" d="m261.95,440.15l2.92,10.08l7.51,12.66l33.56,-14l6.22,-10.75l0,-0.02c17.54,-14.03 26.44,-40.02 26.87,-41.12l0.75,-1.87l-22.24,-31.35l-30.27,-42.67l-0.12,-0.17l-0.05,1.7c0,0.07 -0.02,0.12 -0.02,0.19l-0.43,16.25l25.29,32.5l18.93,24.27c-2.49,5.46 -12.25,18.24 -25.96,27.07a2.07,2.07 0 0 1 -0.24,0.17c-4.22,2.37 -24.61,-6.82 -24.61,-6.82l-1.46,11.27l-16.65,12.61z" id="svg_25"/>
  <path class="i" d="m286.55,344.83c4.38,5.53 8.88,13.21 21.3,32.55l4.14,-5.8l5.58,-7.77l2.73,-3.83c-11.56,-18.79 -24.56,-33.58 -32.86,-40.19c0,0 -0.05,0.48 -0.17,1.32c-0.05,0.41 -0.1,0.93 -0.17,1.53c0,0.05 -0.02,0.12 -0.02,0.19a184.34,184.34 0 0 0 -0.53,22z" id="svg_26"/>
  <path class="j" d="m286.57,249.98c-0.33,7.83 3.23,14 7.9,14.53c8.9,0.98 5.24,-7.66 7.52,-18.5c1.6,-7.66 -1.63,-9.65 -6.32,-9.84c-4.72,-0.19 -8.79,5.98 -9.1,13.81" id="svg_57"/>
  <path class="j" d="m189.79,243.88c-0.65,7.8 -4.96,13.5 -9.67,13.4c-8.95,-0.14 -4.24,-8.26 -5.15,-19.29c-0.62,-7.8 2.83,-9.36 7.52,-8.95s7.94,7.03 7.3,14.84" id="svg_58"/>
  <path class="b" d="m185.29,298.18a21.48,21.48 0 0 0 2.32,2.35c6.2,5.38 15.15,8.76 23.48,10.84a117.14,117.14 0 0 0 20.13,3.13a137.55,137.55 0 0 0 35.2,-3.28c6.2,-1.5 11.71,-3.63 15.3,-6.51c13.9,-11.17 14.12,-45.3 15.12,-76.92c0.24,-7.2 -0.33,-10.91 -3.57,-17.49c-0.71,-1.46 -2.58,-2.73 -4.33,-3.59c-1.86,-0.93 -9.64,-2.18 -13.93,-2.78c-9.35,-1.31 -17.73,-1.36 -36.04,-2.39c-11.44,-0.65 -21.92,-1.05 -30.23,-1.17c-10.26,-0.15 -17.23,0.19 -18.62,1.1c-3.59,2.34 -6.98,10.17 -8.59,18.45c-0.33,1.68 -0.57,3.37 -0.74,5.05c-3.81,39.42 -5.31,61.68 4.5,73.21z" id="svg_59"/>
  <path class="k" d="m228.54,253.79c-0.84,8.64 -10.18,13.37 -18.89,11.08c-7.11,-1.87 -11.51,-8 -10.93,-13.96a12.39,12.39 0 0 1 5.43,-8.9a11.83,11.83 0 0 1 1.6,-0.96a15.61,15.61 0 0 1 3.4,-1.29a14.78,14.78 0 0 1 2.97,-0.45a15.51,15.51 0 0 1 3.16,0.09a16.22,16.22 0 0 1 4.11,1.03a16.98,16.98 0 0 1 2.11,1.01c4.57,2.53 7.54,7.13 7.04,12.35" id="svg_60"/>
  <path class="l" d="m228.39,255.41c-0.74,7.71 -9.5,11.85 -17.8,9.7c-6.85,-1.78 -11.16,-7.38 -10.65,-12.81a10.72,10.72 0 0 1 5.21,-7.97a15.65,15.65 0 0 1 1.54,-0.84a14.84,14.84 0 0 1 3.15,-1.05c0.03,0 0.08,-0.02 0.1,-0.02a15.47,15.47 0 0 1 2.85,-0.34l0.96,0a14.91,14.91 0 0 1 2.05,0.17c0.41,0.05 0.79,0.12 1.18,0.19l0,0a15.54,15.54 0 0 1 2.72,0.81l1.01,0.44c0.34,0.16 0.67,0.33 0.98,0.5c4.33,2.42 7.13,6.58 6.7,11.22" id="svg_61"/>
  <path class="m" d="m224.97,254.81c-0.43,4.46 -3.66,7.81 -7.2,7.45c-3.57,-0.34 -6.08,-4.24 -5.65,-8.69s3.66,-7.8 7.2,-7.44c3.54,0.33 6.08,4.23 5.65,8.68" id="svg_62"/>
  <path class="n" d="m223.8,254.72c-0.36,3.66 -2.99,6.39 -5.91,6.1s-4.98,-3.47 -4.65,-7.11c0.36,-3.63 2.99,-6.39 5.91,-6.1c2.92,0.26 5.01,3.45 4.65,7.11" id="svg_63"/>
  <path class="o" d="m221.69,254.5c-0.21,2.21 -1.79,3.83 -3.54,3.67s-2.99,-2.09 -2.78,-4.29s1.8,-3.83 3.55,-3.66s2.99,2.08 2.77,4.28" id="svg_64"/>
  <path class="l" d="m217.93,251.85a1.54,1.54 0 1 1 -1.38,-1.68a1.55,1.55 0 0 1 1.38,1.68" id="svg_65"/>
  <path class="p" d="m204.2,247.25a11.47,11.47 0 0 1 1.62,-0.81a15.28,15.28 0 0 1 3.5,-1.06a17.64,17.64 0 0 1 3.04,-0.33a20.43,20.43 0 0 1 3.2,0.17a18.64,18.64 0 0 1 4.17,1.05a21.79,21.79 0 0 1 2.15,0.96a13.69,13.69 0 0 1 6.56,6.82c-0.17,-4.09 -2.82,-7.68 -6.72,-9.84a19.37,19.37 0 0 0 -2.02,-0.96a16.74,16.74 0 0 0 -3.9,-1.02a17.93,17.93 0 0 0 -3.01,-0.17a15.71,15.71 0 0 0 -2.85,0.33a14.22,14.22 0 0 0 -4.81,1.92a10.86,10.86 0 0 0 -5,6.72a12.15,12.15 0 0 1 4.07,-3.78" id="svg_66"/>
  <path class="k" d="m245.5,255.41c-0.83,8.64 7.42,15.08 16.42,14.48c7.35,-0.48 12.83,-5.65 13.41,-11.61a12.39,12.39 0 0 0 -3.64,-9.76a13.87,13.87 0 0 0 -1.39,-1.24a14.89,14.89 0 0 0 -3.09,-1.92a16.97,16.97 0 0 0 -5.93,-1.55a16.44,16.44 0 0 0 -4.22,0.21a18.59,18.59 0 0 0 -2.27,0.58c-4.98,1.67 -8.78,5.6 -9.29,10.81" id="svg_67"/>
  <path class="l" d="m273.87,259.43c-0.53,5.41 -5.82,10.1 -12.9,10.53c-8.57,0.51 -16.37,-5.21 -15.63,-12.92c0.45,-4.64 3.99,-8.18 8.68,-9.72c0.36,-0.12 0.7,-0.21 1.08,-0.31c0.36,-0.09 0.72,-0.17 1.08,-0.24a18.52,18.52 0 0 1 2.82,-0.28l0,0c0.41,0 0.79,0 1.2,0.02a14.73,14.73 0 0 1 2.03,0.24c0.31,0.05 0.63,0.12 0.94,0.19a16.54,16.54 0 0 1 2.73,0.89c0.02,0.02 0.07,0.02 0.09,0.04a13.61,13.61 0 0 1 2.9,1.66a12.34,12.34 0 0 1 1.34,1.12a10.53,10.53 0 0 1 3.64,8.78" id="svg_68"/>
  <path class="m" d="m261.68,258.36c-0.43,4.45 -3.66,7.8 -7.2,7.44c-3.57,-0.34 -6.08,-4.24 -5.65,-8.69s3.66,-7.8 7.21,-7.44c3.54,0.33 6.07,4.24 5.64,8.69" id="svg_69"/>
  <path class="n" d="m260.51,258.26c-0.36,3.66 -2.99,6.39 -5.91,6.1s-4.98,-3.47 -4.64,-7.1c0.36,-3.64 2.99,-6.39 5.91,-6.11c2.94,0.27 5,3.45 4.64,7.11" id="svg_70"/>
  <path class="o" d="m258.43,258.05c-0.22,2.2 -1.8,3.82 -3.54,3.66s-3,-2.08 -2.78,-4.29s1.8,-3.83 3.54,-3.66c1.73,0.17 2.99,2.08 2.78,4.29" id="svg_71"/>
  <path class="l" d="m254.65,255.39a1.54,1.54 0 1 1 -1.39,-1.68a1.53,1.53 0 0 1 1.39,1.68" id="svg_72"/>
  <path class="p" d="m270.66,253.64c-0.46,-0.38 -0.94,-0.76 -1.44,-1.12a15.13,15.13 0 0 0 -3.2,-1.7a20.83,20.83 0 0 0 -2.92,-0.91a19.74,19.74 0 0 0 -7.47,-0.19a22.97,22.97 0 0 0 -2.3,0.52a13.69,13.69 0 0 0 -7.73,5.46c0.93,-3.97 4.24,-6.99 8.47,-8.38a15.77,15.77 0 0 1 2.16,-0.55a17.32,17.32 0 0 1 4.02,-0.26a16.1,16.1 0 0 1 2.99,0.43a16.54,16.54 0 0 1 2.73,0.89a14.44,14.44 0 0 1 2.99,1.67a15.66,15.66 0 0 1 1.34,1.1a10.94,10.94 0 0 1 3.64,7.54a12.51,12.51 0 0 0 -3.28,-4.5" id="svg_73"/>
  <polygon class="q" id="svg_74" points="200.654 237.918 226.454 235.237 225.568 228.273 198.428 233.107 200.654 237.918"/>
  <polygon class="r" id="svg_75" points="224.348 227.1 197.208 231.959 199.434 236.745 225.233 234.065 224.348 227.1"/>
  <polygon class="q" id="svg_76" points="276.282 244.595 251.679 237.75 253.57 230.953 279.154 240.168 276.282 244.595"/>
  <polygon class="r" id="svg_77" points="275.708 242.728 251.105 235.884 252.996 229.087 278.556 238.325 275.708 242.728"/>
  <path class="s" d="m184.57,189.19a17.49,17.49 0 0 1 9.45,1.46c3.5,1.58 7.16,3.02 10.25,5.41c1.98,1.55 6.63,6.6 6.01,9.48c-0.48,2.17 -2.57,1.22 -4.43,1.22c-3.52,0 -7.52,0.31 -10.53,1.94c-10.41,5.6 -12.66,19.88 -14,30.37c-0.29,2.34 -0.05,5.55 -1.68,7.37c-4.71,-3.04 -5.05,-13.67 -6.2,-18.72c-2.44,-10.5 -3.52,-25.25 3.64,-34.32a11.3,11.3 0 0 1 7.49,-4.21" id="svg_78"/>
  <path class="r" d="m212.6,202.83a22.37,22.37 0 0 0 -10.34,-1.48c-0.39,0.05 -0.74,0.12 -1.13,0.19c-0.16,0.02 -0.36,0.07 -0.52,0.1c-0.22,0.04 -0.41,0.09 -0.63,0.14c-0.33,0.07 -0.67,0.17 -1,0.26c-0.12,0.03 -0.22,0.07 -0.34,0.1l0,0c-6.43,1.98 -13.21,7.06 -15.77,12.87c-4.26,9.72 -2.51,19.08 -2.2,29.2a23.16,23.16 0 0 0 1.12,-4.57c1.32,-10.48 3.59,-24.77 14.01,-30.37c3.01,-1.63 7.03,-1.94 10.53,-1.94c0.88,0 1.79,0.22 2.56,0.22c0.64,0.24 1.27,0.48 1.89,0.71c0.48,0.2 0.93,0.39 1.39,0.58l0.43,-6.01z" id="svg_79"/>
  <path class="s" d="m304.64,218.56a61.78,61.78 0 0 1 -1.58,17.42c-0.86,3.76 -2.44,12.28 -6.2,14.19c-2.2,-3.59 -0.86,-8.49 -1.34,-12.47c-0.47,-4.07 -1.05,-8.83 -3.18,-12.49c-4.38,-7.64 -12.49,-12.95 -9.57,-22.55c2.15,-7.03 9.76,-5.95 14.67,-1.93c5.1,4.21 6.84,11.53 7.2,17.83" id="svg_80"/>
  <path class="s" d="m292.34,225.19c-8.64,-12.45 -13.4,-15.01 -31.49,-17.02c-0.75,-0.1 -1.51,-0.17 -2.35,-0.26a162.22,162.22 0 0 0 -31.76,-1.8c-10.84,1.7 -14.57,10.29 -11.41,17.62a21.68,21.68 0 0 1 -7.83,-17.57c-13.14,-3.16 -18.38,-15.51 -18.38,-15.51s-0.91,-11.42 9.74,-20.44a9.63,9.63 0 0 1 -5.55,-5.67c2.03,2.3 8.23,3.42 9.28,2.92c1.8,-0.86 3.54,-2.06 5.65,-2.97a3.27,3.27 0 0 1 -1.24,-1.84a3.62,3.62 0 0 0 3.32,1c8.81,-2.03 16.45,-4.38 28.99,-4.28c52.72,0.45 65.98,37.55 53.03,65.82z" id="svg_81"/>
  <path class="t" d="m271.18,179.78c-5.4,8.93 -12.68,10.54 -22.3,12.4c-4.17,0.82 -8.04,1.92 -12.28,2.68c-8.11,1.46 -16.27,2.59 -21.01,10.37c-2.83,-3.69 -3.07,-8.91 -1.61,-13.19a16.99,16.99 0 0 1 6.99,-8.62c5.17,-3.16 13.5,-2.87 16.54,-8.49c-1.1,4.06 -2.92,7.03 -6.63,9.07c-2.87,1.58 -8.33,3.06 -7.99,7.27c3.99,-7.34 20.05,-5.5 26.87,-6.91c10.27,-2.11 20.52,-4.6 23.55,-16.09c0.17,3.76 0.44,7.28 -2.13,11.51" id="svg_82"/>
  <path class="r" d="m242.44,206.21c0.77,0 23.89,2.65 35.13,-21.76c1.56,13.26 -3.8,21.97 -3.8,21.97s6.56,-0.62 7.92,-4.5c0.29,3.86 -1.36,5.36 -1.77,7.28c1.03,0.6 4.04,0.29 7.37,-1.44c3.47,5.63 5,10.15 3.45,15.18c-9.96,-13.43 -20.42,-13.41 -48.3,-16.73" id="svg_83"/>
  <path class="r" d="m207.52,207.43s-0.81,-7.04 4.57,-17.57c-6.17,1.68 -13.66,10.08 -13.95,14.22l9.38,3.35z" id="svg_84"/>
  <path class="t" d="m189.98,197.9c4.48,-0.5 6.1,-4.26 1.41,-6.08c-5.12,-1.96 -10.48,1.3 -12.92,5.68c-2.42,4.33 -1.34,7.49 -1.75,11.84c0.72,-7.32 6.75,-10.7 13.26,-11.44" id="svg_85"/>
  <path class="q" d="m293.3,227.2c-0.03,-0.03 -0.03,-0.05 -0.05,-0.08c-0.53,-0.76 -1.05,-1.5 -1.55,-2.2c-9.94,-13.42 -20.4,-13.38 -48.28,-16.73a136.24,136.24 0 0 0 -15.7,-0.09c-10.84,1.7 -14.57,10.29 -11.41,17.61a21.3,21.3 0 0 1 -6.08,-8.16a21.05,21.05 0 0 0 5.12,6.15c-3.16,-7.32 0.57,-15.91 11.42,-17.61a141.34,141.34 0 0 1 15.67,0.09c27.88,3.33 38.34,3.28 48.3,16.71c0.52,0.72 1.05,1.48 1.6,2.27a17.42,17.42 0 0 1 0.96,2.04z" id="svg_86"/>
  <path class="q" d="m207.67,209.39a1.81,1.81 0 0 0 -0.36,-0.02c-3.5,0 -7.52,0.31 -10.53,1.93c-10.39,5.6 -12.66,19.89 -13.98,30.38c-0.19,1.55 -1.03,2.92 -3.14,4.76a5.48,5.48 0 0 0 1.2,-2.71a21.4,21.4 0 0 0 0.96,-4.07c1.32,-10.48 3.59,-24.77 14,-30.37c3.02,-1.62 7.01,-1.93 10.53,-1.93a10.08,10.08 0 0 1 1.2,0.09l0,0a13.38,13.38 0 0 0 0.12,1.94z" id="svg_87"/>
  <path class="u" d="m264.34,274.65s3.3,14.48 -28.79,14.53c-30.37,0.05 -26.78,-15.17 -26.78,-15.17c-7.4,14.6 -0.29,30.37 26.28,30.03c26.56,-0.35 34.29,-17.01 29.29,-29.39" id="svg_88"/>
  <path class="l" d="m235.05,304.04c-15.44,0.2 -24.3,-5.02 -27.57,-12.32c-0.6,-3.16 0.38,-7.18 1.74,-12.9c1.63,4.45 7.33,10.39 26.33,10.36c19.96,-0.02 26.23,-5.65 28.12,-9.88a47.45,47.45 0 0 1 -1.15,13.19c-4.33,6.43 -13.16,11.36 -27.47,11.55" id="svg_89"/>
  <path class="v" d="m207.81,285.14c0.34,-1.85 0.84,-3.93 1.41,-6.32c1.63,4.45 7.33,10.39 26.33,10.36c19.96,-0.02 26.23,-5.65 28.12,-9.88a52.03,52.03 0 0 1 -0.34,8.83c-1.81,-1.25 -1.57,-3.28 -7.77,-0.43c-12.69,5.86 -29.63,4.9 -38.49,0.33c-5.22,-2.68 -6.99,-5.24 -9.26,-2.89" id="svg_90"/>
  <path class="v" d="m258.19,292.51s-10.46,5.31 -22.04,3.56c1.07,2.42 16.41,2.04 22.04,-3.56" id="svg_91"/>
  <rect class="d" height="12.3" id="svg_92" width="57.08" x="13.23" y="143.67"/>
  <path class="a" d="m83.55,106.67a47,47 0 0 1 -83.55,0l83.55,0z" id="svg_93"/>
  <rect class="w" height="25.06" id="svg_94" width="70.1" x="6.73" y="118.61"/>
  <path class="d" d="m19.39,155.97l20.48,123.23a1.89,1.89 0 0 0 3.76,0l20.41,-123.23l-44.65,0z" id="svg_95"/>
  <polygon class="w" id="svg_96" points="64.069 155.971 58.755 187.994 24.723 187.994 19.386 155.971 64.069 155.971"/>
  <polygon class="b" id="svg_97" points="44.755 231.911 37.91 246.39 27.26 243.279 22.234 209.366 27.619 205.489 28.48 210.682 42.696 215.469 44.755 231.911"/>
  <polygon class="b" id="svg_98" points="58.636 206.207 41.763 200.678 42.696 206.901 56.003 214.942 58.636 206.207"/>
  <text fill="#1167a0" font-family="Fantasy" font-size="24" id="svg_99" stroke-width="0" text-anchor="middle" transform="rotate(4.28915 226.834 368.2)" x="226.83" xml:space="preserve" y="377.8">GoZoom</text>
 </g>
</svg>