<?xml version="1.0"?>
<svg width="610.57902" height="520" xmlns="http://www.w3.org/2000/svg" xmlns:svg="http://www.w3.org/2000/svg">
 <defs>
  <style>.a{fill:#fb503b;}.b{fill:#004d71;}.c{fill:#0090d0;}.d{fill:#eda972;}.e{fill:#4d4d4d;}.f{fill:#cccbcb;}.g{fill:#f2f7ff;}.h{fill:#ebba91;}.i{fill:#006b98;}.j{fill:#e3a876;}.k{fill:#221f1f;}.l,.t{fill:#fff;}.m{fill:#00425c;}.n{fill:#28aae1;}.o{fill:#323031;}.p{fill:#75a4bb;opacity:0.5;}.p,.q,.t{isolation:isolate;}.q{opacity:0.06;}.r{fill:#95613c;}.s{fill:#c39769;}.t{opacity:0.2;}.u{fill:#bd9471;}.v{fill:#cc6e7e;}.w{fill:#b84b5e;}</style>
 </defs>
 <title>mascot-balance</title>
 <g class="layer">
  <title>Layer 1</title>
  <path class="a" d="m277.89,69.12c-1.45,-1.61 -21.18,-26.34 -24.68,-30.54s-5.16,-3.44 -7.31,-3.12s-27.16,4.52 -30.06,5s-4.73,1.67 -2.96,4.14c1.62,2.21 18.02,25.54 21.67,30.65l-65.38,15.65l-52,-86.95c-2.04,-3.06 -2.47,-4.14 -7.21,-3.92s-40.81,3.22 -43.34,3.44s-5.37,1.34 -2.79,7.42s43.55,94.37 44.68,96.95s4.09,6.72 11.08,5.05c7.1,-1.72 31.83,-8.17 45.33,-11.66c7.15,12.9 21.67,39.09 24.36,42.85c3.6,5 6.07,4.2 11.56,2.53c4.3,-1.29 67.37,-23.98 70.22,-25.17s4.57,-1.99 2.69,-4.84c-1.4,-2.09 -18.06,-24.35 -26.78,-36.02c5.97,-1.62 27.21,-7.26 29.47,-7.85c2.53,-0.7 2.9,-1.99 1.45,-3.61zm-118.83,24.31c-0.81,0.16 -37.43,8.92 -39.36,9.35s-1.94,0.22 -2.15,-0.43s-43.56,-90.01 -44.15,-91.09c-0.59,-1.12 -0.59,-1.98 0,-1.98s34.57,-3.07 35.81,-3.12c1.18,-0.06 1.08,0.21 1.51,0.96c0,0 47.96,82.81 48.82,84.26c0.81,1.46 0.27,1.89 -0.48,2.05zm103.24,19.36c0.59,0.91 1.18,1.5 -0.65,2.15s-62,20.97 -63.12,21.45s-2.1,0.65 -3.61,-1.5s-21.08,-36.03 -21.08,-36.03l63.78,-16.62c1.61,-0.48 2.09,-0.86 3.06,0.76s21.03,28.87 21.62,29.79zm4.09,-45.28c-1.46,0.32 -24.85,6.13 -24.85,6.13l-19.14,-26.29c-0.54,-0.76 -0.97,-1.51 0.38,-1.72c1.34,-0.17 23.12,-4.09 24.09,-4.36c0.96,-0.22 1.82,-0.48 3.01,1.18s17.74,22.59 18.39,23.39c0.64,0.86 -0.43,1.35 -1.88,1.67z" id="svg_1"/>
  <path class="a" d="m335.97,99.24a2.76,2.76 0 0 1 -0.86,-2.1l0,-53.02a1.09,1.09 0 0 1 1.07,-1.13l4.52,0a1.09,1.09 0 0 1 1.13,1.08l0,49.68l20.81,0a1.09,1.09 0 0 1 1.13,1.08l0,4.08a1.09,1.09 0 0 1 -1.08,1.13l-24.63,0a2.39,2.39 0 0 1 -2.09,-0.8z" id="svg_2"/>
  <path class="a" d="m375.22,97.62a12.93,12.93 0 0 1 -0.38,-18.39c2.42,-2.36 5.86,-3.82 10.22,-4.46l10.7,-1.51a5.08,5.08 0 0 0 3.44,-1.61a5.59,5.59 0 0 0 1.08,-3.66l0,-0.64a7.67,7.67 0 0 0 -3.07,-6.35a12.06,12.06 0 0 0 -7.69,-2.42a12.75,12.75 0 0 0 -6.29,1.46a11.19,11.19 0 0 0 -4.25,3.97a2,2 0 0 1 -1.66,1.08a1.71,1.71 0 0 1 -1.08,-0.43l-2.2,-1.51a2.02,2.02 0 0 1 -0.76,-1.39a1.45,1.45 0 0 1 0.27,-0.81a16.15,16.15 0 0 1 6.56,-6.18a19.77,19.77 0 0 1 9.57,-2.26a20.93,20.93 0 0 1 8.82,1.83a14.04,14.04 0 0 1 5.97,5.21a14.29,14.29 0 0 1 2.1,7.8l0,31.56a1.09,1.09 0 0 1 -1.08,1.13l-3.49,0a1.09,1.09 0 0 1 -1.13,-1.07l0,-5.7a18.45,18.45 0 0 1 -6.56,5.8a18.7,18.7 0 0 1 -8.66,2.1a15.15,15.15 0 0 1 -10.43,-3.55zm18.34,-4.3a16.45,16.45 0 0 0 5.16,-5.38a12.23,12.23 0 0 0 1.83,-6.34l0,-3.39c-1.29,0.16 -5.54,0.75 -12.64,1.72l-2.31,0.32q-8.23,1.21 -8.23,7.75a6.83,6.83 0 0 0 2.47,5.43a9.82,9.82 0 0 0 6.4,2.04a13.65,13.65 0 0 0 7.32,-2.15z" id="svg_3"/>
  <path class="a" d="m417.16,99.77a1.19,1.19 0 0 1 -0.32,-0.8l0,-3.77a1.09,1.09 0 0 1 1.07,-1.13l6.89,0l0,-34.63l-6.83,0a1.09,1.09 0 0 1 -1.13,-1.07l0,-3.6a1.09,1.09 0 0 1 1.07,-1.13l10.33,0a2.95,2.95 0 0 1 2.96,2.95l0,0l0,4.09l4.78,-3.71a21.32,21.32 0 0 1 4.79,-3.06a9.86,9.86 0 0 1 3.92,-0.81l2.48,0a1.22,1.22 0 0 1 0.86,0.32a0.94,0.94 0 0 1 0.27,0.81l0,4.03a1.09,1.09 0 0 1 -1.08,1.13l-1.88,0a8.84,8.84 0 0 0 -3.87,0.86a34.95,34.95 0 0 0 -5.43,3.76l-4.84,3.88l0,26.13l9.51,0a1.09,1.09 0 0 1 1.13,1.08l0,3.81a1.09,1.09 0 0 1 -1.07,1.13l-22.8,0a0.77,0.77 0 0 1 -0.81,-0.27z" id="svg_4"/>
  <path class="a" d="m458.46,97.62a12.93,12.93 0 0 1 -0.38,-18.39c2.42,-2.36 5.86,-3.82 10.22,-4.46l10.7,-1.51a5.08,5.08 0 0 0 3.44,-1.61a5.59,5.59 0 0 0 1.08,-3.66l0,-0.64a7.67,7.67 0 0 0 -3.07,-6.35a12.06,12.06 0 0 0 -7.69,-2.42a12.75,12.75 0 0 0 -6.29,1.46a11.19,11.19 0 0 0 -4.25,3.97a2,2 0 0 1 -1.66,1.08a1.71,1.71 0 0 1 -1.08,-0.43l-2.2,-1.51a2.02,2.02 0 0 1 -0.76,-1.39a1.45,1.45 0 0 1 0.27,-0.81a16.15,16.15 0 0 1 6.56,-6.18a19.77,19.77 0 0 1 9.57,-2.26a20.93,20.93 0 0 1 8.82,1.83a14.04,14.04 0 0 1 5.97,5.21a14.29,14.29 0 0 1 2.1,7.8l0,31.56a1.09,1.09 0 0 1 -1.08,1.13l-3.49,0a1.09,1.09 0 0 1 -1.13,-1.07l0,-5.7a18.45,18.45 0 0 1 -6.56,5.8a18.7,18.7 0 0 1 -8.66,2.1a15.24,15.24 0 0 1 -10.43,-3.55zm18.33,-4.3a16.45,16.45 0 0 0 5.17,-5.38a12.23,12.23 0 0 0 1.83,-6.34l0,-3.39c-1.3,0.16 -5.54,0.75 -12.64,1.72l-2.31,0.32q-8.23,1.21 -8.23,7.75a6.83,6.83 0 0 0 2.47,5.43a9.82,9.82 0 0 0 6.4,2.04a13.38,13.38 0 0 0 7.31,-2.15z" id="svg_5"/>
  <path class="a" d="m514.6,99.83a1.34,1.34 0 0 1 -0.6,-0.81l-15.43,-43.66a1.93,1.93 0 0 1 -0.11,-0.59a1.07,1.07 0 0 1 0.38,-0.86a1.3,1.3 0 0 1 0.97,-0.38l3.76,0a2.19,2.19 0 0 1 0.97,0.27a1.34,1.34 0 0 1 0.59,0.8l13.02,37.48l12.74,-37.48a1.76,1.76 0 0 1 0.59,-0.8a1.86,1.86 0 0 1 0.97,-0.27l3.6,0a1.22,1.22 0 0 1 1.13,0.54a1.37,1.37 0 0 1 0.11,1.29l-15.43,43.66a1.76,1.76 0 0 1 -0.6,0.81a1.86,1.86 0 0 1 -0.96,0.27l-4.68,0a1.53,1.53 0 0 1 -1.02,-0.27z" id="svg_6"/>
  <path class="a" d="m553.15,97.73a17.89,17.89 0 0 1 -8.87,-15.54l0,-11.78a17.83,17.83 0 0 1 26.67,-15.59a18.14,18.14 0 0 1 6.61,6.61a17.67,17.67 0 0 1 2.37,8.98l0,5.6a2.95,2.95 0 0 1 -2.96,2.95l-26.29,0l0,3.61a11.22,11.22 0 0 0 1.5,5.75a10.93,10.93 0 0 0 4.14,4.14a10.72,10.72 0 0 0 5.76,1.51l11.93,0a1.09,1.09 0 0 1 1.13,1.07l0,3.82a1.09,1.09 0 0 1 -1.07,1.13l-11.99,0a16.04,16.04 0 0 1 -8.93,-2.26zm20.38,-24.63l0,-3.06a11.39,11.39 0 0 0 -11.51,-11.4a11.52,11.52 0 0 0 -5.64,1.5a10.93,10.93 0 0 0 -4.14,4.14a10.72,10.72 0 0 0 -1.51,5.76l0,3.06l22.8,0z" id="svg_7"/>
  <path class="a" d="m595.2,99.24a2.76,2.76 0 0 1 -0.86,-2.1l0,-53.34l-7.64,0a1.09,1.09 0 0 1 -1.12,-1.08l0,-3.82a1.09,1.09 0 0 1 1.07,-1.13l11.13,0a2.95,2.95 0 0 1 2.96,2.96l0,0l0,53.34l8.71,0a1.09,1.09 0 0 1 1.13,1.08l0,3.82a1.09,1.09 0 0 1 -1.08,1.13l-12.2,0a2.65,2.65 0 0 1 -2.1,-0.86z" id="svg_8"/>
  <path class="b" d="m49.36,422.89c-2.2,21.51 23.82,-22.53 49.47,-4.2c19.95,14.31 57.97,3.77 54.53,-14.68c-6.13,-33.07 5.05,-89.53 -22.21,-112.27c-38.88,-32.43 -78.94,103.24 -81.79,131.15z" id="svg_9"/>
  <path class="c" d="m89.37,288.08c-20.11,93.51 -121.79,111.63 -24.52,154.33c-29.04,-70.39 38.28,-63.88 29.9,-154.7l-5.38,0.37z" id="svg_10"/>
  <path class="d" d="m141.47,400.79l-21.77,89.47l11.29,-1.18l9.73,-42.85c3.76,-18.34 22.85,-52.97 22.85,-52.97l-22.1,7.53z" id="svg_11"/>
  <path class="e" d="m168.63,371.59s-0.92,14.3 -5.7,24.63c-5.7,12.26 -31.94,92.86 -31.94,92.86l-11.29,1.18l17.63,-82.05c-9.46,3.65 -14.73,3.82 -23.23,3.17l-36.18,68.51l-11.3,0.96s28.23,-69.15 24.2,-79.31a71.29,71.29 0 0 1 -4.41,-19.79l82.22,-10.16z" id="svg_12"/>
  <path class="f" d="m66.57,480.85l-16.19,8.72s-14.03,0.48 -15.43,8.71c-0.91,5.37 -1.07,7.31 -1.07,7.31c13.49,-2.64 48.39,-9.63 48.39,-9.63c-0.64,-4.46 -4.41,-16.07 -4.41,-16.07l-11.29,0.96z" id="svg_13"/>
  <path class="g" d="m86.36,381.75c-1.35,-9.35 -2.48,-18.28 -3.44,-26.61c-2.1,-18.77 -3.23,-34.58 -3.88,-45.98c-0.64,-12.31 -0.69,-19.41 -0.69,-19.41c5.8,-5.86 14.19,-9.14 20.48,-10.86a63.04,63.04 0 0 1 8.66,-1.83c3.71,0.81 9.52,4.46 13.28,4.25c3.87,-0.27 9.68,-4.3 13.34,-5.7a52.61,52.61 0 0 1 7.04,0.64c6.08,0.92 9.84,0.97 21.35,-0.64c0,0 3.12,19.84 3.92,34.41c0.76,13.5 1.56,30.22 1.94,44.47c0.16,6.35 0.27,12.15 0.27,17.05c-6.08,0.75 -12.1,1.5 -18.18,2.25q-24.03,2.99 -48.01,5.97c-5.38,0.7 -10.76,1.35 -16.08,1.99z" id="svg_14" transform="matrix(1 0 0 1 0 0)"/>
  <path class="h" d="m204.49,233.18l-23.44,38.39l-6.72,-1.88l23.01,-38.93s5.76,-20.27 3.66,-41.13c-2.37,-3.12 -9.73,-7.42 -9.73,-7.42l-5.27,-17l2.42,-3.17l4.46,8.87l-0.38,-23.87l3.87,0.38l2.59,17.69l8.38,-1.67l7.8,1.67l1.88,14.14l-3.38,9.89a295.39,295.39 0 0 1 -9.15,44.04z" id="svg_15"/>
  <path class="i" d="m162.44,275.66s10.97,-7.37 20.12,-25.86l10.59,7.26c-14.9,30.22 -27.8,39.95 -27.8,39.95l-2.91,-21.35z" id="svg_16"/>
  <path class="h" d="m37.75,348.25l17.26,-24.3l23.5,-33.13l0.1,-0.1l0.06,1.29l0,0.16l0.32,12.58l-19.63,25.22l-14.68,18.82l-6.93,-0.54z" id="svg_17"/>
  <path class="i" d="m79.04,309.21c-3.38,4.31 -6.88,8.98 -16.5,23.99l-11.56,-9.95c8.98,-14.57 20.91,-28.34 27.37,-33.45c0,0 0.05,0.38 0.1,1.02c0.06,0.33 0.06,0.7 0.11,1.19l0,0.16a114.38,114.38 0 0 1 0.48,17.04z" id="svg_18"/>
  <path class="j" d="m154.49,231.25c0.43,6.07 3.76,10.48 7.36,10.48c6.94,-0.05 3.39,-6.34 4.14,-14.89c0.54,-6.03 -2.09,-7.26 -5.75,-6.99c-3.6,0.21 -6.18,5.37 -5.75,11.4" id="svg_49"/>
  <path class="j" d="m79.37,235.17c0.21,6.08 -2.64,10.81 -6.24,11.19c-6.94,0.69 -3.98,-5.97 -5.65,-14.42c-1.18,-5.96 1.35,-7.47 5,-7.58c3.61,-0.11 6.73,4.73 6.89,10.81" id="svg_50"/>
  <path class="h" d="m80.77,277.38a18.65,18.65 0 0 0 1.98,1.61c5.27,3.61 12.43,5.38 19.04,6.24a93.99,93.99 0 0 0 15.81,0.65a107.46,107.46 0 0 0 26.83,-5.65c4.63,-1.72 8.71,-3.82 11.19,-6.4c9.73,-9.84 6.82,-36.13 4.84,-60.6c-0.49,-5.59 -1.24,-8.39 -4.31,-13.17a7.36,7.36 0 0 0 -3.65,-2.37c-1.51,-0.54 -7.64,-0.8 -10.97,-0.91c-7.32,-0.16 -13.77,0.54 -27.96,1.34c-8.88,0.54 -17,1.13 -23.39,1.78c-7.91,0.8 -13.23,1.66 -14.25,2.52c-2.53,2.1 -4.47,8.45 -5,15.01a32.19,32.19 0 0 0 -0.11,3.92c0.54,30.76 1.34,48.02 9.95,56.03z" id="svg_51"/>
  <path class="k" d="m110.12,239.36c0.11,6.73 -6.66,11.19 -13.55,10.22c-5.64,-0.81 -9.57,-5.11 -9.67,-9.78a9.53,9.53 0 0 1 3.38,-7.32c0.38,-0.32 0.76,-0.59 1.13,-0.86a10.18,10.18 0 0 1 2.53,-1.29a13.85,13.85 0 0 1 2.26,-0.64a12.27,12.27 0 0 1 2.42,-0.22a13.39,13.39 0 0 1 3.28,0.43a9.28,9.28 0 0 1 1.72,0.59a9.86,9.86 0 0 1 6.5,8.87" id="svg_52"/>
  <path class="l" d="m110.18,240.6c0.11,6.02 -6.29,9.95 -12.85,9.04c-5.43,-0.76 -9.25,-4.68 -9.36,-8.93a8.35,8.35 0 0 1 3.33,-6.61a10.26,10.26 0 0 1 1.13,-0.81a10.57,10.57 0 0 1 2.37,-1.08a0.05,0.05 0 0 0 0.05,-0.05a13.98,13.98 0 0 1 2.15,-0.54c0.27,-0.05 0.49,-0.05 0.76,-0.11c0.53,-0.05 1.07,-0.05 1.61,-0.05a5.22,5.22 0 0 1 0.91,0.05l0,0a13.81,13.81 0 0 1 2.16,0.38a4.73,4.73 0 0 1 0.8,0.27l0.81,0.32c3.49,1.56 6.02,4.52 6.13,8.12" id="svg_53"/>
  <path class="m" d="m107.33,238.77c0.05,3.5 -2.15,6.35 -4.89,6.4c-2.8,0.06 -5.06,-2.74 -5.11,-6.18c-0.06,-3.5 2.15,-6.35 4.89,-6.4s5,2.74 5.11,6.18" id="svg_54"/>
  <path class="n" d="m106.41,238.77c0.06,2.85 -1.72,5.17 -4.03,5.22c-2.26,0.05 -4.14,-2.21 -4.19,-5.06s1.72,-5.16 4.03,-5.21c2.26,-0.05 4.14,2.26 4.19,5.05" id="svg_55"/>
  <path class="o" d="m104.75,238.83c0.05,1.72 -1.02,3.12 -2.42,3.12c-1.35,0 -2.48,-1.35 -2.53,-3.07s1.02,-3.12 2.42,-3.12a2.82,2.82 0 0 1 2.53,3.07" id="svg_56"/>
  <path class="l" d="m101.63,237.11a1.21,1.21 0 1 1 -1.24,-1.19a1.21,1.21 0 0 1 1.24,1.19" id="svg_57"/>
  <path class="p" d="m90.77,236.46c0.37,-0.27 0.75,-0.54 1.18,-0.81a12.49,12.49 0 0 1 2.58,-1.12a14.56,14.56 0 0 1 2.31,-0.54a19.1,19.1 0 0 1 2.48,-0.16a13.05,13.05 0 0 1 3.28,0.43a16.09,16.09 0 0 1 1.72,0.53a10.53,10.53 0 0 1 5.64,4.68c-0.48,-3.12 -2.85,-5.64 -6.02,-6.99c-0.54,-0.21 -1.07,-0.37 -1.61,-0.54a12.12,12.12 0 0 0 -3.12,-0.43a16.71,16.71 0 0 0 -2.31,0.17a9,9 0 0 0 -2.15,0.53a11.12,11.12 0 0 0 -2.42,1.13c-0.38,0.22 -0.76,0.49 -1.13,0.76a8.56,8.56 0 0 0 -3.28,5.59a11.52,11.52 0 0 1 2.85,-3.23" id="svg_58"/>
  <path class="k" d="m123.35,239.1c0.11,6.72 7.05,10.97 13.93,9.67c5.59,-1.02 9.41,-5.48 9.3,-10.1a9.68,9.68 0 0 0 -3.65,-7.21a10.83,10.83 0 0 0 -3.77,-2.04a13.89,13.89 0 0 0 -2.26,-0.54a12.17,12.17 0 0 0 -2.42,-0.11a12.66,12.66 0 0 0 -3.22,0.54a8.92,8.92 0 0 0 -1.67,0.64c-3.76,1.73 -6.34,5.06 -6.24,9.15" id="svg_59"/>
  <path class="l" d="m145.56,239.69c0.05,4.19 -3.6,8.28 -8.98,9.25c-6.56,1.18 -13.07,-2.58 -13.17,-8.55c-0.06,-3.61 2.36,-6.67 5.86,-8.28l0.8,-0.33a4.73,4.73 0 0 1 0.81,-0.27a13.9,13.9 0 0 1 2.15,-0.48l0,0c0.32,-0.05 0.59,-0.05 0.92,-0.11a8.08,8.08 0 0 1 1.61,0c0.27,0 0.48,0.06 0.75,0.06a14.54,14.54 0 0 1 2.21,0.43l0.05,0a10.47,10.47 0 0 1 2.37,1.02a8.25,8.25 0 0 1 1.13,0.75a8.47,8.47 0 0 1 3.49,6.51" id="svg_60"/>
  <path class="m" d="m141.63,237.48c0.06,3.5 -2.15,6.35 -4.89,6.4c-2.79,0.06 -5.05,-2.74 -5.11,-6.18c-0.05,-3.5 2.15,-6.35 4.9,-6.4s5.05,2.74 5.1,6.18" id="svg_61"/>
  <path class="n" d="m140.72,237.54c0.05,2.85 -1.72,5.16 -4.03,5.21c-2.26,0.06 -4.14,-2.2 -4.2,-5.05s1.72,-5.16 4.04,-5.22c2.26,-0.11 4.14,2.21 4.19,5.06" id="svg_62"/>
  <path class="o" d="m139.11,237.54c0.05,1.72 -1.02,3.12 -2.42,3.12c-1.35,0 -2.48,-1.35 -2.53,-3.07s1.02,-3.12 2.42,-3.12c1.34,0 2.47,1.35 2.53,3.07" id="svg_63"/>
  <path class="l" d="m135.94,235.82a1.28,1.28 0 0 1 -1.19,1.23a1.21,1.21 0 1 1 -0.05,-2.42a1.21,1.21 0 0 1 1.24,1.19" id="svg_64"/>
  <path class="p" d="m142.55,235.49c-0.38,-0.27 -0.81,-0.48 -1.24,-0.75a12.79,12.79 0 0 0 -2.63,-1.02a10.98,10.98 0 0 0 -2.31,-0.43a12.77,12.77 0 0 0 -2.48,-0.06a15.28,15.28 0 0 0 -5,1.13a10.72,10.72 0 0 0 -5.48,4.9c0.37,-3.18 2.63,-5.76 5.8,-7.21c0.54,-0.21 1.08,-0.43 1.62,-0.59a11.83,11.83 0 0 1 3.06,-0.54a11.09,11.09 0 0 1 2.31,0.06a12.69,12.69 0 0 1 2.15,0.43a11.36,11.36 0 0 1 2.48,1.02a8.25,8.25 0 0 1 1.13,0.75a8.73,8.73 0 0 1 3.49,5.49a9.01,9.01 0 0 0 -2.9,-3.18" id="svg_65"/>
  <polygon class="q" id="svg_66" points="87.218 229.632 106.898 225.223 105.554 219.953 85.067 226.083 87.218 229.632"/>
  <polygon class="r" id="svg_67" points="104.532 219.147 84.045 225.33 86.196 228.826 105.823 224.47 104.532 219.147"/>
  <polygon class="q" id="svg_68" points="146.098 228.019 126.525 224.954 127.385 219.523 147.926 224.363 146.098 228.019"/>
  <polygon class="r" id="svg_69" points="145.507 226.621 125.934 223.556 126.794 218.125 147.281 222.964 145.507 226.621"/>
  <path class="s" d="m70.49,193.5a13.38,13.38 0 0 1 7.43,0.27c2.85,0.91 5.8,1.66 8.38,3.28c1.67,1.02 5.7,4.51 5.49,6.77c-0.16,1.72 -1.88,1.18 -3.34,1.35c-2.68,0.32 -5.75,0.91 -7.95,2.42c-7.53,5.21 -8.02,16.45 -8.07,24.62c0,1.83 0.43,4.3 -0.64,5.81c-3.88,-1.94 -5.11,-10.05 -6.46,-13.87c-2.79,-7.91 -4.94,-19.15 -0.27,-26.78a9.13,9.13 0 0 1 5.43,-3.87" id="svg_70"/>
  <path class="r" d="m93.29,201.51a17.27,17.27 0 0 0 -8.12,-0.22c-0.26,0.06 -0.59,0.17 -0.86,0.22a1,1 0 0 1 -0.37,0.11l-0.49,0.16a4.21,4.21 0 0 1 -0.75,0.27c-0.11,0.05 -0.16,0.05 -0.27,0.1l0,0c-4.78,2.1 -9.57,6.62 -11.02,11.35c-2.42,7.85 -0.27,14.95 0.91,22.69a22.17,22.17 0 0 0 0.49,-3.6c0.1,-8.17 0.53,-19.41 8.06,-24.63c2.21,-1.5 5.22,-2.09 7.96,-2.42c0.7,-0.05 1.4,0 1.99,-0.05c0.54,0.11 1.02,0.27 1.51,0.38l1.13,0.32l-0.17,-4.68z" id="svg_71"/>
  <path class="s" d="m165.62,205.43a47.71,47.71 0 0 1 0.32,13.56c-0.32,2.95 -0.81,9.67 -3.5,11.5c-2.04,-2.58 -1.39,-6.45 -2.15,-9.52c-0.75,-3.11 -1.61,-6.72 -3.55,-9.35c-4.08,-5.49 -10.75,-8.87 -9.35,-16.51c1.02,-5.59 6.99,-5.48 11.13,-2.8c4.3,2.8 6.29,8.29 7.1,13.12" id="svg_72"/>
  <path class="s" d="m156.74,211.62c-7.74,-8.82 -11.66,-10.38 -25.75,-10.33l-1.83,0a122.93,122.93 0 0 0 -24.63,1.46c-8.22,2.25 -10.32,9.19 -7.2,14.57a16.91,16.91 0 0 1 -7.58,-12.85c-10.38,-1.24 -15.54,-10.33 -15.54,-10.33s-1.73,-8.71 5.69,-16.61a7.59,7.59 0 0 1 -4.78,-3.87c1.77,1.61 6.67,1.88 7.42,1.45c1.29,-0.81 2.53,-1.88 4.09,-2.8a2.46,2.46 0 0 1 -1.13,-1.29a2.74,2.74 0 0 0 2.63,0.48c6.62,-2.36 12.32,-4.83 21.94,-5.86c40.65,-4.35 54.15,23.07 46.67,45.98z" id="svg_73"/>
  <path class="t" d="m136.42,178.55c-3.39,7.37 -8.82,9.25 -16.08,11.56c-3.12,0.97 -6.02,2.2 -9.19,3.17c-6.13,1.83 -12.32,3.44 -15.27,9.84c-2.53,-2.58 -3.18,-6.56 -2.42,-10a13.1,13.1 0 0 1 4.62,-7.26c3.71,-2.9 10.16,-3.44 11.99,-8.01c-0.48,3.23 -1.61,5.7 -4.3,7.58c-2.1,1.45 -6.13,3.12 -5.49,6.35c2.42,-6.03 14.95,-6.03 20.12,-7.69c7.74,-2.53 15.37,-5.38 16.72,-14.47c0.37,2.75 0.86,5.43 -0.7,8.93" id="svg_74"/>
  <path class="r" d="m116.58,201.46c0.59,-0.06 18.66,-0.06 25.11,-19.9c2.36,10.06 -0.97,17.26 -0.97,17.26s5,-1.07 5.7,-4.19c0.59,2.95 -0.59,4.24 -0.7,5.75c0.86,0.38 3.12,-0.16 5.54,-1.77c3.17,4.03 4.73,7.36 4.03,11.4c-8.87,-9.41 -16.88,-8.45 -38.71,-8.55" id="svg_75"/>
  <path class="r" d="m89.8,205.49s-1.24,-5.32 1.99,-13.93c-4.63,1.83 -9.63,8.98 -9.52,12.21l7.53,1.72z" id="svg_76"/>
  <path class="t" d="m75.44,199.74c3.39,-0.81 4.3,-3.82 0.54,-4.79c-4.14,-1.08 -7.96,1.94 -9.46,5.54c-1.46,3.55 -0.38,5.91 -0.27,9.3c-0.11,-5.81 4.24,-8.93 9.19,-10.05" id="svg_77"/>
  <path class="q" d="m157.66,213.12l0,0c-0.54,-0.59 -0.97,-1.12 -1.45,-1.61c-8.88,-9.46 -16.89,-8.49 -38.66,-8.6a102.67,102.67 0 0 0 -12.1,1.34c-8.23,2.26 -10.33,9.2 -7.21,14.57a16.73,16.73 0 0 1 -5.43,-5.75a17.94,17.94 0 0 0 4.46,4.3c-3.06,-5.37 -0.96,-12.31 7.21,-14.57a117.09,117.09 0 0 1 12.1,-1.34c21.77,0.1 29.84,-0.86 38.71,8.6q0.73,0.73 1.45,1.61a9.56,9.56 0 0 1 0.92,1.45z" id="svg_78"/>
  <path class="q" d="m90.07,206.99l-0.27,0c-2.69,0.33 -5.75,0.92 -7.96,2.42c-7.53,5.22 -8.01,16.46 -8.07,24.63c0,1.24 -0.53,2.31 -1.98,3.93a4.45,4.45 0 0 0 0.69,-2.21a16.5,16.5 0 0 0 0.38,-3.22c0.11,-8.18 0.54,-19.42 8.07,-24.63c2.15,-1.51 5.21,-2.1 7.95,-2.42a5.53,5.53 0 0 1 0.92,-0.06l0,0a11.7,11.7 0 0 0 0.27,1.56z" id="svg_79"/>
  <path class="u" d="m106.15,269.96a34.32,34.32 0 0 0 7.36,1.08a30.74,30.74 0 0 0 7.37,-0.54a43.71,43.71 0 0 0 6.99,-2.1c1.18,-0.37 2.26,-0.86 3.44,-1.34c0.59,-0.22 1.13,-0.49 1.72,-0.76s1.13,-0.48 1.78,-0.75l0,0c0.05,0 0.1,0 0.1,0.06l0,0.1a20.02,20.02 0 0 1 -6.29,4.47a18.31,18.31 0 0 1 -3.65,1.23c-0.65,0.16 -1.29,0.22 -1.94,0.33l-0.97,0.16l-0.97,0.1a33.41,33.41 0 0 1 -7.69,-0.05c-0.64,-0.11 -1.23,-0.21 -1.88,-0.27c-0.64,-0.11 -1.23,-0.27 -1.88,-0.37a20.19,20.19 0 0 1 -3.6,-1.19c-0.06,0 -0.06,-0.05 -0.06,-0.11c0.06,-0.05 0.11,-0.1 0.17,-0.05z" id="svg_80"/>
  <path class="v" d="m113.08,271.52s6.51,-0.64 10.06,-9.95c2.9,-7.63 9.95,-6.34 9.95,-6.34s5.53,0.8 4.19,6.18c-2.42,9.68 -17.96,10.49 -24.2,10.11z" id="svg_81"/>
  <path class="w" d="m130.83,260.71a29.32,29.32 0 0 1 -5.33,7.8a11.28,11.28 0 0 0 5.33,-7.8z" id="svg_82"/>
  <polygon class="h" id="svg_83" points="37.748 348.253 16.347 380.731 10.27 383.85 0 405.466 3.71 411.166 14.733 412.994 23.337 397.777 19.949 403.745 24.681 402.025 28.123 391.754 24.789 383.635 44.631 348.791 37.748 348.253"/>
  <path class="f" d="m152.77,520l-22.05,0l-13.34,-18.66l2.32,-11.13l11.29,-1.18l10.11,14.62c8.65,0 10.11,6.35 10.11,6.35l1.56,10z" id="svg_84"/>
  <text fill="#1167a0" font-family="Fantasy" font-size="24" id="svg_85" stroke-width="0" text-anchor="middle" transform="matrix(0.770837 0 0 0.884837 22.7547 37.8166)" x="133.54" xml:space="preserve" y="338.3">GoZoom</text>
 </g>
</svg>