<?xml version="1.0"?>
<svg width="375.34308" height="526.90218" xmlns="http://www.w3.org/2000/svg" xmlns:svg="http://www.w3.org/2000/svg">
 <defs>
  <style>.a{isolation:isolate;}.b{fill:#004d71;}.c{fill:#0090d0;}.d{fill:#cccbcb;}.e{fill:#4d4d4d;}.f{fill:#f2f7ff;}.g{fill:#f8cdac;}.h{fill:#006b98;}.i{fill:#e3a876;}.j{fill:#ebba91;}.k{fill:#221f1f;}.l,.t{fill:#fff;}.m{fill:#00425c;}.n{fill:#28aae1;}.o{fill:#323031;}.p{fill:#75a4bb;opacity:0.5;mix-blend-mode:multiply;}.q{opacity:0.06;}.r{fill:#95613c;}.s{fill:#c39769;}.t{opacity:0.2;}.u{fill:#3c281a;}.v{fill:#b84b5e;}</style>
 </defs>
 <title>mascot-hands</title>
 <g class="layer">
  <title>Layer 1</title>
  <g class="a" id="svg_1">
   <path class="b" d="m335.27,397.23c3.37,33.14 -36.72,-34.73 -76.2,-6.45c-30.74,22.03 -89.25,5.81 -83.98,-22.65c9.42,-50.93 -7.78,-137.92 34.2,-172.95c59.88,-49.96 121.6,159.06 125.98,202.05" id="svg_2"/>
   <path class="c" d="m273.67,189.57c31.02,144.02 187.65,171.98 37.78,237.72c44.71,-108.39 -58.94,-98.4 -46.07,-238.33l8.29,0.61z" id="svg_3"/>
   <path class="d" d="m209.6,499.13l-27.04,8.4s-21.41,-3.36 -25.85,8.63c-2.92,7.87 -3.75,10.74 -3.75,10.74c21.19,0 76.01,-0.36 76.01,-0.36c0.37,-6.95 -1.97,-25.59 -1.97,-25.59l-17.4,-1.82z" id="svg_4"/>
   <path class="d" d="m253.42,501.68l-2.93,6.28s-8.76,2.57 -8.76,18.94l39.84,0s1.33,-13.45 -7.65,-18.52l-2.19,-6.15l-18.31,-0.55z" id="svg_5"/>
   <path class="e" d="m258.33,434.35l13.4,67.88l-18.31,-0.55l-24.71,-62.9l-9.77,-61.83c-10.83,0.73 -16.9,-1.71 -16.9,-1.71l-7.44,57.86l32.4,67.85l-17.4,-1.82l-45.82,-61.86c-3.56,-39.71 -12.18,-119.09 -12.18,-119.09l126.7,15.68c-0.74,10.32 -18.82,77.01 -19.97,100.49z" id="svg_6"/>
   <path class="f" d="m278.3,333.86c2.09,-14.4 3.83,-28.12 5.28,-40.96c3.24,-28.87 4.99,-53.26 5.94,-70.81c1.02,-18.93 2.08,-33.13 2.08,-33.13c-10.28,-4.88 -22.86,-10.81 -32.56,-13.52a98.15,98.15 0 0 0 -13.3,-2.8c-5.72,1.27 -14.66,6.9 -20.43,6.54c-5.97,-0.38 -14.88,-6.64 -20.54,-8.75a82.16,82.16 0 0 0 -10.84,0.97a313.88,313.88 0 0 0 -36.63,8.22s-1.09,21.4 -2.31,43.85c-1.14,20.81 -2.39,46.54 -3.01,68.47c-0.27,9.76 -0.42,18.76 -0.38,26.24l27.99,3.47l74,9.16l24.71,3.05z" id="svg_7" transform="matrix(1 0 0 1 0 0)"/>
   <path class="b" d="m259.14,232.66a6.13,6.13 0 0 1 -0.9,-4.14l2.21,-0.47a5.04,5.04 0 0 0 0.49,3.53a1.17,1.17 0 0 0 1.61,0.59c0.53,-0.34 0.63,-0.89 0.31,-2.24c-0.54,-2.33 -0.15,-3.78 1.26,-4.62c1.81,-1.09 3.71,-0.33 4.93,1.7a6.26,6.26 0 0 1 0.96,3.57l-2.02,0.42a5.32,5.32 0 0 0 -0.67,-2.78c-0.38,-0.64 -0.9,-0.79 -1.34,-0.53c-0.43,0.26 -0.54,0.72 -0.31,1.7c0.57,2.49 0.33,4.16 -1.21,5.09c-2.32,1.39 -4.19,0.07 -5.32,-1.82z" id="svg_21"/>
   <path class="g" d="m0,56.23l8.82,34.82l19.85,19.58s12.47,25.5 45.55,68.99l71.77,19.54l3.49,-13.18l-64.92,-14.6c-33.88,-41.93 -33.47,-62.64 -33.47,-62.64l6.49,-21.1l-9.11,-24.33l-4.34,4.05l2.87,13.06l-14.26,-16.34l-11.25,-20.39l-9.39,0.43l-12.1,12.11z" id="svg_38"/>
   <path class="h" d="m157.3,179.62c-16.49,-1.87 -32.75,-5.68 -51.16,-10.24l-8.18,24.54c19.95,5.11 58.02,12 58.02,12l1.32,-26.3z" id="svg_39"/>
   <path class="g" d="m105.33,129.69l14.64,32.8l22.9,15.9s24.93,27.95 64.95,65.14l66.27,-3.68l1.19,-13.57l-62.75,5.13c-40.54,-35.53 -47.89,-58.71 -47.89,-58.71l2.79,-21.9l-13.14,-22.42l-3.58,4.74l5.06,12.37l-16.84,-13.66l-14.57,-18.17l-9.19,2.03l-9.84,14z" id="svg_40" transform="matrix(1 0 0 1 0 0)"/>
   <path class="h" d="m291.6,188.96a19.24,19.24 0 0 1 10.97,10.97c5.52,13.48 4.47,36.5 -26.72,44.87c-11.76,3.15 -34.79,5.65 -34.79,5.65l-0.82,-27.17s30.46,-5.19 33.71,-9c0,0 5.5,-19.58 17.65,-25.32z" id="svg_41"/>
   <path class="i" d="m291.06,108.71c-0.47,9.34 3.72,16.76 9.29,17.43c10.63,1.26 6.35,-9.09 9.16,-22.02c1.99,-9.14 -1.85,-11.53 -7.45,-11.81c-5.61,-0.28 -10.53,7.06 -11,16.4" id="svg_42"/>
   <path class="i" d="m175.5,100.46c-0.86,9.31 -6.07,16.06 -11.68,15.93c-10.69,-0.26 -4.99,-9.9 -5.94,-23.1c-0.67,-9.33 3.48,-11.14 9.06,-10.63c5.59,0.52 9.42,8.49 8.56,17.8" id="svg_43"/>
   <path class="j" d="m169.59,165.28a26.36,26.36 0 0 0 2.75,2.83c7.35,6.5 18.01,10.61 27.94,13.18a140.59,140.59 0 0 0 24.01,3.94a163.6,163.6 0 0 0 42.08,-3.57c7.41,-1.75 14.03,-4.22 18.34,-7.63c16.72,-13.22 17.32,-53.97 18.85,-91.74c0.35,-8.61 -0.28,-13.05 -4.09,-20.93c-0.85,-1.73 -3.06,-3.29 -5.14,-4.34c-2.22,-1.12 -11.49,-2.69 -16.61,-3.46c-11.17,-1.67 -21.17,-1.81 -43.03,-3.24c-13.68,-0.89 -26.19,-1.49 -36.11,-1.7c-12.26,-0.27 -20.58,0.05 -22.26,1.13c-4.3,2.75 -8.45,12.09 -10.44,21.96c-0.41,2 -0.72,4.02 -0.93,6.02c-4.96,47.08 -6.98,73.65 4.64,87.55z" id="svg_44"/>
   <path class="k" d="m221.7,112.67c-1.08,10.32 -12.28,15.87 -22.66,13.04c-8.48,-2.31 -13.68,-9.66 -12.93,-16.78a14.74,14.74 0 0 1 6.58,-10.57a18.06,18.06 0 0 1 6,-2.63a19.61,19.61 0 0 1 3.55,-0.53a20.18,20.18 0 0 1 3.76,0.14a19.52,19.52 0 0 1 4.89,1.26a19.86,19.86 0 0 1 2.52,1.21c5.43,3.12 8.95,8.64 8.29,14.86" id="svg_45"/>
   <path class="l" d="m221.5,114.61c-0.97,9.19 -11.47,14.04 -21.37,11.4c-8.17,-2.18 -13.27,-8.93 -12.59,-15.39a12.81,12.81 0 0 1 6.31,-9.47a16.86,16.86 0 0 1 1.84,-0.98a17.31,17.31 0 0 1 3.79,-1.23c0.05,-0.02 0.09,-0.03 0.13,-0.03a19.58,19.58 0 0 1 3.4,-0.39c0.38,-0.01 0.76,0 1.14,0.01a19.73,19.73 0 0 1 2.45,0.21c0.47,0.07 0.94,0.15 1.41,0.25l0,0.01a19.05,19.05 0 0 1 3.24,1c0.41,0.16 0.81,0.34 1.21,0.53c0.4,0.2 0.79,0.4 1.18,0.62c5.12,2.92 8.44,7.92 7.86,13.46" id="svg_46"/>
   <path class="m" d="m208.73,111.61c-0.56,5.32 -4.45,9.27 -8.69,8.83c-4.25,-0.45 -7.23,-5.12 -6.67,-10.44c0.55,-5.32 4.45,-9.28 8.69,-8.83c4.24,0.45 7.23,5.12 6.67,10.44" id="svg_47"/>
   <path class="n" d="m207.34,111.47c-0.46,4.35 -3.65,7.59 -7.12,7.22c-3.47,-0.36 -5.92,-4.19 -5.46,-8.55c0.46,-4.35 3.64,-7.59 7.12,-7.22c3.47,0.36 5.92,4.19 5.46,8.55" id="svg_48"/>
   <path class="o" d="m204.83,111.2c-0.27,2.62 -2.19,4.57 -4.28,4.35c-2.09,-0.22 -3.56,-2.52 -3.29,-5.14c0.28,-2.62 2.2,-4.57 4.29,-4.35c2.09,0.22 3.56,2.52 3.28,5.14" id="svg_49"/>
   <path class="l" d="m200.36,108a1.83,1.83 0 1 1 -1.63,-2.02a1.83,1.83 0 0 1 1.63,2.02" id="svg_50"/>
   <path class="p" d="m192.69,104.62a17.99,17.99 0 0 1 1.95,-0.97a19.37,19.37 0 0 1 4.17,-1.23a22.05,22.05 0 0 1 3.63,-0.37a23.15,23.15 0 0 1 3.83,0.25a22.43,22.43 0 0 1 4.97,1.29a22.15,22.15 0 0 1 2.55,1.17a16.43,16.43 0 0 1 7.77,8.22c-0.16,-4.88 -3.31,-9.2 -7.92,-11.83a20.02,20.02 0 0 0 -7.04,-2.41a20.37,20.37 0 0 0 -3.59,-0.22a19.56,19.56 0 0 0 -3.4,0.39a17.5,17.5 0 0 0 -3.92,1.26a16.8,16.8 0 0 0 -1.83,0.98a13.11,13.11 0 0 0 -6.06,7.97a14.24,14.24 0 0 1 4.89,-4.5" id="svg_51"/>
   <path class="k" d="m241.95,114.79c-1.08,10.32 8.72,18.08 19.47,17.47c8.77,-0.5 15.38,-6.61 16.13,-13.73a14.74,14.74 0 0 0 -4.25,-11.71a17.85,17.85 0 0 0 -1.63,-1.5a18.08,18.08 0 0 0 -3.68,-2.32a19.61,19.61 0 0 0 -3.37,-1.25a20.18,20.18 0 0 0 -3.71,-0.65a19.52,19.52 0 0 0 -5.05,0.22a19.86,19.86 0 0 0 -2.71,0.67c-5.96,1.92 -10.54,6.58 -11.2,12.8" id="svg_52"/>
   <path class="l" d="m275.79,119.88c-0.67,6.47 -7.06,12.01 -15.5,12.45c-10.24,0.52 -19.51,-6.4 -18.54,-15.59c0.58,-5.54 4.86,-9.74 10.49,-11.54c0.41,-0.13 0.84,-0.25 1.27,-0.35c0.43,-0.11 0.86,-0.2 1.3,-0.28a19.94,19.94 0 0 1 3.37,-0.3l0,0c0.48,-0.01 0.96,0.01 1.44,0.04a19.47,19.47 0 0 1 2.43,0.3c0.38,0.07 0.75,0.14 1.12,0.23a19.58,19.58 0 0 1 3.25,1.08c0.04,0.02 0.08,0.04 0.11,0.05a17.61,17.61 0 0 1 3.46,2a16.48,16.48 0 0 1 1.6,1.34a12.81,12.81 0 0 1 4.2,10.57" id="svg_53"/>
   <path class="m" d="m260.94,117.47c-0.56,5.32 -4.45,9.27 -8.69,8.82s-7.23,-5.12 -6.67,-10.44c0.56,-5.32 4.45,-9.27 8.69,-8.82s7.23,5.12 6.67,10.44" id="svg_54"/>
   <path class="n" d="m259.55,117.32c-0.46,4.36 -3.64,7.59 -7.12,7.23s-5.92,-4.19 -5.46,-8.55c0.46,-4.36 3.64,-7.59 7.12,-7.23s5.92,4.19 5.46,8.55" id="svg_55"/>
   <path class="o" d="m257.04,117.06c-0.27,2.62 -2.19,4.56 -4.28,4.35c-2.09,-0.22 -3.56,-2.53 -3.28,-5.15c0.27,-2.62 2.19,-4.56 4.28,-4.35c2.09,0.22 3.56,2.53 3.28,5.15" id="svg_56"/>
   <path class="l" d="m252.57,113.85a1.83,1.83 0 1 1 -1.63,-2.01a1.83,1.83 0 0 1 1.63,2.01" id="svg_57"/>
   <path class="p" d="m272.01,112.95a18,18 0 0 0 -1.71,-1.36a19.37,19.37 0 0 0 -3.83,-2.07a22.05,22.05 0 0 0 -3.47,-1.11a23.15,23.15 0 0 0 -3.8,-0.55a22.43,22.43 0 0 0 -5.13,0.23a22.12,22.12 0 0 0 -2.74,0.61a16.43,16.43 0 0 0 -9.3,6.43c1.16,-4.74 5.14,-8.31 10.21,-9.92a20.03,20.03 0 0 1 7.38,-0.9a20.37,20.37 0 0 1 3.55,0.53a19.56,19.56 0 0 1 3.25,1.08a17.51,17.51 0 0 1 3.57,2.05a16.85,16.85 0 0 1 1.6,1.34a13.11,13.11 0 0 1 4.26,9.05a14.24,14.24 0 0 0 -3.84,-5.41" id="svg_58"/>
   <polygon class="q" id="svg_59" points="187.678 93.394 218.6 91.407 217.874 83.034 185.227 87.545 187.678 93.394"/>
   <polygon class="r" id="svg_60" points="216.47 81.577 183.834 86.094 186.268 91.932 217.203 89.952 216.47 81.577"/>
   <polygon class="q" id="svg_61" points="279.604 101.028 249.651 95.265 251.241 86.987 282.596 95.485 279.604 101.028"/>
   <polygon class="r" id="svg_62" points="278.738 98.864 248.789 93.105 250.365 84.822 281.718 93.323 278.738 98.864"/>
   <path class="s" d="m169.83,35.08a20.89,20.89 0 0 1 11.28,1.83c4.15,1.92 8.53,3.67 12.17,6.56c2.37,1.87 7.85,7.95 7.07,11.37c-0.61,2.61 -3.06,1.44 -5.32,1.41c-4.19,-0.03 -8.98,0.31 -12.6,2.22c-12.48,6.58 -15.33,23.63 -17.02,36.14c-0.37,2.81 -0.11,6.62 -2.08,8.79c-5.59,-3.68 -5.89,-16.38 -7.22,-22.42c-2.81,-12.57 -3.95,-30.2 4.69,-40.96a13.67,13.67 0 0 1 9.03,-4.94" id="svg_63"/>
   <path class="r" d="m203.16,51.65a26.66,26.66 0 0 0 -12.33,-1.87c-0.45,0.05 -0.9,0.12 -1.36,0.2q-0.31,0.05 -0.63,0.12c-0.24,0.05 -0.49,0.11 -0.74,0.17c-0.39,0.09 -0.79,0.19 -1.19,0.31c-0.13,0.03 -0.27,0.07 -0.4,0.11l0.01,0c-7.7,2.32 -15.86,8.3 -18.98,15.24c-5.2,11.57 -3.21,22.76 -2.92,34.85a28.69,28.69 0 0 0 1.39,-5.44c1.68,-12.52 4.53,-29.56 17.01,-36.15c3.62,-1.91 8.42,-2.25 12.61,-2.21c1.04,0.01 2.13,0.26 3.05,0.28c0.76,0.29 1.51,0.58 2.26,0.89c0.56,0.23 1.1,0.47 1.65,0.71l0.57,-7.21z" id="svg_64"/>
   <path class="s" d="m312.96,71.36a73.26,73.26 0 0 1 -2.07,20.8c-1.07,4.49 -3.04,14.65 -7.54,16.9c-2.6,-4.31 -0.93,-10.17 -1.47,-14.92c-0.54,-4.88 -1.18,-10.57 -3.68,-14.97c-5.17,-9.16 -14.79,-15.58 -11.2,-27.03c2.64,-8.4 11.72,-7.03 17.53,-2.16c6.07,5.08 8.06,13.85 8.43,21.38" id="svg_65"/>
   <path class="s" d="m298.2,79.17c-10.18,-14.96 -15.85,-18.05 -37.44,-20.65c-0.89,-0.11 -1.81,-0.22 -2.79,-0.34a193.35,193.35 0 0 0 -37.93,-2.48c-12.98,1.94 -17.52,12.14 -13.81,20.93a25.97,25.97 0 0 1 -9.17,-21.06c-15.66,-3.89 -21.79,-18.7 -21.79,-18.7s-0.98,-13.64 11.84,-24.32a11.41,11.41 0 0 1 -6.56,-6.83c2.4,2.77 9.8,4.18 11.06,3.59c2.15,-1.01 4.26,-2.44 6.77,-3.49a3.89,3.89 0 0 1 -1.47,-2.22a4.3,4.3 0 0 0 3.97,1.24c10.56,-2.35 19.7,-5.08 34.66,-4.82c62.97,1.05 78.41,45.5 62.66,79.15z" id="svg_66"/>
   <path class="t" d="m273.38,24.7c-6.56,10.6 -15.25,12.45 -26.78,14.58c-4.97,0.92 -9.62,2.21 -14.69,3.08c-9.71,1.66 -19.47,2.93 -25.21,12.17c-3.33,-4.44 -3.57,-10.66 -1.8,-15.78a20.45,20.45 0 0 1 8.42,-10.23c6.2,-3.73 16.15,-3.3 19.86,-9.99c-1.35,4.86 -3.58,8.39 -8.01,10.76c-3.46,1.86 -9.98,3.56 -9.62,8.61c4.86,-8.73 24.02,-6.37 32.17,-7.98c12.28,-2.4 24.54,-5.29 28.29,-18.98c0.21,4.53 0.48,8.74 -2.63,13.76" id="svg_67"/>
   <path class="r" d="m238.77,55.98c0.92,0 28.51,3.42 42.2,-25.64c1.72,15.84 -4.78,26.2 -4.78,26.2s7.85,-0.69 9.5,-5.3c0.31,4.6 -1.68,6.38 -2.18,8.69c1.21,0.73 4.82,0.38 8.82,-1.64c4.09,6.74 5.86,12.16 3.97,18.16c-11.74,-16.14 -24.22,-16.2 -57.53,-20.47" id="svg_68"/>
   <path class="r" d="m197.05,57.1s-0.89,-8.4 5.65,-20.94c-7.41,1.94 -16.43,11.89 -16.82,16.83l11.17,4.11z" id="svg_69"/>
   <path class="t" d="m176.21,45.53c5.34,-0.57 7.33,-5.04 1.75,-7.25c-6.09,-2.4 -12.54,1.43 -15.5,6.66c-2.93,5.16 -1.66,8.94 -2.19,14.14c0.9,-8.76 8.14,-12.74 15.94,-13.55" id="svg_70"/>
   <path class="q" d="m299.34,81.58l-0.06,-0.08c-0.62,-0.93 -1.24,-1.81 -1.84,-2.65c-11.74,-16.12 -24.22,-16.19 -57.49,-20.46a169.41,169.41 0 0 0 -18.77,-0.28c-12.98,1.94 -17.52,12.14 -13.81,20.93a25.39,25.39 0 0 1 -7.18,-9.81a25.41,25.41 0 0 0 6.04,7.4c-3.7,-8.79 0.84,-18.99 13.81,-20.93a173.08,173.08 0 0 1 18.74,0.28c33.29,4.25 45.77,4.32 57.52,20.45c0.63,0.86 1.25,1.78 1.91,2.73a18.31,18.31 0 0 1 1.13,2.42z" id="svg_71"/>
   <path class="q" d="m197.2,59.43a2.26,2.26 0 0 0 -0.44,-0.03c-4.18,-0.04 -8.98,0.3 -12.61,2.21c-12.47,6.58 -15.32,23.62 -17.01,36.14c-0.25,1.85 -1.27,3.46 -3.8,5.65a6.8,6.8 0 0 0 1.47,-3.22a25.05,25.05 0 0 0 1.19,-4.85c1.69,-12.51 4.54,-29.56 17.03,-36.14c3.61,-1.92 8.41,-2.25 12.59,-2.22a11.92,11.92 0 0 1 1.42,0.12l0.02,0c0,0.77 0.06,1.57 0.14,2.34z" id="svg_72"/>
   <path class="u" d="m249.74,166.45c-8.3,-7.71 -22.3,-5.25 -22.3,-5.25l2.02,3.89l-6.22,-3.16c-13.51,-4.68 -14.28,2.99 -14.25,5.03c-11.26,-8.53 -9.97,-23.44 -9.97,-23.44s21.83,20.89 60.77,4.81a28.73,28.73 0 0 1 -10.05,18.12z" id="svg_73"/>
   <path class="l" d="m199.03,143.52s21.82,20.89 60.77,4.82c0,0 -0.5,13.26 -30.88,11.86c-30.39,-1.39 -29.89,-16.68 -29.89,-16.68" id="svg_74"/>
   <path class="v" d="m249.74,166.45c-4.87,3.9 -12.07,6.76 -22.72,6.27c-8.13,-0.37 -13.91,-2.65 -18.03,-5.76c-0.03,-2.04 0.74,-9.71 14.25,-5.03l6.22,3.16l-2.02,-3.89s14,-2.46 22.3,5.25z" id="svg_75"/>
   <text fill="#1167a0" font-family="Fantasy" font-size="24" id="svg_76" stroke-width="0" text-anchor="middle" x="215.07" xml:space="preserve" y="261.7">GoZoom</text>
  </g>
 </g>
</svg>