<svg xmlns="http://www.w3.org/2000/svg" viewBox="0 0 376.82838 420"><defs><style>.a{isolation:isolate;}.b{fill:#5d5c5c;}.c{fill:#004e71;}.d{fill:#bc9372;}.e{fill:#e64e3c;}.f{fill:#fb503b;}.g{fill:#3a190a;}.h,.l{fill:#fff;}.h{opacity:0.2;}.i{fill:#98745b;}.j{fill:#402312;}.k{fill:#76232a;}.m{fill:#221f1f;}.n{fill:#3b251b;}.o{fill:#734a36;}.p{fill:#323031;}.q{fill:#75a4bb;opacity:0.5;mix-blend-mode:multiply;}.r{opacity:0.06;}.s{fill:#240f06;}.t{fill:#422717;}</style></defs><title>char-laravel</title><g class="a"><path class="b" d="M155.24088,398.74637l-20.698,6.42855s-16.37868-2.5694-19.77919,6.60781C112.5334,417.80154,111.89319,420,111.89319,420c16.22114,0,58.172-.28092,58.172-.28092.27859-5.31341-1.51325-19.57665-1.51325-19.57665Z"/><path class="b" d="M211.816,398.74637l20.69723,6.42855s16.38023-2.5694,19.78,6.60781c2.23028,6.01881,2.8705,8.21727,2.8705,8.21727-16.22114,0-58.16967-.28092-58.16967-.28092-.28015-5.31341,1.51168-19.57665,1.51168-19.57665Z"/><path class="c" d="M127.39843,265.28312c-.20382,26.89808,5.35918,78.0199,5.35918,78.0199l22.48327,55.44335,13.31106,1.39606-5.69261-57.28323s5.31947-32.80648,7.51381-32.80648c4.80761,0,10.56508,2.22693,10.56508,2.22693s18.08523,26.518,17.91245,41.74986c-.50153,10.46913-.34492,46.11292-.34492,46.11292l13.31029-1.39606,12.97024-40.84585s3.141-72.65337-.42636-85.62383Z"/><path class="d" d="M68.6684,167.81873l47.93119,8.902,1.62873-9.873-46.33647-8.0745c-5.52462-3.73759-30.48431-30.95066-35.87666-48.56152.48171-4.87976,7.895-17.97884,7.895-17.97884L39.828,76.2214l-4.64534-1.75259L36.251,86.43,23.58089,64.78878,11.96963,67.21254,0,75.84451l11.15792,31.05832,9.11457,7.73446C37.41048,141.39878,68.6684,167.81873,68.6684,167.81873Z"/><path class="d" d="M290.66016,184.58772l-48.73658-1.17942.44345-9.99656,47.00543,1.66007c6.17693-2.51724,36.21452-23.99468,45.12457-40.11395.53552-4.87414-4.01544-19.221-4.01544-19.221l7.29812-14.82468,4.907-.75638-3.51339,11.48333L356.0361,93.07794l10.86129,4.76741,9.931,10.916L359.50215,136.849l-10.51432,5.68737C326.6968,165.18588,290.66016,184.58772,290.66016,184.58772Z"/><path class="e" d="M232.67283,189.34087c5.12792.65085,31.551.8558,43.23828.19807l1.43351-18.10841c-10.08063-.75463-36.79477-4.51368-43.561-7.56314,0,0-.05222.42989-.14342,1.21145-.03911.37782-.09119.84675-.14335,1.39384,0,.05216-.013.10424-.013.16935A187.82237,187.82237,0,0,0,232.67283,189.34087Z"/><path class="e" d="M131.54622,156.23942l-1.2746,26.55144c-9.31425,0-33.62465-2.57188-48.27193-6.45267l4.5535-20.09877C102.379,157.95552,116.38293,157.50314,131.54622,156.23942Z"/><path class="f" d="M224.35992,272.27669c1.60212-11.0202,2.93242-21.523,4.03694-31.34862,2.48328-22.09072,3.82533-40.758,4.54947-54.18478.78145-14.48925.84333-22.87569.84333-22.87569-11.698-4.22835-34.34384-14.96873-34.34384-14.96873-4.37987.97544-11.22514,5.28159-15.64068,5.00145-4.56379-.28947-11.38189-5.07674-15.716-6.69163a10.68047,10.68047,0,0,0-8.29252.743c-5.37953,2.68454-22.31566,7.13828-28.25034,8.28772,0,0-.61494,14.37964-1.5515,31.56014-.86787,15.92064-1.8266,35.613-2.29929,52.39606-.21025,7.46482-.32992,19.36166-.2971,25.0875C134.53848,266.16691,218.0569,271.49651,224.35992,272.27669Z"/><path class="g" d="M210.0708,27.81455S185.194-9.37763,150.393,2.25246c-34.80224,11.631-32.5723,65.62373-45.26574,82.09674C92.43494,100.82128,85.51932,96.18751,85.51932,96.18751s14.66036,23.92556,46.16831,16.33064c31.50873-7.59265,78.38317-84.7036,78.38317-84.7036"/><path class="h" d="M127.76328,59.50015s-2.5011,1.635-4.95864,8.54708-5.93479,7.81783-5.93479,7.81783,5.10761-.84155,7.59782-3.79579,3.31139-6.42635,6.03362-6.65837Z"/><path class="h" d="M129.32345,72.24958s-3.52986,1.7499-7.10985,12.02524c-6.69621,19.21951-14.13454,18.6482-21.87869,18.3643,0,0,9.03993,3.87527,17.29429-1.59053s9.83347-16.92722,12.3553-16.91743Z"/><path class="i" d="M232.81436,102.78956c-.54111,7.31268,2.61043,13.20649,6.96541,13.82915,8.30508,1.187,5.14235-7.00492,7.58631-17.08733,1.72781-7.12689-1.24007-9.07079-5.62736-9.39541-4.38736-.32384-8.38327,5.34093-8.92436,12.65359"/><path class="i" d="M142.38661,94.18772c-.84734,7.28356-5.05359,12.47747-9.44786,12.26786-8.37992-.40016-3.7294-7.84884-4.22857-18.2112-.3531-7.32484,2.928-8.67431,7.29786-8.16593,4.36973.50918,7.22593,6.82575,6.37857,14.10927"/><path class="d" d="M138.62175,146.23088c6.59642,7.09788,13.957,9.57668,21.69442,11.76956a110.23067,110.23067,0,0,0,18.74951,3.53346,128.27514,128.27514,0,0,0,33.05411-2.02225c5.838-1.23641,11.07527-3.05047,14.51129-5.63873,13.35152-10.05737,14.579-41.985,16.47207-71.56779.43112-6.737.02-10.23432-2.82354-16.47566-.62805-1.37854-2.33595-2.63665-3.94333-3.49865-1.72019-.92249-8.9598-2.32346-12.96029-3.02009-8.71968-1.51842-16.55856-1.80708-33.67112-3.33016-10.70093-.95242-20.496-1.65381-28.27106-2.00642-9.60634-.43565-16.12907-.33886-17.46681.47476-3.42548,2.08338-6.84891,9.32285-8.59264,17.025-.35339,1.56093-.63779,3.14087-.83923,4.70074C129.78055,112.99091,129.77059,135.12514,138.62175,146.23088Z"/><path class="j" d="M160.728,130.94984s18.42155,15.98779,46.59778,2.79413c0,0-2.43866,20.73-24.05835,19.43362S160.728,130.94984,160.728,130.94984Z"/><path class="k" d="M170.43452,149.02511s-.55729-9.64258,10.45786-5.38724l4.41415,2.53934-1.4269-3.2086s11.24271-2.33063,17.11976,4.00553a20.2364,20.2364,0,0,1-14.64512,6.20463S176.91031,153.97478,170.43452,149.02511Z"/><path class="l" d="M160.728,130.94984s19.635,15.3183,46.59778,2.79413c0,0-2.94976,11.78223-23.55173,11.01737C162.13048,143.95781,160.728,130.94984,160.728,130.94984Z"/><path class="m" d="M178.378,104.60771c-1.04021,8.07095-9.91759,12.21429-18.00894,9.80344-6.60213-1.96709-10.54254-7.82344-9.825-13.39076a11.55473,11.55473,0,0,1,5.35633-8.16333,14.16018,14.16018,0,0,1,4.74831-1.95306,15.37688,15.37688,0,0,1,2.79462-.346,15.8198,15.8198,0,0,1,2.94663.17535,15.30463,15.30463,0,0,1,3.81232,1.07858,15.56884,15.56884,0,0,1,1.948,1c4.19976,2.54434,6.85443,6.933,6.2277,11.79579"/><path class="l" d="M178.18076,106.12659c-.9263,7.1871-9.24661,10.79556-16.96243,8.54076-6.36454-1.85951-10.23166-7.24121-9.58-12.297a10.04658,10.04658,0,0,1,5.12241-7.30426,13.21609,13.21609,0,0,1,1.45955-.73724,13.5725,13.5725,0,0,1,2.99432-.89428c.03374-.00847.06713-.01427.10042-.01931a15.35547,15.35547,0,0,1,2.67317-.23883c.29934-.00067.59778.00865.895.024a15.47373,15.47373,0,0,1,1.91484.21414c.36876.06074.73323.13376,1.09524.22277l.00534.0038a14.93554,14.93554,0,0,1,2.52168.84306c.31717.13843.6281.28305.93356.4429.3116.15753.61622.327.91311.50516,3.96353,2.38409,6.47168,6.36564,5.91379,10.69433"/><path class="n" d="M174.999,105.47972c-.53627,4.16087-3.66036,7.18683-6.97828,6.75921-3.3183-.42767-5.57306-4.14688-5.03679-8.30775.53621-4.16049,3.66031-7.18645,6.97861-6.75878,3.31791.42763,5.57267,4.14683,5.03646,8.30732"/><path class="o" d="M173.91037,105.33941c-.43905,3.40661-2.99737,5.88444-5.71356,5.53437-2.71695-.35017-4.563-3.39565-4.124-6.80226.439-3.40622,2.99694-5.8841,5.71389-5.53393,2.71619.35007,4.56264,3.3956,4.12364,6.80182"/><path class="p" d="M171.95036,105.0868c-.2641,2.04909-1.80287,3.53981-3.43679,3.32922-1.63468-.21068-2.74481-2.0428-2.48072-4.09188.264-2.04871,1.80244-3.53948,3.43712-3.32879,1.63392.21058,2.74443,2.04275,2.48039,4.09145"/><path class="l" d="M168.50568,102.49275a1.43794,1.43794,0,1,1-1.24217-1.60973,1.43775,1.43775,0,0,1,1.24217,1.60973"/><path class="q" d="M155.78205,97.76159a14.11037,14.11037,0,0,1,1.55062-.72317,15.18515,15.18515,0,0,1,3.292-.88817,17.28724,17.28724,0,0,1,2.84825-.21626,18.15017,18.15017,0,0,1,2.99851.26132,17.58756,17.58756,0,0,1,3.874,1.10324,17.36646,17.36646,0,0,1,1.97771.96572,12.884,12.884,0,0,1,5.93482,6.58987c-.03012-3.82812-2.41927-7.27355-5.99128-9.42063a15.69731,15.69731,0,0,0-5.46988-2.01936,15.97189,15.97189,0,0,0-2.80966-.237,15.33364,15.33364,0,0,0-2.672.239,13.72215,13.72215,0,0,0-3.094.91368,13.17315,13.17315,0,0,0-1.45919.73457,10.27965,10.27965,0,0,0-4.89143,6.13624,11.1652,11.1652,0,0,1,3.91148-3.43905"/><path class="m" d="M194.21105,106.64831c-1.04021,8.071,6.49651,14.3298,14.93472,14.04932,6.88477-.22886,12.18169-4.89467,12.89922-10.462a11.55381,11.55381,0,0,0-3.11183-9.25472,13.992,13.992,0,0,0-1.25407-1.2098,14.17621,14.17621,0,0,0-2.84348-1.88335A15.3773,15.3773,0,0,0,212.22,96.84449a15.82083,15.82083,0,0,0-2.89479-.57751,15.30477,15.30477,0,0,0-3.96122.0767,15.56934,15.56934,0,0,0-2.13792.47338c-4.70764,1.39633-8.38832,4.9685-9.01505,9.83125"/><path class="l" d="M220.64505,111.264c-.65166,5.0562-5.7569,9.28112-12.385,9.46611-8.03539.22474-15.1723-5.37589-14.246-12.563.5579-4.32869,3.99439-7.54408,8.43513-8.84462.32974-.0978.66737-.18448,1.00868-.25747.33562-.07411.67618-.13827,1.01808-.19175a15.63371,15.63371,0,0,1,2.65036-.17647l.00306.00039c.3727.00606.74651.0247,1.122.06027a15.26965,15.26965,0,0,1,1.90312.27793c.29227.06021.586.12721.87539.20376a15.351,15.351,0,0,1,2.52487.90877c.02825.013.05908.02705.08729.0404a13.804,13.804,0,0,1,2.67239,1.62772,12.91957,12.91957,0,0,1,1.2272,1.08352,10.04586,10.04586,0,0,1,3.10338,8.36443"/><path class="n" d="M209.27352,109.89712c-.53626,4.16087-3.66074,7.18678-6.97866,6.75916s-5.57267-4.14683-5.03641-8.3077c.53622-4.16049,3.66031-7.18645,6.97823-6.75883s5.57306,4.14688,5.03684,8.30737"/><path class="o" d="M208.18452,109.75676c-.439,3.40661-2.997,5.88449-5.71356,5.53437s-4.56264-3.3956-4.12358-6.80221c.439-3.40622,2.99694-5.8841,5.7135-5.534s4.56265,3.3956,4.12364,6.80182"/><path class="p" d="M206.2249,109.5042c-.2641,2.04909-1.80325,3.53976-3.43717,3.32918-1.63431-.21064-2.74443-2.04276-2.48034-4.09184.264-2.04871,1.80243-3.53948,3.43673-3.32884,1.63392.21058,2.74482,2.0428,2.48078,4.0915"/><path class="l" d="M202.78018,106.91015a1.43794,1.43794,0,1,1-1.24218-1.60973,1.438,1.438,0,0,1,1.24218,1.60973"/><path class="q" d="M217.80448,105.75522a14.11118,14.11118,0,0,0-1.31658-1.09271,15.185,15.185,0,0,0-2.95924-1.69384,17.28648,17.28648,0,0,0-2.70034-.93138,18.14971,18.14971,0,0,0-2.96677-.50751,17.5875,17.5875,0,0,0-4.02718.08492,17.34092,17.34092,0,0,0-2.15794.43271,12.88384,12.88384,0,0,0-7.41176,4.86972c.99977-3.69539,4.18444-6.42245,8.18374-7.59372a15.70351,15.70351,0,0,1,5.80353-.56641,15.97147,15.97147,0,0,1,2.77793.48317,15.33265,15.33265,0,0,1,2.5241.90867,13.73034,13.73034,0,0,1,2.76121,1.66831,13.21194,13.21194,0,0,1,1.22526,1.08056,10.27958,10.27958,0,0,1,3.17571,7.176,11.16511,11.16511,0,0,0-2.91167-4.31844"/><polygon class="r" points="152.594 88.988 176.031 87.95 175.608 81.6 150.827 84.524 152.594 88.988"/><polygon class="g" points="174.567 80.476 149.794 83.405 151.548 87.861 174.995 86.827 174.567 80.476"/><polygon class="r" points="223.82 99.759 203.147 91.974 205.296 86.417 226.634 96.28 223.82 99.759"/><polygon class="g" points="223.467 98.144 202.797 90.363 204.936 84.8 226.273 94.666 223.467 98.144"/><path class="r" d="M132.98583,82.57468s25.796-8.32632,38.44373-6.45754c0,0,15.55684-9.08242,20.71358-18.48435,0,0-1.81338,7.88484-1.63245,8.97192s-7.84993,8.25608-10.084,9.107c0,0,10.2877-3.29926,11.46313-8.72518,0,0-2.29081,8.27492-4.821,10.22739a123.55133,123.55133,0,0,1,19.20557,3.17245s7.56906-4.04074,9.39926-11.11671c0,0-.77845,8.37721-4.05664,12.74052,0,0,20.73664,3.76087,27.55557,11.54345l-1.33905-6.49817-23.4452-6.49364,3.35334-12.9301-11.83262-2.35341-8.70175-8.1491-8.74461-4.1878Z"/><path class="s" d="M128.5895,93.46329s-20.68789-82.18643,63.82842-76.05808C192.41792,17.40521,131.56868,23.12379,128.5895,93.46329Z"/><path class="t" d="M245.60346,95.63938c-1.06782,3.28228-3.58239,11.77321-4.29346,14.18732l-.237,1.8386c-1.35919-12.69579-3.04789-20.55515-3.04789-20.55515a30.88476,30.88476,0,0,0-7.18749-4.39522c-8.33626-3.84135-19.6565-5.68194-19.6565-5.68194a15.94064,15.94064,0,0,0,3.85695-11.37052c-.01066-.10748-.01944-.16575-.01944-.16575-1.99383,5.97068-8.7436,9.895-8.7436,9.895-6.53777-1.88428-19.93-3.30628-19.93-3.30628a10.52592,10.52592,0,0,0,4.34662-8.3936c-4.01961,6.10953-11.63351,7.683-11.63351,7.683,8.01625-4.37829,13.108-19.12384,13.108-19.12384-6.68491,10.7041-21.23352,18.71327-21.23352,18.71327-16.44549-1.14825-35.13977,6.03279-35.13977,6.03279-2.13967,3.93584-4.15064,20.42521-4.15064,20.42521-.01085-.04219-.01371-.08341-.02461-.12562-.05964-.424-.29109-1.85764-.57339-3.657-.54-3.47316-1.25551-8.30754-1.30359-9.64415-.26045-8.04871-5.25367-36.18206,19.07031-56.70891,15.03843-12.69637,37.75793-14.56751,46.35765-13.72035,8.58164,1.1142,30.10513,8.20592,42.07229,23.836C253.87481,63.1267,248.4065,87.06318,245.60346,95.63938Z"/><path class="h" d="M190.17269,26.414s4.66481,12.92932-6.64963,20.72142C165.93412,59.24869,165.10246,67.36,165.10246,67.36a15.36685,15.36685,0,0,1-.918-12.66748c1.86227-5.56289,11.03549-9.03535,12.577-14.46509,0,0,.40527,2.33081-3.39628,6.89112,0,0-3.31673,3.04141-4.006,6.60849,0,0,.28138-3.49066,11.17617-9.995C190.61713,37.71318,190.41315,32.46454,190.17269,26.414Z"/><path class="l" d="M214.6039,214.992c-.4396-.57983-6.453-9.44406-7.517-10.9515s-1.65639-1.29618-2.38765-1.24723-9.27554.80575-10.26742.89494-1.63988.43257-1.10337,1.323c.47716.79184,5.40749,9.08532,6.4934,10.91187L177.367,219.48145l-15.2406-30.67738c-.617-1.08921-.73373-1.46205-2.32756-1.51393s-13.83631.00845-14.70829.013-1.853.31591-1.14652,2.429,12.19475,32.95981,12.5121,33.85612a2.967,2.967,0,0,0,3.59646,1.99979c2.44654-.3894,10.9441-1.91231,15.58751-2.74859,2.06436,4.542,6.27791,13.7572,7.08587,15.09357,1.07876,1.78417,1.934,1.56977,3.83669,1.15184,1.48551-.32634,23.33951-6.30987,24.32778-6.62924s1.60163-.55483,1.02865-1.56292c-.4212-.74108-5.44191-8.69151-8.072-12.851,2.05349-.37826,9.35556-1.72383,10.13434-1.871C214.88876,215.9992,215.04351,215.57181,214.6039,214.992Zm-40.71212,5.06247c-.26792.03584-12.84453,2.02611-13.51505,2.12529s-.66456.0238-.72223-.208-12.30867-31.48453-12.48213-31.87682-.13942-.68976.05272-.67475,11.73954-.11408,12.147-.10376.35807.09239.48746.3603c0,0,13.99314,29.18193,14.23723,29.6932S174.15968,220.01858,173.89178,220.05443Zm34.29893,9.2437c.17279.32526.3544.53783-.2826.71465s-21.44665,5.43565-21.854,5.57382-.72147.17023-1.17115-.60146-6.15425-12.703-6.15425-12.703l21.92965-3.91334c.54829-.12716.726-.22665,1.02216.33484S208.01791,228.97287,208.19071,229.29813Zm2.57-15.1519c-.4902.06777-8.53484,1.4092-8.53484,1.4092l-5.76254-9.35992c-.16084-.27011-.29131-.53794.16516-.56288s7.89449-.77737,8.23169-.82672.63051-.11733.99354.47164,5.39209,8.08833,5.58177,8.3759-.1846.425-.67479.49278Z"/></g></svg>