<svg xmlns="http://www.w3.org/2000/svg" xmlns:xlink="http://www.w3.org/1999/xlink" viewBox="0 0 381.67354 322.28942"><defs><style>.a{fill:none;}.b{isolation:isolate;}.c{fill:#004d71;}.d{fill:#0090d0;}.e{fill:#4d4d4d;}.f{fill:#cccbcb;}.g{clip-path:url(#a);}.h{fill:url(#b);}.i{fill:#777bb3;}.j,.w{fill:#fff;}.k{fill:#f2f7ff;}.l{fill:#ebba91;}.m{fill:#006b98;}.n{fill:#e3a876;}.o{fill:#221f1f;}.p{fill:#00425c;}.q{fill:#28aae1;}.r{fill:#323031;}.s{fill:#75a4bb;opacity:0.5;mix-blend-mode:multiply;}.t{opacity:0.06;}.u{fill:#95613c;}.v{fill:#c39769;}.w{opacity:0.2;}.x{fill:#90191c;}.y{fill:#c4c3c3;}</style><clipPath id="a"><path class="a" d="M0,194.34233c0,35.787,55.15193,64.79874,123.18261,64.79874h0c68.03068,0,123.183-29.01172,123.183-64.79874h0c0-35.78658-55.15238-64.79874-123.183-64.79874h0C55.15193,129.54359,0,158.55575,0,194.34233"/></clipPath><radialGradient id="b" cx="-49.94709" cy="444.68721" r="0.35643" gradientTransform="matrix(453.82236, 0, 0, -453.82236, 22741.06712, 201961.32688)" gradientUnits="userSpaceOnUse"><stop offset="0" stop-color="#aeb2d5"/><stop offset="0.3" stop-color="#aeb2d5"/><stop offset="0.75" stop-color="#484c89"/><stop offset="1" stop-color="#484c89"/></radialGradient></defs><title>custom-php</title><g class="b"><path class="c" d="M226.91723,238.32882c-2.068,20.30656,22.50429-21.28537,46.69538-3.95474,18.843,13.502,54.6995,3.56354,51.47251-13.8828-5.77583-31.21123,4.76635-84.52373-20.96476-105.99132-36.69753-30.61829-74.52182,97.48322-77.20313,123.82886Z"/><path class="d" d="M264.66573,111.06378c-19.00626,88.2614-114.99832,105.39879-23.15086,145.68729-27.402-66.431,36.11828-60.30523,28.23331-146.06385Z"/><polygon class="e" points="285.026 259.141 346.641 275.47 344.385 285.948 278.078 270.363 285.026 259.141"/><path class="e" d="M342.58223,189.54359s-.5,19.42-4.26,28.06c-5.28,12.16-20.12,50.52-20.12,50.53l-10.05,37.13-10.66,1.12,9.71-40.71.01-.04,6.94-36.72a77.59809,77.59809,0,0,1-23.68,2.36l-.08359,32.895-6.5264,4.985h0l-5.78391,1.20987s-4.08614-38.11985-7.8561-47.67984a66.86339,66.86339,0,0,1-4.17-18.7Z"/><path class="f" d="M344.38454,285.94764l3.33884,17.03229s-3.45429,12.82131,3.56045,16.31737c4.60052,2.29333,6.29592,2.99212,6.29592,2.99212,1.39481-12.91558,4.77815-46.33995,4.77815-46.33995-4.20655-.67994-15.71729-.4797-15.71729-.4797Z"/><path class="f" d="M308.15714,305.26848l16.576,5.1483s13.11684-2.0577,15.84013,5.29185c1.78612,4.82016,2.29884,6.58079,2.29884,6.58079-12.99068,0-46.587-.225-46.587-.225-.2231-4.25523,1.21189-15.67793,1.21189-15.67793Z"/><g class="g"><path class="h" d="M0,194.34233c0,35.787,55.15193,64.79874,123.18261,64.79874h0c68.03068,0,123.183-29.01172,123.183-64.79874h0c0-35.78658-55.15238-64.79874-123.183-64.79874h0C55.15193,129.54359,0,158.55575,0,194.34233"/></g><path class="i" d="M123.18261,254.33c65.37349,0,118.37079-26.85753,118.37079-59.98781,0-33.12983-52.9973-59.98781-118.37079-59.98781S4.81182,161.21232,4.81182,194.34215c0,33.13028,52.9973,59.98781,118.37079,59.98781"/><path d="M66.92637,201.77989c5.37543,0,9.3884-.99132,11.92752-2.94546,2.51195-1.93408,4.24688-5.285,5.15623-9.95913.84786-4.369.52484-7.41956-.95969-9.06583-1.518-1.68146-4.7998-2.53422-9.75419-2.53422H64.7058l-4.76236,24.50464Zm-28.097,30.18527a1.33668,1.33668,0,0,1-1.31167-1.59147l12.62123-64.93775a1.33683,1.33683,0,0,1,1.31211-1.08132H78.653c8.549,0,14.91219,2.32126,18.9118,6.90006,4.021,4.60286,5.2627,11.03689,3.6904,19.123a29.55068,29.55068,0,0,1-9.29038,16.636,26.40836,26.40836,0,0,1-9.907,5.93636,44.87619,44.87619,0,0,1-13.61032,1.75052H57.43282l-3.1455,16.18287a1.3363,1.3363,0,0,1-1.31167,1.08177Z"/><path class="j" d="M65.80771,178.61164h7.48862c5.97958,0,8.05668,1.31211,8.76241,2.094,1.17088,1.29831,1.39187,4.0357.63935,7.9159-.84563,4.344-2.413,7.424-4.65945,9.15359-2.29987,1.77058-6.03883,2.66789-11.11218,2.66789H61.56484ZM78.653,163.01778H51.45066a2.67313,2.67313,0,0,0-2.62378,2.16309L36.20566,230.11862a2.67225,2.67225,0,0,0,2.62378,3.18293H52.9753a2.67324,2.67324,0,0,0,2.62422-2.16309l2.93521-15.10155h9.9128a46.18124,46.18124,0,0,0,14.02512-1.81646A27.74317,27.74317,0,0,0,92.87777,207.99a30.88657,30.88657,0,0,0,9.68958-17.35775c1.65517-8.51157.31054-15.32743-3.996-20.25687-4.2647-4.88222-10.9665-7.35763-19.91827-7.35763m-20.33128,40.0985h8.6047q8.555,0,12.74286-3.223,4.18761-3.22394,5.653-10.76289,1.40412-7.23912-1.27914-10.21576-2.68659-2.976-10.74684-2.9762H63.60407l-5.28231,27.17787M78.653,165.691q12.27483,0,17.90532,6.44294,5.62784,6.44316,3.38476,17.98864a28.21345,28.21345,0,0,1-8.88271,15.90707,24.98548,24.98548,0,0,1-9.41557,5.649,43.3628,43.3628,0,0,1-13.19731,1.685H56.33065L52.9753,230.62831H38.82943L51.45066,165.691H78.653"/><path d="M133.68976,214.70052a1.33728,1.33728,0,0,1-1.31211-1.59147l5.58305-28.73236c.53108-2.73249.40009-4.69375-.36847-5.52245-.47048-.50658-1.88373-1.35622-6.06244-1.35622H121.41516l-7.01947,36.12073a1.33677,1.33677,0,0,1-1.31211,1.08177H99.04911a1.33668,1.33668,0,0,1-1.31212-1.59147l12.62123-64.93775a1.33683,1.33683,0,0,1,1.31211-1.08133h14.03448a1.33619,1.33619,0,0,1,1.31211,1.59147l-3.0457,15.67318h10.88095c8.28925,0,13.91017,1.46136,17.184,4.46786,3.33709,3.06709,4.37831,7.97114,3.09516,14.57759l-5.8722,30.21868a1.33642,1.33642,0,0,1-1.31211,1.08177Z"/><path class="j" d="M125.70485,145.75314H111.67037a2.67325,2.67325,0,0,0-2.62422,2.1631L96.42492,212.854a2.67286,2.67286,0,0,0,2.62423,3.18292h14.03447a2.6736,2.6736,0,0,0,2.62423-2.16309l6.80917-35.03941h9.01281c4.17158,0,5.04706.89108,5.08226.9294.25307.27222.58588,1.5331.03654,4.35781l-5.583,28.73237a2.67286,2.67286,0,0,0,2.62422,3.18292h14.25725a2.67358,2.67358,0,0,0,2.62422-2.16309l5.87176-30.21867c1.37805-7.09343.19915-12.4145-3.50238-15.81664-3.53224-3.244-9.449-4.82073-18.08844-4.82073h-9.26008l2.737-14.08126a2.67348,2.67348,0,0,0-2.62423-3.18338m0,2.67324L122.3495,165.691h12.50271q11.80032,0,16.27955,4.11589,4.47967,4.11678,2.68749,13.33854l-5.8722,30.21824H133.6898l5.58305-28.73192q.953-4.9027-.70128-6.68665-1.6554-1.783-7.04174-1.78393H120.31294l-7.22932,37.2025H99.04915l12.62122-64.9373h14.03448"/><path d="M177.33778,201.77989c5.37543,0,9.3884-.99132,11.92753-2.94546,2.512-1.93364,4.24687-5.28453,5.15667-9.95913.84786-4.369.52484-7.41956-.96014-9.06583-1.51795-1.68146-4.79979-2.53422-9.75419-2.53422h-8.59043l-4.76237,24.50464Zm-28.09657,30.18527a1.33728,1.33728,0,0,1-1.31211-1.59147l12.62122-64.93775a1.3373,1.3373,0,0,1,1.31256-1.08132h27.20149c8.54945,0,14.91219,2.32126,18.91224,6.90006,4.021,4.60242,5.26226,11.03645,3.6904,19.123a29.55467,29.55467,0,0,1-9.29083,16.636,26.40832,26.40832,0,0,1-9.907,5.93636,44.87626,44.87626,0,0,1-13.61033,1.75052H167.84379l-3.14417,16.18287a1.33725,1.33725,0,0,1-1.31255,1.08177Z"/><path class="j" d="M176.21916,178.61164h7.48862c5.97958,0,8.05668,1.31211,8.76242,2.094,1.17132,1.29831,1.39231,4.0357.63935,7.91545-.84564,4.34445-2.41349,7.42446-4.65945,9.154-2.29987,1.77058-6.03884,2.66789-11.11219,2.66789h-5.36117Zm12.84534-15.59386H161.86256a2.67313,2.67313,0,0,0-2.62378,2.16309l-12.62123,64.93775a2.67227,2.67227,0,0,0,2.62378,3.18293H163.3872a2.6736,2.6736,0,0,0,2.62422-2.16309l2.93477-15.10155H178.859a46.18124,46.18124,0,0,0,14.02512-1.81646,27.743,27.743,0,0,0,10.406-6.23131,30.886,30.886,0,0,0,9.68869-17.35686c1.65518-8.512.31054-15.32787-3.996-20.25732-4.2647-4.88177-10.96605-7.35718-19.91826-7.35718m-20.33084,40.0985h8.60425q8.555,0,12.74286-3.223,4.18829-3.22394,5.653-10.76289,1.40478-7.23912-1.27914-10.21576-2.68661-2.976-10.74685-2.9762h-9.69225l-5.28187,27.17787M189.0645,165.691q12.27481,0,17.90532,6.44294,5.6285,6.44316,3.38475,17.98864a28.21336,28.21336,0,0,1-8.8827,15.90707,24.98544,24.98544,0,0,1-9.41558,5.649,43.36276,43.36276,0,0,1-13.19731,1.685H166.7421l-3.3549,17.26463H149.24133l12.62123-64.9373H189.0645"/><path class="k" d="M266.86907,208.141c-2.27552-8.6231-4.28777-16.85924-6.05887-24.577-3.98194-17.35171-6.745-32.08312-8.54041-42.7008-1.93754-11.45789-3.31256-22.36124-3.31256-22.36124,6.125-3.66558,12.91346-5.84315,18.63042-8.16169a60.15065,60.15065,0,0,1,7.90133-2.6314c3.57356.37842,9.41127,3.18313,12.8992,2.55926,3.605-.64476,8.59537-5.07306,11.89726-6.75157a50.351,50.351,0,0,1,6.6657-.16184,59.84485,59.84485,0,0,1,23.20372,5.31488s1.82231,10.09993,4.12765,23.68513c2.1363,12.589,4.68739,28.1708,6.58756,41.48187.84516,5.92055,1.56155,11.39186,2.0554,15.95079l-16.80289,4.0548-44.42041,10.71934Z"/><path class="d" d="M292.42448,138.2021a20.16953,20.16953,0,0,0-7.69654,9.32274c-2.47959,6.28207-1.41355,12.12143-.08067,14.904a11.19079,11.19079,0,0,0,10.07492,6.7605,10.08227,10.08227,0,0,0,6.6638-2.50979c2.07694-1.90881,2.33111-3.87006,4.65023-5.48462a9.4236,9.4236,0,0,1,7.5266-1.5034,18.82239,18.82239,0,0,1-8.41,13.60014c-7.90354,5.128-17.83992,3.90946-23.761-1.59675a19.60011,19.60011,0,0,1-6.04525-10.5139,19.32226,19.32226,0,0,1,1.31826-11.842C280.06564,141.89555,286.55131,138.94,292.42448,138.2021Z"/><path class="d" d="M298.20394,146.3863a14.2357,14.2357,0,0,1,1.49745.88786,9.32509,9.32509,0,0,0,4.84894,2.07089,9.7781,9.7781,0,0,0,5.92123-1.31641,9.52238,9.52238,0,0,0-4.99259-3.11087A9.324,9.324,0,0,0,298.20394,146.3863Z"/><path class="c" d="M299.89145,166.24892a12.48176,12.48176,0,0,1-6.83729-9.54157,12.23754,12.23754,0,0,1,3.19994-10.3536,10.45241,10.45241,0,0,1,5.28975-2.71733,10.26016,10.26016,0,0,1,9.97276,3.65661s3.3343-2.41524,2.41414-6.29763a6.15174,6.15174,0,0,0-3.86692-3.98577,18.44474,18.44474,0,0,0-9.22323-.66722,19.56029,19.56029,0,0,0-10.76647,5.3888,18.49391,18.49391,0,0,0-4.35941,6.76806,19.20287,19.20287,0,0,0-.82655,10.7121,11.80015,11.80015,0,0,0,3.46438,6.17241A9.12518,9.12518,0,0,0,299.89145,166.24892Z"/><path class="c" d="M305.79213,174.39667a19.65961,19.65961,0,0,0,10.966-4.72406,5.79738,5.79738,0,0,0,1.40845-6.6215,6.30035,6.30035,0,0,0-3.36811-2.97134,20.49146,20.49146,0,0,1-2.09163,6.70964A20.20039,20.20039,0,0,1,305.79213,174.39667Z"/><path class="d" d="M268.31524,145.94262a3.11258,3.11258,0,0,1-1.76336-4.44812,3.20274,3.20274,0,0,1,1.28877-1.54554l1.25766.58363a2.34115,2.34115,0,0,0-1.17145,1.18554c-.41467.89367-.17693,1.74709,1.2341,2.4019,1.40079.65,2.21621.28533,2.63088-.60834a2.23352,2.23352,0,0,0,.149-1.66l1.24742.57888a3.20569,3.20569,0,0,1-.33787,1.98679A3.11236,3.11236,0,0,1,268.31524,145.94262Z"/><path class="d" d="M270.76206,140.641a3.31125,3.31125,0,1,1,4.7868-.55041A3.15016,3.15016,0,0,1,270.76206,140.641Zm2.75385-3.68689c-1.26436-.9444-2.01313-1.03446-2.56389-.29708s-.25194,1.42978,1.01243,2.37419,2.01313,1.03447,2.56389.29708S274.78027,137.8985,273.51591,136.95409Z"/><path class="d" d="M273.2321,132.08512l1.94376-1.63619c1.97351-1.66119,3.737-1.15647,4.93478.26644s1.39439,3.24661-.57912,4.90784l-1.94375,1.63619Zm5.38913,2.69828c.98179-.82646.999-1.65137.01177-2.82419s-1.80307-1.29654-2.78487-.47011l-.36693.30887,2.7731,3.2943Z"/><path class="d" d="M279.33854,127.30629l3.849-2.09353.59782,1.09916-2.17506,1.183.67322,1.23781,1.71954-.93529.59781,1.09917-1.71954.93528.76477,1.40611,2.175-1.183.59781,1.09913-3.849,2.09356Z"/><path class="c" d="M285.276,127.94531a3.11268,3.11268,0,0,1,2.02438-4.3357,3.20268,3.20268,0,0,1,2.00859-.12362l.43885,1.31521a2.34121,2.34121,0,0,0-1.66626-.03814c-.93453.31186-1.392,1.07058-.89961,2.54622.4888,1.46492,1.31375,1.80755,2.24827,1.49569a2.23354,2.23354,0,0,0,1.30949-1.03115l.43528,1.30454a3.20613,3.20613,0,0,1-1.67678,1.11808A3.11242,3.11242,0,0,1,285.276,127.94531Z"/><path class="c" d="M290.73635,122.76816l1.88476-.28065.81173,5.45208,2.44891-.36467.18427,1.23762-4.33367.64532Z"/><path class="c" d="M295.74528,125.37688a3.31127,3.31127,0,1,1,3.14958,3.64645A3.15007,3.15007,0,0,1,295.74528,125.37688Zm4.59748.20067c.06881-1.5766-.27825-2.24615-1.19775-2.28629s-1.32357.59664-1.39238,2.17324.27826,2.24615,1.19775,2.28628S300.274,127.15414,300.34276,125.57755Z"/><path class="c" d="M303.06555,126.67035l1.15545-4.06606,1.84545.52438-1.15852,4.07693c-.24033.84574-.0426,1.33552.68062,1.541s1.149-.1071,1.38929-.95285l1.15854-4.0769,1.80805.51378-1.15545,4.06607c-.50224,1.76739-1.9741,2.2046-3.58264,1.74752C303.58532,129.5836,302.56332,128.43775,303.06555,126.67035Z"/><path class="c" d="M311.80577,125.00558l2.22333,1.22963c2.25735,1.24843,2.417,3.0757,1.51688,4.70326s-2.53276,2.46362-4.79012,1.21515l-2.22333-1.22963Zm-.59139,5.9976c1.123.62107,1.89948.34206,2.64141-.99946s.56555-2.14753-.55745-2.76863l-.41971-.23212-2.084,3.76806Z"/><path class="c" d="M315.53051,135.53475a3.757,3.757,0,0,1-1.33155-2.23365l1.194-.69986a3.08785,3.08785,0,0,0,.97187,1.9562.71719.71719,0,0,0,1.0529.02447c.239-.29989.18818-.63968-.25472-1.35873-.772-1.252-.82325-2.1702-.17187-2.93317.84165-.9859,2.09114-.91214,3.19531.03057a3.83646,3.83646,0,0,1,1.25372,1.88559l-1.09128.63936a3.26034,3.26034,0,0,0-.92777-1.48873c-.34506-.2946-.67875-.28308-.88368-.043-.19761.23146-.17161.52043.14762,1.045.819,1.33657,1.00577,2.35567.28854,3.19581C317.89775,136.81477,316.55581,136.41012,315.53051,135.53475Z"/><path class="d" d="M278.74915,183.0551a3.04214,3.04214,0,0,0,1.07785,1.3386c.43893.28206.87737.29677,1.13983-.11168.31339-.4877-.10684-.85248-.57019-1.39138-.49429-.58466-.89324-1.23721-.38791-2.02365a1.54824,1.54824,0,0,1,2.31013-.32437,3.2421,3.2421,0,0,1,1.10307,1.16533l-.50141.78032a3.05958,3.05958,0,0,0-1.05042-1.26068c-.41454-.26639-.81293-.28981-1.05188.08206-.30164.4694.12251.82809.54711,1.33348.523.62032.92415,1.28293.40315,2.09372a1.60472,1.60472,0,0,1-2.39023.34181,3.60293,3.60293,0,0,1-1.15011-1.21277Z"/><path class="d" d="M283.49918,183.27713l.77981.40088-1.63007,3.17082-.77981-.40089Zm1.18166-1.33173a.54352.54352,0,1,1-.73829.23156A.54746.54746,0,0,1,284.68084,181.9454Z"/><path class="d" d="M289.04014,187.15512a.83417.83417,0,0,0,.04657-.61348.57592.57592,0,0,0-.36826-.32907,1.32851,1.32851,0,0,0-.98026.10106,2.03489,2.03489,0,0,1-.06522.20752l-.73986,2.10573-.82725-.29065.69181-1.969a.82938.82938,0,0,0,.06023-.60868.59706.59706,0,0,0-.37509-.33147,1.33636,1.33636,0,0,0-.98266.10791l-.80951,2.304-.82726-.29065,1.18184-3.36373.82042.28825-.12491.35554.01128.01164a1.67348,1.67348,0,0,1,1.22711-.06044,1.16858,1.16858,0,0,1,.82.87955,1.90094,1.90094,0,0,1,1.41559-.09406,1.2323,1.2323,0,0,1,.755.64932,1.44809,1.44809,0,0,1-.05432,1.09464l-.73986,2.10573-.82725-.29065Z"/><path class="d" d="M291.25415,191.39692l-.8655-.14022.82517-5.09291.85836.1391-.03246.20029.01315.00946a1.64079,1.64079,0,0,1,.98339-.1343,1.7233,1.7233,0,0,1,1.38656,2.08919,1.87258,1.87258,0,0,1-2.88549,1.27224l-.01546.00482Zm1.08888-2.09919a1.01842,1.01842,0,0,0,1.199-.92152,1.04086,1.04086,0,0,0-.81946-1.28527,1.23946,1.23946,0,0,0-.79278.13584l-.2851,1.75961A1.56272,1.56272,0,0,0,292.343,189.29773Z"/><path class="d" d="M295.54327,184.76826l.87529.05205-.32864,5.52661-.87528-.052Z"/><path class="d" d="M297.53674,192.00112l.87683-2.01858-1.58489-3.11864.94867-.03434.525,1.08317c.196.40622.35288.7341.51859,1.10516l.01448-.00053c.15214-.40432.31851-.81639.47815-1.21376l.42625-1.0451.89073-.03224-2.18139,5.24184Z"/><path class="d" d="M302.4304,184.78278l1.42561-.33218a2.8142,2.8142,0,0,1,1.51091-.06189,1.17313,1.17313,0,0,1,.84.89061,1.08556,1.08556,0,0,1-.52587,1.22376l.00328.0141a1.2085,1.2085,0,0,1,1.25843.994,1.37446,1.37446,0,0,1-.3909,1.356,3.01644,3.01644,0,0,1-1.50522.693l-1.4256.33218Zm2.2003,1.779c.494-.11511.83284-.41729.721-.89722a.6139.6139,0,0,0-.4475-.48352,1.7954,1.7954,0,0,0-.92213.066l-.47285.1102.324,1.39031Zm.27572,2.20512a1.92653,1.92653,0,0,0,.97352-.42027.66353.66353,0,0,0,.16157-.64781c-.11512-.494-.55542-.65928-1.23293-.5014l-.82573.1924.35192,1.51029Z"/><path class="d" d="M307.15143,185.29842l.81775-.29566.17.47021.01609.00189a1.24667,1.24667,0,0,1,.7897-.86345.8995.8995,0,0,1,.23473-.05405l.28582.79049a1.13174,1.13174,0,0,0-.2849.06449,1.1668,1.1668,0,0,0-.75374.835l.76136,2.10574-.82457.29815Z"/><path class="d" d="M309.37869,182.57273a.54351.54351,0,1,1-.27945.72152A.54747.54747,0,0,1,309.37869,182.57273Zm.30407,1.75429.79972-.35958,1.462,3.2518-.79973.35956Z"/><path class="d" d="M310.4376,181.7981l.776-.40817,2.57708,4.89975-.776.40814Z"/><path class="d" d="M311.95308,180.97147l.74934-.45523,2.87434,4.73144-.74935.45523Z"/><path class="d" d="M313.91738,180.00321a.5435.5435,0,1,1-.14188.7606A.54743.54743,0,0,1,313.91738,180.00321Zm.62167,1.66829.71987-.50055,2.03535,2.9271-.71988.50056Z"/><path class="d" d="M319.72123,181.84682a1.71247,1.71247,0,0,1-.58914.94243,1.39487,1.39487,0,0,1-.78564.34979.98334.98334,0,0,1-.83257-.369,1.00755,1.00755,0,0,1-.207-.95349,1.80105,1.80105,0,0,1,.60557-.833,2.98709,2.98709,0,0,1,.57761-.38289l-.13548-.16063a.63058.63058,0,0,0-.44595-.259.88935.88935,0,0,0-.57187.2548,2.01789,2.01789,0,0,0-.61425.93515l-.51389-.6093a2.46816,2.46816,0,0,1,.73263-.9971,1.79343,1.79343,0,0,1,1.0901-.48332,1.16823,1.16823,0,0,1,.9.48268l.883,1.04693c.12614.14955.2703.20808.40324.096a.46173.46173,0,0,0,.11685-.16492l.44382.52624a1.05153,1.05153,0,0,1-.27629.34678.88564.88564,0,0,1-.7697.22256Zm-.86207-.80857a2.29293,2.29293,0,0,0-.4677.29966c-.27695.23358-.47363.55112-.24938.817.18687.22154.46951.1633.70769-.0376a1.26382,1.26382,0,0,0,.39715-.61934Z"/><path class="d" d="M318.86572,178.18691l.58555-.64285.28393.2586.01512-.00582a1.75733,1.75733,0,0,1,.44228-1.185,1.24367,1.24367,0,0,1,.91291-.44272,1.41286,1.41286,0,0,1,.98175.48253l1.63933,1.49316-.59044.6482-1.52682-1.39065a.88669.88669,0,0,0-.5476-.30276.58163.58163,0,0,0-.46181.2165,1.35342,1.35342,0,0,0-.29732.9936l1.78933,1.62978-.59043.64823Z"/><path class="d" d="M325.71455,175.28992a1.57366,1.57366,0,0,1-.28773.68564,1.142,1.142,0,0,1-.79005.50292,1.41892,1.41892,0,0,1-.99876-.36117l-1.24137-.89263-.36382.50595-.606-.43575.36383-.506-.77071-.55419.38835-.80071.89424.643.588-.81778.606.43575-.588.81775,1.14135.82073c.32358.23269.63651.36844.86919.04487a1.18541,1.18541,0,0,0,.18951-.52422Z"/><path class="d" d="M321.8278,171.76666l.5237-.86891,2.93758,2.03284-.29176.48411Zm3.89259,1.75388a.54349.54349,0,1,1,.18493.746A.54746.54746,0,0,1,325.72039,173.52054Z"/><path class="l" d="M381.67354,153.26323l-.26234,1.4379c-.16757.84491-2.93068,21.176-13.82494,33.7235l-2.62094,8.23231-22.11024,14.80225-7.71842-8.61592-3.019-6.22811,10.34749-11.3479-1.02547-7.91769s18.11793,1.51978,19.13922.80082a46.436,46.436,0,0,0,14.79672-23.13276l-18.4009-14.49738-24.5165-19.32968-.1728-.92117-1.9282-11.02314,29.86325,25.61024Z"/><path class="l" d="M283.86338,189.89238l-4.98949-3.94616s4.20016,4.84737,6.10094,16.11605l-6.15586,4.25806-8.29924,1.28576s-2.29228-8.15889-12.15446-17.17833l-1.52411-8.54366c-2.27842-2.636-9.48532-8.25857-19.93246-15.389-4.62813-3.15883-28.95147-17.10358-28.95147-17.10358l32.65783-25.18132,2.82348,13.04923-22.48131,12.13209s15.61421,7.5748,25.03088,13.46916,18.67745,10.94043,18.67745,10.94043l11.66667,3.24251,8.43021,9.67737Z"/><path class="m" d="M330.15486,108.12789c9.40061,5.04387,16.71582,10.98839,32.203,23.00185l-7.41739,12.93148c-9.99591-7.8907-17.18353-16.25722-21.935-19.71115Z"/><path class="m" d="M251.48276,136.05756c-4.5037,1.53639-18.44207,9.012-24.87344,13.33393l-9.57526-12.13209c14.02667-9.0546,27.04817-16.53665,31.92317-18.75748C248.95723,118.50192,250.96535,129.03964,251.48276,136.05756Z"/><path class="n" d="M319.953,61.7641c.51754,5.708,3.7011,9.84987,7.13883,9.7733,6.55579-.14635,3.06984-6.05886,3.66554-14.14583.42129-5.71643-2.11573-6.836-5.54028-6.52548-3.4245.31113-5.78163,5.19-5.26409,10.898Z"/><path class="n" d="M249.12438,66.69059c.27767,5.72468-2.30184,10.2674-5.71707,10.66749-6.51293.76264-3.87907-5.57552-5.5886-13.50216-1.20861-5.60306,1.149-7.06306,4.58355-7.22964,3.43459-.166,6.44446,4.33965,6.72212,10.06431Z"/><path class="l" d="M251.10853,106.52966a16.15667,16.15667,0,0,0,1.91415,1.48139c5.017,3.31549,11.83772,4.89186,18.0844,5.59372a86.16027,86.16027,0,0,0,14.90946.32791,100.26323,100.26323,0,0,0,25.22959-5.78467c4.34361-1.69967,8.15022-3.768,10.46888-6.203,9.00975-9.462,5.875-34.23834,3.55314-57.29169-.52876-5.25-1.29287-7.89426-4.28332-12.34348a7.11808,7.11808,0,0,0-3.48794-2.19374c-1.44437-.49144-7.20594-.64629-10.37977-.67208-6.91786-.05622-12.99934.72324-26.38956,1.73628-8.37326.63349-16.01591,1.34475-22.05636,2.06674-7.46315.892-12.48047,1.80049-13.408,2.59887-2.37508,2.04438-4.08946,8.06437-4.44949,14.22643-.073,1.24882-.0903,2.50346-.04624,3.732C241.80743,82.8012,242.86373,99.09745,251.10853,106.52966Z"/><path class="o" d="M278.20942,70.12468c.2296,6.3565-6.08612,10.68623-12.63356,9.86153-5.34237-.67287-9.12944-4.685-9.28782-9.06971a9.03147,9.03147,0,0,1,3.08676-6.97945,11.06763,11.06763,0,0,1,3.41177-2.113,12.01865,12.01865,0,0,1,2.11071-.624,12.36568,12.36568,0,0,1,2.29457-.24146,11.96253,11.96253,0,0,1,3.07756.34437,12.16939,12.16939,0,0,1,1.63.52207,9.4471,9.4471,0,0,1,6.31005,8.29967Z"/><path class="j" d="M278.25146,71.32111c.20446,5.66039-5.75008,9.50647-11.988,8.7541-5.14541-.62029-8.81529-4.27579-8.95912-8.25764a7.85266,7.85266,0,0,1,3.0162-6.28713,10.32963,10.32963,0,0,1,1.03121-.75506,10.60855,10.60855,0,0,1,2.19461-1.07234c.02494-.01085.04994-.01959.075-.02773a12.001,12.001,0,0,1,2.03075-.52587c.23074-.03879.46206-.06975.69326-.09589a12.093,12.093,0,0,1,1.5039-.07965c.29212-.0003.5825.00941.873.03178l.00461.00224a11.674,11.674,0,0,1,2.05223.32774c.26227.0662.52052.138.7765.22218.26041.08164.517.17337.76867.27281,3.361,1.33172,5.804,4.08128,5.92719,7.49046Z"/><path class="p" d="M275.7153,71.229c.11837,3.277-1.90382,6.00968-4.51693,6.10407-2.61342.0944-4.82749-2.48526-4.94586-5.76226-.11836-3.27671,1.90383-6.00939,4.51724-6.10379,2.61312-.09438,4.82719,2.48528,4.94555,5.762Z"/><path class="q" d="M274.85793,71.26c.09691,2.683-1.55907,4.92066-3.69828,4.99793-2.13981.07729-3.95262-2.0351-4.04953-4.71807-.09691-2.68267,1.55878-4.92034,3.69859-4.99764,2.1392-.07727,3.95232,2.03511,4.04922,4.71778Z"/><path class="r" d="M273.31427,71.31576a2.39173,2.39173,0,1,1-2.43564-2.83786,2.679,2.679,0,0,1,2.43564,2.83786Z"/><path class="j" d="M270.32647,69.75582a1.12393,1.12393,0,1,1-1.16361-1.08248,1.12378,1.12378,0,0,1,1.16361,1.08248Z"/><path class="s" d="M259.91047,67.73407a11.03159,11.03159,0,0,1,1.10324-.75586,11.86969,11.86969,0,0,1,2.42494-1.10568,13.511,13.511,0,0,1,2.16865-.53085,14.18578,14.18578,0,0,1,2.34556-.1818,13.74669,13.74669,0,0,1,3.12831.3555,13.57145,13.57145,0,0,1,1.64846.49186,10.07033,10.07033,0,0,1,5.41874,4.32281,8.9092,8.9092,0,0,0-5.82412-6.49841,12.26982,12.26982,0,0,0-4.476-.85792,12.48415,12.48415,0,0,0-2.19682.17643,11.98506,11.98506,0,0,0-2.02985.52584,10.72569,10.72569,0,0,0-2.269,1.1,10.29326,10.29326,0,0,0-1.03129.753,8.03476,8.03476,0,0,0-2.98739,5.35693,8.7269,8.7269,0,0,1,2.57653-3.15186Z"/><path class="o" d="M290.67914,69.67426c.22961,6.3565,6.84125,10.21928,13.31212,8.92434,5.2796-1.05654,8.76764-5.33147,8.60926-9.71617a9.03082,9.03082,0,0,0-3.58257-6.73855,10.94052,10.94052,0,0,0-1.12167-.77257,11.08052,11.08052,0,0,0-2.43336-1.08877,12.0197,12.0197,0,0,0-2.15024-.47012,12.36741,12.36741,0,0,0-2.306-.07528,11.96257,11.96257,0,0,0-3.04469.56551,12.1688,12.1688,0,0,0-1.588.63831,9.4471,9.4471,0,0,0-5.6948,8.7333Z"/><path class="j" d="M311.65248,69.85439c.14384,3.98215-3.25275,7.8926-8.34,8.88251-6.16737,1.20046-12.38659-2.20589-12.591-7.86628-.12314-3.40918,2.11572-6.32786,5.37374-7.89836.24175-.11757.491-.22757.74488-.32748.24932-.1.50373-.193.76053-.278a12.22047,12.22047,0,0,1,2.02114-.47488l.00241-.00008c.28817-.043.57879-.07638.87289-.09695a11.93406,11.93406,0,0,1,1.503-.029c.23307.00907.46813.02319.70106.04522a11.99963,11.99963,0,0,1,2.0631.378l.07247.02a10.7901,10.7901,0,0,1,2.26876.91353,10.10028,10.10028,0,0,1,1.08481.67863,7.85215,7.85215,0,0,1,3.46224,6.05312Z"/><path class="p" d="M302.70914,70.254c.11837,3.277-1.90412,6.0097-4.51724,6.10409s-4.82718-2.48528-4.94555-5.76228c-.11836-3.27671,1.90382-6.00938,4.51694-6.10377s4.82749,2.48526,4.94585,5.762Z"/><path class="q" d="M301.85147,70.285c.09691,2.683-1.55878,4.92065-3.69829,4.99793s-3.95231-2.03511-4.04922-4.71808c-.09691-2.68266,1.55878-4.92034,3.69828-4.99762s3.95233,2.03511,4.04923,4.71777Z"/><path class="r" d="M300.30811,70.34071a2.39173,2.39173,0,1,1-2.43594-2.83785,2.67918,2.67918,0,0,1,2.43594,2.83785Z"/><path class="j" d="M297.32028,68.78077a1.12393,1.12393,0,1,1-1.16361-1.08248,1.124,1.124,0,0,1,1.16361,1.08248Z"/><path class="s" d="M308.75792,65.96965a11.02967,11.02967,0,0,0-1.1549-.6743,11.869,11.869,0,0,0-2.4984-.92784,13.51161,13.51161,0,0,0-2.20129-.373,14.18659,14.18659,0,0,0-2.35257-.01209,13.74664,13.74664,0,0,0-3.0945.58027,13.55368,13.55368,0,0,0-1.60868.60951,10.07036,10.07036,0,0,0-5.09273,4.7025,8.90937,8.90937,0,0,1,5.33979-6.90166,12.27424,12.27424,0,0,1,4.40271-1.17863,12.48415,12.48415,0,0,1,2.20383.01747,11.98583,11.98583,0,0,1,2.0625.378,10.73245,10.73245,0,0,1,2.34244.93348A10.328,10.328,0,0,1,308.189,63.8a8.03479,8.03479,0,0,1,3.3661,5.12744,8.7269,8.7269,0,0,0-2.79722-2.95775Z"/><polygon class="t" points="256.444 61.315 274.909 56.879 273.594 51.898 254.352 58.04 256.444 61.315"/><polygon class="u" points="272.594 51.165 253.359 57.31 255.44 60.58 273.912 56.146 272.594 51.165"/><polygon class="t" points="311.967 58.855 293.455 56.26 294.17 51.144 313.626 55.369 311.967 58.855"/><polygon class="u" points="311.37 57.557 292.86 54.965 293.567 49.846 313.021 54.073 311.37 57.557"/><path class="v" d="M240.06578,27.5039a12.80557,12.80557,0,0,1,6.997.13992,36.15992,36.15992,0,0,1,7.95065,2.93538c1.59638.93157,5.44981,4.14907,5.26755,6.29433-.14489,1.63412-1.73235,1.13434-3.10422,1.31072-2.54509.34137-5.42375.95756-7.4559,2.428-7.00733,5.06814-7.273,15.65821-7.21985,23.3953.01172,1.73588.49992,4.02806-.50908,5.51375-3.71066-1.75156-4.97971-9.43138-6.30965-12.9834-2.78429-7.38963-4.99137-17.98686-.67395-25.261a8.38056,8.38056,0,0,1,5.05745-3.773Z"/><path class="u" d="M261.71454,34.69683a16.33729,16.33729,0,0,0-7.64661-.07943c-.267.06853-.53587.15167-.80635.24093q-.18447.05947-.3693.12563c-.145.052-.29043.10819-.43583.16563-.2328.091-.46479.18733-.69836.29045-.077.03434-.1542.06565-.23121.10119l.00377.00352c-4.474,2.066-8.91039,6.39922-10.20769,10.87453-2.16084,7.4675.01367,14.08838,1.22764,21.40242a17.58156,17.58156,0,0,0,.37212-3.42475c-.0525-7.73712.21253-18.32717,7.21988-23.3947,2.03212-1.47107,4.91078-2.08726,7.45588-2.42863.63548-.08181,1.315-.02018,1.87806-.0909.48519.10872.96808.22114,1.44477.34655.36028.095.711.1934,1.06407.2911Z"/><path class="v" d="M330.0331,37.21514a44.89517,44.89517,0,0,1,.52844,12.79838c-.26054,2.81746-.58221,9.151-3.11878,10.9043-1.94584-2.39-1.43867-6.09154-2.17773-8.92753-.74674-2.914-1.62145-6.31313-3.518-8.76624-3.9231-5.11273-10.31527-8.1827-9.12034-15.44173.87964-5.319,6.50654-5.27279,10.45507-2.81613,4.11675,2.56044,6.0804,7.71178,6.95131,12.24895Z"/><path class="v" d="M321.74946,43.22092c-7.46607-8.20288-11.171-9.59049-24.4949-9.3103-.55045.01113-1.11833.02289-1.72117.036a118.49566,118.49566,0,0,0-23.22952,1.75715c-7.70789,2.28943-9.58609,8.87128-6.58077,13.88647a15.91475,15.91475,0,0,1-7.3756-11.99215c-9.8383-1.01733-14.83039-9.4757-14.83039-9.4757s-1.76481-8.19023,5.09607-15.77395a6.99376,6.99376,0,0,1-4.571-3.57719c1.69686,1.46884,6.30917,1.69156,7.0216,1.22405,1.21742-.79889,2.37292-1.84319,3.81091-2.69953a2.38588,2.38588,0,0,1-1.08455-1.2199,2.63569,2.63569,0,0,0,2.51538.40753c6.20285-2.32764,11.51789-4.77034,20.61405-5.9033C315.219-4.19588,328.41277,21.45347,321.74946,43.22092Z"/><path class="w" d="M302.00654,12.30385c-3.07115,6.9979-8.18475,8.86367-14.99752,11.15254-2.94.985-5.646,2.1648-8.65045,3.12843-5.74986,1.842-11.5626,3.45571-14.25185,9.55071-2.40286-2.40811-3.084-6.16138-2.44612-9.41912a12.53163,12.53163,0,0,1,4.23093-6.92992c3.4395-2.79819,9.51422-3.39207,11.1871-7.76928a9.72255,9.72255,0,0,1-3.93234,7.21591c-1.93967,1.42647-5.74971,3.02243-5.09637,6.05571,2.1961-5.71851,14.0286-5.93593,18.83362-7.60789,7.24332-2.51683,14.435-5.32068,15.53484-13.95209.51446,2.73365,1.04027,5.26053-.41184,8.575Z"/><path class="u" d="M283.6951,34.25936c.55734-.07777,17.59041-.375,23.39913-19.18714,2.40421,9.46859-.647,16.31162-.647,16.31162s4.70583-1.09124,5.30847-4.03154c.58464,2.76147-.47215,4.01584-.57841,5.45921.80179.33882,2.961-.184,5.21045-1.75518,3.06574,3.74,4.60285,6.87788,3.97365,10.67907-8.51389-8.78362-16.0917-7.74827-36.66625-7.476Z"/><path class="u" d="M258.47436,38.52572s-1.26466-5.02121,1.6245-13.19292c-4.32471,1.81363-8.94464,8.62652-8.75923,11.65911Z"/><path class="w" d="M244.83259,33.29571c3.19125-.79984,4.01674-3.68627.43844-4.54564-3.90019-.9333-7.4836,1.94654-8.83047,5.36888-1.33552,3.38369-.24113,5.57265-.1153,8.77063-.21-5.39431,3.84664-8.429,8.50733-9.59387Z"/><path class="t" d="M322.64863,44.58513l-.04522-.04207c-.45554-.50819-.91013-.99011-1.34629-1.44655C312.74731,34.31927,305.169,35.3537,284.6138,35.624A103.82687,103.82687,0,0,0,273.203,37.068c-7.70784,2.28944-9.586,8.87128-6.58071,13.88647a15.55918,15.55918,0,0,1-5.20289-5.338,15.57172,15.57172,0,0,0,4.30537,3.97144c-3.00532-5.01519-1.12713-11.597,6.58076-13.88647a106.07537,106.07537,0,0,1,11.39323-1.44328c20.56365-.27939,28.142-1.31382,36.66048,7.4631.45428.47324.9095.97269,1.39189,1.49736A11.22386,11.22386,0,0,1,322.64863,44.58513Z"/><path class="t" d="M258.76387,39.92636a1.38472,1.38472,0,0,0-.27039.01846c-2.541.33663-5.42145.95652-7.458,2.42909-7.00438,5.062-7.2689,15.6513-7.2168,23.38755.00641,1.14518-.471,2.21161-1.8229,3.75562a4.16977,4.16977,0,0,0,.6157-2.077,15.35468,15.35468,0,0,0,.30968-3.04524c-.0521-7.7362.21242-18.32555,7.22528-23.39655,2.02781-1.47226,4.90862-2.08346,7.44926-2.42878a7.30688,7.30688,0,0,1,.87259-.049l.00874-.00032C258.54646,38.98988,258.65111,39.467,258.76387,39.92636Z"/><path class="x" d="M306.20809,81.82226s3.79968,10.18513-19.50044,13.32716c-22.03926,2.97089-20.89952-8.43184-20.89952-8.43184-3.96508,11.30606,2.71989,22.07376,21.97353,19.25489,19.24943-2.81818,23.24482-15.6616,18.42643-24.15021Z"/><path class="j" d="M287.78167,105.97263c-11.17685,1.63685-18.11025-1.30868-21.19323-6.27875-.73527-2.23728-.41451-5.24028.02-9.524,1.60351,3.07976,6.32728,6.8364,20.09915,4.97916,14.49119-1.95423,18.49912-6.63091,19.45824-9.88908a34.954,34.954,0,0,1,.44293,9.68054c-2.52411,5.08836-8.46,9.51354-18.82713,11.03212Z"/><path class="y" d="M266.19481,94.88473c.07327-1.37515.23424-2.93364.41367-4.71484,1.60351,3.07976,6.32728,6.8364,20.09915,4.97916,14.49119-1.95423,18.49914-6.63038,19.45824-9.88908a38.33062,38.33062,0,0,1,.60642,6.44581c-1.44-.72485-1.46648-2.23524-5.69224.44567-8.64806,5.48019-21.035,6.41886-27.89689,3.95775-4.04282-1.45328-5.567-3.14432-6.98835-1.22447Z"/><path class="y" d="M303.46742,95.37633s-7.07777,4.86759-15.65515,4.72009c1.00778,1.63921,12.1173-.1155,15.65515-4.72009Z"/></g></svg>