<svg xmlns="http://www.w3.org/2000/svg" viewBox="0 0 255.91326 360"><defs><style>.a{isolation:isolate;}.b{fill:#ebba91;}.c{fill:#8a4621;}.d{fill:#4d4d4d;}.e{fill:#777bb3;}.f{fill:#676b9e;}.g{fill:#e5a36e;}.h{fill:#e4a36e;}.i{fill:#211e1f;}.j,.r{fill:#fff;}.k{fill:#01425c;}.l{fill:#27a8e0;}.m{fill:#323031;}.n{fill:#74a3ba;opacity:0.5;mix-blend-mode:multiply;}.o{opacity:0.06;}.p{fill:#594948;}.q{fill:#3d3232;}.r{opacity:0.2;}.s{fill:#3c281a;}.t{fill:#b84b5e;}</style></defs><title>char-php</title><g class="a"><path class="b" d="M76.16873,249.32575,63.45334,342.26144,51.5634,341.01435l7.75922-48.29652c1.76937-19.66154-2.09854-48.55669-2.09854-48.55669Z"/><path class="b" d="M109.19328,248.05354l-22.9512,94.2079,11.89064-1.24709,10.25392-45.13612c3.98268-19.33369,24.04422-55.77316,24.04422-55.77316Z"/><path class="c" d="M98.13272,341.01435l18.48931,5.74256s14.6309-2.29522,17.66854,5.90268C136.28286,358.03613,136.85475,360,136.85475,360c-14.49017,0-51.96444-.25094-51.96444-.25094-.24885-4.74641,1.35177-17.48762,1.35177-17.48762Z"/><path class="c" d="M51.5634,341.01435l-18.48862,5.74256s-14.63228-2.29522-17.66924,5.90268C13.41325,358.03613,12.84135,360,12.84135,360c14.49018,0,51.96236-.25094,51.96236-.25094.25025-4.74641-1.35037-17.48762-1.35037-17.48762Z"/><path class="d" d="M131.78129,243.23563c-7.13233,13.30991-24.87473,73.72624-33.64857,97.77872l-11.89064,1.24709L103.292,256.2165a69.37161,69.37161,0,0,1-23.625,2.13718L63.45334,342.26144,51.5634,341.01435c1.33821-19.50267,8.84867-80.47482,4.25354-92.11607a74.28422,74.28422,0,0,1-4.64569-20.858l86.60971-10.7205S136.37755,234.65837,131.78129,243.23563Z"/><path class="e" d="M42.75328,131.19942s8.45353-9.66384,30.67349-13.37122,44.0176-2.02025,60.46112,7.97884c0,0,3.89307,60.55919,3.89307,91.51278l-86.60971,10.7205S44.55242,182.4106,43.498,151.633C43.498,151.633,42.75879,131.19923,42.75328,131.19942Z"/><path class="b" d="M255.91326,161.59952l-.25053,6.50558-16.61552,9.45535-12.30808.695c-9.90791,6.19849-31.08949,9.40686-38.10421,9.75436-.24243.01618-.46869.02422-.695.03231l-5.44691.25861L166.2573,170.98211,144.38072,148.7823l-.7273-12.22728,41.73278,45.50682c4.33166-.299,19.83194-1.05867,32.49561-12.50208l5.70552-9.87555L235.952,154.609l-.00809,3.05482-5.92374,3.48312,11.14434-.33946,11.62118-2.89313Z"/><path class="f" d="M133.88789,125.807c9.78013,6.77878,17.13524,14.29193,32.77926,29.56448l-9.85578,13.393c-10.07981-10.009-16.98718-20.19018-21.81606-24.61891Z"/><path class="b" d="M63.59085,229.4836l-2.393,8.2217L55.06156,248.05,27.65832,236.62508l-5.0861-8.78432-.00746-.015C8.22921,216.3633.96769,195.14136.60763,194.25617L0,192.74084l18.15383-25.6104L42.879,132.27814l.09753-.135.03,1.38027c0,.05251.015.09752.015.15755l.36011,13.26278L22.71476,173.4843,7.26152,193.311c2.04041,4.46345,10.00708,14.89812,21.19947,22.11464a1.64969,1.64969,0,0,0,.18754.12756c3.43569,1.92791,20.09671-5.56621,20.09671-5.56621l1.18527,9.20445Z"/><path class="f" d="M43.498,151.633c-3.57239,4.51494-7.24947,10.787-17.39648,26.57765l-3.38617-4.72439-4.56153-6.35352-2.23418-3.11856c9.44878-15.34845,20.04956-27.41543,26.83362-32.81475,0,0,.04652.384.128,1.08218.03494.3375.08146.7564.12805,1.24511,0,.04659.01158.09311.01158.15128A137.43331,137.43331,0,0,1,43.498,151.633Z"/><path class="g" d="M122.92824,69.55445c.46656,6.37593,3.93679,11.05689,7.77224,11.03812,7.31426-.03616,3.54109-6.6977,4.36219-15.70524.58063-6.36714-2.22711-7.66491-6.05239-7.385-3.82524.28061-6.5486,5.67619-6.082,12.0521"/><path class="h" d="M43.84045,73.67607c.19872,6.38989-2.76614,11.40621-6.58276,11.78623-7.27839.72432-4.21812-6.29334-5.97107-15.16673-1.23933-6.2723,1.41831-7.85489,5.252-7.97411,3.83368-.11852,7.10314,4.96474,7.30186,11.35461"/><path class="b" d="M42.49916,42.03106c-4.6181,4.62553-7.43725,9.76988-7.38577,19.20305.069,12.64657,1.18015,28.5205,1.18015,28.5205s.96032,20.91732,8.33944,28.14869,22.358,10.492,43.33291,9.32241,38.63443-10.5346,41.70312-21.47855,2.34325-29.19069-.06324-51.12625c0,0-1.65625-12.9857-9.26739-16.6818-7.41083-3.59882-22.54782-5.785-38.94683-4.71182S47.11726,37.40554,42.49916,42.03106Z"/><path class="i" d="M76.21129,78.06966c.13287,7.0936-6.99472,11.8-14.28083,10.75333C55.98537,87.969,51.83955,83.421,51.7479,78.5279a10.074,10.074,0,0,1,3.5778-7.72409,12.34547,12.34547,0,0,1,3.846-2.29041,13.40652,13.40652,0,0,1,2.36608-.65505,13.79276,13.79276,0,0,1,2.56373-.22482,13.34357,13.34357,0,0,1,3.4256.44371,13.5745,13.5745,0,0,1,1.80771.61383c3.94682,1.65842,6.79644,5.10468,6.8765,9.37859"/><path class="j" d="M76.235,79.4048c.11833,6.31678-6.59707,10.49076-13.53939,9.53077-5.72646-.7915-9.74848-4.93947-9.83172-9.383a8.75909,8.75909,0,0,1,3.48569-6.95333,11.5222,11.5222,0,0,1,1.16471-.82211,11.83305,11.83305,0,0,1,2.46835-1.15341c.028-.01161.05607-.02088.08415-.02947a13.3873,13.3873,0,0,1,2.275-.54712c.25809-.03879.51667-.06884.775-.09351a13.49071,13.49071,0,0,1,1.67879-.05968c.3258.00532.64945.02178.973.05236l.00509.00259a13.02143,13.02143,0,0,1,2.28243.40529c.29121.07891.57783.164.86168.26284.28885.09609.57319.20337.852.31915,3.72262,1.55035,6.39392,4.66417,6.46518,8.46868"/><path class="k" d="M74.81545,79.253c.0685,3.657-2.23972,6.66546-5.15585,6.72009-2.91647.05463-5.33575-2.86528-5.40425-6.52228-.0685-3.65668,2.23973-6.66513,5.1562-6.71977,2.91613-.05462,5.33541,2.86528,5.4039,6.522"/><path class="l" d="M73.85866,79.27088c.05609,2.99408-1.83414,5.4576-4.22141,5.50231-2.38794.04473-4.36876-2.34627-4.42484-5.34035-.05608-2.99375,1.83381-5.45726,4.22175-5.502,2.38727-.04471,4.36842,2.34628,4.4245,5.34"/><path class="m" d="M72.136,79.30315c.03373,1.801-1.10315,3.283-2.53921,3.30991-1.43673.02691-2.628-1.41154-2.66172-3.21249C66.90134,77.6,68.03789,76.1179,69.47462,76.091c1.43606-.0269,2.62765,1.41154,2.66138,3.21216"/><path class="j" d="M68.83406,77.5055a1.25366,1.25366,0,1,1-1.27675-1.2298,1.25349,1.25349,0,0,1,1.27675,1.2298"/><path class="n" d="M55.84953,75.04886a12.302,12.302,0,0,1,1.245-.8216,13.23886,13.23886,0,0,1,2.72587-1.18612,15.07005,15.07005,0,0,1,2.42889-.55,15.82385,15.82385,0,0,1,2.61944-.1573,15.3345,15.3345,0,0,1,3.482.4571,15.14175,15.14175,0,0,1,1.82893.5805,11.23279,11.23279,0,0,1,5.95952,4.92608c-.51452-3.29774-3.01476-5.96438-6.36947-7.36028a13.6853,13.6853,0,0,0-4.97525-1.04355,13.92368,13.92368,0,0,0-2.45345.15418,13.36786,13.36786,0,0,0-2.274.54711,11.96407,11.96407,0,0,0-2.55183,1.18286,11.48473,11.48473,0,0,0-1.16474.81976,8.96225,8.96225,0,0,0-3.43554,5.91648,9.73424,9.73424,0,0,1,2.93459-3.46521"/><path class="i" d="M90.127,77.809c.13287,7.0936,7.43171,11.52975,14.67352,10.211,5.9086-1.076,9.88152-5.77607,9.78986-10.66921a10.07321,10.07321,0,0,0-3.8649-7.58468,12.20187,12.20187,0,0,0-1.236-.88335,12.35913,12.35913,0,0,0-2.69273-1.26143,13.40709,13.40709,0,0,0-2.389-.566,13.7943,13.7943,0,0,0-2.57034-.12865,13.34355,13.34355,0,0,0-3.40659.57168,13.57379,13.57379,0,0,0-1.78345.68111C92.7655,69.98452,90.047,73.53509,90.127,77.809"/><path class="j" d="M113.51425,78.41636c.08324,4.44392-3.78063,8.73926-9.47343,9.74468-6.90149,1.2193-13.77152-2.7002-13.88985-9.017-.07126-3.80452,2.48222-7.01621,6.14619-8.70459.2719-.12643.552-.24428.83708-.35079.28-.10675.56553-.20554.85358-.2953a13.63122,13.63122,0,0,1,2.2633-.49044l.00269-.00005c.32222-.04234.647-.074.97538-.09121a13.31269,13.31269,0,0,1,1.67683-.00317c.25976.01462.52164.03493.781.064a13.382,13.382,0,0,1,2.29356.46155l.08045.0237a12.0349,12.0349,0,0,1,2.51254,1.06279,11.2634,11.2634,0,0,1,1.1967.77788,8.75846,8.75846,0,0,1,3.744,6.8179"/><path class="k" d="M110.3834,77.93491c.0685,3.657-2.24006,6.66548-5.1562,6.7201s-5.3354-2.86528-5.4039-6.52229c-.0685-3.65667,2.23972-6.66513,5.15586-6.71975s5.33574,2.86527,5.40424,6.52194"/><path class="l" d="M109.42627,77.95284c.05609,2.99409-1.8338,5.45759-4.22141,5.50232s-4.36842-2.34628-4.42451-5.34036c-.05607-2.99375,1.83381-5.45726,4.22141-5.502s4.36843,2.34627,4.42451,5.34"/><path class="m" d="M107.704,77.9851c.03373,1.801-1.10349,3.283-2.53955,3.30992-1.43639.02691-2.62764-1.41154-2.66138-3.21249-.03373-1.80062,1.10282-3.28267,2.53921-3.30958,1.43606-.0269,2.628,1.41154,2.66172,3.21215"/><path class="j" d="M104.402,76.18746a1.25366,1.25366,0,1,1-1.27675-1.2298,1.25372,1.25372,0,0,1,1.27675,1.2298"/><path class="n" d="M110.36135,74.02776a12.30206,12.30206,0,0,0-1.275-.7744,13.23928,13.23928,0,0,0-2.76838-1.08321,15.07106,15.07106,0,0,0-2.44779-.45865,15.82178,15.82178,0,0,0-2.62348-.05909,15.3336,15.3336,0,0,0-3.46243.58718,15.11925,15.11925,0,0,0-1.80591.64859A11.23279,11.23279,0,0,0,90.20755,78.034c.39066-3.3147,2.78928-6.0731,6.089-7.59366a13.69112,13.69112,0,0,1,4.933-1.22915,13.92419,13.92419,0,0,1,2.4575.0622,13.36787,13.36787,0,0,1,2.2929.46156,11.97028,11.97028,0,0,1,2.59433,1.08647,11.51762,11.51762,0,0,1,1.19463.77556,8.96224,8.96224,0,0,1,3.6547,5.78366,9.73428,9.73428,0,0,0-3.0623-3.35287"/><polygon class="o" points="52.415 66.778 72.48 62.325 71.151 56.91 50.212 63.194 52.415 66.778"/><polygon class="p" points="70.083 56.098 49.151 62.386 51.341 65.964 71.416 61.513 70.083 56.098"/><polygon class="o" points="112.857 64.345 94.212 61.4 95.024 56.247 114.593 60.854 112.857 64.345"/><polygon class="p" points="112.277 63.024 93.634 60.082 94.438 54.926 114.005 59.535 112.277 63.024"/><path class="p" d="M34.49721,29.79715a14.28356,14.28356,0,0,1,7.80076.29165c2.97679.95782,6.09781,1.77761,8.81016,3.4278,1.76232,1.06988,5.99755,4.73291,5.7527,7.12191-.19325,1.81965-1.954,1.2315-3.48741,1.40162-2.84506.33139-6.06746.96282-8.36233,2.56338-7.91322,5.51649-8.4147,17.322-8.50543,25.95193-.02057,1.93618.47948,4.502-.67461,6.1394-4.1044-2.02536-5.37089-10.61495-6.78528-14.60215-2.962-8.29533-5.21809-20.15677-.26206-28.18564a9.34788,9.34788,0,0,1,5.7135-4.1099"/><path class="q" d="M58.50181,38.2387a18.223,18.223,0,0,0-8.52642-.23678c-.29908.07125-.60057.15877-.904.25307q-.20688.06276-.4143.133c-.16271.05514-.326.115-.48928.17627-.26139.09693-.522.19991-.78447.31039-.08659.0368-.17325.07023-.25982.10837l.00276.00266c-5.02833,2.21877-10.06,6.96545-11.59361,11.93144-2.55463,8.28633-.2578,15.71248.95434,23.89307a19.61142,19.61142,0,0,0,.48139-3.81228c.0914-8.62992.59221-20.43544,8.50544-25.95126,2.29486-1.60124,5.51726-2.23266,8.36231-2.56405.71032-.07893,1.467.003,2.0963-.065.539.13065,1.07538.26539,1.60458.41449.4.11293.78917.22947,1.18107.34528Z"/><path class="p" d="M134.646,42.37132a50.0778,50.0778,0,0,1,.3413,14.28377c-.34517,3.13716-.82666,10.19448-3.68958,12.10069-2.1238-2.70321-1.48643-6.82153-2.25572-9.99873-.77633-3.26435-1.686-7.07221-3.75355-9.84482-4.2762-5.77806-11.34564-9.32575-9.87229-17.39831,1.08411-5.915,7.35867-5.75443,11.71471-2.93808,4.54162,2.93533,6.63176,8.71847,7.51513,13.79548"/><path class="p" d="M125.29118,48.90879c-8.16763-9.293-12.27272-10.91239-27.13775-10.85813-.61411.00174-1.24767.00385-1.92025.00675a132.17352,132.17352,0,0,0-25.941,1.50948c-8.64068,2.40393-10.86292,9.708-7.6084,15.35949a17.75172,17.75172,0,0,1-7.9933-13.51731c-10.95255-1.32526-16.3561-10.8553-16.3561-10.8553s-1.8095-9.16843,5.98915-17.49329A7.80111,7.80111,0,0,1,39.295,8.9824c1.864,1.671,7.00359,2.00879,7.80719,1.50121,1.37323-.86738,2.68215-2.00965,4.30248-2.93682a2.66122,2.66122,0,0,1-1.18592-1.38153,2.93994,2.93994,0,0,0,2.79741.50325c6.9629-2.47571,12.9379-5.097,23.10445-6.18421C118.927-4.09985,133.14437,24.76155,125.29118,48.90879Z"/><path class="r" d="M103.87187,14.04557c-3.56076,7.745-9.29991,9.72669-16.94228,12.14733-3.29794,1.04152-6.33867,2.30489-9.70813,3.32136-6.4483,1.94291-12.96228,3.62994-16.07963,10.37533-2.63314-2.73224-3.32008-6.93132-2.54551-10.55218a13.9782,13.9782,0,0,1,4.85289-7.64668c3.89017-3.054,10.67658-3.59864,12.6271-8.44795-.50446,3.41148-1.718,5.99114-4.52543,7.97141-2.19087,1.55329-6.471,3.25936-5.80114,6.65492,2.56005-6.33507,15.76059-6.34822,21.15184-8.11977,8.127-2.66654,16.2019-5.65419,17.59579-15.25915.52078,3.05871,1.05822,5.887-.6255,9.55538"/><path class="q" d="M83.02434,38.1768c.62308-.07593,19.62515-.07734,26.468-20.94517,2.49781,10.60654-1.03775,18.17916-1.03775,18.17916S113.724,34.285,114.453,31.01746c.59852,3.09109-.60439,4.46956-.75088,6.07722.88765.39342,3.30589-.14784,5.845-1.85649,3.34662,4.23043,5.00008,7.75983,4.22469,11.987-9.325-9.961-17.79627-8.95321-40.74753-9.04834"/><path class="q" d="M54.814,42.44611s-1.31312-5.62447,2.06742-14.68206c-4.85833,1.93886-10.14279,9.44747-9.99479,12.83319Z"/><path class="r" d="M39.7012,36.3489c3.57457-.83018,4.55115-4.0333.57707-5.06107-4.33164-1.11646-8.38389,2.02586-9.95233,5.81656-1.555,3.74782-.37692,6.21028-.29857,9.7793-.12968-6.02013,4.45337-9.326,9.67383-10.53479"/><path class="o" d="M126.26756,50.44767l-.04963-.0478c-.49819-.5756-.99584-1.12187-1.47343-1.63937-9.32054-9.95384-17.79241-8.947-40.722-9.04392a115.81152,115.81152,0,0,0-12.754,1.38919c-8.64062,2.40393-10.86286,9.708-7.60834,15.35949a17.35518,17.35518,0,0,1-5.69912-6.05408,17.36892,17.36892,0,0,0,4.72464,4.51264c-3.25452-5.65149-1.03228-12.95556,7.60839-15.35949a118.31607,118.31607,0,0,1,12.73439-1.38882c22.93924.08693,31.41111-.91986,40.74135,9.0338.49746.53658.99547,1.10242,1.52329,1.69692A12.51781,12.51781,0,0,1,126.26756,50.44767Z"/><path class="o" d="M55.10969,44.0138a1.54473,1.54473,0,0,0-.3019.01535c-2.84036.32618-6.06488.9617-8.36469,2.56453-7.90981,5.50969-8.41,17.3144-8.50188,25.94334-.015,1.27729-.56811,2.45739-2.10579,4.15317a4.65124,4.65124,0,0,0,.72692-2.30443,17.12725,17.12725,0,0,0,.40439-3.39024c.09183-8.62888.59206-20.43365,8.51151-25.95322,2.29006-1.60265,5.51476-2.22847,8.35493-2.56434a8.1509,8.1509,0,0,1,.97412-.03777l.00975-.00018C54.88537,42.96517,54.99284,43.4993,55.10969,44.0138Z"/><path class="s" d="M100.267,110.90824c-6.50889-4.54179-15.34413-.96974-15.34413-.96974l1.86455,2.5699-4.516-1.50314c-9.5024-1.681-8.94643,3.99225-8.64709,5.47113-8.56159-4.76-9.77611-15.75889-9.77611-15.75889s17.20013,12.397,40.49856-4.25087C104.34678,96.46663,105.19357,104.49963,100.267,110.90824Z"/><path class="j" d="M63.84968,100.71389s17.195,12.39692,40.50019-4.2455c0,0,1.5135,9.69829-18.59712,12.55809-20.1096,2.85965-21.90307-8.31259-21.90307-8.31259"/><path class="t" d="M100.267,110.90824c-2.65147,3.45889-6.9793,6.44905-14.027,7.45115-5.37984.76775-9.48528-.14546-12.61571-1.883-.29934-1.47888-.85531-7.15209,8.64709-5.47113l4.516,1.50314-1.86455-2.5699S93.75813,106.36645,100.267,110.90824Z"/><path class="j" d="M62.67093,161.69674l9.71688-1.069q4.28193-.4347,6.47117,1.78343,2.18916,2.21744,1.99891,6.49543a12.80311,12.80311,0,0,1-.70915,3.89437,11.27669,11.27669,0,0,1-1.9535,3.59092,8.14814,8.14814,0,0,1-3.61625,2.81974,17.96971,17.96971,0,0,1-4.22248.97825l-4.35084.47864-.61993,7.04039-5.03973.55442,2.32492-26.56664h0m4.69677,3.66663-.97883,11.11642a2.68263,2.68263,0,0,0,.43907-.01161l.5076-.05584a19.18009,19.18009,0,0,0,5.72533-1.32706q2.23635-1.01663,2.53577-5.63654.23382-3.87877-1.78788-4.24351a16.36794,16.36794,0,0,0-4.882-.01337q-.43115.08379-.82993.128l-.76139.08376.03227-.04025"/><path class="j" d="M84.83584,152.2495l5.00347-.55043-.6522,7.08065,4.49587-.49459a9.08159,9.08159,0,0,1,5.67858.91652q2.00862,1.24653,1.694,5.39141l-1.101,12.34082-5.076.5584,1.05207-11.785a3.29151,3.29151,0,0,0-.50074-2.55031,3.0989,3.0989,0,0,0-2.58549-.48618l-4.02852.40647L87.48212,178.306l-5.00347.55042,2.35719-26.60688h0"/><path class="j" d="M105.65463,156.96813l9.71688-1.06894q4.28193-.4347,6.47117,1.78342,2.18916,2.21745,1.99891,6.49543a12.80317,12.80317,0,0,1-.70915,3.89438,11.27654,11.27654,0,0,1-1.9535,3.59091,8.148,8.148,0,0,1-3.61625,2.81974,17.96922,17.96922,0,0,1-4.22248.97826l-4.35084.47863-.61993,7.04039-5.03972.55442,2.32492-26.56663h0m4.69676,3.66663-.97884,11.11641a2.68387,2.68387,0,0,0,.43908-.0116l.50759-.05584a19.18016,19.18016,0,0,0,5.72534-1.32706q2.23634-1.01664,2.53576-5.63654.23382-3.87879-1.78787-4.24351a16.36735,16.36735,0,0,0-4.882-.01337q-.43115.08378-.82993.128l-.76139.08376.03227-.04024"/></g></svg>