<?xml version="1.0"?>
<svg width="381.67354" height="322.28942" xmlns="http://www.w3.org/2000/svg" xmlns:svg="http://www.w3.org/2000/svg">
 <defs>
  <style>.a{fill:none;}.b{isolation:isolate;}.c{fill:#004d71;}.d{fill:#0090d0;}.e{fill:#4d4d4d;}.f{fill:#cccbcb;}.g{clip-path:url(#a);}.h{fill:url(#b);}.i{fill:#777bb3;}.j,.w{fill:#fff;}.k{fill:#f2f7ff;}.l{fill:#ebba91;}.m{fill:#006b98;}.n{fill:#e3a876;}.o{fill:#221f1f;}.p{fill:#00425c;}.q{fill:#28aae1;}.r{fill:#323031;}.s{fill:#75a4bb;opacity:0.5;mix-blend-mode:multiply;}.t{opacity:0.06;}.u{fill:#95613c;}.v{fill:#c39769;}.w{opacity:0.2;}.x{fill:#90191c;}.y{fill:#c4c3c3;}</style>
  <clipPath id="a">
   <path class="a" d="m0,194.34c0,35.79 55.15,64.8 123.18,64.8l0,0c68.03,0 123.19,-29.01 123.19,-64.8l0,0c0,-35.78 -55.16,-64.8 -123.19,-64.8l0,0c-68.03,0 -123.18,29.02 -123.18,64.8" id="svg_1"/>
  </clipPath>
 </defs>
 <title>custom-php</title>
 <g class="layer">
  <title>Layer 1</title>
  <g class="b" id="svg_2">
   <path class="c" d="m226.92,238.33c-2.07,20.31 22.5,-21.29 46.69,-3.96c18.85,13.51 54.7,3.57 51.48,-13.88c-5.78,-31.21 4.76,-84.52 -20.97,-105.99c-36.7,-30.62 -74.52,97.48 -77.2,123.83z" id="svg_3"/>
   <path class="d" d="m264.67,111.06c-19.01,88.27 -115,105.4 -23.16,145.69c-27.4,-66.43 36.12,-60.3 28.24,-146.06l-5.08,0.37z" id="svg_4"/>
   <polygon class="e" id="svg_5" points="285.026 259.141 346.641 275.47 344.385 285.948 278.078 270.363 285.026 259.141"/>
   <path class="e" d="m342.58,189.54s-0.5,19.42 -4.26,28.06c-5.28,12.16 -20.12,50.52 -20.12,50.53l-10.05,37.13l-10.66,1.12l9.71,-40.71l0.01,-0.04l6.94,-36.72a77.6,77.6 0 0 1 -23.68,2.36l-0.08,32.9l-6.53,4.98l0,0l-5.78,1.21s-4.09,-38.12 -7.86,-47.68a66.86,66.86 0 0 1 -4.17,-18.7l76.53,-14.44z" id="svg_6"/>
   <path class="f" d="m344.38,285.95l3.34,17.03s-3.45,12.82 3.56,16.32c4.6,2.29 6.3,2.99 6.3,2.99c1.39,-12.92 4.78,-46.34 4.78,-46.34c-4.21,-0.68 -15.72,-0.48 -15.72,-0.48l-2.26,10.48z" id="svg_7"/>
   <path class="f" d="m308.16,305.27l16.57,5.15s13.12,-2.06 15.84,5.29c1.79,4.82 2.3,6.58 2.3,6.58c-12.99,0 -46.58,-0.23 -46.58,-0.23c-0.23,-4.25 1.21,-15.67 1.21,-15.67l10.66,-1.12z" id="svg_8"/>
   <g class="g" id="svg_9">
    <path class="h" d="m0,194.34c0,35.79 55.15,64.8 123.18,64.8l0,0c68.03,0 123.19,-29.01 123.19,-64.8l0,0c0,-35.78 -55.16,-64.8 -123.19,-64.8l0,0c-68.03,0 -123.18,29.02 -123.18,64.8" id="svg_10"/>
   </g>
   <path class="i" d="m123.18,254.33c65.38,0 118.37,-26.86 118.37,-59.99c0,-33.13 -52.99,-59.99 -118.37,-59.99s-118.37,26.86 -118.37,59.99c0,33.13 53,59.99 118.37,59.99" id="svg_11"/>
   <path d="m66.93,201.78c5.37,0 9.38,-0.99 11.92,-2.95c2.52,-1.93 4.25,-5.28 5.16,-9.95c0.85,-4.37 0.52,-7.42 -0.96,-9.07c-1.52,-1.68 -4.8,-2.53 -9.75,-2.53l-8.59,0l-4.77,24.5l6.99,0zm-28.1,30.19a1.34,1.34 0 0 1 -1.31,-1.6l12.62,-64.93a1.34,1.34 0 0 1 1.31,-1.09l27.2,0c8.55,0 14.92,2.33 18.91,6.9c4.03,4.61 5.27,11.04 3.7,19.13a29.55,29.55 0 0 1 -9.3,16.63a26.41,26.41 0 0 1 -9.9,5.94a44.88,44.88 0 0 1 -13.61,1.75l-11.02,0l-3.14,16.18a1.34,1.34 0 0 1 -1.31,1.09l-14.15,0z" id="svg_12"/>
   <path class="j" d="m65.81,178.61l7.49,0c5.98,0 8.05,1.31 8.76,2.1c1.17,1.29 1.39,4.03 0.64,7.91c-0.85,4.35 -2.41,7.43 -4.66,9.16c-2.3,1.77 -6.04,2.66 -11.11,2.66l-5.37,0l4.25,-21.83zm12.84,-15.59l-27.2,0a2.67,2.67 0 0 0 -2.62,2.16l-12.62,64.94a2.67,2.67 0 0 0 2.62,3.18l14.15,0a2.67,2.67 0 0 0 2.62,-2.16l2.93,-15.1l9.92,0a46.18,46.18 0 0 0 14.02,-1.82a27.74,27.74 0 0 0 10.41,-6.23a30.89,30.89 0 0 0 9.69,-17.36c1.65,-8.51 0.31,-15.33 -4,-20.25c-4.26,-4.89 -10.97,-7.36 -19.92,-7.36m-20.33,40.1l8.61,0q8.55,0 12.74,-3.23q4.19,-3.22 5.65,-10.76q1.41,-7.24 -1.28,-10.22q-2.68,-2.97 -10.74,-2.97l-9.7,0l-5.28,27.18m20.33,-37.43q12.28,0 17.91,6.44q5.63,6.45 3.38,17.99a28.21,28.21 0 0 1 -8.88,15.91a24.99,24.99 0 0 1 -9.42,5.65a43.36,43.36 0 0 1 -13.19,1.68l-12.12,0l-3.35,17.27l-14.15,0l12.62,-64.94l27.2,0" id="svg_13"/>
   <path d="m133.69,214.7a1.34,1.34 0 0 1 -1.31,-1.59l5.58,-28.73c0.53,-2.74 0.4,-4.7 -0.37,-5.53c-0.47,-0.5 -1.88,-1.35 -6.06,-1.35l-10.11,0l-7.02,36.12a1.34,1.34 0 0 1 -1.32,1.08l-14.03,0a1.34,1.34 0 0 1 -1.31,-1.59l12.62,-64.94a1.34,1.34 0 0 1 1.31,-1.08l14.03,0a1.34,1.34 0 0 1 1.32,1.59l-3.05,15.67l10.88,0c8.29,0 13.91,1.47 17.19,4.47c3.33,3.07 4.37,7.97 3.09,14.58l-5.87,30.22a1.34,1.34 0 0 1 -1.31,1.08l-14.26,0z" id="svg_14"/>
   <path class="j" d="m125.7,145.75l-14.03,0a2.67,2.67 0 0 0 -2.62,2.17l-12.63,64.93a2.67,2.67 0 0 0 2.63,3.19l14.03,0a2.67,2.67 0 0 0 2.63,-2.17l6.81,-35.04l9.01,0c4.17,0 5.05,0.9 5.08,0.93c0.26,0.28 0.59,1.54 0.04,4.36l-5.58,28.73a2.67,2.67 0 0 0 2.62,3.19l14.26,0a2.67,2.67 0 0 0 2.62,-2.17l5.87,-30.21c1.38,-7.1 0.2,-12.42 -3.5,-15.82c-3.53,-3.25 -9.45,-4.82 -18.09,-4.82l-9.26,0l2.74,-14.08a2.67,2.67 0 0 0 -2.63,-3.19m0,2.68l-3.35,17.26l12.5,0q11.8,0 16.28,4.12q4.48,4.11 2.69,13.34l-5.87,30.21l-14.26,0l5.58,-28.73q0.96,-4.9 -0.7,-6.68q-1.65,-1.79 -7.04,-1.79l-11.22,0l-7.23,37.2l-14.03,0l12.62,-64.93l14.03,0" id="svg_15"/>
   <path d="m177.34,201.78c5.37,0 9.39,-0.99 11.93,-2.95c2.51,-1.93 4.24,-5.28 5.15,-9.95c0.85,-4.37 0.53,-7.42 -0.96,-9.07c-1.52,-1.68 -4.8,-2.53 -9.75,-2.53l-8.59,0l-4.77,24.5l6.99,0zm-28.1,30.19a1.34,1.34 0 0 1 -1.31,-1.6l12.62,-64.93a1.34,1.34 0 0 1 1.31,-1.09l27.2,0c8.55,0 14.92,2.33 18.92,6.9c4.02,4.61 5.26,11.04 3.69,19.13a29.55,29.55 0 0 1 -9.29,16.63a26.41,26.41 0 0 1 -9.91,5.94a44.88,44.88 0 0 1 -13.61,1.75l-11.02,0l-3.14,16.18a1.34,1.34 0 0 1 -1.31,1.09l-14.15,0z" id="svg_16"/>
   <path class="j" d="m176.22,178.61l7.49,0c5.98,0 8.05,1.31 8.76,2.1c1.17,1.29 1.39,4.03 0.64,7.91c-0.85,4.35 -2.41,7.43 -4.66,9.16c-2.3,1.77 -6.04,2.66 -11.11,2.66l-5.36,0l4.24,-21.83zm12.84,-15.59l-27.2,0a2.67,2.67 0 0 0 -2.62,2.16l-12.62,64.94a2.67,2.67 0 0 0 2.62,3.18l14.15,0a2.67,2.67 0 0 0 2.62,-2.16l2.94,-15.1l9.91,0a46.18,46.18 0 0 0 14.02,-1.82a27.74,27.74 0 0 0 10.41,-6.23a30.89,30.89 0 0 0 9.69,-17.36c1.65,-8.51 0.31,-15.33 -4,-20.26c-4.26,-4.88 -10.96,-7.35 -19.92,-7.35m-20.33,40.1l8.61,0q8.55,0 12.74,-3.23q4.19,-3.22 5.65,-10.76q1.41,-7.24 -1.28,-10.22q-2.68,-2.97 -10.74,-2.97l-9.69,0l-5.29,27.18m20.33,-37.43q12.28,0 17.91,6.44q5.63,6.45 3.38,17.99a28.21,28.21 0 0 1 -8.88,15.91a24.99,24.99 0 0 1 -9.41,5.65a43.36,43.36 0 0 1 -13.2,1.68l-12.12,0l-3.35,17.27l-14.15,0l12.62,-64.94l27.2,0" id="svg_17"/>
   <path class="k" d="m266.87,208.14c-2.28,-8.62 -4.29,-16.86 -6.06,-24.58c-3.98,-17.35 -6.74,-32.08 -8.54,-42.7c-1.94,-11.45 -3.31,-22.36 -3.31,-22.36c6.12,-3.66 12.91,-5.84 18.63,-8.16a60.15,60.15 0 0 1 7.9,-2.63c3.57,0.38 9.41,3.18 12.9,2.56c3.6,-0.65 8.59,-5.07 11.9,-6.75a50.35,50.35 0 0 1 6.66,-0.17a59.84,59.84 0 0 1 23.2,5.32s1.83,10.1 4.13,23.68c2.14,12.59 4.69,28.18 6.59,41.49c0.85,5.92 1.56,11.39 2.06,15.95l-16.81,4.05l-44.42,10.72l-14.83,3.58z" id="svg_18" transform="matrix(1 0 0 1 0 0)"/>
   <path class="l" d="m381.67,153.26l-0.26,1.44c-0.17,0.85 -2.93,21.18 -13.82,33.72l-2.62,8.24l-22.11,14.8l-7.72,-8.62l-3.02,-6.22l10.35,-11.35l-1.03,-7.92s18.12,1.52 19.14,0.8a46.44,46.44 0 0 0 14.8,-23.13l-18.41,-14.5l-24.51,-19.33l-0.17,-0.92l-1.93,-11.02l29.86,25.61l21.45,18.4z" id="svg_49"/>
   <path class="l" d="m283.86,189.89l-4.99,-3.94s4.2,4.84 6.1,16.11l-6.15,4.26l-8.3,1.29s-2.29,-8.16 -12.15,-17.18l-1.53,-8.55c-2.28,-2.63 -9.48,-8.25 -19.93,-15.38c-4.63,-3.16 -28.95,-17.11 -28.95,-17.11l32.66,-25.18l2.82,13.05l-22.48,12.13s15.61,7.58 25.03,13.47s18.68,10.94 18.68,10.94l11.66,3.24l8.43,9.68l-0.9,3.17z" id="svg_50"/>
   <path class="m" d="m330.15,108.13c9.41,5.04 16.72,10.99 32.21,23l-7.42,12.93c-10,-7.89 -17.18,-16.26 -21.93,-19.71l-2.86,-16.22z" id="svg_51"/>
   <path class="m" d="m251.48,136.06c-4.5,1.53 -18.44,9.01 -24.87,13.33l-9.58,-12.13c14.03,-9.06 27.05,-16.54 31.93,-18.76c0,0 2.01,10.54 2.52,17.56z" id="svg_52"/>
   <path class="n" d="m319.95,61.76c0.52,5.71 3.7,9.85 7.14,9.78c6.56,-0.15 3.07,-6.06 3.67,-14.15c0.42,-5.71 -2.12,-6.83 -5.54,-6.52c-3.43,0.31 -5.78,5.19 -5.27,10.89z" id="svg_53"/>
   <path class="n" d="m249.12,66.69c0.28,5.73 -2.3,10.27 -5.71,10.67c-6.52,0.76 -3.88,-5.58 -5.59,-13.5c-1.21,-5.61 1.15,-7.07 4.58,-7.23c3.44,-0.17 6.45,4.34 6.72,10.06z" id="svg_54"/>
   <path class="l" d="m251.11,106.53a16.16,16.16 0 0 0 1.91,1.48c5.02,3.32 11.84,4.89 18.09,5.59a86.16,86.16 0 0 0 14.91,0.33a100.26,100.26 0 0 0 25.23,-5.78c4.34,-1.7 8.15,-3.77 10.47,-6.2c9,-9.47 5.87,-34.24 3.55,-57.3c-0.53,-5.25 -1.29,-7.89 -4.29,-12.34a7.12,7.12 0 0 0 -3.48,-2.19c-1.45,-0.5 -7.21,-0.65 -10.38,-0.68c-6.92,-0.05 -13,0.73 -26.39,1.74c-8.38,0.63 -16.02,1.35 -22.06,2.07c-7.46,0.89 -12.48,1.8 -13.41,2.6c-2.37,2.04 -4.09,8.06 -4.45,14.22c-0.07,1.25 -0.09,2.51 -0.04,3.73c1.04,29 2.09,45.3 10.34,52.73z" id="svg_55"/>
   <path class="o" d="m278.21,70.12c0.23,6.36 -6.09,10.69 -12.63,9.87c-5.35,-0.68 -9.13,-4.69 -9.29,-9.07a9.03,9.03 0 0 1 3.08,-6.98a11.07,11.07 0 0 1 3.42,-2.12a12.02,12.02 0 0 1 2.11,-0.62a12.37,12.37 0 0 1 2.29,-0.24a11.96,11.96 0 0 1 3.08,0.34a12.17,12.17 0 0 1 1.63,0.53a9.45,9.45 0 0 1 6.31,8.29z" id="svg_56"/>
   <path class="j" d="m278.25,71.32c0.21,5.66 -5.75,9.51 -11.99,8.76c-5.14,-0.63 -8.81,-4.28 -8.96,-8.26a7.85,7.85 0 0 1 3.02,-6.29a10.33,10.33 0 0 1 1.03,-0.75a10.61,10.61 0 0 1 2.2,-1.08c0.02,-0.01 0.05,-0.02 0.07,-0.02a12,12 0 0 1 2.03,-0.53c0.23,-0.04 0.46,-0.07 0.7,-0.1a12.09,12.09 0 0 1 1.5,-0.08c0.29,0 0.58,0.01 0.87,0.04l0.01,0a11.67,11.67 0 0 1 2.05,0.33c0.26,0.06 0.52,0.13 0.78,0.22c0.26,0.08 0.51,0.17 0.76,0.27c3.37,1.33 5.81,4.08 5.93,7.49z" id="svg_57"/>
   <path class="p" d="m275.72,71.23c0.11,3.28 -1.91,6.01 -4.52,6.1c-2.62,0.1 -4.83,-2.48 -4.95,-5.76c-0.12,-3.28 1.91,-6.01 4.52,-6.1c2.61,-0.1 4.83,2.48 4.95,5.76z" id="svg_58"/>
   <path class="q" d="m274.86,71.26c0.09,2.68 -1.56,4.92 -3.7,5c-2.14,0.08 -3.95,-2.04 -4.05,-4.72c-0.1,-2.68 1.56,-4.92 3.7,-5c2.14,-0.08 3.95,2.04 4.05,4.72z" id="svg_59"/>
   <path class="r" d="m273.31,71.32a2.39,2.39 0 1 1 -2.43,-2.84a2.68,2.68 0 0 1 2.43,2.84z" id="svg_60"/>
   <path class="j" d="m270.33,69.76a1.12,1.12 0 1 1 -1.17,-1.09a1.12,1.12 0 0 1 1.17,1.09z" id="svg_61"/>
   <path class="s" d="m259.91,67.73a11.03,11.03 0 0 1 1.1,-0.75a11.87,11.87 0 0 1 2.43,-1.11a13.51,13.51 0 0 1 2.17,-0.53a14.19,14.19 0 0 1 2.34,-0.18a13.75,13.75 0 0 1 3.13,0.36a13.57,13.57 0 0 1 1.65,0.49a10.07,10.07 0 0 1 5.42,4.32a8.91,8.91 0 0 0 -5.83,-6.5a12.27,12.27 0 0 0 -4.47,-0.86a12.48,12.48 0 0 0 -2.2,0.18a11.99,11.99 0 0 0 -2.03,0.53a10.73,10.73 0 0 0 -2.27,1.1a10.29,10.29 0 0 0 -1.03,0.75a8.03,8.03 0 0 0 -2.99,5.36a8.73,8.73 0 0 1 2.58,-3.16z" id="svg_62"/>
   <path class="o" d="m290.68,69.67c0.23,6.36 6.84,10.22 13.31,8.93c5.28,-1.06 8.77,-5.33 8.61,-9.72a9.03,9.03 0 0 0 -3.58,-6.74a10.94,10.94 0 0 0 -1.12,-0.77a11.08,11.08 0 0 0 -2.44,-1.09a12.02,12.02 0 0 0 -2.15,-0.47a12.37,12.37 0 0 0 -2.3,-0.07a11.96,11.96 0 0 0 -3.05,0.56a12.17,12.17 0 0 0 -1.59,0.64a9.45,9.45 0 0 0 -5.69,8.73z" id="svg_63"/>
   <path class="j" d="m311.65,69.85c0.15,3.99 -3.25,7.9 -8.34,8.89c-6.16,1.2 -12.38,-2.21 -12.59,-7.87c-0.12,-3.41 2.12,-6.33 5.38,-7.9c0.24,-0.12 0.49,-0.23 0.74,-0.33c0.25,-0.1 0.5,-0.19 0.76,-0.27a12.22,12.22 0 0 1 2.02,-0.48l0,0c0.29,-0.04 0.58,-0.07 0.88,-0.1a11.93,11.93 0 0 1 1.5,-0.02c0.23,0 0.47,0.02 0.7,0.04a12,12 0 0 1 2.06,0.38l0.08,0.02a10.79,10.79 0 0 1 2.27,0.91a10.1,10.1 0 0 1 1.08,0.68a7.85,7.85 0 0 1 3.46,6.05z" id="svg_64"/>
   <path class="p" d="m302.71,70.25c0.12,3.28 -1.9,6.01 -4.52,6.11s-4.83,-2.49 -4.94,-5.76c-0.12,-3.28 1.9,-6.01 4.51,-6.11s4.83,2.49 4.95,5.76z" id="svg_65"/>
   <path class="q" d="m301.85,70.28c0.1,2.69 -1.56,4.93 -3.7,5s-3.95,-2.03 -4.05,-4.72c-0.09,-2.68 1.56,-4.92 3.7,-4.99s3.95,2.03 4.05,4.71z" id="svg_66"/>
   <path class="r" d="m300.31,70.34a2.39,2.39 0 1 1 -2.44,-2.84a2.68,2.68 0 0 1 2.44,2.84z" id="svg_67"/>
   <path class="j" d="m297.32,68.78a1.12,1.12 0 1 1 -1.16,-1.08a1.12,1.12 0 0 1 1.16,1.08z" id="svg_68"/>
   <path class="s" d="m308.76,65.97a11.03,11.03 0 0 0 -1.16,-0.67a11.87,11.87 0 0 0 -2.5,-0.93a13.51,13.51 0 0 0 -2.2,-0.38a14.19,14.19 0 0 0 -2.35,-0.01a13.75,13.75 0 0 0 -3.09,0.58a13.55,13.55 0 0 0 -1.61,0.61a10.07,10.07 0 0 0 -5.1,4.7a8.91,8.91 0 0 1 5.34,-6.9a12.27,12.27 0 0 1 4.41,-1.18a12.48,12.48 0 0 1 2.2,0.02a11.99,11.99 0 0 1 2.06,0.38a10.73,10.73 0 0 1 2.35,0.93a10.33,10.33 0 0 1 1.08,0.68a8.03,8.03 0 0 1 3.37,5.13a8.73,8.73 0 0 0 -2.8,-2.96z" id="svg_69"/>
   <polygon class="t" id="svg_70" points="256.444 61.315 274.909 56.879 273.594 51.898 254.352 58.04 256.444 61.315"/>
   <polygon class="u" id="svg_71" points="272.594 51.165 253.359 57.31 255.44 60.58 273.912 56.146 272.594 51.165"/>
   <polygon class="t" id="svg_72" points="311.967 58.855 293.455 56.26 294.17 51.144 313.626 55.369 311.967 58.855"/>
   <polygon class="u" id="svg_73" points="311.37 57.557 292.86 54.965 293.567 49.846 313.021 54.073 311.37 57.557"/>
   <path class="v" d="m240.07,27.5a12.81,12.81 0 0 1 6.99,0.14a36.16,36.16 0 0 1 7.95,2.94c1.6,0.93 5.45,4.15 5.27,6.29c-0.14,1.64 -1.73,1.14 -3.1,1.31c-2.55,0.35 -5.43,0.96 -7.46,2.43c-7.01,5.07 -7.27,15.66 -7.22,23.4c0.01,1.73 0.5,4.03 -0.51,5.51c-3.71,-1.75 -4.98,-9.43 -6.31,-12.98c-2.78,-7.39 -4.99,-17.99 -0.67,-25.26a8.38,8.38 0 0 1 5.06,-3.78z" id="svg_74"/>
   <path class="u" d="m261.71,34.7a16.34,16.34 0 0 0 -7.64,-0.08c-0.27,0.07 -0.54,0.15 -0.81,0.24q-0.18,0.06 -0.37,0.12c-0.14,0.06 -0.29,0.11 -0.43,0.17c-0.24,0.09 -0.47,0.19 -0.7,0.29c-0.08,0.03 -0.16,0.07 -0.23,0.1l0,0c-4.47,2.07 -8.91,6.4 -10.21,10.88c-2.16,7.47 0.02,14.09 1.23,21.4a17.58,17.58 0 0 0 0.37,-3.42c-0.05,-7.74 0.22,-18.33 7.22,-23.4c2.03,-1.47 4.91,-2.09 7.46,-2.43c0.63,-0.08 1.31,-0.02 1.88,-0.09c0.48,0.11 0.96,0.22 1.44,0.35c0.36,0.09 0.71,0.19 1.07,0.29l-0.28,-4.42z" id="svg_75"/>
   <path class="v" d="m330.03,37.22a44.9,44.9 0 0 1 0.53,12.79c-0.26,2.82 -0.58,9.15 -3.12,10.91c-1.94,-2.39 -1.44,-6.09 -2.17,-8.93c-0.75,-2.91 -1.63,-6.31 -3.52,-8.77c-3.93,-5.11 -10.32,-8.18 -9.12,-15.44c0.88,-5.32 6.5,-5.27 10.45,-2.81c4.12,2.56 6.08,7.71 6.95,12.25z" id="svg_76"/>
   <path class="v" d="m321.75,43.22c-7.47,-8.2 -11.17,-9.59 -24.5,-9.31c-0.55,0.01 -1.11,0.02 -1.72,0.04a118.5,118.5 0 0 0 -23.23,1.75c-7.7,2.29 -9.58,8.88 -6.58,13.89a15.91,15.91 0 0 1 -7.37,-11.99c-9.84,-1.02 -14.83,-9.48 -14.83,-9.48s-1.77,-8.19 5.09,-15.77a6.99,6.99 0 0 1 -4.57,-3.58c1.7,1.47 6.31,1.69 7.02,1.23c1.22,-0.8 2.38,-1.85 3.81,-2.7a2.39,2.39 0 0 1 -1.08,-1.22a2.64,2.64 0 0 0 2.52,0.4c6.2,-2.32 11.51,-4.77 20.61,-5.9c38.3,-4.78 51.49,20.87 44.83,42.64z" id="svg_77"/>
   <path class="w" d="m302.01,12.3c-3.07,7 -8.19,8.87 -15,11.16c-2.94,0.98 -5.65,2.16 -8.65,3.12c-5.75,1.85 -11.56,3.46 -14.25,9.56c-2.41,-2.41 -3.09,-6.17 -2.45,-9.42a12.53,12.53 0 0 1 4.23,-6.93c3.44,-2.8 9.52,-3.4 11.19,-7.77a9.72,9.72 0 0 1 -3.93,7.21c-1.94,1.43 -5.75,3.03 -5.1,6.06c2.2,-5.72 14.03,-5.94 18.83,-7.61c7.25,-2.52 14.44,-5.32 15.54,-13.95c0.51,2.73 1.04,5.26 -0.41,8.57z" id="svg_78"/>
   <path class="u" d="m283.7,34.26c0.55,-0.08 17.59,-0.38 23.39,-19.19c2.41,9.47 -0.64,16.31 -0.64,16.31s4.7,-1.09 5.31,-4.03c0.58,2.76 -0.48,4.02 -0.58,5.46c0.8,0.34 2.96,-0.18 5.21,-1.75c3.06,3.74 4.6,6.87 3.97,10.68c-8.51,-8.79 -16.09,-7.75 -36.66,-7.48z" id="svg_79"/>
   <path class="u" d="m258.47,38.53s-1.26,-5.03 1.63,-13.2c-4.33,1.82 -8.95,8.63 -8.76,11.66l7.13,1.54z" id="svg_80"/>
   <path class="w" d="m244.83,33.3c3.19,-0.8 4.02,-3.69 0.44,-4.55c-3.9,-0.93 -7.48,1.95 -8.83,5.37c-1.33,3.38 -0.24,5.57 -0.11,8.77c-0.21,-5.39 3.84,-8.43 8.5,-9.59z" id="svg_81"/>
   <path class="t" d="m322.65,44.59l-0.05,-0.05c-0.45,-0.51 -0.91,-0.99 -1.34,-1.44c-8.51,-8.78 -16.09,-7.75 -36.65,-7.48a103.83,103.83 0 0 0 -11.41,1.45c-7.7,2.29 -9.58,8.87 -6.58,13.88a15.56,15.56 0 0 1 -5.2,-5.33a15.57,15.57 0 0 0 4.3,3.97c-3,-5.02 -1.12,-11.6 6.59,-13.89a106.08,106.08 0 0 1 11.39,-1.44c20.56,-0.28 28.14,-1.32 36.66,7.46c0.45,0.47 0.91,0.97 1.39,1.5a11.22,11.22 0 0 1 0.9,1.37z" id="svg_82"/>
   <path class="t" d="m258.76,39.93a1.38,1.38 0 0 0 -0.27,0.01c-2.54,0.34 -5.42,0.96 -7.45,2.43c-7.01,5.07 -7.27,15.66 -7.22,23.39c0.01,1.15 -0.47,2.21 -1.82,3.76a4.17,4.17 0 0 0 0.61,-2.08a15.35,15.35 0 0 0 0.31,-3.05c-0.05,-7.73 0.21,-18.32 7.23,-23.39c2.02,-1.47 4.91,-2.09 7.45,-2.43a7.31,7.31 0 0 1 0.87,-0.05l0.01,0c0.07,0.47 0.17,0.95 0.28,1.41z" id="svg_83"/>
   <path class="x" d="m306.21,81.82s3.8,10.19 -19.5,13.33c-22.04,2.97 -20.9,-8.43 -20.9,-8.43c-3.97,11.3 2.72,22.07 21.97,19.25c19.25,-2.82 23.25,-15.66 18.43,-24.15z" id="svg_84"/>
   <path class="j" d="m287.78,105.97c-11.18,1.64 -18.11,-1.31 -21.19,-6.28c-0.74,-2.23 -0.42,-5.24 0.02,-9.52c1.6,3.08 6.33,6.84 20.1,4.98c14.49,-1.96 18.5,-6.63 19.46,-9.89a34.95,34.95 0 0 1 0.44,9.68c-2.53,5.09 -8.46,9.51 -18.83,11.03z" id="svg_85"/>
   <path class="y" d="m266.19,94.88c0.08,-1.37 0.24,-2.93 0.42,-4.71c1.6,3.08 6.33,6.84 20.1,4.98c14.49,-1.96 18.5,-6.63 19.46,-9.89a38.33,38.33 0 0 1 0.6,6.45c-1.44,-0.73 -1.46,-2.24 -5.69,0.44c-8.65,5.48 -21.03,6.42 -27.9,3.96c-4.04,-1.45 -5.56,-3.15 -6.99,-1.23z" id="svg_86"/>
   <path class="y" d="m303.47,95.38s-7.08,4.86 -15.66,4.72c1.01,1.64 12.12,-0.12 15.66,-4.72z" id="svg_87"/>
   <text fill="#1167a0" font-family="Fantasy" font-size="24" id="svg_88" stroke-width="0" text-anchor="middle" transform="rotate(-10.5476 296.237 154.764) matrix(0.923138 0 0 0.897706 19.385 14.2965)" x="299.9" xml:space="preserve" y="166.14">GoZoom</text>
  </g>
 </g>
</svg>