<svg xmlns="http://www.w3.org/2000/svg" viewBox="0 0 152.17391 150"><defs><style>.a{fill:#fafaff;}.b{fill:#a3a7f0;}.c{fill:#e6e7ff;}.d{fill:#d4d6ff;}.e{fill:#bcbff7;}.f{fill:#c4c7f5;}.g{fill:#adb1ed;}</style></defs><title>2-diamond</title><polygon class="a" points="108.696 68.944 100.28 78.634 75.652 139.099 76.087 150 152.174 68.944 147.236 64.286 115.404 64.286 108.696 68.944"/><polygon class="b" points="0 68.944 76.087 150 76.988 140.373 51.366 77.298 43.478 68.944 37.36 64.286 6.398 64.286 0 68.944"/><polygon class="c" points="127.329 34.783 119.876 37.267 107.019 63.012 108.696 68.944 152.174 68.944 127.329 34.783"/><polygon class="d" points="24.845 34.783 33.012 38.665 46.18 65.031 43.478 68.944 0 68.944 24.845 34.783"/><polygon class="e" points="108.696 68.944 76.087 150 43.478 68.944 51.677 64.286 99.938 64.286 108.696 68.944"/><path class="f" d="M80.74534,4.65839v9.62732a4.65839,4.65839,0,1,1-9.31677,0V4.65839a4.65839,4.65839,0,1,1,9.31677,0Z"/><path class="g" d="M53.04348,28.50932a4.65379,4.65379,0,0,1-3.29193-1.36646L43.1677,20.559a4.65632,4.65632,0,0,1,6.58385-6.58386L56.3354,20.559a4.62994,4.62994,0,0,1,0,6.58385,4.7645,4.7645,0,0,1-3.29192,1.36646Z"/><path class="a" d="M99.13044,28.50932A4.65549,4.65549,0,0,1,95.83851,20.559l6.58385-6.58385a4.65631,4.65631,0,0,1,6.58385,6.58385l-6.58385,6.58385A4.7883,4.7883,0,0,1,99.13044,28.50932Z"/><polygon class="a" points="76.087 34.783 76.832 37.857 100.901 65.373 108.696 68.944 127.329 34.783 76.087 34.783"/><polygon class="e" points="76.087 34.783 76.801 39.286 52.453 64.006 43.478 68.944 24.845 34.783 76.087 34.783"/><polygon class="c" points="108.696 68.944 43.478 68.944 76.087 34.783 108.696 68.944"/></svg>