<svg xmlns="http://www.w3.org/2000/svg" viewBox="0 0 131.18396 150"><defs><style>.a{fill:#bcbff7;}.b{fill:#fafaff;}</style></defs><title>1-snowflake</title><path class="a" d="M93.17443,93.15231h0a3.64078,3.64078,0,0,1-3.64078-3.64078V61.14685a3.64078,3.64078,0,0,1,3.64078-3.64078h0a3.64077,3.64077,0,0,1,3.64077,3.64078V89.51153A3.64077,3.64077,0,0,1,93.17443,93.15231Z"/><path class="a" d="M38.86618,93.15231h0a3.64077,3.64077,0,0,1-3.64077-3.64078V61.14685a3.64077,3.64077,0,0,1,3.64077-3.64078h0A3.64078,3.64078,0,0,1,42.507,61.14685V89.51153A3.64078,3.64078,0,0,1,38.86618,93.15231Z"/><path class="a" d="M36.7817,90.02005h0a3.64078,3.64078,0,0,1,4.97339-1.33262l24.56454,14.18234a3.64078,3.64078,0,0,1,1.33261,4.9734h0a3.64077,3.64077,0,0,1-4.97339,1.33261L38.11432,94.99344A3.64077,3.64077,0,0,1,36.7817,90.02005Z"/><path class="a" d="M64.99772,107.84155h0a3.64077,3.64077,0,0,1,1.33262-4.97339L90.89487,88.68582a3.64078,3.64078,0,0,1,4.97339,1.33261h0a3.64078,3.64078,0,0,1-1.33261,4.9734L69.97111,109.17417A3.64077,3.64077,0,0,1,64.99772,107.84155Z"/><path class="a" d="M67.34748,42.99086h0a3.64078,3.64078,0,0,1-1.33261,4.97339L41.45033,62.1466a3.64079,3.64079,0,0,1-4.9734-1.33262h0a3.64078,3.64078,0,0,1,1.33262-4.97339L62.37409,41.65824A3.64078,3.64078,0,0,1,67.34748,42.99086Z"/><path class="a" d="M96.1703,60.81319h0a3.64077,3.64077,0,0,1-4.97339,1.33262L66.63237,47.96347a3.64078,3.64078,0,0,1-1.33262-4.9734h0a3.64078,3.64078,0,0,1,4.97339-1.33261L94.83768,55.8398A3.64077,3.64077,0,0,1,96.1703,60.81319Z"/><path class="b" d="M66.00817,0h0A3.64078,3.64078,0,0,1,69.649,3.64078V146.35922A3.64078,3.64078,0,0,1,66.00817,150h0a3.64078,3.64078,0,0,1-3.64078-3.64078V3.64078A3.64078,3.64078,0,0,1,66.00817,0Z"/><path class="b" d="M108.081,54.21454h0a3.64077,3.64077,0,0,1-2.65185-4.41341l3.65158-14.64569a3.64078,3.64078,0,0,1,4.41342-2.65185h0A3.64078,3.64078,0,0,1,116.146,36.917l-3.65158,14.6457A3.64076,3.64076,0,0,1,108.081,54.21454Z"/><path class="b" d="M127.10916,55.18083h0a3.64078,3.64078,0,0,1-4.41341,2.65185l-14.6457-3.65158a3.64078,3.64078,0,0,1-2.65184-4.41342h0a3.64077,3.64077,0,0,1,4.41341-2.65184l14.64569,3.65158A3.64078,3.64078,0,0,1,127.10916,55.18083Z"/><path class="b" d="M113.49837,117.5952h0a3.64077,3.64077,0,0,1-4.41341-2.65185l-3.65159-14.64569a3.64078,3.64078,0,0,1,2.65185-4.41342h0a3.64077,3.64077,0,0,1,4.41341,2.65185l3.65159,14.64569A3.64079,3.64079,0,0,1,113.49837,117.5952Z"/><path class="b" d="M105.39651,100.33669h0a3.64079,3.64079,0,0,1,2.65184-4.41342l14.6457-3.65158a3.64077,3.64077,0,0,1,4.41341,2.65185h0a3.64077,3.64077,0,0,1-2.65184,4.41341l-14.6457,3.65158A3.64078,3.64078,0,0,1,105.39651,100.33669Z"/><path class="b" d="M17.96887,32.5016h0a3.64078,3.64078,0,0,1,4.41342,2.65184l3.65158,14.6457A3.64077,3.64077,0,0,1,23.382,54.21255h0a3.64077,3.64077,0,0,1-4.41341-2.65184L15.317,36.915A3.64077,3.64077,0,0,1,17.96887,32.5016Z"/><path class="b" d="M26.07336,49.76462h0A3.64078,3.64078,0,0,1,23.42152,54.178L8.77582,57.82962a3.64077,3.64077,0,0,1-4.41341-2.65185h0a3.64077,3.64077,0,0,1,2.65184-4.41341l14.6457-3.65159A3.64078,3.64078,0,0,1,26.07336,49.76462Z"/><path class="b" d="M78.96865,13.11319h0a3.64077,3.64077,0,0,1,.11861,5.14747L68.66286,29.1768a3.64078,3.64078,0,0,1-5.14747.11861h0a3.64078,3.64078,0,0,1-.11861-5.14747L73.82119,13.2318A3.64076,3.64076,0,0,1,78.96865,13.11319Z"/><path class="b" d="M68.71022,29.18517h0a3.64078,3.64078,0,0,1-5.14747.11861L52.6466,18.87938a3.64078,3.64078,0,0,1-.11861-5.14747h0a3.64078,3.64078,0,0,1,5.14747-.11861L68.59161,24.0377A3.64079,3.64079,0,0,1,68.71022,29.18517Z"/><path class="b" d="M63.51919,121.73623h0a3.64078,3.64078,0,0,1,5.14747.11861L79.09107,132.771a3.64079,3.64079,0,0,1-.11861,5.14747h0a3.64078,3.64078,0,0,1-5.14747-.11861L63.40058,126.8837A3.64078,3.64078,0,0,1,63.51919,121.73623Z"/><path class="b" d="M52.52726,137.29679h0a3.64079,3.64079,0,0,1,.11861-5.14747L63.562,121.72492a3.64078,3.64078,0,0,1,5.14747.11861h0a3.64079,3.64079,0,0,1-.11861,5.14747L57.67473,137.4154A3.64078,3.64078,0,0,1,52.52726,137.29679Z"/><path class="b" d="M23.38626,95.88587h0a3.64079,3.64079,0,0,1,2.65185,4.41342L22.38653,114.945a3.64079,3.64079,0,0,1-4.41342,2.65185h0a3.64076,3.64076,0,0,1-2.65184-4.41341l3.65158-14.6457A3.64078,3.64078,0,0,1,23.38626,95.88587Z"/><path class="b" d="M4.36374,94.91811h0a3.64078,3.64078,0,0,1,4.41341-2.65185l14.6457,3.65159a3.64077,3.64077,0,0,1,2.65185,4.41341h0a3.64079,3.64079,0,0,1-4.41342,2.65185L7.01559,99.33152A3.64077,3.64077,0,0,1,4.36374,94.91811Z"/><path class="b" d="M130.39218,37.82776h0a3.64077,3.64077,0,0,1-1.33261,4.97339L5.46177,114.16037a3.64078,3.64078,0,0,1-4.97339-1.33261h0a3.64078,3.64078,0,0,1,1.33262-4.9734L125.41879,36.49514A3.64077,3.64077,0,0,1,130.39218,37.82776Z"/><path class="b" d="M130.69558,112.82959h0a3.64078,3.64078,0,0,1-4.9734,1.33261L2.12439,42.803A3.64077,3.64077,0,0,1,.79177,37.82959h0A3.64078,3.64078,0,0,1,5.76517,36.497L129.363,107.85619A3.64079,3.64079,0,0,1,130.69558,112.82959Z"/><circle class="a" cx="65.89591" cy="23.47391" r="3.52852"/><circle class="a" cx="19.47601" cy="49.14442" r="3.52852"/><circle class="a" cx="111.69992" cy="49.14442" r="3.52852"/><circle class="a" cx="111.69992" cy="101.86286" r="3.52852"/><circle class="a" cx="66.00817" cy="129.57221" r="3.52852"/><circle class="a" cx="19.47904" cy="101.86286" r="3.52852"/></svg>