<?xml version="1.0" encoding="UTF-8"?>
<svg xmlns="http://www.w3.org/2000/svg" xmlns:xlink="http://www.w3.org/1999/xlink" viewBox="0 0 500 500">
  <defs>
    <style>
      .cls-1 {
        fill: url(#linear-gradient);
      }

      .cls-2 {
        fill: #f3f8ff;
      }

      .cls-3 {
        fill: #f1a32f;
      }

      .cls-4 {
        fill: #e9f5ff;
      }

      .cls-5, .cls-6, .cls-7 {
        fill: #fff;
      }

      .cls-8 {
        fill: #ef487c;
      }

      .cls-9, .cls-10 {
        fill: #ffd22d;
      }

      .cls-11 {
        fill: #ffaa82;
      }

      .cls-12 {
        fill: #fcfeff;
      }

      .cls-13 {
        fill: #e5c2a5;
      }

      .cls-14 {
        fill: #6b5e6d;
      }

      .cls-15 {
        fill: #6b6b9b;
      }

      .cls-16 {
        fill: #97cbff;
      }

      .cls-17 {
        fill: #8aacce;
      }

      .cls-18 {
        fill: #a1a1e5;
      }

      .cls-19, .cls-20 {
        fill: #8585ff;
      }

      .cls-21 {
        fill: #b5cfea;
      }

      .cls-22 {
        fill: #915350;
      }

      .cls-23 {
        fill: #b3b3ff;
      }

      .cls-24 {
        fill: #918093;
      }

      .cls-25 {
        fill: #bc4073;
      }

      .cls-26 {
        fill: #8db0da;
      }

      .cls-27 {
        fill: #ceab8b;
      }

      .cls-28 {
        fill: #a8c4e5;
      }

      .cls-29 {
        fill: #b2d0ed;
      }

      .cls-30 {
        fill: #bc9a7e;
      }

      .cls-31 {
        fill: #dcefff;
      }

      .cls-32 {
        fill: #dd4078;
      }

      .cls-33 {
        fill: #e1eaf4;
      }

      .cls-34 {
        fill: #d84177;
      }

      .cls-35 {
        fill: #22c6a6;
      }

      .cls-36 {
        fill: #15253d;
      }

      .cls-37 {
        fill: #45446c;
      }

      .cls-38 {
        fill: #93b5d1;
      }

      .cls-39 {
        fill: #a33467;
      }

      .cls-40 {
        fill: #6f6f9e;
      }

      .cls-41 {
        fill: #46466b;
      }

      .cls-42 {
        fill: #87a6c4;
      }

      .cls-43 {
        fill: #894e4e;
      }

      .cls-44, .cls-45 {
        fill: #27e0c0;
      }

      .cls-46 {
        fill: #56547f;
      }

      .cls-47 {
        fill: #565682;
      }

      .cls-48 {
        fill: #492817;
      }

      .cls-49 {
        fill: #353559;
      }

      .cls-50 {
        fill: #7694ad;
      }

      .cls-51 {
        fill: #7878ea;
      }

      .cls-52 {
        fill: #513554;
      }

      .cls-53 {
        fill: #7474a3;
        opacity: .32;
      }

      .cls-54 {
        fill: url(#linear-gradient-3);
      }

      .cls-55 {
        fill: url(#linear-gradient-4);
      }

      .cls-56 {
        fill: url(#linear-gradient-2);
      }

      .cls-57 {
        fill: url(#linear-gradient-6);
      }

      .cls-58 {
        fill: url(#linear-gradient-5);
      }

      .cls-59 {
        isolation: isolate;
      }

      .cls-60 {
        mix-blend-mode: multiply;
        opacity: .29;
      }

      .cls-6 {
        opacity: .28;
      }

      .cls-7 {
        opacity: .46;
      }

      .cls-20 {
        opacity: .47;
      }

      .cls-45, .cls-10 {
        opacity: .36;
      }
    </style>
    <linearGradient id="linear-gradient" x1="165.62" y1="166.33" x2="167.47" y2="166.33" gradientTransform="translate(5.95)" gradientUnits="userSpaceOnUse">
      <stop offset=".04" stop-color="#fff"/>
      <stop offset=".32" stop-color="#fcfdfe"/>
      <stop offset=".51" stop-color="#f3f7fb"/>
      <stop offset=".67" stop-color="#e3ecf6"/>
      <stop offset=".82" stop-color="#ceddf0"/>
      <stop offset=".96" stop-color="#b2cbe8"/>
      <stop offset="1" stop-color="#a8c4e5"/>
    </linearGradient>
    <linearGradient id="linear-gradient-2" x1="165.62" y1="163.26" x2="210.57" y2="163.26" xlink:href="#linear-gradient"/>
    <linearGradient id="linear-gradient-3" x1="243.65" y1="208.71" x2="295.9" y2="178.55" xlink:href="#linear-gradient"/>
    <linearGradient id="linear-gradient-4" x1="216.52" y1="137.54" x2="338.86" y2="137.54" xlink:href="#linear-gradient"/>
    <linearGradient id="linear-gradient-5" x1="318.23" y1="301" x2="301.29" y2="271.67" gradientUnits="userSpaceOnUse">
      <stop offset="0" stop-color="#9fb0bf"/>
      <stop offset=".25" stop-color="#a2b3c2"/>
      <stop offset=".5" stop-color="#aebdcb"/>
      <stop offset=".73" stop-color="#c1ceda"/>
      <stop offset=".96" stop-color="#dce5f0"/>
      <stop offset="1" stop-color="#e1eaf4"/>
    </linearGradient>
    <linearGradient id="linear-gradient-6" x1="72.07" y1="387.89" x2="53.87" y2="356.37" gradientTransform="translate(282.12 -99.46) rotate(2.67) scale(.88 1.03) skewX(-1.3)" gradientUnits="userSpaceOnUse">
      <stop offset="0" stop-color="#9fb0bf"/>
      <stop offset=".02" stop-color="#a9b8c5"/>
      <stop offset=".09" stop-color="#c3ced7"/>
      <stop offset=".17" stop-color="#d9e0e6"/>
      <stop offset=".27" stop-color="#eaeef1"/>
      <stop offset=".38" stop-color="#f6f7f9"/>
      <stop offset=".55" stop-color="#fdfdfd"/>
      <stop offset="1" stop-color="#fff"/>
    </linearGradient>
  </defs>
  <g class="cls-59">
    <g id="development">
      <circle class="cls-2" cx="275" cy="235" r="215" transform="translate(-85.62 263.28) rotate(-45)"/>
      <g>
        <path class="cls-31" d="m300.23,488.53L51.73,342.42c-13.26-7.65-13.31-17.02-.13-24.82l140.66-83.26,272.04,157.07-164.07,97.12Z"/>
        <rect class="cls-24" x="451.6" y="268.44" width="8.69" height="130.67" rx="3.98" ry="3.98" transform="translate(-44.02 70.48) rotate(-8.43)"/>
        <path class="cls-24" d="m297,499.98h0c-2.37-.2-4.12-2.29-3.92-4.66l16.91-196.34c.2-2.37,2.29-4.12,4.66-3.92h0c2.37.2,4.12,2.29,3.92,4.66l-16.91,196.34c-.2,2.37-2.29,4.12-4.66,3.92Z"/>
        <polygon class="cls-14" points="310.74 390.62 302.55 385.02 304.89 361.44 313.62 362.8 310.74 390.62"/>
        <polygon class="cls-14" points="449.71 321.19 457.48 315.03 453.48 291.67 444.87 293.64 449.71 321.19"/>
        <polygon class="cls-31" points="35.44 424.22 183.48 346.51 264.49 393.28 116.45 470.99 35.44 424.22"/>
        <path class="cls-25" d="m135.69,374.78l-83.51-48.22c-7.74-4.47-4.61-14.27,6.96-21.78l30.02-19.49c11.57-7.51,58.34-12.71,66.08-8.24l52.29,32.14c7.74,4.47,4.86,33.05-6.71,40.56l-30.02,19.49c-11.57,7.51-27.36,10-35.1,5.53Z"/>
        <g>
          <path class="cls-36" d="m192.33,380.16c-.51.39-7.88,3.61-8.36,3.97-.73.57-2.88,2.11-4.17,2.94-2.72,1.75-8.66,8.64-17.42,3.08-12.82-8.13,19.9-27.49,19.9-27.49l14.36-6.52c1.75-.79,3.8-.68,5.52.3h0c3.18,1.81,4.27,5.94,2.32,8.91-3.34,5.11-3.68,8.17-12.16,14.8Z"/>
          <path class="cls-43" d="m191.06,376.12c-.51.39-7.88,3.61-8.36,3.97-.73.57-2.88,2.11-4.17,2.94-2.72,1.75-8.66,8.64-17.42,3.08-12.82-8.13,19.9-27.49,19.9-27.49l14.36-6.52c1.75-.79,3.8-.68,5.52.3h0c3.18,1.81,4.27,5.94,2.32,8.91-3.34,5.11-3.68,8.17-12.16,14.8Z"/>
          <path class="cls-22" d="m200.33,366.55c.79-1.36,2.04-3.95,3.07-5.53,1.94-2.98.67-6.79-2.51-8.61-1.72-.98-3.78-1.1-5.52-.3l-7.01,3.18c3.95,1.66,8.44,5.45,11.97,11.26Z"/>
          <path class="cls-27" d="m138.86,336.44c6.63-4.51,13.33-8.93,20.23-13.02,4.63-2.74,9.35-5.37,14.31-7.47l-4.76,2.01c2.64-1.1,5.37-2.09,8.22-2.48l-5.3.71c1.07-.14,2.15-.18,3.22-.05l-5.3-.71c.65.09,1.28.25,1.88.49l-4.76-2.01c.49.21.96.47,1.38.79l-4.03-3.12c.45.35.84.74,1.19,1.19l-3.12-4.03c.49.64.88,1.35,1.19,2.09l-2.01-4.76c.67,1.62,1.01,3.34,1.24,5.07l-.71-5.3c.4,3,.48,6.03.55,9.06.04,1.76.06,3.52.09,5.28s.28,3.55.09,5.25l.71-5.3c-.27,1.96-1.16,3.85-1.91,5.66l2.01-4.76c-2.86,6.75-5.97,13.41-8.48,20.3-2.84,7.81-4.62,16.01-5,24.33-.1,2.74.47,5.31,1.72,7.68.8,2.47,2.18,4.61,4.12,6.42,1.81,1.94,3.94,3.32,6.42,4.12,2.38,1.25,4.94,1.82,7.68,1.72,5.16-.23,10.5-1.92,14.1-5.84l3.12-4.03c1.8-3.11,2.71-6.46,2.72-10.06.06-1.42.2-2.83.39-4.24l-.71,5.3c1.07-7.53,3.7-14.72,6.63-21.69l-2.01,4.76c2.41-5.7,5.34-11.31,7.22-17.22,1.41-4.44,1.13-8.96,1.05-13.51-.12-6.83-.3-13.59-1.63-20.33-.67-3.38-1.97-6.86-3.86-9.71-1.09-1.65-2.36-3.34-3.7-4.79-.28-.3-.57-.56-.88-.82-3.71-3.12-5.92-4.59-10.64-6.09-5.39-1.71-10.69-1.12-16.11-.14-4.56.82-9,2.97-13.17,4.81-4.79,2.11-9.38,4.69-13.87,7.37-6.69,3.99-13.19,8.28-19.63,12.66-2.32,1.25-4.19,2.96-5.59,5.13-1.76,1.93-2.95,4.19-3.57,6.78-.83,2.65-.95,5.3-.36,7.95.12,2.65.91,5.12,2.37,7.41,2.74,4.26,6.83,8,11.91,9.16,5.03,1.14,10.95.99,15.36-2.01h0Z"/>
          <path class="cls-33" d="m179.93,363.24c-5.46,4.26-16.23,3.04-19.97-2.94-.24,3.17-.43,6.35-.52,9.52-.4,12.93,19.71,14.08,20.11,1.1.08-2.56.21-5.12.38-7.68Z"/>
          <path class="cls-13" d="m154.8,357.99l-.27,8.92c-.01.38.09.75.3,1.07,1.24,1.89,6.18,8.27,15.9,7.1,8.52-1.03,13.2-3.44,15.01-4.58.56-.36.88-.98.86-1.64l-.33-9.11c-.05-1.36-1.49-2.23-2.7-1.6-4.44,2.3-14.2,5.55-25.9-1.66-1.23-.76-2.83.06-2.87,1.51Z"/>
        </g>
        <path class="cls-30" d="m115.03,316.17h0c1.12,2.42-3.38-9.04-1.59-7.06,3.72,4.12,24.01,29.15,29.3,30.84,6.38,2.04-10.24-12.77-10.24-12.77,0,0,53.17-31.04,52.05-32.57-8.75-12-17.05-15.75-33.83-9.23-19.1,7.43-41.06,19.24-35.69,30.79Z"/>
        <g>
          <path class="cls-36" d="m224.75,398.41c-.52.38-8,3.34-8.48,3.7-.74.54-2.95,2.02-4.27,2.8-2.78,1.66-8.94,8.35-17.52,2.5-12.55-8.55,20.8-26.82,20.8-26.82l14.57-6.04c1.77-.74,3.82-.56,5.51.48h0c3.12,1.92,4.07,6.07,2.03,8.99-3.5,5-3.94,8.05-12.64,14.39Z"/>
          <path class="cls-43" d="m223.61,394.33c-.52.38-8,3.34-8.48,3.7-.74.54-2.95,2.02-4.27,2.8-2.78,1.66-8.94,8.35-17.52,2.5-12.55-8.55,20.8-26.82,20.8-26.82l14.57-6.04c1.77-.74,3.82-.56,5.51.48h0c3.12,1.92,4.07,6.07,2.03,8.99-3.5,5-3.94,8.05-12.64,14.39Z"/>
          <path class="cls-22" d="m233.19,385.07c.84-1.33,2.16-3.88,3.25-5.43,2.04-2.91.9-6.77-2.22-8.69-1.69-1.04-3.74-1.22-5.51-.48l-7.11,2.95c3.9,1.79,8.25,5.72,11.6,11.65Z"/>
          <path class="cls-27" d="m162.16,352.52c10.44-7.53,20.87-15.39,32.11-21.72,1.92-1.08,3.89-2.1,5.92-2.97l-4.76,2.01c1.7-.71,3.46-1.34,5.29-1.59l-5.3.71c.77-.1,1.53-.12,2.3-.02l-5.3-.71c.49.07.96.2,1.42.39l-4.76-2.01c.37.16.71.37,1.04.61l-4.03-3.12c.35.28.67.6.95.95l-3.12-4.03c.4.52.71,1.1.97,1.7l-2.01-4.76c.55,1.31.83,2.71,1.03,4.12l-.71-5.3c.45,3.47.36,7.01.17,10.5-.14,2.71-.12,5.41-.1,8.12.07,10.24.2,20.49.06,30.73-.08,5.69-.2,11.38-.61,17.05-.1,2.74.47,5.31,1.72,7.68.8,2.47,2.18,4.61,4.12,6.42,1.81,1.94,3.94,3.32,6.42,4.12,2.38,1.25,4.94,1.82,7.68,1.72,5.16-.23,10.5-1.92,14.1-5.84l3.12-4.03c1.8-3.11,2.71-6.46,2.72-10.06.81-11.17.71-22.41.66-33.6-.04-7.86-.27-15.72.06-23.57.22-5.27-.17-10.36-1.11-15.58-.51-2.83-1.77-5.56-3-8.11-.22-.45-.46-.88-.75-1.29-1.16-1.69-2.42-3.54-3.96-4.96-1.3-1.19-2.95-2.47-4.43-3.43-.18-.12-.37-.23-.56-.33-1.58-.86-3.57-1.66-5.27-2.23-.21-.07-.43-.14-.65-.2-1.9-.45-3.95-.63-5.89-.82-.25-.02-.49-.05-.74-.06-2.27-.07-4.61.46-6.81.8-1.34.21-2.63.57-3.9,1.04-3.16,1.17-6.29,2.51-9.3,4.04-4.39,2.24-8.56,4.92-12.67,7.64-5.79,3.84-11.46,7.86-17.1,11.9-1.7,1.22-3.4,2.44-5.1,3.67-2.32,1.25-4.19,2.96-5.59,5.13-1.76,1.93-2.95,4.19-3.57,6.78-.83,2.65-.95,5.3-.36,7.95.12,2.65.91,5.12,2.37,7.41,2.74,4.26,6.83,8,11.91,9.16l5.3.71c3.6-.01,6.95-.92,10.06-2.72h0Z"/>
          <path class="cls-33" d="m212.91,381.09c-5.6,4.08-16.32,2.51-19.86-3.6-.34,3.16-.63,6.33-.84,9.5-.82,12.91,19.24,14.72,20.06,1.76.16-2.56.38-5.11.64-7.66Z"/>
          <path class="cls-13" d="m187.96,375.02l-.56,8.9c-.02.38.06.75.26,1.08,1.18,1.93,5.91,8.47,15.66,7.62,8.55-.75,13.31-3,15.16-4.08.57-.34.91-.95.91-1.61l-.03-9.12c0-1.36-1.42-2.28-2.64-1.69-4.52,2.16-14.37,5.08-25.84-2.51-1.21-.8-2.83-.03-2.92,1.42Z"/>
        </g>
        <path class="cls-52" d="m196.29,329.17h0c1.91,0,3.46,1.55,3.46,3.46v87.81c0,1.91-1.55,3.46-3.46,3.46h0c-1.91,0-3.46-1.55-3.46-3.46v-87.81c0-1.91,1.55-3.46,3.46-3.46Z" transform="translate(445.7 720.18) rotate(171.56)"/>
        <path class="cls-14" d="m-12.74,241.62H115.48c1.68,0,3.04,1.36,3.04,3.04v1.05c0,1.68-1.36,3.04-3.04,3.04H-12.74c-1.68,0-3.04-1.36-3.04-3.04v-1.05c0-1.68,1.36-3.04,3.04-3.04Z" transform="translate(-198.7 260.01) rotate(-81.56)"/>
        <g>
          <rect class="cls-28" x="30.78" y="190.09" width="22.83" height="13.26"/>
          <rect class="cls-28" x="445.83" y="274.86" width="22.83" height="13.26"/>
          <path class="cls-28" d="m315.63,370.61L33.7,207.83c-4.42-2.55-3.87-7.01,1.24-9.96l131.56-75.96c5.1-2.95,12.82-3.27,17.24-.71l281.94,162.78c4.42,2.55,3.87,7.01-1.24,9.96l-131.56,75.96c-5.1,2.95-12.82,3.27-17.24.71Z"/>
          <path class="cls-4" d="m315.63,357.89L33.7,195.11c-4.42-2.55-3.87-7.01,1.24-9.96l131.56-75.96c5.1-2.95,12.82-3.27,17.24-.71l281.94,162.78c4.42,2.55,3.87,7.01-1.24,9.96l-131.56,75.96c-5.1,2.95-12.82,3.27-17.24.71Z"/>
        </g>
        <path class="cls-39" d="m115.28,284.47l-58.36,45.09c-9.53,5.84-16.69.04-16.68-9.99l-1.11-16.33c0-10.03,7.82-23.01,17.35-28.84l58.85-36.03c9.53-5.84,17.32-2.41,17.31,7.62v9.63c-.02,10.03-7.82,23.01-17.36,28.84Z"/>
        <path class="cls-52" d="m39.6,427.5h0c-1.89-.28-3.19-2.04-2.91-3.93l16.26-109.66c.28-1.89,2.04-3.19,3.93-2.91h0c1.89.28,3.19,2.04,2.91,3.93l-16.26,109.66c-.28,1.89-2.04,3.19-3.93,2.91Z"/>
        <path class="cls-52" d="m116.46,474.13h0c-1.95-.29-3.3-2.11-3.01-4.06l18.34-123.69c.29-1.95,2.11-3.3,4.06-3.01h0c1.95.29,3.3,2.11,3.01,4.06l-18.34,123.69c-.29,1.95-2.11,3.3-4.06,3.01Z"/>
        <path class="cls-34" d="m131.19,386.49l-73.83-42.63c-7.94-4.58-12.32-13.71-12.32-13.71-2.97-6.82,4.11-11.76,12.05-7.17l77.63,45.7c7.94,4.58,10.93,9.37,9.65,15.05,0,0-3.12,7.95-13.18,2.76Z"/>
        <path class="cls-28" d="m278.92,237.37l-82.11-47.41c-.47-.27-1.05-.27-1.52,0l-24.93,14.71c-.99.59-.99,2.02.01,2.6l81.83,47.25c.47.27,1.04.27,1.5,0l25.21-14.55c1-.58,1-2.03,0-2.61Z"/>
        <g>
          <path class="cls-5" d="m253.77,251.29l-81.83-47.25c-1-.58-1-2.01-.01-2.6l24.93-14.71c.47-.28,1.05-.28,1.52,0l82.11,47.41c1,.58,1,2.03,0,2.61l-25.2,14.55c-.47.27-1.04.27-1.5,0Z"/>
          <path class="cls-28" d="m200.91,194.08c-.13.08-.4.05-.6-.07l-5.52-3.19c-.2-.11-.25-.27-.12-.35l3.66-2.11c.13-.08.4-.04.6.07l5.52,3.19c.2.11.25.27.12.35l-3.66,2.11Z"/>
          <path class="cls-28" d="m207.31,203.59c-.13.08-.4.05-.6-.07l-5.52-3.19c-.2-.11-.25-.27-.12-.35l3.66-2.11c.13-.08.4-.04.6.07l5.52,3.19c.2.12.25.27.12.35l-3.66,2.11Z"/>
          <path class="cls-28" d="m204.08,207.54c-.13.08-.4.04-.6-.07l-5.52-3.19c-.2-.11-.26-.27-.12-.35l3.66-2.11c.13-.07.4-.04.6.07l5.52,3.19c.2.11.25.27.12.35l-3.66,2.11Z"/>
          <path class="cls-28" d="m195.32,208.31c-.13.08-.4.04-.6-.07l-5.52-3.19c-.2-.11-.25-.27-.12-.35l3.66-2.11c.13-.08.4-.04.6.07l5.52,3.19c.2.11.25.27.12.35l-3.66,2.11Z"/>
          <path class="cls-28" d="m189.64,211.58c-.13.08-.45.02-.71-.14l-7.23-4.17c-.26-.15-.37-.33-.23-.41l4.3-2.48c.13-.07.45-.01.71.13l7.23,4.17c.26.15.36.34.24.41l-4.3,2.48Z"/>
          <path class="cls-28" d="m237.16,239.04c-.11.06-.36.02-.56-.09l-5.52-3.18c-.2-.12-.28-.26-.17-.33l1.59-.92c.11-.06.36-.02.56.1l5.52,3.18c.2.11.27.26.16.32l-1.59.92Z"/>
          <path class="cls-28" d="m244.54,243.41c-.11.06-.36.02-.56-.09l-5.52-3.18c-.2-.12-.28-.26-.17-.33l1.59-.92c.11-.06.36-.02.56.1l5.52,3.18c.2.11.27.26.16.32l-1.59.92Z"/>
          <path class="cls-28" d="m252.36,247.82c-.11.06-.35.02-.55-.1l-5.52-3.18c-.2-.11-.28-.26-.17-.32l1.53-.88c.1-.06.36-.02.55.1l5.52,3.18c.2.11.27.26.17.32l-1.53.88Z"/>
          <path class="cls-28" d="m247.55,241.73c-.11.06-.35.02-.55-.1l-5.52-3.18c-.2-.11-.28-.26-.17-.32l1.53-.88c.1-.06.36-.02.55.1l5.52,3.18c.2.11.27.26.17.32l-1.53.88Z"/>
          <path class="cls-28" d="m227.62,233.49c-.13.08-.4.04-.6-.07l-35.93-20.73c-.2-.11-.25-.27-.12-.35l4.3-2.48c.13-.07.4-.04.6.07l35.93,20.73c.2.12.25.27.12.35l-4.3,2.48Z"/>
          <path class="cls-28" d="m223.94,230.35s-.15-.07-.3-.16l-28.59-16.5c-.16-.09-.28-.17-.27-.17l.27-.15s.15.07.3.16l28.59,16.5c.16.09.28.17.27.18l-.27.15Z"/>
          <path class="cls-28" d="m202.89,212.67c-.13.08-.4.04-.6-.07l-5.52-3.19c-.2-.11-.25-.27-.12-.35l3.66-2.11c.13-.08.41-.04.6.07l5.52,3.19c.2.12.25.27.12.35l-3.66,2.11Z"/>
          <path class="cls-28" d="m210.49,217.06c-.13.08-.4.04-.6-.07l-5.52-3.19c-.2-.11-.25-.27-.12-.35l3.66-2.11c.13-.08.4-.04.6.07l5.52,3.19c.2.11.25.27.12.35l-3.66,2.11Z"/>
          <path class="cls-28" d="m218.09,221.44c-.13.08-.4.04-.6-.07l-5.52-3.19c-.2-.11-.25-.27-.12-.35l3.66-2.11c.13-.08.4-.05.6.07l5.52,3.19c.2.11.25.27.12.35l-3.66,2.11Z"/>
          <path class="cls-28" d="m225.69,225.83c-.13.08-.4.05-.6-.07l-5.52-3.19c-.2-.12-.25-.27-.12-.35l3.66-2.11c.13-.08.4-.05.6.07l5.52,3.19c.2.11.25.27.12.35l-3.66,2.11Z"/>
          <path class="cls-28" d="m233.29,230.22c-.13.08-.4.04-.6-.07l-5.52-3.18c-.2-.11-.25-.27-.12-.35l3.66-2.11c.13-.08.4-.05.6.07l5.52,3.18c.2.12.25.27.12.35l-3.66,2.11Z"/>
          <path class="cls-28" d="m240.89,234.6c-.13.08-.4.04-.6-.07l-5.52-3.19c-.2-.11-.25-.27-.12-.35l3.66-2.11c.13-.08.4-.04.6.07l5.52,3.19c.2.11.25.27.12.35l-3.66,2.11Z"/>
          <path class="cls-28" d="m258.02,244.48c-.13.08-.4.04-.6-.07l-15.04-8.68c-.2-.11-.25-.27-.12-.35l3.66-2.11c.13-.08.4-.05.6.07l15.04,8.68c.2.11.25.27.12.35l-3.66,2.11Z"/>
          <path class="cls-28" d="m211.64,211.91c-.13.08-.4.05-.6-.07l-5.52-3.19c-.2-.11-.25-.27-.12-.35l3.66-2.11c.13-.07.4-.04.6.07l5.52,3.19c.2.12.25.27.12.34l-3.66,2.11Z"/>
          <path class="cls-28" d="m219.24,216.29c-.13.08-.4.04-.6-.07l-5.52-3.19c-.2-.11-.25-.27-.12-.34l3.66-2.11c.13-.07.4-.04.6.07l5.52,3.19c.2.11.25.27.12.34l-3.66,2.11Z"/>
          <path class="cls-28" d="m226.85,220.68c-.13.08-.4.04-.6-.07l-5.52-3.19c-.2-.11-.26-.27-.12-.35l3.66-2.11c.13-.07.4-.04.6.07l5.52,3.19c.2.11.25.27.12.35l-3.66,2.11Z"/>
          <path class="cls-28" d="m234.45,225.07c-.13.08-.4.04-.6-.07l-5.52-3.19c-.2-.11-.26-.27-.12-.35l3.66-2.11c.13-.07.4-.04.6.07l5.52,3.19c.2.11.25.27.12.34l-3.66,2.11Z"/>
          <path class="cls-28" d="m242.05,229.45c-.13.08-.4.04-.6-.07l-5.52-3.19c-.2-.11-.25-.27-.12-.34l3.66-2.11c.13-.07.4-.04.6.07l5.52,3.19c.2.11.25.27.12.34l-3.66,2.11Z"/>
          <path class="cls-28" d="m249.65,233.84c-.13.08-.4.04-.6-.07l-5.52-3.18c-.2-.12-.26-.27-.12-.35l3.66-2.11c.13-.07.4-.04.6.07l5.52,3.18c.2.11.25.27.12.34l-3.66,2.11Z"/>
          <path class="cls-28" d="m257.25,238.22c-.13.08-.4.04-.6-.07l-5.52-3.19c-.2-.11-.25-.27-.12-.34l3.66-2.11c.13-.07.4-.04.59.07l5.52,3.19c.2.11.25.27.12.34l-3.66,2.11Z"/>
          <path class="cls-28" d="m214.88,207.96c-.13.08-.4.05-.6-.07l-5.52-3.19c-.2-.11-.25-.27-.12-.35l3.66-2.11c.13-.08.4-.04.6.07l5.52,3.19c.2.12.25.27.12.35l-3.66,2.11Z"/>
          <path class="cls-28" d="m222.48,212.34c-.13.08-.4.05-.6-.07l-5.52-3.19c-.2-.11-.25-.27-.12-.35l3.66-2.11c.13-.08.4-.04.6.07l5.52,3.19c.2.11.25.27.12.34l-3.66,2.11Z"/>
          <path class="cls-28" d="m230.08,216.73c-.13.08-.4.05-.6-.07l-5.52-3.19c-.2-.11-.25-.27-.12-.35l3.66-2.11c.13-.08.4-.04.6.07l5.52,3.19c.2.12.25.27.12.35l-3.66,2.11Z"/>
          <path class="cls-28" d="m237.68,221.12c-.13.08-.4.05-.6-.07l-5.52-3.19c-.2-.11-.25-.27-.12-.35l3.66-2.11c.13-.08.4-.04.6.07l5.52,3.19c.2.12.25.27.12.34l-3.66,2.11Z"/>
          <path class="cls-28" d="m245.29,225.5c-.13.08-.4.05-.6-.07l-5.52-3.19c-.2-.12-.25-.27-.12-.35l3.66-2.11c.13-.08.4-.04.6.07l5.52,3.19c.2.11.25.27.12.34l-3.66,2.11Z"/>
          <path class="cls-28" d="m252.89,229.89c-.13.08-.4.05-.6-.07l-5.52-3.19c-.2-.11-.25-.27-.12-.35l3.66-2.11c.13-.07.4-.04.6.07l5.52,3.19c.2.12.25.27.12.35l-3.66,2.11Z"/>
          <path class="cls-28" d="m260.49,234.27c-.13.08-.4.05-.6-.07l-5.52-3.19c-.2-.11-.25-.27-.12-.35l3.66-2.11c.13-.08.4-.04.6.07l5.52,3.19c.2.11.25.27.12.34l-3.66,2.11Z"/>
          <path class="cls-28" d="m199.71,199.21c-.13.08-.4.05-.6-.07l-9.36-5.4c-.2-.12-.25-.27-.12-.35l3.66-2.11c.13-.07.4-.04.6.07l9.36,5.4c.2.12.25.27.12.35l-3.66,2.11Z"/>
          <path class="cls-28" d="m273.13,235.75c-.13.08-.4.05-.6-.07l-9.36-5.4c-.2-.11-.25-.27-.12-.35l3.66-2.11c.13-.08.4-.04.6.07l9.36,5.4c.2.11.25.27.12.35l-3.66,2.11Z"/>
          <path class="cls-28" d="m196.47,203.16c-.13.08-.4.05-.6-.07l-11.16-6.44c-.2-.11-.26-.27-.12-.35l3.66-2.11c.13-.07.4-.04.6.07l11.16,6.44c.2.12.25.27.12.35l-3.66,2.11Z"/>
          <path class="cls-28" d="m187.72,203.92c-.13.08-.4.04-.6-.07l-7.44-4.29c-.2-.12-.25-.27-.12-.35l3.66-2.11c.13-.08.4-.05.6.07l7.44,4.29c.2.11.25.27.12.35l-3.66,2.11Z"/>
          <path class="cls-28" d="m208.51,198.47c-.13.08-.4.05-.6-.07l-5.52-3.18c-.2-.11-.25-.27-.12-.35l3.66-2.11c.13-.08.4-.04.6.07l5.52,3.18c.2.12.25.27.12.35l-3.66,2.11Z"/>
          <path class="cls-28" d="m216.08,202.83c-.13.08-.4.04-.6-.07l-5.52-3.19c-.2-.11-.25-.27-.12-.35l3.66-2.11c.13-.08.4-.04.6.07l5.52,3.19c.2.11.25.27.12.35l-3.66,2.11Z"/>
          <path class="cls-28" d="m223.68,207.22c-.13.08-.4.05-.6-.07l-5.52-3.19c-.2-.11-.25-.27-.12-.35l3.66-2.11c.13-.08.4-.04.6.07l5.52,3.19c.2.12.25.27.12.35l-3.66,2.11Z"/>
          <path class="cls-28" d="m231.28,211.6c-.13.08-.4.04-.6-.07l-5.52-3.18c-.2-.12-.25-.27-.12-.35l3.66-2.11c.13-.08.4-.05.6.07l5.52,3.18c.2.11.25.27.12.35l-3.66,2.11Z"/>
          <path class="cls-28" d="m238.88,215.99c-.13.08-.4.05-.6-.07l-5.52-3.19c-.2-.12-.25-.27-.12-.35l3.66-2.11c.13-.08.4-.05.6.07l5.52,3.19c.2.12.25.27.12.35l-3.66,2.11Z"/>
          <path class="cls-28" d="m246.49,220.38c-.13.08-.4.04-.6-.07l-5.52-3.19c-.2-.11-.25-.27-.12-.35l3.66-2.11c.13-.08.4-.05.6.07l5.52,3.19c.2.11.25.27.12.35l-3.66,2.11Z"/>
          <path class="cls-28" d="m254.09,224.76c-.13.08-.4.04-.6-.07l-5.52-3.19c-.2-.12-.25-.27-.12-.35l3.66-2.11c.13-.08.4-.04.6.07l5.52,3.19c.2.11.25.27.12.35l-3.66,2.11Z"/>
          <path class="cls-28" d="m261.69,229.15c-.13.08-.4.05-.6-.07l-5.52-3.19c-.2-.11-.25-.27-.12-.34l3.66-2.11c.13-.08.4-.05.6.07l5.52,3.19c.2.11.25.27.12.34l-3.66,2.11Z"/>
          <path class="cls-28" d="m266.11,233.02c-.09-.05-.2-.09-.32-.11-.12-.01-.21,0-.27.04l-3.66,2.11c-.06.04-.09.09-.07.16.03.07.09.13.18.19l1.44.83-4.8,2.77c-.06.04-.09.09-.06.16.02.07.09.13.18.19l3.72,2.15c.09.05.21.09.33.11.12.01.21,0,.28-.04l8.7-5.02c.06-.04.09-.09.06-.16-.02-.07-.09-.13-.19-.19l-5.52-3.19Z"/>
        </g>
        <path class="cls-11" d="m77.89,222.41c4.28,5.8,8.59,11.58,13.17,17.15,1.91,2.32,3.86,4.71,6.2,6.61s4.14,3.33,7.18,4.15c3.64.98,7.55.5,10.79-1.44s5.51-5.07,6.42-8.63c.43-1.66.57-3.38.71-5.09.15-1.8.14-3.61.38-5.41l-.46,3.41c.14-1.02.35-2.03.75-2.99l-1.29,3.06c.21-.48.46-.94.77-1.35l-2.01,2.6c.24-.31.51-.58.82-.82l-2.6,2.01c.3-.22.62-.41.96-.56l-3.06,1.29c.42-.17.85-.28,1.29-.34l-3.41.46c1.86-.23,3.79,0,5.66-.12,3.5-.23,7.01-.71,10.44-1.44,5.89-1.25,11.51-3.54,16.96-6.05,8.69-4,16.59-9.41,24.65-14.51,3.71-2.35,7.47-4.68,11.52-6.39l-3.06,1.29c1.83-.76,3.73-1.38,5.7-1.65l-3.41.46c1.07-.13,2.14-.15,3.22-.01l-3.41-.46c.11.02.23.03.34.05,1.71.53,3.41.61,5.12.23,1.71-.08,3.3-.58,4.77-1.52,2.66-1.56,5.2-4.61,5.89-7.67.75-3.28.59-6.97-1.29-9.88-1.7-2.64-4.43-5.36-7.67-5.89-2.26-.38-4.5-.77-6.78-.52s-4.64.53-6.86,1.23c-3.91,1.24-7.69,3.06-11.26,5.09-6.81,3.87-13.19,8.43-19.93,12.42-4.17,2.47-8.46,4.76-12.93,6.66l3.06-1.29c-4.85,2.04-9.89,3.58-15.1,4.32l3.41-.46c-4.25.57-8.57.06-12.77.98-1.64.36-3.27,1.07-4.7,1.93-1.36.81-2.67,1.83-3.71,3.04-2.2,2.54-3.85,5.38-4.59,8.69-.52,2.32-.76,4.72-.9,7.09-.07,1.28-.08,2.56-.25,3.83l.46-3.41c-.06.43-.14.86-.3,1.26l1.29-3.06c-.06.14-.13.27-.22.39l2.01-2.6c-.05.07-.11.13-.18.19l2.6-2.01c-.07.05-.14.09-.21.13l3.06-1.29c-.07.03-.13.04-.2.06l3.41-.46c-.11.01-.22.01-.33,0l3.41.46c-.18-.03-.34-.08-.51-.15l3.06,1.29c-.42-.19-.8-.45-1.17-.73l2.6,2.01c-1.47-1.15-2.74-2.57-3.97-3.97-2.24-2.55-4.33-5.22-6.41-7.9l2.01,2.6c-2.37-3.07-4.69-6.18-6.99-9.3-.81-1.49-1.91-2.69-3.3-3.6-1.24-1.13-2.69-1.9-4.36-2.3-3.07-.85-7.16-.46-9.88,1.29s-5.15,4.4-5.89,7.67-.72,7.16,1.29,9.88h0Z"/>
        <ellipse class="cls-28" cx="313.3" cy="248.48" rx="8.8" ry="15.25" transform="translate(63.16 560.45) rotate(-89.69)"/>
        <ellipse class="cls-28" cx="396.51" cy="268.3" rx="7.73" ry="13.38" transform="translate(126.68 663.78) rotate(-89.78)"/>
        <g>
          <ellipse class="cls-19" cx="308.38" cy="247.6" rx="7.78" ry="13.48" transform="translate(59.12 554.64) rotate(-89.69)"/>
          <polygon class="cls-19" points="319.61 247.86 294.9 247.76 294.9 225.76 319.61 225.97 319.61 247.86"/>
          <path class="cls-51" d="m314.52,225.86v20.1l-.03.78c.02,3.39-1.73,3.98-4.36,5.5-1.58.91-3.52,1.92-5.52,2.28,4.63.83,9.83-.37,13.48-2.48,2.63-1.52,3.92-2.7,3.9-6.09h0l-.08-19.94-7.38-.16Z"/>
          <ellipse class="cls-23" cx="308.38" cy="225.97" rx="7.78" ry="13.48" transform="translate(80.75 533.12) rotate(-89.69)"/>
          <path class="cls-18" d="m316.35,230.41c-4.34,2.5-11.39,2.49-15.75-.03-4.36-2.52-4.39-6.59-.05-9.1,4.34-2.5,11.39-2.49,15.75.03,4.36,2.52,4.39,6.59.05,9.1Z"/>
          <path class="cls-47" d="m316.3,225.23c-4.36-2.52-11.42-2.53-15.75-.03-1.29.74-2.18,1.63-2.7,2.57.53.95,1.44,1.85,2.75,2.61,4.36,2.52,11.42,2.53,15.75.03,1.29-.74,2.18-1.63,2.7-2.57-.53-.95-1.44-1.85-2.75-2.61Z"/>
          <path class="cls-15" d="m300.55,230.41c-1.29-.74-2.18-1.63-2.7-2.57.3-.55.73-1.07,1.29-1.57,3.77-.63,7.99-.1,10.95,1.61,1.29.74,2.18,1.63,2.7,2.57.24.42.41.82.47,1.21-.65.16-1.25.28-1.76.35-3.77.63-7.99.1-10.95-1.61Z"/>
          <path class="cls-37" d="m316.22,236.83c1.05.56,2.13,1.07,3.15,1.69.21.12.4.26.6.39-.53-.35.06.08.18.18.52.44-.17-.31.06.1-.1-.17-.21-1.13-.19-.55.11,2.15.16,4.29.15,6.44,0,1.03-.02,2.06-.05,3.09,0,.22-.03.44-.02.66-.02.29-.01.21.04-.25-.07.23-.06.23.02.01.47-.6.51-.85,1.56-.88-.38.01.75.24.33.03-.11-.05-.28-.09-.4-.13-.45-.14-.17-.16.05.04-.27-.23-.84-.38-1.16-.54-.54-.27-1.07-.55-1.6-.82-1.3-.67-3.1-.38-3.83,1-.68,1.28-.39,3.12,1,3.83.7.36,1.39.73,2.1,1.07,1.06.5,2.22,1.1,3.43,1.12,1.9.03,3.45-1.47,3.91-3.24.33-1.24.22-2.68.23-3.96.03-2.6.09-5.27-.18-7.86-.36-3.47-3.86-4.82-6.55-6.26-1.29-.69-3.1-.37-3.83,1-.69,1.3-.37,3.09,1,3.83h0Z"/>
        </g>
        <path class="cls-46" d="m80.88,204.63c-5.12,5.53-4.96,9.11-5.58,16.96-.61,7.68,3.93,14.56,11.17,16.98l72.16,24.13s20.18-28.05-3.51-38.24c-12.32-5.3-20.66-12.61-29.9-19.02-13.56-9.41-32.52-13.59-44.34-.81Z"/>
        <path class="cls-46" d="m73.85,328.07c-4.82-1.72-3.5-68.59,2.22-114.33l84.44,38.49c-7.48,39.58-7.45,69.62-4.12,116.8l-82.55-40.95Z"/>
        <path class="cls-41" d="m160.52,252.23l-14.02-6.25c-8.53,40.22-10.2,69.4-4.02,114.73l-.23-.07c.02,2.62-1.96,5.48-5.82,7.74h0c-6.88,4.04,3.2,6.09,10.07,2.05l17.88-35.21c-3.87-38.72-13.45-30.51-3.87-82.99Z"/>
        <path class="cls-34" d="m206.38,349.52l-58.85,36.03c-9.53,5.84-16.9,3.1-16.37-6.09l.51-8.82c.53-9.18,8.76-21.47,18.29-27.31l58.85-36.03c9.53-5.84,16.9-3.1,16.37,6.09l-.51,8.82c-.53,9.18-8.76,21.47-18.29,27.31Z"/>
        <path class="cls-34" d="m44.41,326.2l-9.1-82.2c-1.77-11.96,8.68-15.23,22.64-7.09l55.81,32.56c10.06,5.87,19.31,16.22,23.13,25.88l21.11,53.36c6.05,15.3-14.44,40.22-28.53,31.8l-85.06-54.32Z"/>
        <path class="cls-37" d="m267.27,271.67l-11.11,7.61c-4.09,2.81-9.74,1.75-12.54-2.34h0c-2.81-4.09-1.75-9.74,2.34-12.55l11.11-7.61c4.09-2.81,9.74-1.75,12.54,2.34h0c2.81,4.09,1.75,9.74-2.34,12.55Z"/>
        <path class="cls-11" d="m156.75,257.91c6.08,5.42,11.62,11.33,16.98,17.46,3.81,4.36,7.74,8.81,12.83,11.73,6.98,4.01,14.85,4.46,22.61,3.07,2.97-.53,5.86-1.51,8.66-2.6,4.27-1.67,8.47-3.54,12.61-5.53,7.67-3.7,15.17-7.79,23.02-11.11l-3.06,1.29c3.19-1.34,6.44-2.55,9.81-3.37,3.07-.74,6.09-3.2,7.67-5.89s2.29-6.8,1.29-9.88c-2.2-6.79-8.79-10.65-15.78-8.96-7.81,1.89-15.23,5.54-22.4,9.07s-13.58,6.97-20.61,9.96l3.06-1.29c-3.89,1.64-7.91,3.15-12.1,3.75l3.41-.46c-1.95.26-3.93.27-5.89.02l3.41.46c-1.41-.2-2.78-.55-4.09-1.1l3.06,1.29c-1.39-.59-2.67-1.38-3.87-2.3l2.6,2.01c-3.64-2.84-6.56-6.54-9.59-9.99-4.87-5.55-9.98-10.84-15.49-15.76-2.55-2.27-5.58-3.76-9.07-3.76-3.15,0-6.9,1.4-9.07,3.76s-3.91,5.65-3.76,9.07,1.22,6.81,3.76,9.07h0Z"/>
        <g>
          <path class="cls-46" d="m145.42,247.18l30.32,29.58c9.85,7.22,22.8-10.93,15.16-17.54l-29.52-30.9c-4.9-4.21-11.53-4.19-15.32.05h0c-3.95,4.42-5.21,13.77-.64,18.81Z"/>
          <path class="cls-12" d="m171.58,273.75c3.82-1.25,7.39-2.79,10.55-5.32,3.73-2.99,6.05-7.43,7.38-11.94.62-2.1-.75-4.65-2.92-5.15s-4.49.68-5.15,2.92c-.17.57-.35,1.13-.55,1.69-.11.3-.27.6-.34.9.27-1.06.21-.49.06-.15-.41.91-.89,1.8-1.43,2.64-.15.22-.3.45-.45.66-.19.26-.67.79.19-.22-.29.34-.56.68-.85,1.01-.57.62-1.19,1.18-1.84,1.71-.55.45.84-.62.3-.23-.19.13-.37.27-.56.4-.33.22-.67.44-1.01.64-.68.4-1.37.76-2.09,1.08-.15.07-.3.14-.46.2-.62.28,1.14-.47.23-.1-.36.15-.72.28-1.08.42-.72.27-1.45.51-2.18.75-2.08.68-3.64,2.93-2.92,5.15.67,2.07,2.92,3.66,5.15,2.92h0Z"/>
        </g>
        <path class="cls-28" d="m218.62,159.44h-.01c0-.31-.18-.61-.57-.84l-14.31-8.26c-.86-.49-2.35-.43-3.34.14l-25.9,14.95c-.52.3-.79.67-.81,1.04h0s.04,1.43.04,1.43c0,0,0,0,0,0-.13.4.04.81.53,1.09l14.31,8.26c.43.25,1.02.36,1.62.33.61-.03,1.23-.18,1.72-.47l25.9-14.95c.53-.3.79-.69.81-1.06h0s0-1.67,0-1.67Z"/>
        <g>
          <path class="cls-1" d="m171.61,166.54l-.04-1.43,1.85,1.2s-.52,1.3-.58,1.25c-.06-.05-1.23-1.02-1.23-1.02Z"/>
          <path class="cls-56" d="m186.45,175.9l-14.31-8.26c-.86-.49-.75-1.36.24-1.93l25.9-14.95c.99-.57,2.49-.63,3.34-.14l14.31,8.26c.86.49.75,1.36-.24,1.93l-25.9,14.95c-.99.57-2.49.63-3.34.14Z"/>
          <path class="cls-29" d="m188.01,167.96l10.28-17.2c.99-.57,2.49-.63,3.34-.14l14.31,8.26c.86.49.75,1.36-.24,1.93l-25.9,14.95c-.49.29-1.12.44-1.72.47l-.06-8.27Z"/>
          <polygon class="cls-26" points="199.28 162.25 201.91 158.69 216.52 158.07 216.51 159.74 200.55 164.83 199.28 162.25"/>
          <path class="cls-37" d="m173.61,167.52c0,.25-.18.35-.39.22s-.39-.43-.39-.68.18-.35.39-.22.39.43.39.68Z"/>
          <path class="cls-37" d="m186.45,174.26l-14.31-8.26c-.86-.49-.75-1.36.24-1.93l25.9-14.95c.99-.57,2.49-.63,3.34-.14l14.31,8.26c.86.49.75,1.36-.24,1.93l-25.9,14.95c-.99.57-2.49.63-3.34.14Z"/>
          <path class="cls-47" d="m209.26,154.81l-3.95-2.28c-.16-.09-.14-.26.05-.37h0c.19-.11.48-.12.64-.03l3.95,2.28c.16.09.14.26-.05.37h0c-.19.11-.48.12-.64.03Z"/>
          <path class="cls-37" d="m180.58,171.98l-3.17-1.83c-.13-.08-.24-.29-.24-.47h0c0-.18.11-.26.24-.18l3.17,1.83c.13.08.24.29.24.47h0c0,.18-.11.26-.24.18Z"/>
          <path class="cls-47" d="m212.01,162.19l1.56-.9c.09-.05.17-.2.17-.32h0c0-.12-.08-.18-.17-.13l-1.56.9c-.09.05-.17.2-.17.32h0c0,.12.08.18.17.13Z"/>
          <path class="cls-47" d="m209.8,163.58l1.56-.9c.09-.05.17-.2.17-.32h0c0-.12-.08-.18-.17-.13l-1.56.9c-.09.05-.17.2-.17.32h0c0,.12.08.18.17.13Z"/>
          <path class="cls-47" d="m182.33,169.08c-.66.38-1.74.38-2.41,0-.67-.38-.67-1.01,0-1.39.66-.38,1.74-.38,2.41,0,.67.38.67,1.01,0,1.39Z"/>
          <path class="cls-16" d="m199.09,149.97l-21.78,12.57c-.51.29-.51,1.02,0,1.32l13.22,7.63c.24.14.53.14.76,0l21.78-12.57c.51-.29.51-1.02,0-1.32l-13.22-7.63c-.24-.14-.53-.14-.76,0Z"/>
        </g>
        <g>
          <ellipse class="cls-42" cx="389.05" cy="264.71" rx="8.54" ry="14.79" transform="translate(122.24 652.32) rotate(-89.69)"/>
          <polygon class="cls-42" points="367.35 243.97 374.31 265.31 403.74 265.79 410.46 245.22 367.35 243.97"/>
          <path class="cls-50" d="m402.1,245.33l-6.72,20.99h0c-.38,1.23-1.77,3.32-4.19,4.72-1.75,1.01-3.83,1.62-6.04,2,4.97.84,10.51.28,14.4-1.97,2.42-1.39,3.81-3.52,4.19-4.75h0l6.72-20.99h-8.36Z"/>
          <ellipse class="cls-38" cx="389.05" cy="242.61" rx="12.62" ry="21.86" transform="translate(144.34 630.34) rotate(-89.69)"/>
          <ellipse class="cls-49" cx="388.9" cy="242.2" rx="10.83" ry="18.76" transform="translate(144.6 629.78) rotate(-89.69)"/>
          <path class="cls-44" d="m374.58,237.88h0c-.91-1.19-1.72-2.53-1.87-4.02-.15-1.49.51-3.15,1.88-3.76,1.59-.72,3.47.18,4.7,1.41,1.23,1.23,2.11,2.8,3.44,3.92-1.7-5.38-3.4-10.77-5.1-16.15-.52-1.63-1.04-3.36-.69-5.04.35-1.68,1.89-3.24,3.59-2.96,3.25.53,2.77,6.03,5.66,7.61-2.11-4-3.55-8.36-4.25-12.82-.41-2.61-.55-5.41.63-7.78,1.18-2.37,4.05-4.07,6.53-3.13,3.06,1.16,3.66,5.16,3.77,8.43.14,4.21.28,8.42.42,12.63,1.03-4.22,2.63-9.08,6.75-10.45,1.12,5.77.26,11.92-2.4,17.16,1.09-1.92,3.22-3.19,5.42-3.26,1.04,5.89-.98,12.23-5.22,16.44,1.17-1.3,2.34-2.6,3.51-3.91,1.05,4.08-.37,8.7-3.53,11.48-7.41,6.52-18.19.81-23.22-5.79Z"/>
        </g>
        <g>
          <path class="cls-28" d="m231.48,165.31l107.89,63.7c.76.45,1.73.43,2.56-.05l7.79-4.5c1.79-1.03,1.99-3.53.36-4.49l-107.89-63.7c-.76-.45-1.73-.43-2.56.05l-7.79,4.5c-1.79,1.03-1.99,3.53-.36,4.49Z"/>
          <g>
            <polygon class="cls-17" points="344.06 223.83 350.02 219.77 333.74 199.72 339.47 209.22 344.06 223.83"/>
            <path class="cls-21" d="m222.88,50.25l5.77-4.66,12.78,14.32s-8.15,5.99-8.89,5.99-9.66-15.66-9.66-15.66Z"/>
            <path class="cls-17" d="m268.26,215.29l-24.34-14.05c-1.95-1.13-1.9-2.96.13-4.03l34.37-18.23c1.9-1.01,4.86-.97,6.7.09l21.89,12.64c1.85,1.07,1.91,2.79.13,3.89l-31.92,19.64c-1.86,1.15-5.01,1.17-6.95.05Z"/>
            <path class="cls-54" d="m268.26,211.99l-24.34-14.05c-1.95-1.13-1.9-2.96.13-4.03l34.37-18.23c1.9-1.01,4.86-.97,6.7.09l21.89,12.64c1.85,1.07,1.91,2.79.13,3.89l-31.92,19.64c-1.86,1.15-5.01,1.17-6.95.05Z"/>
            <g class="cls-60">
              <polygon class="cls-37" points="262.82 183.95 292.65 201.34 298.83 197.53 269.3 180.52 262.82 183.95"/>
            </g>
            <path class="cls-21" d="m348.75,114.4l-.16.04h.04l-117.47-68.07-1.09-.7c-.89-.52-1.98.08-1.98,1.19l.99.29h.66v108.07c0,1.21.46,2.65,1.43,3.22,0,0,118.84,57.77,118.84,56.56l.13-97.58v-.18c0-1.11-.48-2.32-1.38-2.84Z"/>
            <path class="cls-17" d="m300.22,156.54c15.27-15.36,23.87,28.22,33.52,52.11,4.84,11.98,16.22,11.24,16.22,11.24l.18-101.84v-.47c0-.6-.04-1.47-.34-2.04l-49.57,40.99Z"/>
            <path class="cls-55" d="m343.01,223.79l-118.75-68.08c-.98-.56-1.78-1.93-1.78-3.05V52.3c.01-1.12.82-1.57,1.8-1.01l118.75,68.08c.98.56,1.78,1.94,1.78,3.05v100.36c-.01,1.12-.82,1.57-1.8,1.01Z"/>
            <path class="cls-37" d="m343.09,209.96l-119.24-68.84c-.9-.52-1.64-1.81-1.65-2.87l-.19-86.96c0-1.05.73-1.49,1.64-.97l119.24,68.84c.9.52,1.64,1.81,1.65,2.87l.19,86.96c0,1.05-.73,1.49-1.64.97Z"/>
            <polygon class="cls-16" points="338.53 198.2 226.34 133.43 226.59 58.04 338.77 122.81 338.53 198.2"/>
          </g>
          <g>
            <g>
              <path class="cls-40" d="m311.16,123.22l-61-35.22c-.89-.52-1.62-1.9-1.62-3.09h0c0-1.19.72-1.74,1.62-1.22l61,35.22c.89.52,1.62,1.9,1.62,3.09h0c0,1.19-.72,1.74-1.62,1.22Z"/>
              <path class="cls-34" d="m311.79,142.93l-49.13-28.36c-.89-.52-1.62-1.9-1.62-3.09h0c0-1.19.72-1.74,1.62-1.22l49.13,28.36c.89.52,1.62,1.9,1.62,3.09h0c0,1.19-.72,1.74-1.62,1.22Z"/>
              <path class="cls-40" d="m311.79,153.69l-16.25-9.38c-.89-.52-1.62-1.9-1.62-3.09h0c0-1.19.73-1.74,1.62-1.22l16.25,9.38c.89.52,1.62,1.9,1.62,3.09h0c0,1.19-.72,1.74-1.62,1.22Z"/>
              <path class="cls-40" d="m271.24,130.28l-7.87-4.54c-.89-.52-1.62-1.9-1.62-3.09h0c0-1.19.72-1.74,1.62-1.22l7.87,4.54c.89.52,1.62,1.9,1.62,3.09h0c0,1.19-.72,1.74-1.62,1.22Z"/>
              <path class="cls-40" d="m261.41,136.04l-10.38-5.99c-.89-.52-1.62-1.9-1.62-3.09h0c0-1.19.72-1.74,1.62-1.22l10.38,5.99c.89.52,1.62,1.9,1.62,3.09h0c0,1.19-.72,1.74-1.62,1.22Z"/>
              <path class="cls-34" d="m278.11,156.54l-27.08-15.63c-.89-.52-1.62-1.9-1.62-3.09h0c0-1.19.72-1.74,1.62-1.22l27.08,15.63c.89.52,1.62,1.9,1.62,3.09h0c0,1.19-.72,1.74-1.62,1.22Z"/>
              <path class="cls-40" d="m311.47,164.94l-42.21-24.37c-.89-.52-1.62-1.9-1.62-3.09h0c0-1.19.73-1.74,1.62-1.22l42.21,24.37c.89.52,1.62,1.9,1.62,3.09h0c0,1.19-.72,1.74-1.62,1.22Z"/>
              <path class="cls-40" d="m287.77,139.83l-6.81-3.93c-.89-.52-1.62-1.9-1.62-3.09h0c0-1.19.72-1.74,1.62-1.22l6.81,3.93c.89.52,1.62,1.9,1.62,3.09h0c0,1.19-.72,1.74-1.62,1.22Z"/>
              <path class="cls-40" d="m279.6,113.76l-16.94-9.78c-.89-.52-1.62-1.9-1.62-3.09h0c0-1.19.72-1.74,1.62-1.22l16.94,9.78c.89.52,1.62,1.9,1.62,3.09h0c0,1.19-.72,1.74-1.62,1.22Z"/>
              <path class="cls-34" d="m290.36,119.97l-4.75-2.74c-.89-.52-1.62-1.9-1.62-3.09h0c0-1.19.72-1.74,1.62-1.22l4.75,2.75c.89.52,1.62,1.9,1.62,3.09h0c0,1.19-.73,1.74-1.62,1.22Z"/>
            </g>
            <polygon class="cls-6" points="230.37 132.15 302.07 105.76 327.93 120.17 256.56 145.76 230.37 132.15"/>
            <polygon class="cls-6" points="230.97 126.22 296.24 103.45 281.67 95.95 230.97 113.96 230.97 126.22"/>
          </g>
          <path class="cls-28" d="m278.85,179.93c0,2.57-1.82,3.61-4.06,2.31-2.24-1.29-4.06-4.43-4.06-7s1.82-3.61,4.06-2.31c2.24,1.29,4.06,4.43,4.06,7Z"/>
        </g>
        <g>
          <g>
            <path class="cls-7" d="m142.39,158.53l-.04,2.71s-.06,8.18-7.88,3.55c-7.82-4.63-7.05-14.8-7.05-14.8,0,0,6.14-.41,14.97,8.54Z"/>
            <path class="cls-52" d="m134.41,165.02c10.2,5.98,10.31-3.56,10.31-3.56l.08.04-.15-3.26c-11.17-10.64-18.63-10.54-18.63-10.54,0,0-1.82,11.33,8.38,17.31Zm-6.59-14.63s5.98,0,14.53,8.23l-.05,2.35s-.09,7.09-7.67,2.64c-7.59-4.45-6.81-13.22-6.81-13.22Z"/>
            <polygon class="cls-52" points="148.55 163.48 142.46 160.33 142.3 156.78 148.39 159.94 148.55 163.48"/>
            <path class="cls-52" d="m126.4,150.45l-1.08-.56c-.59-.31-1.09-1.17-1.13-1.94h0c-.03-.76.41-1.14,1-.83l1.08.56c.59.31,1.09,1.17,1.13,1.94h0c.03.76-.41,1.14-1,.83Z"/>
            <path class="cls-52" d="m165.74,170.88l-1.08-.56c-.59-.31-1.09-1.17-1.13-1.94h0c-.03-.76.41-1.14,1-.83l1.08.56c.59.31,1.09,1.17,1.13,1.94h0c.03.76-.41,1.14-1,.83Z"/>
            <g>
              <path class="cls-7" d="m148.79,162.06l.28,2.8s.79,8.38,8.33,11.74c7.54,3.36,5.86-7.77,5.86-7.77,0,0-6.28-6.76-14.46-6.77Z"/>
              <path class="cls-52" d="m165,167.95s-7.82-8.03-18.55-8.77l.15,3.26.08.04s.99,10.12,11.13,14.7c10.14,4.58,7.2-9.22,7.2-9.22Zm-7.55,7.51c-7.54-3.41-8.28-10.92-8.28-10.92l-.26-2.51c8.2.46,14.46,6.82,14.46,6.82,0,0,1.62,10.02-5.92,6.61Z"/>
              <path class="cls-12" d="m150.51,166.41h0c-.24-.32-.3-.72-.14-.89l1.97-1.96c.17-.17.5-.04.75.28h0c.24.32.3.72.14.89l-1.97,1.96c-.17.17-.5.04-.75-.28Z"/>
            </g>
            <path class="cls-12" d="m128.78,154.67h0c-.24-.32-.3-.72-.14-.89l1.97-1.96c.17-.17.5-.04.75.28h0c.24.32.3.72.14.89l-1.97,1.96c-.17.17-.5.04-.75-.28Z"/>
          </g>
          <path class="cls-11" d="m114.17,207.64l5.03-28.25,17.58,10.72-4,25.7c-.32,4.16-19.41,1.39-18.6-8.17Z"/>
          <path class="cls-11" d="m126.6,140.37s-16.45-11.48-17.93,14.71c-1.03,18.22,9.52,34.6,24.48,42.5,9.32,4.92,21.27-.15,22.26-9.2,2.94-13.12,3.6-25.5-.31-36.38,1.18-10.91-6.73-7.41-20.03-8.81l-8.47-2.83Z"/>
          <path class="cls-48" d="m116.8,193.37c-1.22-1.37-2.5-2.67-4.09-3.58-5.55-3.18-16.19-11.87-13.91-31.07,3.31-27.84,27.8-22.38,43.24-24.77,6.29-.97,10.8-.97,16.98,5.14,5.62,5.55-.49,17.08-8.98,17.41-3.37.13-2.29,9.23-3.13,12.29-1.48,5.44-5.05,7.96-6.59,13.23-1.46,4.99-9.37,12.01-14.18,12.84-5.7.98-8.23-.22-9.35-1.48Z"/>
          <path class="cls-52" d="m165.27,171.71l-23.79,1.06c-.85.04-1.57-.62-1.61-1.47h0c-.04-.85.62-1.57,1.47-1.61l23.79-1.06c.85-.04,1.57.62,1.61,1.47h0c.04.85-.62,1.57-1.47,1.61Z"/>
          <path class="cls-11" d="m144.9,176.83c.15,4.44-2.3,8.13-5.48,8.24-.35.01-.69-.02-1.02-.09-2.72-.58-4.88-3.79-5.01-7.75-.15-4.44,2.3-8.13,5.48-8.24,3.18-.11,5.88,3.4,6.04,7.84Z"/>
        </g>
        <path class="cls-40" d="m144.51,218.72c-19.37-3.85-33.97,7.77-35.67-20.51h0c3.06-1.63,6.67-.6,8.3,2.24,2.86,4.99,9.72,8.38,17.76,7.79,2.41-.18,4.62,1.02,5.71,3.07l3.9,7.41Z"/>
        <g>
          <g>
            <g>
              <path class="cls-32" d="m302.54,313.88l-36.7-21.19c-.45-.26-.45-.91,0-1.17l50.31-29.05c.21-.12.47-.12.68,0l36.7,21.19c.45.26.45.91,0,1.17l-50.31,29.05c-.21.12-.47.12-.68,0Z"/>
              <rect class="cls-32" x="265.55" y="290.4" width="1.23" height="1.85"/>
              <rect class="cls-32" x="352.6" y="282.99" width="1.85" height="1.23"/>
            </g>
            <path class="cls-8" d="m302.54,312.64l-36.7-21.19c-.45-.26-.45-.91,0-1.17l50.31-29.05c.21-.12.47-.12.68,0l36.7,21.19c.45.26.45.91,0,1.17l-50.31,29.05c-.21.12-.47.12-.68,0Z"/>
          </g>
          <g>
            <g>
              <path class="cls-32" d="m339.21,334.98l-36.7-21.19c-.45-.26-.45-.91,0-1.17l50.31-29.05c.21-.12.47-.12.68,0l36.7,21.19c.45.26.45.91,0,1.17l-50.31,29.05c-.21.12-.47.12-.68,0Z"/>
              <rect class="cls-32" x="302.59" y="312.01" width="1.23" height="1.23"/>
              <rect class="cls-32" x="389.03" y="303.99" width="1.85" height=".62"/>
            </g>
            <path class="cls-8" d="m339.21,333.73l-36.7-21.19c-.45-.26-.45-.91,0-1.17l50.31-29.05c.21-.12.47-.12.68,0l36.7,21.19c.45.26.45.91,0,1.17l-50.31,29.05c-.21.12-.47.12-.68,0Z"/>
          </g>
          <path class="cls-32" d="m278.61,294.95l23.91,15.42,14.51-11.55s-28.17-11.48-38.42-3.88Z"/>
          <path class="cls-58" d="m302.72,309.95c-2.07-7.8-16.46-10.97-32.91-19-.53-.3-.46-.84.15-1.19l44.63-25.77c.61-.35,1.54-.39,2.06-.09,20.44,6.05,33.18,12.33,32.91,19l-46.84,27.04Z"/>
          <path class="cls-57" d="m302.72,309.95c1.5-9.09-12.99-13.73-27.66-23.07-.47-.35-.37-.92.22-1.27l43.17-25.76c.59-.35,1.45-.35,1.92,0,18.5,7.39,29.88,15.63,29.16,22.79l-46.81,27.31Z"/>
          <g>
            <path class="cls-53" d="m338.59,273.29l-15.82-10.12c-.2-.13-.17-.34.08-.46h0c.25-.13.61-.13.81,0l15.82,10.12c.2.13.17.34-.08.46h0c-.25.13-.61.13-.81,0Z"/>
            <path class="cls-53" d="m333.4,276.65l-15.82-10.12c-.2-.13-.17-.34.08-.46h0c.25-.13.61-.13.81,0l15.82,10.12c.2.13.17.34-.08.46h0c-.25.13-.61.13-.81,0Z"/>
            <path class="cls-53" d="m328.21,280l-15.82-10.12c-.2-.13-.17-.34.08-.46h0c.25-.13.61-.13.81,0l15.82,10.12c.2.13.17.34-.08.46h0c-.25.13-.61.13-.81,0Z"/>
            <path class="cls-53" d="m323.02,283.36l-15.82-10.12c-.2-.13-.17-.34.08-.46h0c.25-.13.61-.13.81,0l15.82,10.12c.2.13.17.34-.08.46h0c-.25.13-.61.13-.81,0Z"/>
            <path class="cls-53" d="m317.83,286.71l-15.82-10.12c-.2-.13-.17-.34.08-.46h0c.25-.13.61-.13.81,0l15.82,10.12c.2.13.17.34-.08.46h0c-.25.13-.61.13-.81,0Z"/>
            <path class="cls-53" d="m312.52,291.35l-15.82-10.12c-.2-.13-.17-.34.08-.46h0c.25-.13.61-.13.81,0l15.82,10.12c.2.13.17.34-.08.46h0c-.25.13-.61.13-.81,0Z"/>
            <path class="cls-53" d="m307.32,294.7l-15.82-10.12c-.2-.13-.17-.34.08-.46h0c.25-.13.61-.13.81,0l15.82,10.12c.2.13.17.34-.08.46h0c-.25.13-.61.13-.81,0Z"/>
            <path class="cls-53" d="m302.13,298.05l-15.82-10.12c-.2-.13-.17-.34.08-.46h0c.25-.13.61-.13.81,0l15.82,10.12c.2.13.17.34-.08.46h0c-.25.13-.61.13-.81,0Z"/>
          </g>
          <path class="cls-32" d="m302.51,310.37l19.45,9.46s-13.7-15.95-19.45-9.46Z"/>
          <path class="cls-5" d="m302.72,309.95s4.51-1.68,8.16,1.33c3.64,3.01,26.87,20.47,26.87,20.47l47.22-27s-25.23-24.48-35.41-21.85l-46.84,27.04Z"/>
          <path class="cls-53" d="m370.49,298.25l-15.59-10.48c-.2-.13-.16-.34.09-.46h0c.25-.12.61-.11.81.02l15.59,10.48c.2.13.16.34-.09.46h0c-.25.12-.61.11-.81-.02Z"/>
          <path class="cls-53" d="m365.23,301.48l-15.59-10.48c-.2-.13-.16-.34.09-.46h0c.25-.12.61-.11.81.02l15.59,10.48c.2.13.16.34-.09.46h0c-.25.12-.61.11-.81-.02Z"/>
          <path class="cls-53" d="m359.96,304.72l-15.59-10.48c-.2-.13-.16-.34.09-.46h0c.25-.12.61-.11.81.02l15.59,10.48c.2.13.16.34-.09.46h0c-.25.12-.61.11-.81-.02Z"/>
          <path class="cls-53" d="m354.69,307.96l-15.59-10.48c-.2-.13-.16-.34.09-.46h0c.25-.12.61-.11.81.02l15.59,10.48c.2.13.16.34-.09.46h0c-.25.12-.61.11-.81-.02Z"/>
          <path class="cls-53" d="m349.43,311.19l-15.59-10.48c-.2-.13-.16-.34.09-.46h0c.25-.12.61-.11.81.02l15.59,10.48c.2.13.16.34-.09.46h0c-.25.12-.61.11-.81-.02Z"/>
          <path class="cls-53" d="m344.01,315.71l-15.59-10.48c-.2-.13-.16-.34.09-.46h0c.25-.12.61-.11.81.02l15.59,10.48c.2.13.16.34-.09.46h0c-.25.12-.61.11-.81-.02Z"/>
          <path class="cls-53" d="m338.75,318.94l-15.59-10.48c-.2-.13-.16-.34.09-.46h0c.25-.12.61-.11.81.02l15.59,10.48c.2.13.16.34-.09.46h0c-.25.12-.61.11-.81-.02Z"/>
          <path class="cls-53" d="m333.48,322.18l-15.59-10.48c-.2-.13-.16-.34.09-.46h0c.25-.12.61-.11.81.02l15.59,10.48c.2.13.16.34-.09.46h0c-.25.12-.61.11-.81-.02Z"/>
          <path class="cls-51" d="m366.47,289.64c-5.42,4.84-20.11,16.38-27.9,22.4-.37.29-.14.88.33.84l5.82-.45c.33-.03.59.29.48.61l-1.3,4.04c-.14.43.35.79.72.53,3.24-2.32,12.14-12,25-24.62,1.05-1.04.88-2.78-.36-3.58h0c-.87-.56-2.01-.47-2.78.22Z"/>
        </g>
        <g>
          <path class="cls-51" d="m427.48,128.13l-35.38-20.51c-1.46-.84-2.73-.84-3.7-.18h0s-5.96,3.37-5.96,3.37c0,0,2.26,3.54,4.11,7.7v31.99c0,4.06,2.48,8.77,5.52,10.53l28.84,16.66c2.69,4.53,4.51,7.49,4.51,7.49l5.58-3.22h0c1.23-.59,1.85-2.21,1.85-4.59v-38.71c0-4.06-2.34-8.77-5.38-10.53Z"/>
          <path class="cls-19" d="m421.5,185.1l-35.52-20.51c-3.04-1.76-5.51-6.47-5.51-10.53v-38.71c0-4.06,2.47-5.92,5.51-4.17l35.52,20.51c3.04,1.76,5.51,6.47,5.51,10.53v38.71c0,4.06-2.47,5.92-5.51,4.17Z"/>
          <path class="cls-20" d="m416.83,187.13l-35.52-20.51c-3.04-1.76-5.51-6.47-5.51-10.53v-38.71c0-4.06,2.47-5.92,5.51-4.17l35.52,20.51c3.04,1.76,5.51,6.47,5.51,10.53v38.71c0,4.06-2.47,5.92-5.51,4.17Z"/>
          <g>
            <polygon class="cls-5" points="393.98 155.37 384.56 139.13 394.81 133.28 396.79 136.75 390.04 140.61 397.43 153.37 393.98 155.37"/>
            <polygon class="cls-5" points="412.62 165.3 410.64 161.83 417.3 158.03 409.8 145.1 413.26 143.1 422.77 159.51 412.62 165.3"/>
            <rect class="cls-5" x="390.66" y="147.78" width="26.92" height="4" transform="translate(153.93 500.71) rotate(-74.85)"/>
          </g>
        </g>
        <g>
          <path class="cls-35" d="m361.91,21.16L326.46.66c-1.46-.84-2.76-.84-3.73-.18h-.01s-5.84,3.37-5.84,3.37c0,0,1.76,3.54,4.23,7.7v31.99c0,4.06,2.35,8.77,5.39,10.53l28.78,16.66c2.69,4.53,4.61,7.49,4.61,7.49l5.67-3.22h0c.62-.59,1.85-2.21,1.85-4.59V31.7c0-4.06-2.47-8.77-5.51-10.53Z"/>
          <path class="cls-44" d="m355.79,78.14l-35.52-20.51c-3.04-1.76-5.51-6.47-5.51-10.53V8.39c0-4.06,2.47-5.92,5.51-4.17l35.52,20.51c3.04,1.76,5.51,6.47,5.51,10.53v38.71c0,4.06-2.47,5.92-5.51,4.17Z"/>
          <path class="cls-45" d="m349.96,79.83l-35.52-20.51c-3.04-1.76-5.51-6.47-5.51-10.53V10.08c0-4.06,2.47-5.92,5.51-4.17l35.52,20.51c3.04,1.76,5.51,6.47,5.51,10.53v38.71c0,4.06-2.47,5.92-5.51,4.17Z"/>
          <path class="cls-5" d="m351.84,44.9h0c-1.74-1-2.61-3.92-1.38-4.62h0c1.39-.79,1.39-3.38,0-5.79l-.72-1.24c-1.39-2.4-3.65-3.7-5.04-2.91h0c-1.23.7-3.33-1.51-3.33-3.51h0c0-2.26-1.6-5.01-3.57-6.15l-1.01-.59c-1.97-1.14-3.57-.23-3.57,2.03h0c0,2-2.1,1.78-3.33-.34h0c-1.39-2.4-3.65-3.71-5.04-2.91l-.72.41c-1.39.79-1.39,3.38,0,5.79h0c1.23,2.12.36,4.03-1.38,3.03h0c-1.97-1.14-3.57-.23-3.57,2.03v1.16c0,2.26,1.6,5.01,3.57,6.15,1.74,1,2.61,3.92,1.38,4.62h0c-1.39.79-1.39,3.38,0,5.79l.72,1.24c1.39,2.4,3.65,3.7,5.04,2.91h0c1.23-.7,3.33,1.51,3.33,3.51h0c0,2.26,1.6,5.01,3.57,6.15l1.01.59c1.97,1.14,3.57.23,3.57-2.03,0-2,2.1-1.78,3.33.34,1.39,2.4,3.65,3.7,5.04,2.91l.72-.41c1.39-.79,1.39-3.38,0-5.79h0c-1.23-2.12-.36-4.03,1.38-3.03h0c1.97,1.14,3.57.23,3.57-2.03v-1.16c0-2.26-1.6-5.01-3.57-6.15Zm-14.54,6.43c-4.89-2.82-8.85-9.65-8.85-15.26s3.96-7.87,8.85-5.04c4.89,2.82,8.85,9.65,8.85,15.26s-3.96,7.87-8.85,5.04Z"/>
        </g>
        <g>
          <path class="cls-3" d="m427.23,55.29l-35.51-20.51c-1.46-.84-2.8-.84-3.76-.18h-.03s-6.03,3.37-6.03,3.37c0,0,2.19,3.54,4.04,7.7v31.99c0,4.06,2.53,8.77,5.58,10.53l28.87,16.66c2.69,4.53,4.47,7.49,4.47,7.49l5.54-3.22h0c1.23-.59,2.47-2.21,2.47-4.59v-38.71c0-4.06-2.59-8.77-5.64-10.53Z"/>
          <path class="cls-9" d="m420.99,112.26l-35.52-20.51c-3.04-1.76-5.51-6.47-5.51-10.53v-38.71c0-4.06,2.47-5.92,5.51-4.17l35.52,20.51c3.04,1.76,5.51,6.47,5.51,10.53v38.71c0,4.06-2.47,5.92-5.51,4.17Z"/>
          <path class="cls-10" d="m416,115.5l-35.52-20.51c-3.04-1.76-5.51-6.47-5.51-10.53v-38.71c0-4.06,2.47-5.92,5.51-4.17l35.52,20.51c3.04,1.76,5.51,6.47,5.51,10.53v38.71c0,4.06-2.47,5.92-5.51,4.17Z"/>
          <path class="cls-5" d="m406.96,90.76l.62.36c1.38.8,1.74.44,1.74-1.63s-.13-3.92-.13-6.21c0-2.86.79-3.5,2.43-3v-.15c-1.64-1.4-2.43-2.95-2.43-5.81,0-2.3.13-4.03.13-6.06s-.36-2.84-1.74-3.64l-.62-.36v-2.94l2.07,1.19c2.89,1.67,4.2,3.71,4.2,7.77,0,2.67-.33,3.88-.33,6.25,0,1.32.69,3.11,2.82,4.42v3.24c-2.13-1.16-2.82-.16-2.82,1.16,0,2.37.33,3.96.33,6.63,0,4.07-1.31,4.59-4.2,2.92l-2.07-1.19v-2.94Z"/>
          <path class="cls-5" d="m396.7,87.78l-2.07-1.19c-2.89-1.67-4.2-3.71-4.2-7.77,0-2.67.33-3.88.33-6.25,0-1.32-.69-3.11-2.82-4.42v-3.24c2.13,1.16,2.82.16,2.82-1.16,0-2.37-.33-3.96-.33-6.63,0-4.07,1.31-4.59,4.2-2.92l2.07,1.19v2.94l-.62-.36c-1.38-.8-1.74-.44-1.74,1.63s.13,3.92.13,6.21c0,2.86-.79,3.5-2.43,3v.15c1.64,1.4,2.43,2.95,2.43,5.81,0,2.3-.13,4.03-.13,6.06s.36,2.84,1.74,3.64l.62.36v2.94Z"/>
        </g>
      </g>
    </g>
  </g>
</svg>