<?xml version="1.0"?>
<svg width="297.71" height="591" xmlns="http://www.w3.org/2000/svg" xmlns:svg="http://www.w3.org/2000/svg">
 <defs>
  <style>.a{fill:#004d71;}.b{fill:#0090d0;}.c{fill:#cccbcb;}.d{fill:#4d4d4d;}.e{fill:#ebba91;}.f{fill:#e0ebff;}.g{fill:#006b98;}.h{fill:#e3a876;}.i{fill:#3c281a;}.j,.t{fill:#fff;}.k{fill:#b84b5e;}.l{fill:#211e1f;}.m{fill:#00425c;}.n{fill:#28aae1;}.o{fill:#323031;}.p{fill:#74a3ba;opacity:0.5;mix-blend-mode:multiply;isolation:isolate;}.q{opacity:0.06;}.r{fill:#95613c;}.s{fill:#c39769;}.t{opacity:0.2;}.u{fill:#61dafb;}.v{fill:#20232a;}</style>
 </defs>
 <g class="layer">
  <title>Layer 1</title>
  <g id="svg_1">
   <g id="svg_2">
    <g id="svg_3">
     <path class="a" d="m-378.18,-48.37c-2.82,28.72 30.77,-30.09 63.88,-5.56c25.8,19.11 74.85,5.08 70.42,-19.6c-7.92,-44.15 6.47,-119.54 -28.75,-149.92c-50.23,-43.33 -101.9,137.82 -105.55,175.08z" id="svg_4" transform="translate(434.439 530.21)"/>
     <path class="b" d="m-333.06,-228.1c-25.95,124.82 -157.28,148.99 -31.58,206.03c-37.54,-93.97 49.38,-85.26 38.53,-206.56l-6.95,0.53z" id="svg_5" transform="translate(440.88 529.972)"/>
     <g id="svg_6" transform="translate(64.14 282.634)">
      <path class="c" d="m-237.01,95.16l22.63,7.03s17.9,-2.81 21.62,7.22c2.44,6.58 3.14,8.98 3.14,8.98c-17.73,0 -63.59,-0.3 -63.59,-0.3c-0.3,-5.81 1.66,-21.4 1.66,-21.4l14.54,-1.53z" id="svg_7" transform="translate(350.099 189.972)"/>
      <path class="c" d="m-310.96,95.16l-22.62,7.03s-17.9,-2.81 -21.62,7.22c-2.44,6.58 -3.14,8.98 -3.14,8.98c17.73,0 63.58,-0.3 63.58,-0.3c0.31,-5.81 -1.65,-21.4 -1.65,-21.4l-14.55,-1.53z" id="svg_8" transform="translate(367.068 189.972)"/>
      <path class="d" d="m-222.77,-75.32c-8,71.16 -25.82,142.95 -25.82,142.95l-14.55,1.53l-4.34,-102.71c-3.85,2.18 -11.85,2.44 -17.32,0.07l-6.23,102.64l-14.54,-1.53a899.23,899.23 0 0 1 -19.52,-141.94l102.32,-1.01z" id="svg_9" transform="translate(361.7 217.499)"/>
     </g>
     <g id="svg_10" transform="translate(0 15.209)">
      <path class="e" d="m-434.07,-354.48l8.85,10.17l15.64,54.5l55.08,65.03l-0.35,-15.89l-45.7,-53.38l-9.04,-50.26l8.78,-9l3.34,-19.88l-5.08,-1.99l-2.59,6.31l-3.01,-23.95l-13.87,-1.42l-12.81,4l0.76,35.76z" id="svg_11" transform="translate(443.558 536.418)"/>
      <path class="f" d="m-328.22,-99.75c-1.07,-12.13 -1.87,-23.67 -2.47,-34.46c-1.35,-24.26 -1.67,-44.72 -1.63,-59.41c0.04,-15.86 -1.3,-24.41 -1.3,-24.41c7.88,-7.1 20.72,-11.31 28.95,-13.11a82.09,82.09 0 0 1 11.24,-1.72c4.72,1.34 11.92,6.46 16.76,6.42c5,-0.03 12.73,-4.84 17.56,-6.33a68.63,68.63 0 0 1 9,1.32c7.77,1.6 19.67,4.98 29.81,13.42c0,0 0.29,13.09 0.26,31.9c-0.04,17.43 -0.2,38.98 -0.72,57.32c-0.23,8.16 -0.88,21.71 -1.27,27.96c-7.84,0.52 -85.32,1.17 -106.19,1.1z" id="svg_12" transform="translate(427.217 510.361)"/>
      <path class="g" d="m-341.58,-220.78c-5.09,-4.86 -12.77,-13.62 -27.97,-29.1l-13.35,13.84c17.6,17.59 33.49,34.8 42.62,40.19c0,0 0.52,-13.75 -1.3,-24.93z" id="svg_13" transform="translate(435.173 513.109)"/>
      <path class="e" d="m-116.83,-354.48l-8.85,10.17l-15.64,54.49l-55.08,65.03l0.34,-15.88l45.7,-53.39l9.04,-50.26l-8.78,-9l-3.34,-19.88l5.09,-1.99l2.58,6.31l3.01,-23.94l13.88,-1.42l12.8,4l-0.75,35.76z" id="svg_14" transform="translate(405.061 536.418)"/>
      <path class="g" d="m-198.48,-221.06c4.85,-5.1 13.92,-17.21 25.25,-30.54l13.99,13.19c-13.37,16.34 -30.66,36.61 -38.98,43.17c0,0 -0.5,-13.47 -0.26,-25.82z" id="svg_15" transform="translate(405.407 513.387)"/>
     </g>
     <g id="svg_16"/>
     <g id="svg_53" transform="translate(69.873 0)">
      <path class="h" d="m-205.5,-305.75c0.14,8.18 4.24,14.42 9.14,14.67c9.36,0.48 5.01,-8.3 6.71,-19.76c1.2,-8.1 -2.29,-9.96 -7.2,-9.88s-8.78,6.79 -8.64,14.97l-0.01,0z" id="svg_54" transform="translate(336.657 539.757)"/>
      <path class="h" d="m-329.52,-306.29c-0.21,8.19 -4.36,14.39 -9.27,14.6c-9.35,0.4 -4.93,-8.35 -6.54,-19.82c-1.13,-8.11 2.38,-9.94 7.29,-9.82s8.73,6.86 8.52,15.04z" id="svg_55" transform="translate(359.268 539.856)"/>
      <path class="e" d="m-329.98,-255.56a22.98,22.98 0 0 0 2.57,2.31c6.8,5.25 16.35,8.21 25.17,9.87a123.11,123.11 0 0 0 21.2,2.04a143.23,143.23 0 0 0 36.55,-5.59c6.36,-1.96 12,-4.51 15.56,-7.73c13.83,-12.53 11.97,-48.16 11.09,-81.24c-0.2,-7.53 -1.01,-11.38 -4.8,-18.03c-0.83,-1.47 -2.86,-2.7 -4.74,-3.49c-2,-0.86 -10.2,-1.68 -14.71,-2.05c-9.85,-0.81 -18.59,-0.34 -37.77,-0.3c-12,0.02 -22.96,0.23 -31.64,0.62c-10.72,0.48 -17.97,1.25 -19.37,2.29c-3.6,2.66 -6.68,11.06 -7.84,19.8c-0.23,1.77 -0.39,3.55 -0.46,5.31c-1.56,41.41 -1.77,64.73 9.19,76.19z" id="svg_56" transform="translate(358.365 546.089)"/>
      <g id="svg_57" transform="translate(42.494 125.658)">
       <path class="i" d="m-251.79,-244.24c-8.31,-6.8 -21.21,-3.38 -21.21,-3.38l2.17,3.6l-6.04,-2.58c-12.95,-3.5 -11.65,4.4 -11.47,6.37c-11.14,-7.37 -12.48,-22.28 -12.48,-22.28s27.39,18.28 57.1,0.07c0,0 -0.15,10.56 -8.07,18.2z" id="svg_58" transform="translate(309.555 404.7)"/>
       <path class="j" d="m-300.82,-262.52s27.2,17.87 57.1,0.08c0,0 0.39,13.4 -27.97,13.75c-28.49,0.35 -29.13,-13.83 -29.13,-13.83z" id="svg_59" transform="translate(309.555 404.701)"/>
       <path class="k" d="m-249.41,-241.54a27.53,27.53 0 0 1 -19.3,7.52c-7.63,0 -14.17,-1.41 -17.26,-3.51c-0.17,-1.97 -1.48,-9.87 11.48,-6.37l6.04,2.58l-2.17,-3.6s12.9,-3.42 21.21,3.38z" id="svg_60" transform="translate(307.174 401.998)"/>
      </g>
      <g id="svg_61" transform="translate(29.643 86.538)">
       <path class="l" d="m-283.91,-296.38c0,8.51 -9.51,13.99 -19.08,12.57c-7.81,-1.16 -13.16,-6.71 -13.16,-12.58a11.71,11.71 0 0 1 4.91,-9.18a15.89,15.89 0 0 1 1.6,-1.08a16.95,16.95 0 0 1 3.52,-1.58a19.03,19.03 0 0 1 3.13,-0.73a19.83,19.83 0 0 1 3.39,-0.21a19.16,19.16 0 0 1 4.5,0.61a19.13,19.13 0 0 1 2.36,0.78c5.16,2.08 8.83,6.28 8.82,11.4" id="svg_62" transform="translate(324.88 451.354)"/>
       <path class="j" d="m-283.64,-294.25c0,7.57 -8.95,12.43 -18.07,11.12c-7.52,-1.08 -12.72,-6.15 -12.72,-11.48a10.26,10.26 0 0 1 4.77,-8.26a15.42,15.42 0 0 1 1.55,-0.96a16.42,16.42 0 0 1 3.28,-1.32c0.04,-0.02 0.08,-0.03 0.11,-0.04a19.15,19.15 0 0 1 3.01,-0.6c0.35,-0.04 0.69,-0.07 1.03,-0.09a19.31,19.31 0 0 1 2.21,-0.04c0.43,0.02 0.86,0.04 1.28,0.09l0.01,0a18.7,18.7 0 0 1 3,0.54c0.38,0.1 0.75,0.21 1.13,0.33s0.75,0.26 1.11,0.4c4.86,1.94 8.31,5.74 8.3,10.3" id="svg_63" transform="translate(324.602 450.831)"/>
       <path class="m" d="m-288.97,-298.85c0,5.89 -3.93,10.64 -8.78,10.64s-8.78,-4.76 -8.78,-10.64a12.54,12.54 0 0 1 0.26,-2.58a11.41,11.41 0 0 1 1.15,-3.19a17.73,17.73 0 0 1 1.68,-0.57c0.2,-0.06 0.4,-0.1 0.61,-0.15a18.78,18.78 0 0 1 2.4,-0.45a18.79,18.79 0 0 1 3.24,-0.12a19.37,19.37 0 0 1 4.29,0.62c0.11,0.03 0.24,0.07 0.36,0.1c0.64,0.18 1.27,0.4 1.88,0.63a4.05,4.05 0 0 1 0.4,0.17a11.39,11.39 0 0 1 1.07,3.17a12.1,12.1 0 0 1 0.22,2.37z" id="svg_64" transform="translate(323.328 450.83)"/>
       <path class="n" d="m-290.09,-298.85c0,4.95 -3.32,8.96 -7.4,8.96s-7.39,-4.02 -7.39,-8.96a10.37,10.37 0 0 1 0.48,-3.16a9.05,9.05 0 0 1 1.83,-3.33a18.78,18.78 0 0 1 2.41,-0.45a18.79,18.79 0 0 1 3.23,-0.12a19.37,19.37 0 0 1 4.29,0.61c0.12,0.04 0.24,0.07 0.36,0.1a9.25,9.25 0 0 1 1.76,3.37a10.78,10.78 0 0 1 0.43,2.98z" id="svg_65" transform="translate(323.06 450.83)"/>
       <path class="o" d="m-292.46,-298.6c0,3.21 -2,5.82 -4.47,5.82s-4.46,-2.61 -4.46,-5.83s2,-5.82 4.47,-5.82s4.46,2.61 4.46,5.83z" id="svg_66" transform="translate(322.496 450.587)"/>
       <path class="j" d="m-298.41,-301.88a2.25,2.25 0 0 1 -2.26,2.25a2.25,2.25 0 0 1 -2.25,-2.25a2.25,2.25 0 0 1 2.26,-2.25a2.25,2.25 0 0 1 2.25,2.25z" id="svg_67" transform="translate(322.744 450.54)"/>
       <path class="p" d="m-283.72,-295.58a13.94,13.94 0 0 0 -6.73,-5.64c-0.33,-0.15 -0.65,-0.28 -0.99,-0.41c-0.2,-0.07 -0.4,-0.14 -0.6,-0.2c-0.59,-0.21 -1.19,-0.38 -1.8,-0.53s-1.23,-0.27 -1.86,-0.37a20.89,20.89 0 0 0 -2.72,-0.26c-0.66,-0.03 -1.32,-0.03 -1.99,0.01c-0.49,0.02 -0.98,0.06 -1.47,0.11c-0.14,0.02 -0.28,0.04 -0.41,0.06a19.93,19.93 0 0 0 -2.46,0.47c-0.12,0.02 -0.22,0.05 -0.34,0.08q-0.42,0.11 -0.84,0.25a14.57,14.57 0 0 0 -1.6,0.58a11.99,11.99 0 0 0 -1.18,0.54a16.06,16.06 0 0 0 -1.66,0.95a12.15,12.15 0 0 0 -3.95,4.08a10.57,10.57 0 0 1 4.68,-7a12.76,12.76 0 0 1 1.55,-0.96a15.2,15.2 0 0 1 1.7,-0.8a17.73,17.73 0 0 1 1.68,-0.57c0.2,-0.06 0.4,-0.1 0.61,-0.15a18.78,18.78 0 0 1 2.4,-0.45a18.79,18.79 0 0 1 3.24,-0.12a19.37,19.37 0 0 1 4.29,0.62c0.11,0.03 0.24,0.07 0.36,0.1c0.64,0.18 1.27,0.4 1.88,0.63a4.05,4.05 0 0 1 0.4,0.17c4.19,1.78 7.24,4.96 7.81,8.81z" id="svg_68" transform="translate(324.583 450.83)"/>
       <path class="l" d="m-255.84,-296.37c0,8.51 9.5,14 19.08,12.58c7.81,-1.15 13.16,-6.7 13.16,-12.57a11.72,11.72 0 0 0 -4.9,-9.18a15.88,15.88 0 0 0 -1.61,-1.09a16.98,16.98 0 0 0 -3.51,-1.58a19.13,19.13 0 0 0 -3.14,-0.73a19.92,19.92 0 0 0 -3.38,-0.21a19.16,19.16 0 0 0 -4.5,0.61a19.14,19.14 0 0 0 -2.37,0.77c-5.15,2.08 -8.82,6.27 -8.83,11.4" id="svg_69" transform="translate(315.142 451.351)"/>
       <path class="j" d="m-225.05,-294.58c0,5.33 -5.2,10.39 -12.72,11.46c-9.12,1.3 -18.07,-3.55 -18.07,-11.13c0,-4.56 3.45,-8.35 8.31,-10.3c0.36,-0.14 0.74,-0.28 1.11,-0.4s0.76,-0.23 1.14,-0.33a19.39,19.39 0 0 1 2.99,-0.54l0,0c0.43,-0.04 0.86,-0.07 1.29,-0.08a19.25,19.25 0 0 1 2.21,0.03c0.34,0.02 0.68,0.05 1.02,0.1a19.25,19.25 0 0 1 3.01,0.6l0.1,0.03a16.68,16.68 0 0 1 3.29,1.33a14.82,14.82 0 0 1 1.55,0.96a10.26,10.26 0 0 1 4.77,8.26" id="svg_70" transform="translate(315.142 450.828)"/>
       <path class="m" d="m-230.39,-298.83c0,5.88 -3.93,10.63 -8.79,10.63s-8.78,-4.76 -8.78,-10.63a11.97,11.97 0 0 1 0.22,-2.36a11.34,11.34 0 0 1 1.08,-3.18c0.13,-0.06 0.27,-0.12 0.41,-0.17c0.6,-0.24 1.22,-0.45 1.86,-0.64c0.12,-0.03 0.25,-0.07 0.38,-0.1a19.23,19.23 0 0 1 4.28,-0.62a20.04,20.04 0 0 1 3.24,0.13a22.11,22.11 0 0 1 2.38,0.43l0.63,0.18a17.63,17.63 0 0 1 1.68,0.56a11.52,11.52 0 0 1 1.15,3.19a12.53,12.53 0 0 1 0.26,2.58z" id="svg_71" transform="translate(313.869 450.828)"/>
       <path class="n" d="m-231.51,-298.83c0,4.95 -3.31,8.95 -7.4,8.95s-7.38,-4.01 -7.38,-8.95a10.78,10.78 0 0 1 0.42,-2.98l0,-0.01a9.45,9.45 0 0 1 1.76,-3.35c0.11,-0.04 0.24,-0.07 0.37,-0.1a19.23,19.23 0 0 1 4.29,-0.62a20.04,20.04 0 0 1 3.23,0.13a22.11,22.11 0 0 1 2.38,0.43a9.04,9.04 0 0 1 1.85,3.34a10.32,10.32 0 0 1 0.48,3.16z" id="svg_72" transform="translate(313.6 450.828)"/>
       <path class="o" d="m-242.8,-298.59c0,3.22 2,5.84 4.46,5.84s4.46,-2.62 4.46,-5.84s-1.99,-5.84 -4.45,-5.84s-4.46,2.61 -4.47,5.84z" id="svg_73" transform="translate(313.036 450.588)"/>
       <path class="j" d="m-244.46,-301.87a2.25,2.25 0 0 0 2.26,2.26a2.25,2.25 0 0 0 2.25,-2.25a2.25,2.25 0 0 0 -2.25,-2.26a2.25,2.25 0 0 0 -2.26,2.25z" id="svg_74" transform="translate(313.304 450.537)"/>
       <path class="p" d="m-225.12,-295.83a12.15,12.15 0 0 0 -3.95,-4.09a16.3,16.3 0 0 0 -1.67,-0.96c-0.37,-0.19 -0.75,-0.36 -1.16,-0.54c-0.52,-0.21 -1.05,-0.41 -1.61,-0.58c-0.27,-0.09 -0.55,-0.16 -0.85,-0.25a21.94,21.94 0 0 0 -2.79,-0.54c-0.14,-0.02 -0.28,-0.04 -0.42,-0.05a22.79,22.79 0 0 0 -3.44,-0.14c-0.3,0.01 -0.61,0.02 -0.9,0.06a15.8,15.8 0 0 0 -1.84,0.21c-0.63,0.09 -1.24,0.21 -1.84,0.36c-0.24,0.06 -0.47,0.12 -0.69,0.19c-0.37,0.09 -0.75,0.21 -1.11,0.33l0,0.02a6.12,6.12 0 0 0 -0.6,0.2a10.7,10.7 0 0 0 -1,0.42a13.84,13.84 0 0 0 -6.73,5.61c0.57,-3.84 3.62,-7 7.8,-8.79c0.13,-0.06 0.27,-0.12 0.41,-0.18c0.61,-0.23 1.23,-0.44 1.87,-0.63c0.12,-0.03 0.25,-0.07 0.37,-0.1a19.23,19.23 0 0 1 4.29,-0.62a20.04,20.04 0 0 1 3.24,0.13a22.11,22.11 0 0 1 2.38,0.43l0.63,0.18a17.63,17.63 0 0 1 1.68,0.56a17.53,17.53 0 0 1 1.71,0.79a16.57,16.57 0 0 1 1.55,0.96a10.66,10.66 0 0 1 4.67,7.02z" id="svg_75" transform="translate(315.122 450.828)"/>
      </g>
      <g id="svg_76" transform="translate(28.039 71.744)">
       <path class="q" d="m-313.83,-313.84l26.77,-4.37l-1.35,-7.24l-28.06,6.73l2.64,4.88z" id="svg_77" transform="translate(326.535 468.775)"/>
       <path class="r" d="m-290.02,-326.82l-28.04,6.73l2.62,4.88l26.78,-4.38l-1.36,-7.23z" id="svg_78" transform="translate(326.793 468.996)"/>
       <g id="svg_79" transform="translate(56.514 0.4)">
        <path class="q" d="m-223.49,-311.99l-26.26,-4.84l1.34,-7.26l27.5,7.23l-2.58,4.87z" id="svg_80" transform="translate(259.248 468.155)"/>
        <path class="r" d="m-224.41,-314.24l-26.26,-4.84l1.33,-7.26l27.5,7.23l-2.57,4.87z" id="svg_81" transform="translate(259.396 468.519)"/>
       </g>
      </g>
      <path class="s" d="m-339.26,-371.15a18.29,18.29 0 0 1 9.95,0.93c3.74,1.44 7.67,2.72 11.02,5.02c2.17,1.5 7.32,6.48 6.84,9.52c-0.38,2.31 -2.59,1.43 -4.56,1.54c-3.66,0.22 -7.83,0.79 -10.88,2.68c-10.51,6.48 -12,21.53 -12.74,32.56c-0.17,2.47 0.29,5.79 -1.31,7.8c-5.1,-2.88 -6.1,-13.96 -7.62,-19.16c-3.19,-10.82 -5.22,-26.14 1.7,-36.05a11.97,11.97 0 0 1 7.6,-4.84z" id="svg_82" transform="translate(360.231 547.951)"/>
      <path class="r" d="m-307.27,-356.39a23.34,23.34 0 0 0 -10.88,-0.92c-0.39,0.07 -0.78,0.16 -1.18,0.26c-0.18,0.04 -0.36,0.09 -0.54,0.14c-0.21,0.06 -0.42,0.12 -0.63,0.19c-0.35,0.11 -0.69,0.22 -1.03,0.34c-0.11,0.04 -0.23,0.08 -0.34,0.12l0.01,0c-6.6,2.48 -13.37,8.18 -15.69,14.42c-3.86,10.41 -1.46,20.07 -0.5,30.62a25.1,25.1 0 0 0 0.89,-4.84c0.74,-11.03 2.23,-26.09 12.75,-32.57c3.05,-1.88 7.21,-2.45 10.87,-2.67c0.92,-0.05 1.88,0.11 2.69,0.07c0.68,0.2 1.36,0.41 2.02,0.64c0.5,0.18 0.99,0.35 1.49,0.53l0.07,-6.33z" id="svg_83" transform="translate(358.322 545.711)"/>
      <path class="s" d="m-189.96,-347.36a64.13,64.13 0 0 1 -0.59,18.29c-0.67,3.99 -2.59,14.96 -6.39,17.19c-2.52,-3.61 -2.15,-10.04 -2.28,-14.93c-0.11,-4.3 -0.73,-9.16 -3.17,-12.86c-5.05,-7.7 -13.84,-12.74 -11.37,-22.95c1.81,-7.49 9.82,-6.83 15.19,-2.92c5.59,4.08 7.85,11.63 8.61,18.18z" id="svg_84" transform="translate(338.06 547.454)"/>
      <path class="s" d="m-221.29,-346.77c-9.77,-12.48 -14.9,-14.84 -33.91,-15.84c-0.79,-0.05 -1.6,-0.09 -2.45,-0.13a169.26,169.26 0 0 0 -33.28,0.06c-11.22,2.44 -14.59,11.62 -10.84,19.08a22.73,22.73 0 0 1 -9.24,-17.85c-13.91,-2.49 -20.13,-15.06 -20.13,-15.06s-1.65,-11.85 8.92,-21.94a9.99,9.99 0 0 1 -6.13,-5.57c2.26,2.27 8.81,3.07 9.87,2.48c1.82,-1.01 3.58,-2.38 5.71,-3.44a3.41,3.41 0 0 1 -1.41,-1.86a3.77,3.77 0 0 0 3.54,0.85c9.08,-2.66 16.91,-5.58 29.98,-6.24c55.06,-2.77 71.15,35.15 59.37,65.46z" id="svg_85" transform="translate(356.958 554.555)"/>
      <path class="t" d="m-241.25,-391.48c-5.11,9.64 -12.59,11.76 -22.54,14.3c-4.29,1.1 -8.27,2.49 -12.65,3.55c-8.39,2.02 -16.83,3.71 -21.31,12.1c-3.17,-3.68 -3.74,-9.1 -2.49,-13.67a17.89,17.89 0 0 1 6.76,-9.43c5.19,-3.62 13.91,-3.83 16.75,-9.89c-0.89,4.33 -2.63,7.54 -6.36,9.87c-2.91,1.82 -8.51,3.7 -7.9,8.09c3.73,-7.92 20.61,-6.98 27.63,-8.86c10.58,-2.82 21.12,-6.06 23.6,-18.24c0.44,3.95 0.92,7.6 -1.49,12.17l0,0.01z" id="svg_86" transform="translate(352.053 553.147)"/>
      <path class="r" d="m-263.64,-358.93c0.8,-0.05 25.1,1.32 35.35,-24.87c2.43,13.74 -2.64,23.17 -2.64,23.17s6.82,-1.06 7.99,-5.19c0.54,4 -1.1,5.67 -1.4,7.72c1.11,0.57 4.24,0.05 7.61,-1.95c3.97,5.65 5.83,10.28 4.53,15.63c-11.2,-13.41 -22.1,-12.73 -51.44,-14.51z" id="svg_87" transform="translate(346.044 549.941)"/>
      <path class="r" d="m-308.94,-353.64s-1.28,-7.29 3.7,-18.63c-6.35,2.13 -13.65,11.35 -13.7,15.69l10,2.94z" id="svg_88" transform="translate(354.974 548.079)"/>
      <path class="t" d="m-332.11,-361.98c4.63,-0.8 6.11,-4.83 1.1,-6.43c-5.45,-1.74 -10.86,1.99 -13.14,6.72c-2.26,4.68 -0.93,7.91 -1.09,12.48c0.27,-7.7 6.37,-11.6 13.13,-12.77z" id="svg_89" transform="translate(359.259 547.526)"/>
      <path class="q" d="m-215.58,-335.33l-0.06,-0.07c-0.6,-0.77 -1.19,-1.5 -1.76,-2.2c-11.2,-13.4 -22.1,-12.72 -51.41,-14.5a148.23,148.23 0 0 0 -16.41,0.86c-11.22,2.45 -14.59,11.62 -10.83,19.09a22.22,22.22 0 0 1 -6.85,-8.16a22.24,22.24 0 0 0 5.71,6.11c-3.75,-7.46 -0.38,-16.63 10.84,-19.08a151.44,151.44 0 0 1 16.38,-0.86c29.32,1.76 40.22,1.09 51.43,14.49c0.6,0.72 1.2,1.48 1.83,2.28a16.09,16.09 0 0 1 1.13,2.04z" id="svg_90" transform="translate(352.384 545.153)"/>
      <path class="q" d="m-311.9,-348.04a2,2 0 0 0 -0.39,0c-3.65,0.21 -7.82,0.79 -10.87,2.67c-10.51,6.48 -12,21.53 -12.75,32.56c-0.11,1.63 -0.9,3.1 -2.99,5.16a5.96,5.96 0 0 0 1.1,-2.9a21.98,21.98 0 0 0 0.76,-4.3c0.74,-11.03 2.23,-26.08 12.76,-32.57c3.04,-1.88 7.21,-2.45 10.86,-2.68a10.49,10.49 0 0 1 1.25,0.03l0.02,0c0.04,0.67 0.14,1.36 0.25,2.03z" id="svg_91" transform="translate(358.196 544.501)"/>
     </g>
    </g>
   </g>
   <g id="svg_92" transform="translate(987.042 854.001)">
    <circle class="u" cx="-976.91" cy="-843.87" id="svg_93" r="10.13" transform="translate(46.04 39.87)"/>
    <path class="u" d="m-898.32,-822.79c3.53,-14.47 2.24,-26 -4.47,-29.85s-17.32,0.76 -28.08,11.05c-10.77,-10.29 -21.37,-14.93 -28.09,-11.05s-8,15.39 -4.47,29.85c-14.29,4.18 -23.61,11.04 -23.61,18.79s9.32,14.61 23.62,18.8c-3.53,14.47 -2.25,26 4.47,29.85s17.31,-0.78 28.08,-11.07c10.77,10.29 21.37,14.94 28.08,11.06s8,-15.38 4.47,-29.85c14.29,-4.18 23.62,-11 23.62,-18.8s-9.34,-14.6 -23.62,-18.78zm-6.79,-25.81c3.47,2 4.83,8.65 3.61,17.75a69.68,69.68 0 0 1 -1.31,6.89a113.73,113.73 0 0 0 -15.1,-2.49a113.41,113.41 0 0 0 -9.69,-11.84a67.82,67.82 0 0 1 5.31,-4.58c7.25,-5.61 13.67,-7.76 17.18,-5.75l0,0.02zm-9.83,53.8q-2.66,4.59 -5.54,8.8c-3.39,0.27 -6.87,0.41 -10.4,0.41s-7,-0.14 -10.38,-0.41c-1.93,-2.8 -3.79,-5.74 -5.55,-8.8s-3.39,-6.14 -4.85,-9.2c1.46,-3.07 3.08,-6.15 4.85,-9.2s3.62,-6 5.55,-8.8c3.38,-0.27 6.85,-0.4 10.39,-0.4l0,0c3.53,0 7,0.13 10.39,0.4c1.93,2.8 3.78,5.72 5.55,8.8s3.39,6.14 4.89,9.2q-2.24,4.61 -4.9,9.2zm7.31,-3.7a105.68,105.68 0 0 1 3.6,10a103.08,103.08 0 0 1 -10.45,1.9q1.83,-2.84 3.57,-5.85l0,0q1.75,-3 3.28,-6l0,-0.05zm-23.25,25.5a101.93,101.93 0 0 1 -6.85,-8.11c2.24,0.12 4.53,0.18 6.85,0.18s4.61,-0.07 6.84,-0.19a104.09,104.09 0 0 1 -6.83,8.12l-0.01,0zm-16.38,-13.62a105.32,105.32 0 0 1 -10.42,-1.88a100.68,100.68 0 0 1 3.59,-10c1,2 2.12,4 3.29,6s2.34,4 3.53,5.85l0.01,0.03zm-6.86,-22.88a101.78,101.78 0 0 1 -3.59,-10a105.31,105.31 0 0 1 10.42,-1.88q-1.83,2.84 -3.57,5.85t-3.26,6.03zm23.25,-25.5a104.06,104.06 0 0 1 6.83,8.11c-2.25,-0.12 -4.53,-0.17 -6.85,-0.17s-4.61,0.06 -6.86,0.17a101.79,101.79 0 0 1 6.88,-8.11zm20,19.46l0,0q-1.76,-3 -3.58,-5.85a103,103 0 0 1 10.41,1.89a104.32,104.32 0 0 1 -3.6,10q-1.52,-3.01 -3.26,-6.03l0.03,-0.01zm-49.37,-15.33c-1.23,-9.13 0.12,-15.73 3.61,-17.75s9.93,0.14 17.18,5.75q2.77,2.16 5.31,4.58a114.57,114.57 0 0 0 -9.69,11.85a115.09,115.09 0 0 0 -15.1,2.44q-0.83,-3.4 -1.31,-6.87zm-8.58,38.87c-8.5,-3.48 -13.57,-8 -13.57,-12s5.07,-8.51 13.56,-12c2.16,-0.88 4.37,-1.65 6.6,-2.31a113.94,113.94 0 0 0 5.46,14.31a112.36,112.36 0 0 0 -5.45,14.31a66.08,66.08 0 0 1 -6.6,-2.31zm12.19,32.61c-3.47,-2 -4.84,-8.64 -3.61,-17.75a69.8,69.8 0 0 1 1.31,-6.89a113.2,113.2 0 0 0 15.1,2.49a114.36,114.36 0 0 0 9.68,11.84a69.73,69.73 0 0 1 -5.3,4.57c-7.27,5.61 -13.69,7.76 -17.18,5.74zm55.13,-17.75c1.22,9.1 -0.13,15.74 -3.62,17.75s-9.92,-0.13 -17.17,-5.75a68,68 0 0 1 -5.31,-4.57a113.2,113.2 0 0 0 9.68,-11.83a111.84,111.84 0 0 0 15.1,-2.46a67.26,67.26 0 0 1 1.31,6.88l0.01,-0.02zm8.58,-14.86a68.26,68.26 0 0 1 -6.62,2.31a110.77,110.77 0 0 0 -5.43,-14.31a110.77,110.77 0 0 0 5.43,-14.31q3.36,1 6.62,2.31c8.49,3.47 13.56,8 13.56,12s-5.07,8.52 -13.56,12z" id="svg_94"/>
    <path class="v" d="m-835.71,-800c0.82,-0.16 1.57,-0.26 2.3,-0.46a12.55,12.55 0 0 0 9.16,-8.31a15.37,15.37 0 0 0 0.52,-7.93a12.78,12.78 0 0 0 -6.31,-9.2a15,15 0 0 0 -7.62,-2.05l-19.55,0l0,47.1l5.84,0l0,-18.65l9.47,0q6,9.38 11.9,18.66l6.9,0s-12.5,-18.98 -12.61,-19.16zm-3.46,-4.72l-12.19,0l0,-18l12.93,0a9.13,9.13 0 0 1 5.68,2a8.17,8.17 0 0 1 3,5a9.38,9.38 0 0 1 -1,6.57a8.35,8.35 0 0 1 -5.71,4.15a13,13 0 0 1 -2.71,0.28z" id="svg_95"/>
    <path class="v" d="m-792.2,-812.88a16.62,16.62 0 0 0 -24.46,6.63a19.38,19.38 0 0 0 -0.9,14.61a15.86,15.86 0 0 0 11.44,11a19.73,19.73 0 0 0 8.27,0.41a18.15,18.15 0 0 0 10,-4.74a4.41,4.41 0 0 0 0.3,-0.33l-2.49,-3.35s-0.76,0.7 -1.17,1a14.72,14.72 0 0 1 -11.44,3.13a11,11 0 0 1 -6.12,-2.83a12.57,12.57 0 0 1 -3.97,-7.65c-0.06,-0.38 -0.08,-0.77 -0.12,-1.21l27.54,0a0.76,0.76 0 0 1 0.05,-0.33a23.24,23.24 0 0 0 -1.63,-9.46a15.57,15.57 0 0 0 -5.3,-6.88zm1.66,12.73l-22.39,0c0.06,-0.53 0.1,-1 0.18,-1.5a12.63,12.63 0 0 1 3.13,-6.44a10.11,10.11 0 0 1 6.87,-3.29a11.52,11.52 0 0 1 6,1a10.47,10.47 0 0 1 5.23,5.55a11.9,11.9 0 0 1 1,4.32l-0.02,0.36z" id="svg_96"/>
    <path class="v" d="m-755.38,-798l-0.47,-0.43a19.2,19.2 0 0 0 -2.12,-1.72a15.58,15.58 0 0 0 -13,-1.67a10.4,10.4 0 0 0 -7.48,9.15a11,11 0 0 0 7.94,12.1a14.37,14.37 0 0 0 6.77,0.36a14.16,14.16 0 0 0 8,-4.09c0.08,-0.09 0.23,-0.26 0.39,-0.42l0,3.87l5.31,0l0,-23.3a16.75,16.75 0 0 0 -0.24,-2.84a9.65,9.65 0 0 0 -4.52,-6.77a12.56,12.56 0 0 0 -3.62,-1.48a21,21 0 0 0 -6.51,-0.5a17.55,17.55 0 0 0 -12,5.61l2.45,3.64c0.17,-0.16 0.3,-0.27 0.42,-0.4a13.27,13.27 0 0 1 8.49,-4.24a12.11,12.11 0 0 1 5.63,0.63a6.45,6.45 0 0 1 4.53,6.09m0,16.37a9.15,9.15 0 0 1 -3.63,3.04a12.05,12.05 0 0 1 -8.86,0.75a6.93,6.93 0 0 1 -5.14,-5.59a7.09,7.09 0 0 1 4.77,-8.24a12.35,12.35 0 0 1 11.91,2.45c0.35,0.34 0.66,0.72 1,1.07l-0.05,6.52z" id="svg_97"/>
    <path class="v" d="m-717.72,-786.72a11.31,11.31 0 0 1 -16.63,-4.36a15.9,15.9 0 0 1 -0.69,-11.83a11.41,11.41 0 0 1 3.76,-5.68a11.27,11.27 0 0 1 7.47,-2.47a10,10 0 0 1 8.21,4l0.34,0.38l3.49,-3.14a14.08,14.08 0 0 0 -6.65,-5a18,18 0 0 0 -8.58,-0.71a15.8,15.8 0 0 0 -11.75,7.85a18.29,18.29 0 0 0 -2.49,8.24a19.52,19.52 0 0 0 1.73,10a15.84,15.84 0 0 0 9.67,8.7a18.07,18.07 0 0 0 7.59,0.77a14.17,14.17 0 0 0 9.66,-4.82c0.28,-0.32 0.55,-0.66 0.84,-1l-3.54,-3.26a12.48,12.48 0 0 1 -2.43,2.33z" id="svg_98"/>
    <path class="v" d="m-690.86,-786.12a5.34,5.34 0 0 1 -2.71,1.34a3.24,3.24 0 0 1 -4.08,-2.58a7,7 0 0 1 -0.21,-1.71l0,-21.23l6.88,0l0,-4.7l-6.88,0l0,-9.26l-5.37,0l0,9.29l-5.67,0l0,4.65l5.65,0l0,22.94a9.52,9.52 0 0 0 0.43,2.7a6.13,6.13 0 0 0 4.4,4.36a11.17,11.17 0 0 0 4.07,0.31a9,9 0 0 0 3.09,-0.82a6.17,6.17 0 0 0 1.93,-1.35c-0.51,-1.33 -0.98,-2.64 -1.53,-3.94z" id="svg_99"/>
   </g>
  </g>
  <text fill="#1167a0" font-family="Fantasy" font-size="24" id="svg_100" stroke-width="0" text-anchor="middle" transform="rotate(-1.66515 151.255 361.2)" x="151.25" xml:space="preserve" y="370.8">GoZoom</text>
 </g>
</svg>