<svg id="Layer_1" data-name="Layer 1" xmlns="http://www.w3.org/2000/svg" viewBox="0 0 750 150"><defs><style>.cls-1{fill:#eff9f8;}.cls-2{fill:#33475b;}.cls-3{fill:#00bda5;}.cls-4{fill:#fafafa;}.cls-5{fill:#fff;}.cls-6{fill:#375a64;}.cls-7{fill:none;stroke:#00bda5;stroke-miterlimit:10;stroke-width:0.16px;}.cls-8{fill:#1a2e35;}.cls-9{fill:#f5f5f5;}.cls-10{fill:#7c98b6;}.cls-11{opacity:0.6;}.cls-12{opacity:0.3;}.cls-13{fill:#ffbf9d;}.cls-14{fill:#ff9a6c;}</style></defs><title>Artboard 1</title><rect class="cls-1" width="750" height="150"/><path class="cls-2" d="M84.29,32.24V13.56H97.5v3.5H88.26v4h9v3.5h-9v4.23H97.5v3.5Z"/><path class="cls-2" d="M104,32.24,98.6,18.71h3.8l3.53,9.41,3.53-9.41h3.84l-5.44,13.53Z"/><path class="cls-2" d="M114,25.46a6.88,6.88,0,0,1,6.68-7.08H121c4,0,6.78,3,6.78,7.45v.78h-10a3.64,3.64,0,0,0,3.89,3.14,5.75,5.75,0,0,0,3.61-1.35l1.57,2.3a8.41,8.41,0,0,1-5.57,1.87,6.85,6.85,0,0,1-7.27-6.4A5.61,5.61,0,0,1,114,25.46Zm7-4.25a3.25,3.25,0,0,0-3.33,3h6.67a3.12,3.12,0,0,0-3.25-3Z"/><path class="cls-2" d="M130.38,32.24V18.71h3.55v1.85a5.82,5.82,0,0,1,4.31-2.18v3.47a4.77,4.77,0,0,0-1-.08,4.52,4.52,0,0,0-3.33,1.54v8.93Z"/><path class="cls-2" d="M140.51,34.34a3.1,3.1,0,0,0,1.12.22,1.8,1.8,0,0,0,1.88-1l.5-1.15-5.49-13.72h3.81l3.53,9.41,3.53-9.41h3.83l-6.35,15.74c-1,2.55-2.8,3.22-5.13,3.28a9.49,9.49,0,0,1-1.76-.2Z"/><path class="cls-2" d="M155.52,28.88V21.82h-2.24V18.71h2.24V15h3.58v3.69h2.75V21.8H159.1v6.11c0,.84.45,1.48,1.23,1.48a2,2,0,0,0,1.24-.39l.75,2.69a4.42,4.42,0,0,1-3,.86C156.86,32.57,155.52,31.29,155.52,28.88Z"/><path class="cls-2" d="M173.44,32.24V24c0-1.87-1-2.46-2.52-2.46a3.94,3.94,0,0,0-3.08,1.6v9.1h-3.56V13.56h3.56v6.92a6.23,6.23,0,0,1,4.76-2.1c3,0,4.39,1.62,4.39,4.25v9.61Z"/><path class="cls-2" d="M180.16,15.13a2.13,2.13,0,0,1,4.25,0v0a2.12,2.12,0,0,1-2.11,2.13h0A2.15,2.15,0,0,1,180.16,15.13Zm.36,17.11V18.71h3.56V32.24Z"/><path class="cls-2" d="M196.73,32.24V24.06a2.2,2.2,0,0,0-1.83-2.52,2.43,2.43,0,0,0-.66,0,3.88,3.88,0,0,0-3.08,1.6v9.1h-3.55V18.71h3.55v1.77a6.15,6.15,0,0,1,4.73-2.1c3,0,4.4,1.68,4.4,4.31v9.55Z"/><path class="cls-2" d="M203.54,35.71l1.59-2.58a5.38,5.38,0,0,0,4.23,1.68c1.71,0,3.73-.75,3.73-3.41V30a5.3,5.3,0,0,1-4.18,2.12c-3.38,0-6-2.38-6-6.88s2.55-6.89,6-6.89a5.23,5.23,0,0,1,4.18,2.07V18.71h3.58v12.6c0,5.15-4,6.42-7.31,6.42A8.21,8.21,0,0,1,203.54,35.71Zm9.55-8.26V23.08A3.87,3.87,0,0,0,210,21.54c-2,0-3.41,1.4-3.41,3.73S208,29,210,29A4,4,0,0,0,213.09,27.45Z"/><path class="cls-2" d="M227.42,34.34a3.1,3.1,0,0,0,1.12.22,1.8,1.8,0,0,0,1.88-1l.5-1.15-5.49-13.72h3.81l3.53,9.41,3.53-9.41h3.83l-6.35,15.74c-1,2.55-2.8,3.22-5.13,3.28a9.49,9.49,0,0,1-1.76-.2Z"/><path class="cls-2" d="M240.86,25.46a7.16,7.16,0,0,1,14.31,0,7.16,7.16,0,0,1-14.31,0Zm10.61,0c0-2.1-1.26-3.92-3.47-3.92s-3.44,1.82-3.44,3.92,1.23,3.95,3.44,3.95S251.47,27.59,251.47,25.46Z"/><path class="cls-2" d="M266.93,32.24V30.53a6.34,6.34,0,0,1-4.76,2c-3,0-4.37-1.62-4.37-4.25V18.71h3.56v8.21a2.17,2.17,0,0,0,1.79,2.49,2.06,2.06,0,0,0,.7,0,4,4,0,0,0,3.08-1.54V18.71h3.55V32.24Z"/><path class="cls-2" d="M290.31,32.24V24.06a2.2,2.2,0,0,0-1.83-2.52,2.43,2.43,0,0,0-.66,0,3.84,3.84,0,0,0-3.08,1.6v9.1h-3.56V18.71h3.56v1.77a6.15,6.15,0,0,1,4.73-2.1c3,0,4.39,1.68,4.39,4.31v9.55Z"/><path class="cls-2" d="M296.52,25.46a6.88,6.88,0,0,1,6.68-7.08h.32c4,0,6.78,3,6.78,7.45v.78H300.25a3.64,3.64,0,0,0,3.89,3.14,5.75,5.75,0,0,0,3.61-1.35l1.57,2.3a8.41,8.41,0,0,1-5.57,1.87,6.85,6.85,0,0,1-7.22-6.45A4.85,4.85,0,0,1,296.52,25.46Zm7-4.25a3.25,3.25,0,0,0-3.33,3h6.67a3.12,3.12,0,0,0-3.25-3Z"/><path class="cls-2" d="M312,25.46a6.88,6.88,0,0,1,6.68-7.08H319c4,0,6.77,3,6.77,7.45v.78h-10a3.65,3.65,0,0,0,3.89,3.14,5.78,5.78,0,0,0,3.62-1.35l1.56,2.3a8.41,8.41,0,0,1-5.57,1.87A6.85,6.85,0,0,1,312,26.16,5.45,5.45,0,0,1,312,25.46Zm7-4.25a3.23,3.23,0,0,0-3.33,3h6.66a3.12,3.12,0,0,0-3.25-3Z"/><path class="cls-2" d="M337.65,32.24V30.5a5.21,5.21,0,0,1-4.17,2.07c-3.41,0-6-2.57-6-7.08s2.55-7.11,6-7.11a5.19,5.19,0,0,1,4.17,2.07V13.56h3.59V32.24Zm0-4.37V23.08a3.86,3.86,0,0,0-3.08-1.54c-2,0-3.41,1.6-3.41,3.95s1.4,3.92,3.41,3.92A3.86,3.86,0,0,0,337.65,27.87Z"/><path class="cls-2" d="M84.9,62.48V55.42H82.66V52.31H84.9V48.62h3.59v3.69h2.74v3.11H88.49v6.11c0,.84.45,1.48,1.23,1.48A2,2,0,0,0,91,62.62l.76,2.68a4.37,4.37,0,0,1-3,.87C86.25,66.17,84.9,64.88,84.9,62.48Z"/><path class="cls-2" d="M92.8,59.06A7.16,7.16,0,1,1,100,66.17h-.07a6.85,6.85,0,0,1-7.14-6.55A5.23,5.23,0,0,1,92.8,59.06Zm10.61,0c0-2.1-1.26-3.92-3.47-3.92S96.5,57,96.5,59.06,97.73,63,99.94,63,103.41,61.19,103.41,59.06Z"/><path class="cls-2" d="M125.67,65.84l-3.58-5.21-1.63,1.74v3.47h-3.55V47.16h3.55V58.33l5.13-6H130l-5.35,6.14,5.51,7.39Z"/><path class="cls-2" d="M141,65.84V57.66a2.2,2.2,0,0,0-2.49-2.52,3.84,3.84,0,0,0-3.08,1.6v9.1h-3.55V52.31h3.55v1.77a6.15,6.15,0,0,1,4.73-2.1c3,0,4.4,1.68,4.4,4.31v9.55Z"/><path class="cls-2" d="M147.23,59.06a7.16,7.16,0,1,1,7.21,7.11h-.07a6.85,6.85,0,0,1-7.14-6.55A5.23,5.23,0,0,1,147.23,59.06Zm10.61,0c0-2.1-1.26-3.92-3.47-3.92s-3.44,1.82-3.44,3.92S152.16,63,154.37,63,157.84,61.19,157.84,59.06Z"/><path class="cls-2" d="M176,65.84l-2.85-9.21-2.86,9.21h-3.81l-4.11-13.53h3.69l2.52,9.1,3-9.1h3.16l3,9.1,2.52-9.1H184l-4.12,13.53Z"/><path class="cls-2" d="M201,65.84v-1.4a5.56,5.56,0,0,1-4.28,1.73A4.5,4.5,0,0,1,192,61.9a1.48,1.48,0,0,1,0-.21c0-3.16,2.55-4.36,4.71-4.36A5.56,5.56,0,0,1,201,59V57.16c0-1.37-1.18-2.27-3-2.27a5.68,5.68,0,0,0-4,1.6l-1.34-2.39a8.9,8.9,0,0,1,6-2.1c3.08,0,5.91,1.23,5.91,5.12v8.74Zm0-3.25V60.91a3.58,3.58,0,0,0-2.86-1.18c-1.4,0-2.54.73-2.54,2.05s1.14,2,2.54,2A3.57,3.57,0,0,0,201,62.59Z"/><path class="cls-2" d="M208.07,65.84V47.16h3.56v6.89a5.21,5.21,0,0,1,4.17-2c3.45,0,6,2.69,6,7.11s-2.57,7.08-6,7.08a5.24,5.24,0,0,1-4.17-2.07v1.74ZM214.68,63c2.07,0,3.45-1.57,3.45-3.92s-1.38-4-3.45-4a3.91,3.91,0,0,0-3.05,1.57V61.5A4,4,0,0,0,214.68,63Z"/><path class="cls-2" d="M223.62,59.06a7.15,7.15,0,1,1,7.19,7.11h-.06a6.84,6.84,0,0,1-7.13-6.54A5.42,5.42,0,0,1,223.62,59.06Zm10.61,0c0-2.1-1.26-3.92-3.48-3.92s-3.44,1.82-3.44,3.92S228.54,63,230.75,63,234.23,61.19,234.23,59.06Z"/><path class="cls-2" d="M249.68,65.84V64.13a6.34,6.34,0,0,1-4.76,2c-3,0-4.37-1.62-4.37-4.25V52.31h3.56v8.21A2.17,2.17,0,0,0,245.92,63a1.94,1.94,0,0,0,.68,0,4,4,0,0,0,3.08-1.54V52.31h3.56V65.84Z"/><path class="cls-2" d="M257.47,62.48V55.42h-2.24V52.31h2.24V48.62h3.58v3.69h2.74v3.11h-2.74v6.11c0,.84.45,1.48,1.23,1.48a2,2,0,0,0,1.23-.39l.76,2.68a4.37,4.37,0,0,1-3,.87C258.81,66.17,257.47,64.88,257.47,62.48Z"/><path class="cls-2" d="M285.27,65.84l-2.86-9.21-2.85,9.21h-3.81l-4.12-13.53h3.7l2.52,9.1,3-9.1H284l3,9.1,2.52-9.1h3.7L289.1,65.84Z"/><path class="cls-2" d="M294.06,59.06A6.88,6.88,0,0,1,300.74,52h.32c4,0,6.78,3,6.78,7.44v.79h-10a3.63,3.63,0,0,0,3.89,3.13A5.75,5.75,0,0,0,305.29,62l1.57,2.3a8.46,8.46,0,0,1-5.57,1.87,6.85,6.85,0,0,1-7.22-6.45A4.85,4.85,0,0,1,294.06,59.06Zm7-4.26a3.26,3.26,0,0,0-3.33,3h6.66a3.12,3.12,0,0,0-3.25-3Z"/><path class="cls-2" d="M310.41,65.84V47.16H314v6.89a5.21,5.21,0,0,1,4.14-2c3.44,0,6,2.69,6,7.11s-2.57,7.08-6,7.08A5.23,5.23,0,0,1,314,64.1v1.74ZM317,63c2.07,0,3.45-1.57,3.45-3.92s-1.38-4-3.45-4a3.91,3.91,0,0,0-3,1.57V61.5A4,4,0,0,0,317,63Z"/><path class="cls-2" d="M93.5,99.44V97.7a5.24,5.24,0,0,1-4.17,2.07c-3.42,0-6-2.57-6-7.08s2.54-7.11,6-7.11a5.21,5.21,0,0,1,4.17,2.07V80.76h3.58V99.44Zm0-4.37V90.28a3.91,3.91,0,0,0-3.08-1.54c-2,0-3.42,1.6-3.42,4s1.4,3.92,3.42,3.92A3.85,3.85,0,0,0,93.5,95.07Z"/><path class="cls-2" d="M99.74,92.66a6.88,6.88,0,0,1,6.68-7.08h.32c4,0,6.78,3,6.78,7.45v.78h-10A3.64,3.64,0,0,0,107.36,97,5.73,5.73,0,0,0,111,95.6l1.57,2.3A8.41,8.41,0,0,1,107,99.77a6.85,6.85,0,0,1-7.25-6.42A5.3,5.3,0,0,1,99.74,92.66Zm7-4.25a3.25,3.25,0,0,0-3.33,3h6.67a3.12,3.12,0,0,0-3.25-3Z"/><path class="cls-2" d="M119.6,99.44l-5.44-13.53H118l3.53,9.41L125,85.91h3.83L123.4,99.44Z"/><path class="cls-2" d="M129.59,92.66a6.88,6.88,0,0,1,6.68-7.08h.32c4,0,6.78,3,6.78,7.45v.78H133.32A3.64,3.64,0,0,0,137.21,97a5.75,5.75,0,0,0,3.61-1.35l1.57,2.3a8.46,8.46,0,0,1-5.57,1.87,6.85,6.85,0,0,1-7.23-6.45C129.58,93.13,129.58,92.9,129.59,92.66Zm7-4.25a3.25,3.25,0,0,0-3.33,3h6.66a3.13,3.13,0,0,0-3.23-3Z"/><path class="cls-2" d="M145.94,99.44V80.76h3.56V99.44Z"/><path class="cls-2" d="M152.16,92.66a7.16,7.16,0,1,1,7.21,7.11h-.07a6.85,6.85,0,0,1-7.14-6.55A5.23,5.23,0,0,1,152.16,92.66Zm10.61,0c0-2.1-1.26-3.92-3.47-3.92s-3.45,1.82-3.45,3.92,1.24,4,3.45,4S162.77,94.79,162.77,92.66Z"/><path class="cls-2" d="M172.65,97.7v6.89H169.1V85.91h3.55v1.71a5.24,5.24,0,0,1,4.18-2c3.47,0,6,2.57,6,7.08s-2.52,7.11-6,7.11A5.19,5.19,0,0,1,172.65,97.7Zm6.47-5c0-2.32-1.37-3.92-3.41-3.92a4,4,0,0,0-3.06,1.54v4.79a4.08,4.08,0,0,0,3.06,1.54c2,0,3.41-1.65,3.41-4Z"/><path class="cls-2" d="M202.19,99.44V90.9c0-1.26-.56-2.16-2-2.16a3.56,3.56,0,0,0-2.8,1.57v9.13H193.8V90.9c0-1.26-.56-2.16-2-2.16a3.64,3.64,0,0,0-2.8,1.6v9.1h-3.56V85.91H189v1.77a5.93,5.93,0,0,1,4.42-2.1A3.57,3.57,0,0,1,197.15,88a5.75,5.75,0,0,1,4.65-2.46c2.49,0,4,1.31,4,4.09V99.4Z"/><path class="cls-2" d="M208.41,92.66a6.88,6.88,0,0,1,6.68-7.08h.32c4,0,6.78,3,6.78,7.45v.78H212.13A3.65,3.65,0,0,0,216,97a5.75,5.75,0,0,0,3.61-1.35l1.57,2.3a8.5,8.5,0,0,1-5.58,1.87,6.85,6.85,0,0,1-7.19-6.49C208.4,93.1,208.4,92.88,208.41,92.66Zm7-4.25a3.25,3.25,0,0,0-3.33,3h6.66a3.13,3.13,0,0,0-3.23-3Z"/><path class="cls-2" d="M233.89,99.44V91.26a2.2,2.2,0,0,0-1.83-2.52,2.43,2.43,0,0,0-.66,0,3.88,3.88,0,0,0-3.08,1.6v9.1h-3.56V85.91h3.56v1.77a6.15,6.15,0,0,1,4.73-2.1c3,0,4.4,1.68,4.4,4.31v9.55Z"/><path class="cls-2" d="M241.67,96.08V89h-2.24V85.91h2.24V82.22h3.59v3.69H248V89h-2.74v6.11c0,.84.45,1.48,1.23,1.48a2,2,0,0,0,1.23-.39l.76,2.69a4.42,4.42,0,0,1-3,.86C243,99.77,241.67,98.49,241.67,96.08Z"/><path class="cls-2" d="M265.72,99.44V98a5.56,5.56,0,0,1-4.28,1.73,4.5,4.5,0,0,1-4.7-4.3v-.18c0-3.16,2.55-4.36,4.7-4.36a5.52,5.52,0,0,1,4.28,1.65V90.76c0-1.37-1.17-2.27-3-2.27a5.67,5.67,0,0,0-4,1.6l-1.35-2.38a8.9,8.9,0,0,1,5.91-2.13c3.08,0,5.91,1.23,5.91,5.12v8.74Zm0-3.25V94.51a3.55,3.55,0,0,0-2.85-1.18c-1.4,0-2.55.73-2.55,2s1.15,2,2.55,2A3.57,3.57,0,0,0,265.72,96.19Z"/><path class="cls-2" d="M271.63,97.67l1.54-2.49A7.73,7.73,0,0,0,277.85,97c1.54,0,2.27-.62,2.27-1.46,0-2.24-8-.42-8-5.74,0-2.26,2-4.25,5.55-4.25a8.54,8.54,0,0,1,5.45,1.85l-1.42,2.43a5.72,5.72,0,0,0-4-1.57c-1.28,0-2.12.59-2.12,1.35,0,2,8,.33,8,5.79,0,2.47-2.1,4.34-5.85,4.34A9.08,9.08,0,0,1,271.63,97.67Z"/><path class="cls-2" d="M301.45,99.44V98a5.56,5.56,0,0,1-4.28,1.73,4.5,4.5,0,0,1-4.71-4.29v-.19c0-3.16,2.55-4.36,4.71-4.36a5.52,5.52,0,0,1,4.28,1.65V90.76c0-1.37-1.17-2.27-3-2.27a5.63,5.63,0,0,0-3.94,1.6l-1.35-2.38a8.83,8.83,0,0,1,5.91-2.13c3.08,0,5.91,1.23,5.91,5.12v8.74Zm0-3.25V94.51a3.58,3.58,0,0,0-2.85-1.18c-1.4,0-2.55.73-2.55,2s1.15,2,2.55,2A3.57,3.57,0,0,0,301.45,96.19Z"/><path class="cls-2" d="M84.2,133V114.36h3.56v6.89a5.21,5.21,0,0,1,4.17-2.07c3.45,0,6,2.69,6,7.11s-2.57,7.08-6,7.08a5.24,5.24,0,0,1-4.17-2.07V133Zm6.61-2.83c2.07,0,3.45-1.57,3.45-3.92s-1.38-4-3.45-4a3.91,3.91,0,0,0-3,1.57v4.79a4,4,0,0,0,3,1.6Z"/><path class="cls-2" d="M99.74,126.26a6.88,6.88,0,0,1,6.68-7.08h.32c4,0,6.78,3,6.78,7.45v.78h-10a3.63,3.63,0,0,0,3.89,3.13A5.77,5.77,0,0,0,111,129.2l1.57,2.3a8.41,8.41,0,0,1-5.57,1.87A6.85,6.85,0,0,1,99.75,127,5.3,5.3,0,0,1,99.74,126.26Zm7-4.26a3.26,3.26,0,0,0-3.33,3h6.67a3.13,3.13,0,0,0-3.27-3Z"/><path class="cls-2" d="M115.82,136.51l1.59-2.58a5.35,5.35,0,0,0,4.23,1.68c1.71,0,3.72-.75,3.72-3.41v-1.37a5.26,5.26,0,0,1-4.17,2.12c-3.39,0-6-2.38-6-6.88s2.55-6.89,6-6.89a5.19,5.19,0,0,1,4.17,2.07v-1.74H129v12.6c0,5.15-4,6.42-7.31,6.42A8.19,8.19,0,0,1,115.82,136.51Zm9.54-8.26v-4.37a3.83,3.83,0,0,0-3-1.54c-2,0-3.41,1.4-3.41,3.73s1.4,3.72,3.41,3.72A3.91,3.91,0,0,0,125.36,128.25Z"/><path class="cls-2" d="M132.11,115.93a2.13,2.13,0,1,1,2.13,2.13A2.15,2.15,0,0,1,132.11,115.93Zm.37,17.11V119.51H136V133Z"/><path class="cls-2" d="M148.69,133v-8.18a2.2,2.2,0,0,0-1.83-2.52,2.43,2.43,0,0,0-.66,0,3.84,3.84,0,0,0-3.08,1.6V133h-3.56V119.51h3.56v1.77a6.15,6.15,0,0,1,4.73-2.1c3,0,4.39,1.68,4.39,4.31V133Z"/><path class="cls-2" d="M164.9,133v-8.18a2.2,2.2,0,0,0-1.83-2.52,2.43,2.43,0,0,0-.66,0,3.88,3.88,0,0,0-3.08,1.6V133h-3.56V119.51h3.56v1.77a6.15,6.15,0,0,1,4.73-2.1c3,0,4.4,1.68,4.4,4.31V133Z"/><path class="cls-2" d="M171.12,126.26a6.88,6.88,0,0,1,6.68-7.08h.32c4,0,6.77,3,6.77,7.45v.78h-10a3.64,3.64,0,0,0,3.89,3.13,5.74,5.74,0,0,0,3.61-1.34l1.57,2.3a8.41,8.41,0,0,1-5.57,1.87,6.84,6.84,0,0,1-7.26-6.39A5.77,5.77,0,0,1,171.12,126.26Zm7-4.26a3.26,3.26,0,0,0-3.34,3h6.67a3.13,3.13,0,0,0-3.27-3Z"/><path class="cls-2" d="M187.47,133V119.51H191v1.85a5.82,5.82,0,0,1,4.31-2.18v3.47a4.77,4.77,0,0,0-1-.08,4.56,4.56,0,0,0-3.34,1.54V133Z"/><path class="cls-2" d="M650.63,22.79c0-1.15.6-1.83,1.43-1.83s1.43.68,1.43,1.83-.6,1.82-1.43,1.82S650.63,23.93,650.63,22.79Zm2.49,0c0-1-.44-1.49-1.06-1.49s-1.06.53-1.06,1.49.43,1.48,1.06,1.48S653.12,23.74,653.12,22.79Z"/><path class="cls-2" d="M654,22.79c0-1.15.6-1.83,1.43-1.83s1.44.68,1.44,1.83-.61,1.82-1.44,1.82S654,23.93,654,22.79Zm2.49,0c0-1-.43-1.49-1.06-1.49s-1,.53-1,1.49.43,1.48,1,1.48,1.08-.53,1.08-1.48Z"/><path class="cls-2" d="M658.4,21v3.59H658V21.32h-.84V21Z"/><path class="cls-2" d="M659.26,22.79c0-1.15.6-1.83,1.43-1.83s1.44.68,1.44,1.83-.61,1.82-1.44,1.82S659.26,23.93,659.26,22.79Zm2.49,0c0-1-.43-1.49-1.06-1.49s-1.06.53-1.06,1.49.43,1.48,1.06,1.48S661.75,23.74,661.75,22.79Z"/><path class="cls-2" d="M663.64,21v3.59h-.37V21.32h-.85V21Z"/><path class="cls-2" d="M647.09,27.88c0-1.14.6-1.83,1.43-1.83s1.44.69,1.44,1.83-.6,1.83-1.44,1.83S647.09,29,647.09,27.88Zm2.49,0c0-1-.43-1.49-1.06-1.49s-1,.53-1,1.49.43,1.49,1,1.49S649.58,28.84,649.58,27.88Z"/><path class="cls-2" d="M650.49,27.88c0-1.14.6-1.83,1.43-1.83s1.44.69,1.44,1.83-.61,1.83-1.44,1.83S650.49,29,650.49,27.88Zm2.49,0c0-1-.44-1.49-1.06-1.49s-1.06.53-1.06,1.49.43,1.49,1.06,1.49,1.08-.53,1.08-1.49Z"/><path class="cls-2" d="M654.87,26.08v3.6h-.37V26.41h-.85v-.33Z"/><path class="cls-2" d="M655.72,27.88c0-1.14.6-1.83,1.43-1.83s1.44.69,1.44,1.83-.6,1.83-1.44,1.83S655.72,29,655.72,27.88Zm2.49,0c0-1-.43-1.49-1.06-1.49s-1,.53-1,1.49.43,1.49,1,1.49,1.06-.53,1.06-1.49Z"/><path class="cls-2" d="M660.1,26.08v3.6h-.37V26.41h-.84v-.33Z"/><path class="cls-2" d="M662,26.08v3.6h-.36V26.41h-.85v-.33Z"/><path class="cls-2" d="M662.81,27.88c0-1.14.6-1.83,1.43-1.83s1.44.69,1.44,1.83-.61,1.83-1.44,1.83S662.81,29,662.81,27.88Zm2.49,0c0-1-.43-1.49-1.06-1.49s-1.06.53-1.06,1.49.44,1.49,1.06,1.49S665.3,28.84,665.3,27.88Z"/><path class="cls-2" d="M667.19,26.08v3.6h-.37V26.41H666v-.33Z"/><path class="cls-2" d="M650.63,32.81c0-1.15.6-1.83,1.43-1.83s1.44.68,1.44,1.83-.61,1.82-1.44,1.82S650.63,34,650.63,32.81Zm2.49,0c0-1-.43-1.49-1.06-1.49s-1.06.53-1.06,1.49.43,1.48,1.06,1.48S653.12,33.77,653.12,32.81Z"/><path class="cls-2" d="M655,31v3.6h-.37V31.34h-.85V31Z"/><path class="cls-2" d="M656.86,31v3.6h-.37V31.34h-.85V31Z"/><path class="cls-2" d="M658.71,31v3.6h-.37V31.34h-.85V31Z"/><path class="cls-2" d="M659.57,32.81c0-1.15.6-1.83,1.43-1.83s1.43.68,1.43,1.83-.6,1.82-1.43,1.82S659.57,34,659.57,32.81Zm2.48,0c0-1-.43-1.49-1-1.49s-1.06.53-1.06,1.49.43,1.48,1.06,1.48S662.05,33.77,662.05,32.81Z"/><path class="cls-2" d="M664,31v3.6h-.37V31.34h-.85V31Z"/><path class="cls-3" d="M562.46,57.84s-4.09.06-9.13.06-9.14,0-9.14-.06,4.09-.05,9.14-.05S562.46,57.81,562.46,57.84Z"/><path class="cls-3" d="M562.46,59.46H544.19s4.09-.05,9.14-.05S562.46,59.43,562.46,59.46Z"/><path class="cls-3" d="M564.15,65.3a.7.7,0,0,1,.3-.07c.17,0,.29,0,.29.07s-.13.08-.29.08S564.15,65.34,564.15,65.3Z"/><path class="cls-3" d="M563,65.3a.68.68,0,0,1,.29-.07c.16,0,.3,0,.3.07s-.13.08-.3.08S563,65.34,563,65.3Z"/><path class="cls-3" d="M561.81,65.3a.68.68,0,0,1,.29-.07c.16,0,.29,0,.29.07s-.13.08-.29.08S561.81,65.34,561.81,65.3Z"/><path class="cls-3" d="M560.63,65.3a.7.7,0,0,1,.3-.07c.17,0,.29,0,.29.07s-.13.08-.29.08S560.63,65.34,560.63,65.3Z"/><path class="cls-3" d="M559.46,65.3a.68.68,0,0,1,.29-.07c.16,0,.3,0,.3.07s-.14.08-.3.08S559.46,65.34,559.46,65.3Z"/><path class="cls-3" d="M558.29,65.3a.68.68,0,0,1,.29-.07c.16,0,.29,0,.29.07s-.13.08-.29.08S558.29,65.34,558.29,65.3Z"/><path class="cls-3" d="M557.11,65.3a.7.7,0,0,1,.3-.07c.17,0,.29,0,.29.07s-.13.08-.29.08S557.11,65.34,557.11,65.3Z"/><path class="cls-3" d="M555.94,65.3a.68.68,0,0,1,.29-.07c.16,0,.3,0,.3.07s-.14.08-.3.08S555.94,65.34,555.94,65.3Z"/><path class="cls-3" d="M554.77,65.3a.68.68,0,0,1,.29-.07c.16,0,.29,0,.29.07s-.13.08-.29.08S554.77,65.34,554.77,65.3Z"/><path class="cls-3" d="M553.59,65.3a.7.7,0,0,1,.3-.07c.17,0,.29,0,.29.07s-.13.08-.29.08S553.59,65.34,553.59,65.3Z"/><path class="cls-3" d="M552.42,65.3a.68.68,0,0,1,.29-.07c.16,0,.3,0,.3.07s-.14.08-.3.08S552.42,65.34,552.42,65.3Z"/><path class="cls-3" d="M551.25,65.3a.68.68,0,0,1,.29-.07c.16,0,.29,0,.29.07s-.13.08-.29.08S551.25,65.34,551.25,65.3Z"/><path class="cls-3" d="M550.07,65.3a.7.7,0,0,1,.3-.07c.17,0,.29,0,.29.07s-.13.08-.29.08S550.07,65.34,550.07,65.3Z"/><path class="cls-3" d="M548.9,65.3a.68.68,0,0,1,.29-.07c.16,0,.3,0,.3.07s-.14.08-.3.08S548.9,65.34,548.9,65.3Z"/><path class="cls-3" d="M547.73,65.3a.68.68,0,0,1,.29-.07c.16,0,.29,0,.29.07s-.13.08-.29.08S547.73,65.34,547.73,65.3Z"/><path class="cls-3" d="M546.55,65.3a.7.7,0,0,1,.3-.07c.17,0,.29,0,.29.07s-.13.08-.29.08S546.55,65.34,546.55,65.3Z"/><path class="cls-3" d="M545.38,65.3a.68.68,0,0,1,.29-.07c.16,0,.3,0,.3.07s-.14.08-.3.08S545.38,65.34,545.38,65.3Z"/><path class="cls-3" d="M544.2,65.3a.75.75,0,0,1,.3-.07c.16,0,.29,0,.29.07s-.13.08-.29.08S544.2,65.34,544.2,65.3Z"/><path class="cls-3" d="M543,65.3a.68.68,0,0,1,.29-.07c.16,0,.3,0,.3.07s-.13.08-.3.08S543,65.34,543,65.3Z"/><path class="cls-3" d="M541.86,65.3a.68.68,0,0,1,.29-.07c.16,0,.29,0,.29.07s-.13.08-.29.08S541.86,65.34,541.86,65.3Z"/><path class="cls-3" d="M540.68,65.3a.75.75,0,0,1,.3-.07c.16,0,.29,0,.29.07s-.13.08-.29.08S540.68,65.34,540.68,65.3Z"/><path class="cls-3" d="M539.51,65.3a.68.68,0,0,1,.29-.07c.16,0,.3,0,.3.07s-.13.08-.3.08S539.51,65.34,539.51,65.3Z"/><path class="cls-3" d="M538.34,65.3a.68.68,0,0,1,.29-.07c.16,0,.29,0,.29.07s-.13.08-.29.08S538.34,65.34,538.34,65.3Z"/><path class="cls-3" d="M537.16,65.3a.75.75,0,0,1,.3-.07c.16,0,.29,0,.29.07s-.13.08-.29.08S537.16,65.34,537.16,65.3Z"/><path class="cls-3" d="M536,65.3a.68.68,0,0,1,.29-.07c.16,0,.3,0,.3.07s-.13.08-.3.08S536,65.34,536,65.3Z"/><path class="cls-3" d="M534.82,65.3a.68.68,0,0,1,.29-.07c.16,0,.29,0,.29.07s-.13.08-.29.08S534.82,65.34,534.82,65.3Z"/><path class="cls-3" d="M533.64,65.3a.75.75,0,0,1,.3-.07c.16,0,.29,0,.29.07s-.13.08-.29.08S533.64,65.34,533.64,65.3Z"/><path class="cls-3" d="M532.47,65.3a.68.68,0,0,1,.29-.07c.16,0,.3,0,.3.07s-.13.08-.3.08S532.47,65.34,532.47,65.3Z"/><path class="cls-3" d="M531.83,64.77a.61.61,0,0,1,.08.29,1,1,0,0,1,0,.24h0a1,1,0,0,1,0-.24C531.76,64.9,531.79,64.77,531.83,64.77Z"/><path class="cls-3" d="M531.83,63.59a.68.68,0,0,1,.08.3c0,.16,0,.29-.08.29s-.07-.13-.07-.29S531.79,63.59,531.83,63.59Z"/><path class="cls-3" d="M531.83,62.42a.61.61,0,0,1,.08.29c0,.16,0,.3-.08.3s-.07-.13-.07-.3S531.79,62.42,531.83,62.42Z"/><path class="cls-3" d="M531.83,61.25a.61.61,0,0,1,.08.29c0,.16,0,.29-.08.29s-.07-.13-.07-.29S531.79,61.25,531.83,61.25Z"/><path class="cls-3" d="M531.83,60.07a.68.68,0,0,1,.08.3c0,.16,0,.29-.08.29s-.07-.13-.07-.29S531.79,60.07,531.83,60.07Z"/><path class="cls-3" d="M531.83,58.9a.61.61,0,0,1,.08.29c0,.16,0,.3-.08.3s-.07-.13-.07-.3S531.79,58.9,531.83,58.9Z"/><path class="cls-3" d="M531.83,57.73a.61.61,0,0,1,.08.29c0,.16,0,.29-.08.29s-.07-.13-.07-.29S531.79,57.73,531.83,57.73Z"/><path class="cls-3" d="M531.83,56.55a.68.68,0,0,1,.08.3c0,.16,0,.29-.08.29s-.07-.13-.07-.29S531.79,56.55,531.83,56.55Z"/><path class="cls-3" d="M531.83,55.38a.61.61,0,0,1,.08.29c0,.16,0,.3-.08.3s-.07-.13-.07-.3S531.79,55.38,531.83,55.38Z"/><path class="cls-3" d="M531.83,54.21a.61.61,0,0,1,.08.29c0,.16,0,.29-.08.29s-.07-.13-.07-.29S531.79,54.21,531.83,54.21Z"/><path class="cls-3" d="M531.83,53a.68.68,0,0,1,.08.3c0,.16,0,.29-.08.29s-.07-.13-.07-.29S531.79,53,531.83,53Z"/><path class="cls-3" d="M532.09,52.12a.53.53,0,0,1-.26.07l.08-.07h0c0,.17,0,.3-.08.3s-.07-.13-.07-.3V52h.07C532,52.05,532.09,52.08,532.09,52.12Z"/><path class="cls-3" d="M533.26,52.12a.68.68,0,0,1-.29.07c-.16,0-.3,0-.3-.07s.14-.08.3-.08S533.26,52.07,533.26,52.12Z"/><path class="cls-3" d="M534.43,52.12a.68.68,0,0,1-.29.07c-.16,0-.29,0-.29-.07s.13-.08.29-.08S534.43,52.07,534.43,52.12Z"/><path class="cls-3" d="M535.61,52.12a.7.7,0,0,1-.3.07c-.17,0-.29,0-.29-.07s.13-.08.29-.08S535.61,52.07,535.61,52.12Z"/><path class="cls-3" d="M536.78,52.12a.68.68,0,0,1-.29.07c-.16,0-.3,0-.3-.07s.14-.08.3-.08S536.78,52.07,536.78,52.12Z"/><path class="cls-3" d="M538,52.12a.68.68,0,0,1-.29.07c-.16,0-.29,0-.29-.07s.13-.08.29-.08S538,52.07,538,52.12Z"/><path class="cls-3" d="M539.13,52.12a.7.7,0,0,1-.3.07c-.17,0-.29,0-.29-.07s.13-.08.29-.08S539.13,52.07,539.13,52.12Z"/><path class="cls-3" d="M540.3,52.12a.68.68,0,0,1-.29.07c-.16,0-.3,0-.3-.07s.14-.08.3-.08S540.3,52.07,540.3,52.12Z"/><path class="cls-3" d="M541.47,52.12a.68.68,0,0,1-.29.07c-.16,0-.29,0-.29-.07s.13-.08.29-.08S541.47,52.07,541.47,52.12Z"/><path class="cls-3" d="M542.65,52.12a.7.7,0,0,1-.3.07c-.17,0-.29,0-.29-.07s.13-.08.29-.08S542.65,52.07,542.65,52.12Z"/><path class="cls-3" d="M543.82,52.12a.68.68,0,0,1-.29.07c-.16,0-.29,0-.29-.07s.13-.08.29-.08S543.82,52.07,543.82,52.12Z"/><path class="cls-3" d="M545,52.12a.75.75,0,0,1-.3.07c-.16,0-.29,0-.29-.07s.13-.08.29-.08S545,52.07,545,52.12Z"/><path class="cls-3" d="M546.17,52.12a.68.68,0,0,1-.29.07c-.16,0-.3,0-.3-.07s.13-.08.3-.08S546.17,52.07,546.17,52.12Z"/><path class="cls-3" d="M547.34,52.12a.68.68,0,0,1-.29.07c-.16,0-.29,0-.29-.07s.13-.08.29-.08S547.34,52.07,547.34,52.12Z"/><path class="cls-3" d="M548.52,52.12a.75.75,0,0,1-.3.07c-.16,0-.29,0-.29-.07s.13-.08.29-.08S548.52,52.07,548.52,52.12Z"/><path class="cls-3" d="M549.69,52.12a.68.68,0,0,1-.29.07c-.16,0-.3,0-.3-.07s.13-.08.3-.08S549.69,52.07,549.69,52.12Z"/><path class="cls-3" d="M550.86,52.12a.68.68,0,0,1-.29.07c-.16,0-.29,0-.29-.07s.13-.08.29-.08S550.86,52.07,550.86,52.12Z"/><path class="cls-3" d="M552,52.12a.75.75,0,0,1-.3.07c-.16,0-.29,0-.29-.07s.13-.08.29-.08S552,52.07,552,52.12Z"/><path class="cls-3" d="M553.21,52.12a.68.68,0,0,1-.29.07c-.16,0-.3,0-.3-.07s.13-.08.3-.08S553.21,52.07,553.21,52.12Z"/><path class="cls-3" d="M554.38,52.12a.68.68,0,0,1-.29.07c-.16,0-.29,0-.29-.07s.13-.08.29-.08S554.38,52.07,554.38,52.12Z"/><path class="cls-3" d="M555.56,52.12a.75.75,0,0,1-.3.07c-.16,0-.29,0-.29-.07s.13-.08.29-.08S555.56,52.07,555.56,52.12Z"/><path class="cls-3" d="M556.73,52.12a.68.68,0,0,1-.29.07c-.16,0-.3,0-.3-.07s.13-.08.3-.08S556.73,52.07,556.73,52.12Z"/><path class="cls-3" d="M557.9,52.12a.68.68,0,0,1-.29.07c-.16,0-.29,0-.29-.07s.13-.08.29-.08S557.9,52.07,557.9,52.12Z"/><path class="cls-3" d="M559.08,52.12a.75.75,0,0,1-.3.07c-.16,0-.29,0-.29-.07s.13-.08.29-.08S559.08,52.07,559.08,52.12Z"/><path class="cls-3" d="M560.25,52.12a.68.68,0,0,1-.29.07c-.16,0-.3,0-.3-.07s.13-.08.3-.08S560.25,52.07,560.25,52.12Z"/><path class="cls-3" d="M561.42,52.12a.68.68,0,0,1-.29.07c-.16,0-.29,0-.29-.07s.13-.08.29-.08S561.42,52.07,561.42,52.12Z"/><path class="cls-3" d="M562.6,52.12a.7.7,0,0,1-.3.07c-.17,0-.29,0-.29-.07s.13-.08.29-.08S562.6,52.07,562.6,52.12Z"/><path class="cls-3" d="M563.77,52.12a.68.68,0,0,1-.29.07c-.16,0-.3,0-.3-.07s.13-.08.3-.08S563.77,52.07,563.77,52.12Z"/><path class="cls-3" d="M564.74,52.32a.48.48,0,0,1-.07-.2l.07.07h-.09c-.16,0-.29,0-.29-.07s.13-.08.29-.08h.17v.07C564.8,52.23,564.77,52.32,564.74,52.32Z"/><path class="cls-3" d="M564.74,53.49a.61.61,0,0,1-.08-.29c0-.16,0-.29.08-.29s.08.13.08.29S564.78,53.49,564.74,53.49Z"/><path class="cls-3" d="M564.74,54.67a.68.68,0,0,1-.08-.3c0-.16,0-.29.08-.29s.08.13.08.29S564.78,54.67,564.74,54.67Z"/><path class="cls-3" d="M564.74,55.84a.61.61,0,0,1-.08-.29c0-.16,0-.3.08-.3s.08.13.08.3S564.78,55.84,564.74,55.84Z"/><path class="cls-3" d="M564.74,57a.61.61,0,0,1-.08-.29c0-.16,0-.29.08-.29s.08.13.08.29S564.78,57,564.74,57Z"/><path class="cls-3" d="M564.74,58.19a.63.63,0,0,1-.08-.3c0-.17,0-.29.08-.29s.08.13.08.29S564.78,58.19,564.74,58.19Z"/><path class="cls-3" d="M564.74,59.36a.61.61,0,0,1-.08-.29c0-.16,0-.3.08-.3s.08.13.08.3S564.78,59.36,564.74,59.36Z"/><path class="cls-3" d="M564.74,60.53a.61.61,0,0,1-.08-.29c0-.16,0-.29.08-.29s.08.13.08.29S564.78,60.53,564.74,60.53Z"/><path class="cls-3" d="M564.74,61.71a.63.63,0,0,1-.08-.3c0-.17,0-.29.08-.29s.08.13.08.29S564.78,61.71,564.74,61.71Z"/><path class="cls-3" d="M564.74,62.88a.61.61,0,0,1-.08-.29c0-.16,0-.3.08-.3s.08.13.08.3S564.78,62.88,564.74,62.88Z"/><path class="cls-3" d="M564.74,64.05a.61.61,0,0,1-.08-.29c0-.16,0-.29.08-.29s.08.13.08.29S564.78,64.05,564.74,64.05Z"/><path class="cls-3" d="M564.74,65.23a.63.63,0,0,1-.08-.3c0-.17,0-.29.08-.29s.08.13.08.29S564.78,65.23,564.74,65.23Z"/><path class="cls-3" d="M542.71,63a.68.68,0,0,1,.29-.07l-.07.07h0v-.28l.06.09c.06.09,0,0,0,.09V63h0l-.08.08Z"/><path class="cls-3" d="M541.61,63a.66.66,0,0,1,.28-.07c.15,0,.27,0,.27.07s-.12.08-.27.08A.6.6,0,0,1,541.61,63Z"/><path class="cls-3" d="M540.52,63a.59.59,0,0,1,.27-.07c.15,0,.28,0,.28.07s-.13.08-.28.08A.54.54,0,0,1,540.52,63Z"/><path class="cls-3" d="M539.42,63a.61.61,0,0,1,.28-.07c.16,0,.27,0,.27.07s-.12.08-.27.08A.6.6,0,0,1,539.42,63Z"/><path class="cls-3" d="M538.33,63a.59.59,0,0,1,.27-.07c.15,0,.27,0,.27.07s-.12.08-.27.08A.54.54,0,0,1,538.33,63Z"/><path class="cls-3" d="M537.23,63a.59.59,0,0,1,.27-.07c.15,0,.28,0,.28.07s-.12.08-.28.08A.5.5,0,0,1,537.23,63Z"/><path class="cls-3" d="M536.14,63a.59.59,0,0,1,.27-.07c.15,0,.27,0,.27.07s-.12.08-.27.08A.54.54,0,0,1,536.14,63Z"/><path class="cls-3" d="M535,63a.59.59,0,0,1,.27-.07c.15,0,.28,0,.28.07s-.13.08-.28.08A.54.54,0,0,1,535,63Z"/><path class="cls-3" d="M534.2,62.69a.68.68,0,0,1,.07.29l-.07-.07h.29l-.08.06h-.21s.07.08-.08-.08S534.16,62.69,534.2,62.69Z"/><path class="cls-3" d="M534.2,61.51a.68.68,0,0,1,.07.29c0,.16,0,.3-.07.3s-.08-.13-.08-.3S534.16,61.51,534.2,61.51Z"/><path class="cls-3" d="M534.2,60.33a.68.68,0,0,1,.07.29c0,.16,0,.3-.07.3s-.08-.13-.08-.3S534.16,60.33,534.2,60.33Z"/><path class="cls-3" d="M534.2,59.15a.68.68,0,0,1,.07.29c0,.16,0,.3-.07.3s-.08-.13-.08-.3S534.16,59.15,534.2,59.15Z"/><path class="cls-3" d="M534.2,58a.68.68,0,0,1,.07.29c0,.16,0,.3-.07.3s-.08-.14-.08-.3S534.16,58,534.2,58Z"/><path class="cls-3" d="M534.2,56.79a.68.68,0,0,1,.07.29c0,.16,0,.3-.07.3s-.08-.14-.08-.3S534.16,56.79,534.2,56.79Z"/><path class="cls-3" d="M534.2,55.6a.75.75,0,0,1,.07.3c0,.16,0,.29-.07.29s-.08-.13-.08-.29S534.16,55.6,534.2,55.6Z"/><path class="cls-3" d="M534.49,54.72a.61.61,0,0,1-.29.08c.15-.16,0,0,.07-.08h0V55l-.06-.08c-.06-.08,0-.06,0-.1v-.08h0l.08-.08C534.36,54.64,534.49,54.68,534.49,54.72Z"/><path class="cls-3" d="M535.59,54.72a.6.6,0,0,1-.28.08c-.15,0-.27,0-.27-.08s.12-.08.27-.08S535.59,54.68,535.59,54.72Z"/><path class="cls-3" d="M536.68,54.72a.54.54,0,0,1-.27.08c-.15,0-.27,0-.27-.08s.12-.08.27-.08S536.68,54.68,536.68,54.72Z"/><path class="cls-3" d="M537.78,54.72a.55.55,0,0,1-.28.08c-.16,0-.27,0-.27-.08s.12-.08.27-.08S537.78,54.68,537.78,54.72Z"/><path class="cls-3" d="M538.87,54.72a.54.54,0,0,1-.27.08c-.15,0-.27,0-.27-.08s.12-.08.27-.08S538.87,54.68,538.87,54.72Z"/><path class="cls-3" d="M540,54.72a.54.54,0,0,1-.27.08c-.15,0-.28,0-.28-.08s.12-.08.28-.08S540,54.68,540,54.72Z"/><path class="cls-3" d="M541.07,54.72a.6.6,0,0,1-.28.08c-.15,0-.27,0-.27-.08s.12-.08.27-.08S541.07,54.68,541.07,54.72Z"/><path class="cls-3" d="M542.16,54.72a.54.54,0,0,1-.27.08c-.15,0-.28,0-.28-.08s.13-.08.28-.08S542.16,54.68,542.16,54.72Z"/><path class="cls-3" d="M543,55a.68.68,0,0,1-.07-.29c.15.15,0,0,.07.08h-.2c-.06,0-.09,0-.09,0s0,0,.09,0h.2l.08.08A.51.51,0,0,1,543,55Z"/><path class="cls-3" d="M543,56.19a.68.68,0,0,1-.07-.29c0-.16,0-.3.07-.3s.08.14.08.3A.61.61,0,0,1,543,56.19Z"/><path class="cls-3" d="M543,57.38a.75.75,0,0,1-.07-.3c0-.16,0-.29.07-.29s.08.13.08.29A.68.68,0,0,1,543,57.38Z"/><path class="cls-3" d="M543,58.56a.75.75,0,0,1-.07-.3c0-.16,0-.29.07-.29s.08.13.08.29A.68.68,0,0,1,543,58.56Z"/><path class="cls-3" d="M543,59.74a.7.7,0,0,1-.07-.3c0-.17,0-.29.07-.29s.08.13.08.29A.68.68,0,0,1,543,59.74Z"/><path class="cls-3" d="M543,60.92a.7.7,0,0,1-.07-.3c0-.17,0-.29.07-.29s.08.13.08.29A.68.68,0,0,1,543,60.92Z"/><path class="cls-3" d="M543,62.1a.7.7,0,0,1-.07-.3c0-.17,0-.29.07-.29s.08.13.08.29A.68.68,0,0,1,543,62.1Z"/><rect class="cls-3" x="533.99" y="62.77" width="0.42" height="0.42"/><rect class="cls-3" x="533.99" y="54.51" width="0.42" height="0.42"/><rect class="cls-3" x="542.79" y="54.51" width="0.42" height="0.42"/><rect class="cls-3" x="542.79" y="62.56" width="0.42" height="0.42"/><rect class="cls-3" x="538.18" y="62.77" width="0.42" height="0.42"/><rect class="cls-3" x="538.39" y="54.51" width="0.42" height="0.42"/><rect class="cls-3" x="533.99" y="58.85" width="0.42" height="0.42"/><rect class="cls-3" x="542.58" y="58.64" width="0.42" height="0.42"/><path class="cls-2" d="M587.36,25.35V9.18l.06.06h-19.9l.07-.07V25.34l-.06-.06h0V9.11h20V25.05A.75.75,0,0,0,587.36,25.35Z"/><path class="cls-2" d="M587.52,11.58s-4.48.07-10,.07-10,0-10-.07,4.48-.07,10-.07S587.52,11.54,587.52,11.58Z"/><path class="cls-2" d="M569.14,10.4a.27.27,0,1,1-.27-.27.27.27,0,0,1,.27.27Z"/><path class="cls-2" d="M570.11,10.4a.27.27,0,1,1-.27-.27h0A.27.27,0,0,1,570.11,10.4Z"/><path class="cls-2" d="M571.09,10.4a.27.27,0,1,1-.27-.27.27.27,0,0,1,.27.27Z"/><path class="cls-3" d="M572.14,20V16.27h1.75a1.21,1.21,0,1,1,0,2.41h-.95V20Zm2.19-2.53a.51.51,0,0,0-.55-.51h-.84v1h.84A.5.5,0,0,0,574.33,17.48Z"/><path class="cls-3" d="M578.2,20V18.44h-1.76V20h-.8V16.27h.8v1.47h1.76V16.27h.8V20Z"/><path class="cls-3" d="M579.73,20V16.27h1.75a1.21,1.21,0,1,1,0,2.41h-1V20Zm2.19-2.53a.51.51,0,0,0-.55-.51h-.84v1h.84A.5.5,0,0,0,581.92,17.48Z"/><rect class="cls-2" x="599.05" y="83.69" width="20.18" height="16.19"/><path class="cls-4" d="M619.41,86.09s-2.59.1-8.92.1-11.45,0-11.45-.1,5.13-.1,11.45-.1S619.41,86,619.41,86.09Z"/><path class="cls-5" d="M600.9,84.91a.28.28,0,0,1-.3.26h0a.27.27,0,1,1-.1-.53.17.17,0,0,1,.1,0,.28.28,0,0,1,.3.26Z"/><path class="cls-5" d="M602,84.91a.29.29,0,0,1-.31.26.27.27,0,1,1-.1-.53.17.17,0,0,1,.1,0,.29.29,0,0,1,.31.27Z"/><path class="cls-5" d="M603.13,84.91a.28.28,0,0,1-.3.26h0a.27.27,0,1,1-.1-.53.17.17,0,0,1,.1,0,.28.28,0,0,1,.3.26Z"/><path class="cls-5" d="M612,95.24a1.72,1.72,0,0,1,.2-.23l.58-.58,2-1.9h0v.09c-.78-.72-1.47-1.37-2-1.85l-.59-.58c-.13-.13-.21-.21-.2-.22s.09.06.24.19l.61.54c.52.46,1.22,1.1,2,1.82h0l-2,1.87-.61.55C612.11,95.18,612,95.25,612,95.24Z"/><path class="cls-5" d="M606,90a1.51,1.51,0,0,1-.21.23l-.58.58c-.49.49-1.18,1.16-2,1.9h0v-.09c.77.72,1.47,1.37,2,1.85l.58.58a1.45,1.45,0,0,1,.21.22,2.71,2.71,0,0,1-.24-.19l-.62-.54-2-1.83h-.06l2-1.87.61-.55Z"/><path class="cls-5" d="M607.57,96.48s.59-1.78,1.4-3.94,1.5-3.91,1.53-3.9-.59,1.78-1.4,4A40.86,40.86,0,0,1,607.57,96.48Z"/><path class="cls-3" d="M598.48,37.61c0-.77.4-1.23,1-1.23s1,.46,1,1.23-.41,1.22-1,1.22S598.48,38.37,598.48,37.61Zm1.67,0c0-.65-.29-1-.71-1s-.71.35-.71,1,.29,1,.71,1,.71-.36.71-1Z"/><path class="cls-3" d="M600.75,37.61c0-.77.41-1.23,1-1.23s1,.46,1,1.23-.41,1.22-1,1.22S600.75,38.37,600.75,37.61Zm1.67,0c0-.65-.29-1-.71-1s-.7.35-.7,1,.28,1,.7,1S602.42,38.25,602.42,37.61Z"/><path class="cls-3" d="M603.69,36.4v2.41h-.25V36.62h-.56V36.4Z"/><path class="cls-3" d="M604.27,37.61c0-.77.4-1.23,1-1.23s1,.46,1,1.23-.41,1.22-1,1.22S604.27,38.37,604.27,37.61Zm1.67,0c0-.65-.29-1-.71-1s-.71.35-.71,1,.29,1,.71,1S605.94,38.25,605.94,37.61Z"/><path class="cls-3" d="M607.2,36.4v2.41H607V36.62h-.57V36.4Z"/><path class="cls-3" d="M596.11,41c0-.76.4-1.22,1-1.22s1,.46,1,1.22-.41,1.23-1,1.23S596.11,41.79,596.11,41Zm1.66,0c0-.64-.28-1-.7-1s-.71.35-.71,1,.29,1,.71,1,.7-.33.7-1Z"/><path class="cls-3" d="M598.38,41c0-.76.41-1.22,1-1.22s1,.46,1,1.22-.41,1.23-1,1.23S598.38,41.79,598.38,41Zm1.67,0c0-.64-.29-1-.71-1s-.71.35-.71,1,.29,1,.71,1S600.05,41.67,600.05,41Z"/><path class="cls-3" d="M601.32,39.82v2.41h-.25V40h-.56v-.22Z"/><path class="cls-3" d="M601.9,41c0-.76.4-1.22,1-1.22s1,.46,1,1.22-.41,1.23-1,1.23S601.9,41.79,601.9,41Zm1.66,0c0-.64-.28-1-.7-1s-.71.35-.71,1,.29,1,.71,1S603.56,41.67,603.56,41Z"/><path class="cls-3" d="M604.83,39.82v2.41h-.24V40H604v-.22Z"/><path class="cls-3" d="M606.08,39.82v2.41h-.25V40h-.57v-.22Z"/><path class="cls-3" d="M606.65,41c0-.76.4-1.22,1-1.22s1,.46,1,1.22-.4,1.23-1,1.23S606.65,41.79,606.65,41Zm1.67,0c0-.64-.29-1-.71-1s-.71.35-.71,1,.29,1,.71,1S608.32,41.67,608.32,41Z"/><path class="cls-3" d="M609.59,39.82v2.41h-.25V40h-.57v-.22Z"/><path class="cls-3" d="M598.48,44.33c0-.77.4-1.23,1-1.23s1,.46,1,1.23-.41,1.22-1,1.22S598.48,45.1,598.48,44.33Zm1.67,0c0-.65-.29-1-.71-1s-.71.35-.71,1,.29,1,.71,1,.71-.33.71-1Z"/><path class="cls-3" d="M601.42,43.12v2.41h-.25V43.34h-.57v-.22Z"/><path class="cls-3" d="M602.66,43.12v2.41h-.25V43.34h-.57v-.22Z"/><path class="cls-3" d="M603.9,43.12v2.41h-.25V43.34h-.57v-.22Z"/><path class="cls-3" d="M604.47,44.33c0-.77.41-1.23,1-1.23s1,.46,1,1.23-.41,1.22-1,1.22S604.47,45.1,604.47,44.33Zm1.67,0c0-.65-.29-1-.71-1s-.7.35-.7,1,.28,1,.7,1,.71-.33.71-1Z"/><path class="cls-3" d="M607.41,43.12v2.41h-.25V43.34h-.56v-.22Z"/><path class="cls-6" d="M607.72,12.4h1l.42.06.48.07.55.14a9.13,9.13,0,0,1,1.25.41l.68.32c.23.12.46.27.7.41a9.27,9.27,0,0,1,4.28,7,9,9,0,0,1,0,1.27v.65l-.1.66a9.2,9.2,0,0,1-.87,2.59,9.87,9.87,0,0,1-1.68,2.33A10,10,0,0,1,612,30.09a6.29,6.29,0,0,1-.7.32l-.73.27-.75.2c-.26.07-.52.09-.78.14l-.39.05h-1.2a9.49,9.49,0,0,1-4.2-1.14h.07l-3.12,1.49-.15.07v-.16l.65-3.45V28a9.44,9.44,0,0,1-2.21-8.1,9.23,9.23,0,0,1,1.4-3.38,9.51,9.51,0,0,1,2.16-2.27,10.45,10.45,0,0,1,1.13-.74c.19-.11.38-.19.56-.28a4.93,4.93,0,0,1,.53-.22,6.85,6.85,0,0,1,1-.32,6.11,6.11,0,0,1,.85-.18l.68-.1h0l-.67.11a6.34,6.34,0,0,0-.84.19,9,9,0,0,0-1,.33,3.43,3.43,0,0,0-.52.23c-.18.09-.37.17-.55.27a9.89,9.89,0,0,0-3.24,3,9.23,9.23,0,0,0-1.37,3.34,9.54,9.54,0,0,0,.12,4.05,9.23,9.23,0,0,0,2.08,3.9h0c-.21,1.11-.43,2.27-.65,3.45l-.11-.09,3.12-1.49h0A9.29,9.29,0,0,0,607.42,31h1.18l.39-.06a6.35,6.35,0,0,0,.76-.13l.75-.2.71-.26c.24-.09.46-.21.69-.32a9.26,9.26,0,0,0,4.87-6.55l.1-.64V22.2a8.83,8.83,0,0,0,0-1.26A9.25,9.25,0,0,0,612.68,14c-.24-.14-.46-.29-.69-.41l-.67-.33a9,9,0,0,0-1.24-.42l-.54-.14-.48-.08-.41-.07h-.82Z"/><path class="cls-3" d="M610.17,24.08a2.28,2.28,0,0,1,.16-.19l.48-.47c.4-.41,1-1,1.6-1.55v.06c-.63-.59-1.2-1.12-1.61-1.52l-.48-.46c-.11-.12-.17-.18-.16-.19l.19.15.5.45c.43.38,1,.9,1.64,1.49h0c-.63.6-1.2,1.14-1.62,1.52l-.5.46A1.22,1.22,0,0,1,610.17,24.08Z"/><path class="cls-3" d="M610.16,24.16h0s0-.1.16-.29l.48-.48c.4-.4.94-.91,1.51-1.47-.57-.53-1.1-1-1.5-1.42l-.48-.47c-.19-.19-.23-.23-.17-.29s.1,0,.3.14l.51.45c.44.39,1,.92,1.63,1.49h0a.06.06,0,0,1,0,.06v.06h-.05c-.61.59-1.19,1.13-1.64,1.54l-.5.45C610.27,24.11,610.21,24.16,610.16,24.16Z"/><path class="cls-3" d="M605.27,19.76s0,.07-.16.19l-.48.48c-.4.4-1,.95-1.6,1.55h0V21.9l1.61,1.52.48.47c.11.11.17.17.16.18a.9.9,0,0,1-.19-.15l-.51-.44L602.94,22h0c.62-.6,1.2-1.14,1.62-1.53l.5-.45Z"/><path class="cls-3" d="M605.28,24.16A1.18,1.18,0,0,1,605,24l-.51-.44-1.63-1.5h0a.09.09,0,0,1,0-.12h0l1.63-1.54.5-.45c.21-.18.25-.22.31-.15s0,.1-.16.29l-.48.48c-.4.4-.94.92-1.51,1.47.57.53,1.1,1,1.5,1.42l.48.47c.19.19.23.23.17.29S605.3,24.16,605.28,24.16Z"/><path class="cls-3" d="M606.53,25.1s.48-1.46,1.15-3.23,1.22-3.19,1.25-3.18-.49,1.45-1.15,3.22S606.56,25.11,606.53,25.1Z"/><path class="cls-3" d="M606.54,25.18h0c-.09,0-.13-.05,1.1-3.33a23.13,23.13,0,0,1,1.29-3.23H609c.1,0,.13.05-1.1,3.33-.32.86-.62,1.66-.86,2.26C606.66,25.05,606.6,25.18,606.54,25.18Z"/><rect class="cls-7" x="627.85" y="53.51" width="27.51" height="11.18"/><path class="cls-7" d="M655.36,64.68V53.51H627.85V64.68h-.05V53.46h27.56V64.68Z"/><rect class="cls-3" x="630.18" y="56.07" width="6.65" height="6.65"/><path class="cls-3" d="M653.46,58.61h-7.64C650,58.61,653.46,58.59,653.46,58.61Z"/><path class="cls-3" d="M653.46,60h-7.64C650,60,653.46,59.94,653.46,60Z"/><rect class="cls-4" x="618.7" y="30.96" width="29.03" height="19.15"/><path class="cls-8" d="M647.73,50.11V31l.07.06h-29l.08-.08V50.1l-.18-.1h-.13V30.87h29.14v19.3Z"/><path class="cls-8" d="M647.86,32.91c0,.05-6.48.08-14.48.08s-14.48,0-14.48-.08,6.48-.08,14.48-.08S647.86,32.86,647.86,32.91Z"/><rect class="cls-3" x="621.22" y="35.67" width="9.25" height="12.19"/><path class="cls-3" d="M645.2,36.24s-2.9.08-6.48.08-6.49,0-6.49-.08,2.91-.09,6.49-.09S645.2,36.19,645.2,36.24Z"/><path class="cls-3" d="M645.2,37.76c0,.05-2.9.09-6.48.09s-6.49,0-6.49-.09,2.91-.08,6.49-.08S645.2,37.72,645.2,37.76Z"/><path class="cls-3" d="M645.2,39.29s-2.9.08-6.48.08-6.49,0-6.49-.08,2.91-.08,6.49-.08S645.2,39.24,645.2,39.29Z"/><path class="cls-3" d="M645.2,40.81s-2.9.09-6.48.09-6.49,0-6.49-.09,2.91-.08,6.49-.08S645.2,40.77,645.2,40.81Z"/><rect class="cls-3" x="639.59" y="42.08" width="5.21" height="5.78"/><path class="cls-3" d="M638.73,42.34a30.43,30.43,0,0,1-3.17.08,30.31,30.31,0,0,1-3.16-.08,60.75,60.75,0,0,1,6.33,0Z"/><path class="cls-3" d="M638.73,43.87s-1.42.08-3.17.08a22.23,22.23,0,0,1-3.16-.08,55.7,55.7,0,0,1,6.33,0Z"/><path class="cls-3" d="M638.73,45.63a55.7,55.7,0,0,1-6.33,0s1.41-.08,3.16-.08S638.73,45.59,638.73,45.63Z"/><path class="cls-3" d="M638.57,47.44s-1.42.08-3.17.08a22.42,22.42,0,0,1-3.17-.08,60.94,60.94,0,0,1,6.34,0Z"/><path class="cls-3" d="M572.15,40.89V34.41l.06.06h-8.09l.07-.07h0v6.47l-.06-.06H564V34.42h0c-.06.07.09-.09.08-.07h8.15v6.43A.3.3,0,0,0,572.15,40.89Z"/><path class="cls-3" d="M571.11,38.53a3.5,3.5,0,0,1-.5-.44l-1.27-1.2h.1l-1.29,1.47h0l0,.06h0l-.79-.66h.09c-.7.63-1.31,1.16-1.75,1.54l-.52.44-.2.15a.73.73,0,0,1,.17-.18l.49-.47c.42-.4,1-1,1.71-1.58h0l.79.66H568v-.06l1.3-1.46h0c.51.5.94.93,1.23,1.23A3.93,3.93,0,0,1,571.11,38.53Z"/><path class="cls-3" d="M566.87,36.3l-.12-.12a.8.8,0,0,0-.41-.18.71.71,0,0,0-.59.24.68.68,0,0,0-.06.74.67.67,0,0,0,.68.32.61.61,0,0,0,.5-.83V36.3s.06.05.1.16a.72.72,0,0,1,0,.5.78.78,0,0,1-.57.47.8.8,0,0,1-.82-.37.77.77,0,0,1,.26-1.06.78.78,0,0,1,.52-.1.69.69,0,0,1,.44.24C566.86,36.23,566.88,36.3,566.87,36.3Z"/><path class="cls-3" d="M563.12,39.13,563,39a.64.64,0,0,0-.41-.18.68.68,0,0,0-.58.24.63.63,0,0,0-.06.74.67.67,0,0,0,.67.32.69.69,0,0,0,.5-.39.66.66,0,0,0,0-.44v-.17l.09.15a.72.72,0,0,1,0,.5.75.75,0,0,1-.57.48A.82.82,0,1,1,563,39,.37.37,0,0,1,563.12,39.13Z"/><path class="cls-3" d="M568.1,41.18v2h-7.7V37.1h.11v6l-.08-.08h7.63V41.11Z"/><path class="cls-3" d="M563.62,40.5a10.24,10.24,0,0,1-1.17,1.11,10.64,10.64,0,0,1-1.22,1,7.23,7.23,0,0,1,1.13-1.15A6.56,6.56,0,0,1,563.62,40.5Z"/><path class="cls-3" d="M565.26,42.12a1.54,1.54,0,0,1-.46-.34c-.21-.23-.32-.48-.29-.5s.2.17.4.4S565.28,42.09,565.26,42.12Z"/><path class="cls-3" d="M574.76,46.8V30.33l.06.05H547.17l.07-.07V46.8l-.07-.07H547V30.23h27.78V46.49C574.76,46.7,574.76,46.8,574.76,46.8Z"/><rect class="cls-3" x="549.35" y="34.17" width="8.42" height="0.61"/><path class="cls-3" d="M557.43,37.21s-1.84.08-4.1.08a37.76,37.76,0,0,1-4.11-.08,39.37,39.37,0,0,1,4.11-.07C555.6,37.14,557.43,37.17,557.43,37.21Z"/><path class="cls-3" d="M557.43,38.58s-1.84.07-4.1.07-4.11,0-4.11-.07a40.92,40.92,0,0,1,4.11-.08C555.6,38.5,557.43,38.54,557.43,38.58Z"/><path class="cls-3" d="M557.43,39.94s-1.84.07-4.1.07-4.11,0-4.11-.07,1.84-.07,4.11-.07S557.43,39.9,557.43,39.94Z"/><path class="cls-3" d="M557.43,41.31s-1.84.07-4.1.07-4.11,0-4.11-.07a40.92,40.92,0,0,1,4.11-.08C555.6,41.23,557.43,41.26,557.43,41.31Z"/><path class="cls-3" d="M552.92,42.64a20.78,20.78,0,0,1-3.7,0A25.39,25.39,0,0,1,552.92,42.64Z"/><path class="cls-3" d="M634.1,72.73h-8C630.51,72.73,634.1,72.71,634.1,72.73Z"/><path class="cls-3" d="M634.1,74.15h-8C630.51,74.15,634.1,74.13,634.1,74.15Z"/><path class="cls-3" d="M635.59,79.28a.58.58,0,0,1,.26-.07c.14,0,.26,0,.26.07s-.12.07-.26.07S635.59,79.32,635.59,79.28Z"/><path class="cls-3" d="M634.56,79.28a.58.58,0,0,1,.26-.07c.14,0,.26,0,.26.07s-.12.07-.26.07S634.56,79.32,634.56,79.28Z"/><path class="cls-3" d="M633.53,79.28a.58.58,0,0,1,.26-.07c.14,0,.26,0,.26.07s-.12.07-.26.07S633.53,79.32,633.53,79.28Z"/><path class="cls-3" d="M632.5,79.28a.58.58,0,0,1,.26-.07c.14,0,.26,0,.26.07s-.12.07-.26.07S632.5,79.32,632.5,79.28Z"/><path class="cls-3" d="M631.47,79.28a.58.58,0,0,1,.26-.07c.14,0,.26,0,.26.07s-.12.07-.26.07S631.47,79.32,631.47,79.28Z"/><path class="cls-3" d="M630.44,79.28a.58.58,0,0,1,.26-.07c.14,0,.26,0,.26.07s-.12.07-.26.07S630.44,79.32,630.44,79.28Z"/><path class="cls-3" d="M629.41,79.28a.58.58,0,0,1,.26-.07c.14,0,.26,0,.26.07s-.12.07-.26.07S629.41,79.32,629.41,79.28Z"/><path class="cls-3" d="M628.38,79.28a.58.58,0,0,1,.26-.07c.14,0,.26,0,.26.07s-.12.07-.26.07S628.38,79.32,628.38,79.28Z"/><path class="cls-3" d="M627.35,79.28a.53.53,0,0,1,.26-.07c.15,0,.25,0,.25.07s-.11.07-.25.07S627.35,79.32,627.35,79.28Z"/><path class="cls-3" d="M626.32,79.28a.53.53,0,0,1,.26-.07c.15,0,.25,0,.25.07s-.11.07-.25.07S626.32,79.32,626.32,79.28Z"/><path class="cls-3" d="M625.29,79.28a.53.53,0,0,1,.26-.07c.15,0,.25,0,.25.07s-.11.07-.25.07S625.29,79.32,625.29,79.28Z"/><path class="cls-3" d="M624.26,79.28a.53.53,0,0,1,.26-.07c.15,0,.25,0,.25.07s-.11.07-.25.07S624.26,79.32,624.26,79.28Z"/><path class="cls-3" d="M623.23,79.28a.53.53,0,0,1,.26-.07c.15,0,.25,0,.25.07s-.11.07-.25.07S623.23,79.32,623.23,79.28Z"/><path class="cls-3" d="M622.2,79.28a.53.53,0,0,1,.26-.07c.15,0,.25,0,.25.07s-.11.07-.25.07S622.2,79.32,622.2,79.28Z"/><path class="cls-3" d="M621.17,79.28a.51.51,0,0,1,.25-.07c.14,0,.26,0,.26.07s-.11.07-.26.07S621.17,79.32,621.17,79.28Z"/><path class="cls-3" d="M620.14,79.28a.51.51,0,0,1,.25-.07c.14,0,.26,0,.26.07s-.11.07-.26.07S620.14,79.32,620.14,79.28Z"/><path class="cls-3" d="M619.11,79.28a.51.51,0,0,1,.25-.07c.14,0,.26,0,.26.07s-.11.07-.26.07S619.11,79.32,619.11,79.28Z"/><path class="cls-3" d="M618.08,79.28a.51.51,0,0,1,.25-.07c.14,0,.26,0,.26.07s-.11.07-.26.07S618.08,79.32,618.08,79.28Z"/><path class="cls-3" d="M617.05,79.28a.51.51,0,0,1,.25-.07c.14,0,.26,0,.26.07s-.11.07-.26.07S617.05,79.32,617.05,79.28Z"/><path class="cls-3" d="M616,79.28a.51.51,0,0,1,.25-.07c.14,0,.26,0,.26.07s-.11.07-.26.07S616,79.32,616,79.28Z"/><path class="cls-3" d="M615,79.28a.51.51,0,0,1,.25-.07c.14,0,.26,0,.26.07s-.11.07-.26.07S615,79.32,615,79.28Z"/><path class="cls-3" d="M614,79.28a.58.58,0,0,1,.26-.07c.14,0,.26,0,.26.07s-.12.07-.26.07S614,79.32,614,79.28Z"/><path class="cls-3" d="M612.92,79.28a.58.58,0,0,1,.26-.07c.14,0,.26,0,.26.07s-.12.07-.26.07S612.92,79.32,612.92,79.28Z"/><path class="cls-3" d="M611.89,79.28a.58.58,0,0,1,.26-.07c.14,0,.26,0,.26.07s-.12.07-.26.07S611.89,79.32,611.89,79.28Z"/><path class="cls-3" d="M610.86,79.28a.58.58,0,0,1,.26-.07c.14,0,.26,0,.26.07s-.12.07-.26.07S610.86,79.32,610.86,79.28Z"/><path class="cls-3" d="M609.83,79.28a.58.58,0,0,1,.26-.07c.14,0,.26,0,.26.07s-.12.07-.26.07S609.83,79.32,609.83,79.28Z"/><path class="cls-3" d="M608.8,79.28a.58.58,0,0,1,.26-.07c.14,0,.26,0,.26.07s-.12.07-.26.07S608.8,79.32,608.8,79.28Z"/><path class="cls-3" d="M607.77,79.28a.58.58,0,0,1,.26-.07c.14,0,.26,0,.26.07s-.12.07-.26.07S607.77,79.32,607.77,79.28Z"/><path class="cls-3" d="M607.21,78.81a.58.58,0,0,1,.07.26.74.74,0,0,1,0,.21h0a.74.74,0,0,1,0-.21C607.14,78.93,607.17,78.81,607.21,78.81Z"/><ellipse class="cls-3" cx="607.21" cy="78.04" rx="0.07" ry="0.26"/><ellipse class="cls-3" cx="607.21" cy="77.01" rx="0.07" ry="0.26"/><ellipse class="cls-3" cx="607.21" cy="75.98" rx="0.07" ry="0.26"/><ellipse class="cls-3" cx="607.21" cy="74.95" rx="0.07" ry="0.26"/><ellipse class="cls-3" cx="607.21" cy="73.92" rx="0.07" ry="0.26"/><ellipse class="cls-3" cx="607.21" cy="72.89" rx="0.07" ry="0.26"/><path class="cls-3" d="M607.21,71.6a.53.53,0,0,1,.07.26c0,.15,0,.25-.07.25s-.07-.11-.07-.25S607.17,71.6,607.21,71.6Z"/><ellipse class="cls-3" cx="607.21" cy="70.83" rx="0.07" ry="0.26"/><ellipse class="cls-3" cx="607.21" cy="69.8" rx="0.07" ry="0.26"/><ellipse class="cls-3" cx="607.21" cy="68.77" rx="0.07" ry="0.26"/><path class="cls-3" d="M607.44,67.7a.58.58,0,0,1-.23.07l.07-.07h0c0,.15,0,.26-.07.26s-.07-.11-.07-.26v-.1h.06C607.34,67.64,607.44,67.67,607.44,67.7Z"/><path class="cls-3" d="M608.47,67.7a.58.58,0,0,1-.26.07c-.14,0-.26,0-.26-.07s.12-.07.26-.07S608.47,67.66,608.47,67.7Z"/><path class="cls-3" d="M609.5,67.7a.58.58,0,0,1-.26.07c-.14,0-.26,0-.26-.07s.12-.07.26-.07S609.5,67.66,609.5,67.7Z"/><path class="cls-3" d="M610.53,67.7a.58.58,0,0,1-.26.07c-.14,0-.26,0-.26-.07s.12-.07.26-.07S610.53,67.66,610.53,67.7Z"/><path class="cls-3" d="M611.56,67.7a.58.58,0,0,1-.26.07c-.14,0-.26,0-.26-.07s.12-.07.26-.07S611.56,67.66,611.56,67.7Z"/><path class="cls-3" d="M612.59,67.7a.58.58,0,0,1-.26.07c-.14,0-.26,0-.26-.07s.12-.07.26-.07S612.59,67.66,612.59,67.7Z"/><path class="cls-3" d="M613.62,67.7a.58.58,0,0,1-.26.07c-.14,0-.26,0-.26-.07s.12-.07.26-.07S613.62,67.66,613.62,67.7Z"/><path class="cls-3" d="M614.65,67.7a.58.58,0,0,1-.26.07c-.14,0-.26,0-.26-.07s.12-.07.26-.07S614.65,67.66,614.65,67.7Z"/><path class="cls-3" d="M615.68,67.7a.58.58,0,0,1-.26.07c-.14,0-.26,0-.26-.07s.12-.07.26-.07S615.68,67.66,615.68,67.7Z"/><path class="cls-3" d="M616.71,67.7a.58.58,0,0,1-.26.07c-.14,0-.26,0-.26-.07s.12-.07.26-.07S616.71,67.66,616.71,67.7Z"/><path class="cls-3" d="M617.74,67.7a.58.58,0,0,1-.26.07c-.14,0-.26,0-.26-.07s.12-.07.26-.07S617.74,67.66,617.74,67.7Z"/><path class="cls-3" d="M618.77,67.7a.58.58,0,0,1-.26.07c-.14,0-.25,0-.25-.07s.11-.07.25-.07S618.77,67.66,618.77,67.7Z"/><path class="cls-3" d="M619.8,67.7a.53.53,0,0,1-.26.07c-.15,0-.25,0-.25-.07s.11-.07.25-.07S619.8,67.66,619.8,67.7Z"/><path class="cls-3" d="M620.83,67.7a.53.53,0,0,1-.26.07c-.15,0-.25,0-.25-.07s.11-.07.25-.07S620.83,67.66,620.83,67.7Z"/><path class="cls-3" d="M621.86,67.7a.53.53,0,0,1-.26.07c-.15,0-.25,0-.25-.07s.11-.07.25-.07S621.86,67.66,621.86,67.7Z"/><path class="cls-3" d="M622.89,67.7a.53.53,0,0,1-.26.07c-.15,0-.25,0-.25-.07s.11-.07.25-.07S622.89,67.66,622.89,67.7Z"/><path class="cls-3" d="M623.92,67.7a.53.53,0,0,1-.26.07c-.15,0-.25,0-.25-.07s.11-.07.25-.07S623.92,67.66,623.92,67.7Z"/><path class="cls-3" d="M625,67.7a.53.53,0,0,1-.26.07c-.15,0-.25,0-.25-.07s.11-.07.25-.07S625,67.66,625,67.7Z"/><path class="cls-3" d="M626,67.7a.51.51,0,0,1-.25.07c-.14,0-.26,0-.26-.07s.11-.07.26-.07S626,67.66,626,67.7Z"/><path class="cls-3" d="M627,67.7a.51.51,0,0,1-.25.07c-.14,0-.26,0-.26-.07s.11-.07.26-.07S627,67.66,627,67.7Z"/><path class="cls-3" d="M628,67.7a.51.51,0,0,1-.25.07c-.14,0-.26,0-.26-.07s.11-.07.26-.07S628,67.66,628,67.7Z"/><path class="cls-3" d="M629.07,67.7a.51.51,0,0,1-.25.07c-.14,0-.26,0-.26-.07s.11-.07.26-.07S629.07,67.66,629.07,67.7Z"/><path class="cls-3" d="M630.1,67.7a.51.51,0,0,1-.25.07c-.14,0-.26,0-.26-.07s.11-.07.26-.07S630.1,67.66,630.1,67.7Z"/><path class="cls-3" d="M631.13,67.7a.51.51,0,0,1-.25.07c-.14,0-.26,0-.26-.07s.11-.07.26-.07S631.13,67.66,631.13,67.7Z"/><path class="cls-3" d="M632.16,67.7a.51.51,0,0,1-.25.07c-.14,0-.26,0-.26-.07s.11-.07.26-.07S632.16,67.66,632.16,67.7Z"/><path class="cls-3" d="M633.2,67.7a.58.58,0,0,1-.26.07c-.14,0-.26,0-.26-.07s.12-.07.26-.07S633.2,67.66,633.2,67.7Z"/><path class="cls-3" d="M634.23,67.7a.58.58,0,0,1-.26.07c-.14,0-.26,0-.26-.07s.12-.07.26-.07S634.23,67.66,634.23,67.7Z"/><path class="cls-3" d="M635.26,67.7a.58.58,0,0,1-.26.07c-.14,0-.26,0-.26-.07s.12-.07.26-.07S635.26,67.66,635.26,67.7Z"/><path class="cls-3" d="M636.11,67.88a.35.35,0,0,1-.07-.18l.07.07H636c-.14,0-.26,0-.26-.07s.12-.07.26-.07h.15v.06C636.16,67.81,636.14,67.88,636.11,67.88Z"/><path class="cls-3" d="M636.11,68.91a.53.53,0,0,1-.07-.26c0-.15,0-.25.07-.25s.06.11.06.25S636.14,68.91,636.11,68.91Z"/><path class="cls-3" d="M636.11,69.94a.53.53,0,0,1-.07-.26c0-.15,0-.25.07-.25s.06.11.06.25S636.14,69.94,636.11,69.94Z"/><path class="cls-3" d="M636.11,71a.53.53,0,0,1-.07-.26c0-.15,0-.25.07-.25s.06.11.06.25S636.14,71,636.11,71Z"/><path class="cls-3" d="M636.11,72a.53.53,0,0,1-.07-.26c0-.15,0-.25.07-.25s.06.11.06.25S636.14,72,636.11,72Z"/><path class="cls-3" d="M636.11,73a.53.53,0,0,1-.07-.26c0-.15,0-.25.07-.25s.06.11.06.25S636.14,73,636.11,73Z"/><path class="cls-3" d="M636.11,74.06a.28.28,0,0,1-.11-.26c0-.2,0-.25.07-.25s.06.11.06.25S636.14,74.06,636.11,74.06Z"/><path class="cls-3" d="M636.11,75.09a.34.34,0,0,1-.11-.25c0-.16,0-.26.07-.26s.06.11.06.26S636.14,75.09,636.11,75.09Z"/><path class="cls-3" d="M636.11,76.12a.44.44,0,0,1-.11-.25c0-.13,0-.26.07-.26s.06.11.06.26S636.14,76.12,636.11,76.12Z"/><path class="cls-3" d="M636.11,77.15a.59.59,0,0,1-.11-.25c0-.1,0-.26.07-.26s.06.11.06.26S636.14,77.15,636.11,77.15Z"/><path class="cls-3" d="M636.11,78.18a.51.51,0,0,1-.07-.25c0-.14,0-.26.07-.26s.06.11.06.26S636.14,78.18,636.11,78.18Z"/><path class="cls-3" d="M636.11,79.21A.38.38,0,0,1,636,79c0-.1,0-.26.07-.26s.06.11.06.26S636.14,79.21,636.11,79.21Z"/><path class="cls-3" d="M616.76,77.24a.65.65,0,0,1,.26-.06c-.13.13,0,0-.07.06h0V77l0,.07c0,.07,0,0,0,.08v.08h0l-.07.07S616.76,77.28,616.76,77.24Z"/><path class="cls-3" d="M615.8,77.24a.56.56,0,0,1,.24-.06c.13,0,.24,0,.24.06s-.11.07-.24.07S615.8,77.28,615.8,77.24Z"/><path class="cls-3" d="M614.84,77.24a.56.56,0,0,1,.24-.06c.13,0,.24,0,.24.06s-.11.07-.24.07S614.84,77.28,614.84,77.24Z"/><path class="cls-3" d="M613.88,77.24a.51.51,0,0,1,.24-.06c.14,0,.24,0,.24.06s-.11.07-.24.07S613.88,77.28,613.88,77.24Z"/><path class="cls-3" d="M612.91,77.24a.58.58,0,0,1,.25-.06c.14,0,.24,0,.24.06s-.11.07-.24.07S612.91,77.28,612.91,77.24Z"/><path class="cls-3" d="M612,77.24a.56.56,0,0,1,.24-.06c.13,0,.24,0,.24.06s-.1.07-.24.07S612,77.28,612,77.24Z"/><path class="cls-3" d="M611,77.24a.56.56,0,0,1,.24-.06c.13,0,.24,0,.24.06s-.11.07-.24.07S611,77.28,611,77.24Z"/><path class="cls-3" d="M610,77.24a.56.56,0,0,1,.24-.06c.13,0,.24,0,.24.06s-.11.07-.24.07S610,77.28,610,77.24Z"/><path class="cls-3" d="M609.29,77a.51.51,0,0,1,.07.25c-.14-.13,0,0-.07-.06h.26l-.08,0h-.18l-.07-.07C609.22,77.1,609.25,77,609.29,77Z"/><path class="cls-3" d="M609.29,76a.58.58,0,0,1,.07.26c0,.14,0,.26-.07.26s-.07-.12-.07-.26S609.25,76,609.29,76Z"/><path class="cls-3" d="M609.29,74.91a.58.58,0,0,1,.07.26c0,.14,0,.26-.07.26s-.07-.11-.07-.26S609.25,74.91,609.29,74.91Z"/><path class="cls-3" d="M609.29,73.88a.51.51,0,0,1,.07.25c0,.14,0,.26-.07.26s-.07-.11-.07-.26S609.25,73.88,609.29,73.88Z"/><path class="cls-3" d="M609.29,72.84a.53.53,0,0,1,.07.26c0,.15,0,.26-.07.26s-.07-.12-.07-.26S609.25,72.84,609.29,72.84Z"/><path class="cls-3" d="M609.29,71.8a.58.58,0,0,1,.07.26c0,.14,0,.26-.07.26s-.07-.12-.07-.26S609.25,71.8,609.29,71.8Z"/><path class="cls-3" d="M609.29,70.76a.58.58,0,0,1,.07.26c0,.14,0,.26-.07.26s-.07-.11-.07-.26S609.25,70.76,609.29,70.76Z"/><path class="cls-3" d="M609.55,70a.58.58,0,0,1-.26.07c.13-.14,0,0,.07-.07h0v.16s0,.08-.05.08,0,0,0-.08V70h0l.07-.07S609.55,70,609.55,70Z"/><path class="cls-3" d="M610.51,70a.5.5,0,0,1-.24.07A.71.71,0,0,1,610,70a.5.5,0,0,1,.24-.07A.71.71,0,0,1,610.51,70Z"/><path class="cls-3" d="M611.47,70a.5.5,0,0,1-.24.07A.44.44,0,0,1,611,70a.5.5,0,0,1,.24-.07A.44.44,0,0,1,611.47,70Z"/><path class="cls-3" d="M612.43,70a.46.46,0,0,1-.24.07A.23.23,0,0,1,612,70a.5.5,0,0,1,.24-.07A.25.25,0,0,1,612.43,70Z"/><path class="cls-3" d="M613.4,70a.5.5,0,0,1-.24.07c-.13,0-.25,0-.25-.07s.11-.07.25-.07A.46.46,0,0,1,613.4,70Z"/><path class="cls-3" d="M614.36,70a.5.5,0,0,1-.24.07c-.13,0-.24,0-.24-.07s.1-.07.24-.07A.46.46,0,0,1,614.36,70Z"/><path class="cls-3" d="M615.32,70a.5.5,0,0,1-.24.07c-.13,0-.24,0-.24-.07s.11-.07.24-.07A.5.5,0,0,1,615.32,70Z"/><path class="cls-3" d="M616.28,70a.5.5,0,0,1-.24.07c-.13,0-.24,0-.24-.07s.11-.07.24-.07A.5.5,0,0,1,616.28,70Z"/><path class="cls-3" d="M617,70.25V70l.07.07h-.18s-.08,0-.08,0,0,0,.08,0H617l.07.07S617.06,70.25,617,70.25Z"/><path class="cls-3" d="M617,71.28V71c0-.17,0-.26.07-.26s.07.12.07.26S617.06,71.28,617,71.28Z"/><path class="cls-3" d="M617,72.32a.58.58,0,0,1-.07-.26c0-.14,0-.26.07-.26s.07.12.07.26S617.06,72.32,617,72.32Z"/><path class="cls-3" d="M617,73.36a.58.58,0,0,1-.07-.26c0-.14,0-.26.07-.26s.07.11.07.26S617.06,73.36,617,73.36Z"/><path class="cls-3" d="M617,74.39a.51.51,0,0,1-.07-.25c0-.14,0-.26.07-.26s.07.11.07.26S617.06,74.39,617,74.39Z"/><path class="cls-3" d="M617,75.43a.53.53,0,0,1-.07-.26c0-.15,0-.26.07-.26s.07.12.07.26S617.06,75.43,617,75.43Z"/><path class="cls-3" d="M617,76.47a.58.58,0,0,1-.07-.26c0-.14,0-.26.07-.26s.07.12.07.26S617.06,76.47,617,76.47Z"/><rect class="cls-3" x="609.11" y="77.06" width="0.37" height="0.37"/><rect class="cls-3" x="609.11" y="69.8" width="0.37" height="0.37"/><rect class="cls-3" x="616.84" y="69.8" width="0.37" height="0.37"/><rect class="cls-3" x="616.84" y="76.88" width="0.37" height="0.37"/><rect class="cls-3" x="612.79" y="77.06" width="0.37" height="0.37"/><rect class="cls-3" x="612.97" y="69.8" width="0.37" height="0.37"/><rect class="cls-3" x="609.11" y="73.62" width="0.37" height="0.37"/><rect class="cls-3" x="616.65" y="73.43" width="0.37" height="0.37"/><path class="cls-2" d="M600.92,62.58h17.9a.72.72,0,0,0,.52-.23L626.06,55a.7.7,0,0,0,.18-.48V41a.71.71,0,0,0-.71-.71H608.4a.7.7,0,0,0-.7.7h0V53.91a.7.7,0,0,1-.22.51l-7.06,6.95a.71.71,0,0,0,0,1A.73.73,0,0,0,600.92,62.58Z"/><rect class="cls-9" x="608.35" y="41.17" width="17.28" height="12.29"/><path class="cls-6" d="M626,54.32s-4,.08-9,.08-9,0-9-.08,4-.08,9-.08S626,54.27,626,54.32Z"/><path class="cls-8" d="M624.29,52.55a2.53,2.53,0,0,1,.55,0h.09a1.85,1.85,0,0,1,0-.47,1.85,1.85,0,0,1,0,.47h-.12A2.26,2.26,0,0,1,624.29,52.55Z"/><path class="cls-8" d="M623,52.55a.86.86,0,0,1,.32,0,.86.86,0,0,1,.32,0,.86.86,0,0,1-.32,0A.86.86,0,0,1,623,52.55Z"/><path class="cls-8" d="M621.75,52.55a.86.86,0,0,1,.32,0,.86.86,0,0,1,.32,0,.86.86,0,0,1-.32,0A.86.86,0,0,1,621.75,52.55Z"/><path class="cls-8" d="M620.48,52.55a.86.86,0,0,1,.32,0,.86.86,0,0,1,.32,0,.86.86,0,0,1-.32,0A.86.86,0,0,1,620.48,52.55Z"/><path class="cls-8" d="M619.21,52.55a.86.86,0,0,1,.32,0,.86.86,0,0,1,.32,0,.86.86,0,0,1-.32,0A.86.86,0,0,1,619.21,52.55Z"/><path class="cls-8" d="M617.94,52.55a.86.86,0,0,1,.32,0,.86.86,0,0,1,.32,0,.86.86,0,0,1-.32,0A.86.86,0,0,1,617.94,52.55Z"/><path class="cls-8" d="M616.67,52.55a.86.86,0,0,1,.32,0,.86.86,0,0,1,.32,0,.86.86,0,0,1-.32,0A.86.86,0,0,1,616.67,52.55Z"/><path class="cls-8" d="M615.4,52.55a.86.86,0,0,1,.32,0,.86.86,0,0,1,.32,0,.86.86,0,0,1-.32,0A.86.86,0,0,1,615.4,52.55Z"/><path class="cls-8" d="M614.13,52.55a.86.86,0,0,1,.32,0,.86.86,0,0,1,.32,0,.86.86,0,0,1-.32,0A.86.86,0,0,1,614.13,52.55Z"/><path class="cls-8" d="M612.86,52.55a.86.86,0,0,1,.32,0,.86.86,0,0,1,.32,0,.86.86,0,0,1-.32,0A.86.86,0,0,1,612.86,52.55Z"/><path class="cls-8" d="M611.59,52.55a.86.86,0,0,1,.32,0,.86.86,0,0,1,.32,0,.86.86,0,0,1-.32,0A.86.86,0,0,1,611.59,52.55Z"/><path class="cls-8" d="M610.32,52.55a.86.86,0,0,1,.32,0,.86.86,0,0,1,.32,0,.86.86,0,0,1-.32,0A.86.86,0,0,1,610.32,52.55Z"/><path class="cls-8" d="M609.05,52.55a.86.86,0,0,1,.32,0,.86.86,0,0,1,.32,0,.86.86,0,0,1-.32,0A.86.86,0,0,1,609.05,52.55Z"/><path class="cls-8" d="M609,51.29a.86.86,0,0,1,0,.32.86.86,0,0,1,0,.32.86.86,0,0,1,0-.32A.86.86,0,0,1,609,51.29Z"/><path class="cls-8" d="M609,50a.86.86,0,0,1,0,.32.86.86,0,0,1,0,.32.86.86,0,0,1,0-.32A.86.86,0,0,1,609,50Z"/><path class="cls-8" d="M609,48.75a.86.86,0,0,1,0,.32.86.86,0,0,1,0,.32.86.86,0,0,1,0-.32A.86.86,0,0,1,609,48.75Z"/><path class="cls-8" d="M609,47.48a.86.86,0,0,1,0,.32.86.86,0,0,1,0,.32.86.86,0,0,1,0-.32A.86.86,0,0,1,609,47.48Z"/><path class="cls-8" d="M609,46.21a.86.86,0,0,1,0,.32.86.86,0,0,1,0,.32.86.86,0,0,1,0-.32A.86.86,0,0,1,609,46.21Z"/><path class="cls-8" d="M609,44.94a.86.86,0,0,1,0,.32.86.86,0,0,1,0,.32.86.86,0,0,1,0-.32A.86.86,0,0,1,609,44.94Z"/><path class="cls-8" d="M610.08,44.71a1.72,1.72,0,0,1-.64,0A1.38,1.38,0,0,1,610.08,44.71Z"/><path class="cls-8" d="M611.35,44.71a1.72,1.72,0,0,1-.64,0A1.38,1.38,0,0,1,611.35,44.71Z"/><path class="cls-8" d="M612.62,44.71a1.72,1.72,0,0,1-.64,0A1.38,1.38,0,0,1,612.62,44.71Z"/><path class="cls-8" d="M613.89,44.71a1.72,1.72,0,0,1-.64,0A1.38,1.38,0,0,1,613.89,44.71Z"/><path class="cls-8" d="M615.16,44.71a1.72,1.72,0,0,1-.64,0A1.38,1.38,0,0,1,615.16,44.71Z"/><path class="cls-8" d="M616.43,44.71a1.72,1.72,0,0,1-.64,0A1.38,1.38,0,0,1,616.43,44.71Z"/><path class="cls-8" d="M617.7,44.71a1.72,1.72,0,0,1-.64,0A1.38,1.38,0,0,1,617.7,44.71Z"/><path class="cls-8" d="M619,44.71a1.72,1.72,0,0,1-.64,0A1.38,1.38,0,0,1,619,44.71Z"/><path class="cls-8" d="M620.24,44.71a1.72,1.72,0,0,1-.64,0A1.38,1.38,0,0,1,620.24,44.71Z"/><path class="cls-8" d="M621.51,44.71a1.72,1.72,0,0,1-.64,0A1.38,1.38,0,0,1,621.51,44.71Z"/><path class="cls-8" d="M622.78,44.71a1.72,1.72,0,0,1-.64,0A1.38,1.38,0,0,1,622.78,44.71Z"/><path class="cls-8" d="M624.05,44.71a1.72,1.72,0,0,1-.64,0A1.38,1.38,0,0,1,624.05,44.71Z"/><path class="cls-8" d="M624.93,45.1a.86.86,0,0,1,0-.32v-.07h0a.53.53,0,0,1-.25,0h.25v.11A1.31,1.31,0,0,1,624.93,45.1Z"/><path class="cls-8" d="M624.93,46.37a.86.86,0,0,1,0-.32.86.86,0,0,1,0-.32.86.86,0,0,1,0,.32A.86.86,0,0,1,624.93,46.37Z"/><path class="cls-8" d="M624.93,47.64a.86.86,0,0,1,0-.32.86.86,0,0,1,0-.32.86.86,0,0,1,0,.32A.86.86,0,0,1,624.93,47.64Z"/><path class="cls-8" d="M624.93,48.91a.86.86,0,0,1,0-.32.86.86,0,0,1,0-.32.86.86,0,0,1,0,.32A.86.86,0,0,1,624.93,48.91Z"/><path class="cls-8" d="M624.93,50.18a.86.86,0,0,1,0-.32.86.86,0,0,1,0-.32.86.86,0,0,1,0,.32A.86.86,0,0,1,624.93,50.18Z"/><path class="cls-8" d="M624.93,51.45a.86.86,0,0,1,0-.32.86.86,0,0,1,0-.32.86.86,0,0,1,0,.32A.86.86,0,0,1,624.93,51.45Z"/><rect class="cls-2" x="609.04" y="41.81" width="15.88" height="2.29"/><polygon class="cls-10" points="620.91 58.95 624.66 54.86 608.52 54.86 604.38 58.82 620.91 58.95"/><polygon class="cls-3" points="568.8 133.32 566.94 140.18 572.97 140.73 574.24 134.2 568.8 133.32"/><path class="cls-3" d="M573.15,140.17a4.41,4.41,0,0,1-.89,0c-.54,0-1.29-.13-2.11-.23l-2.11-.29a4.28,4.28,0,0,1-.87-.15,4.31,4.31,0,0,1,.88,0c.55,0,1.29.13,2.12.23l2.11.28A6.64,6.64,0,0,1,573.15,140.17Z"/><g class="cls-11"><polyline class="cls-3" points="566.94 140.18 572.97 140.73 573.07 140.23 567.11 139.47 566.95 140.11"/></g><path class="cls-8" d="M569.94,139.87a26.2,26.2,0,0,1,.57-2.63,23.05,23.05,0,0,1,.71-2.59,23.69,23.69,0,0,1-.57,2.63A21.24,21.24,0,0,1,569.94,139.87Z"/><path class="cls-8" d="M572.81,140.13a2.77,2.77,0,0,0,0-1.28,2.6,2.6,0,0,0-.66-1.19,2.52,2.52,0,0,0-1.5-.69,2.57,2.57,0,0,0-1.62.36,2.82,2.82,0,0,0-.94,1,3.52,3.52,0,0,0-.38,1.23v-.1a1.13,1.13,0,0,1,0-.26,2.73,2.73,0,0,1,.28-.92,2.91,2.91,0,0,1,1-1.06,2.62,2.62,0,0,1,1.7-.39,2.56,2.56,0,0,1,1.58.73,2.64,2.64,0,0,1,.66,1.27,2.41,2.41,0,0,1,0,1,1,1,0,0,1-.08.25S572.82,140.13,572.81,140.13Z"/><path class="cls-3" d="M593.7,131.48l-.4,6.09s6.07,2,6.1,3.15l-11.86.09.24-9.53Z"/><path class="cls-8" d="M593.49,137.52c0,.06-.29.07-.58.25s-.45.42-.5.39,0-.35.39-.56S593.51,137.46,593.49,137.52Z"/><path class="cls-8" d="M594.72,138.07c0,.06-.24.15-.45.39s-.27.49-.32.49-.09-.34.17-.63S594.72,138,594.72,138.07Z"/><path class="cls-8" d="M595.38,139.58a.81.81,0,0,1,0-.6c.13-.32.44-.43.46-.38s-.15.22-.28.48S595.44,139.57,595.38,139.58Z"/><path class="cls-8" d="M593.43,136.12h-.62c-.33,0-.58.11-.61.06s.22-.25.61-.26S593.46,136.07,593.43,136.12Z"/><g class="cls-12"><polygon points="593.62 132.68 593.55 133.77 587.73 133.54 587.75 132.56 593.62 132.68"/></g><path class="cls-8" d="M593.49,134.89a1.22,1.22,0,0,1-.6,0,3.39,3.39,0,0,1-.61-.21l-.34-.2a.75.75,0,0,1-.17-.14.26.26,0,0,1,0-.31.32.32,0,0,1,.26-.12h.22l.37.14a2.23,2.23,0,0,1,.53.38c.27.26.36.48.34.49s-.16-.17-.43-.39a2.75,2.75,0,0,0-.52-.31,2,2,0,0,0-.34-.12h-.26s0,0,0,.07a.41.41,0,0,0,.13.1l.3.19a4.87,4.87,0,0,0,.57.24A3.58,3.58,0,0,1,593.49,134.89Z"/><path class="cls-8" d="M593.41,135a1.06,1.06,0,0,1-.14-.58,2.05,2.05,0,0,1,.1-.65,1.58,1.58,0,0,1,.16-.35.49.49,0,0,1,.39-.29.26.26,0,0,1,.24.17.79.79,0,0,1,.06.22,1.34,1.34,0,0,1,0,.4,1.42,1.42,0,0,1-.28.61c-.24.3-.48.36-.48.34a2.72,2.72,0,0,0,.37-.43,1.35,1.35,0,0,0,.2-.55,1,1,0,0,0,0-.34c0-.13-.06-.23-.1-.22a.35.35,0,0,0-.22.19,1.77,1.77,0,0,0-.15.31,2.41,2.41,0,0,0-.14.59C593.39,134.74,593.44,135,593.41,135Z"/><polygon class="cls-2" points="593.7 78.51 575.64 78.37 566.91 135.71 574.4 136.66 584.01 89.52 586.89 136.83 586.9 136.97 595 136.82 593.7 78.51"/><path class="cls-6" d="M585.48,83.16h1.46l3.91-.11h.07v3.82h0l-.68.62-2,1.84,0,0-.06,0L585.46,87h0V83.22a1.22,1.22,0,0,1,0,.27V87h0l2.69,2.36H588l2-1.84.68-.62V83.16l.07.08h-5.37Z"/><path class="cls-6" d="M577,82.91h.34l1,.08,3.51.32h.07v.07c-.14,1.11-.29,2.37-.45,3.72h0l-.78.63-1.92,1.52-.06,0v-.06l-2.1-2.65h0l.37-2.72.11-.74a1,1,0,0,1,0-.24,1.22,1.22,0,0,1,0,.27l-.07.76-.3,2.68h0l2.12,2.63h-.11l1.92-1.53.78-.62h0c.17-1.35.32-2.61.46-3.72l.07.08-3.46-.38-1-.12Z"/><path class="cls-6" d="M588,91.61a4.79,4.79,0,0,1-.82-.4l-2-1-2-1a6.15,6.15,0,0,1-.81-.41,4.19,4.19,0,0,1,.86.31c.52.21,1.23.53,2,.91s1.45.76,1.93,1A4.89,4.89,0,0,1,588,91.61Z"/><path class="cls-6" d="M587.8,93a1.88,1.88,0,0,1-.61-.23A5.25,5.25,0,0,1,585,90.56a1.69,1.69,0,0,1-.24-.61,9.38,9.38,0,0,0,1.3,1.77A9.87,9.87,0,0,0,587.8,93Z"/><path class="cls-6" d="M592.9,109.57a1,1,0,0,1-.08.3,4.15,4.15,0,0,1-.38.76,4.77,4.77,0,0,1-2.1,1.8,4.66,4.66,0,0,1-2.76.25,4.5,4.5,0,0,1-.81-.26c-.18-.08-.28-.14-.27-.15a7.84,7.84,0,0,0,1.1.3,4.87,4.87,0,0,0,2.67-.3,4.76,4.76,0,0,0,2.08-1.71A9.05,9.05,0,0,0,592.9,109.57Z"/><path class="cls-6" d="M591.71,109.08a2.13,2.13,0,0,1-.69.3,6.05,6.05,0,0,1-1.79.3,10.06,10.06,0,0,1-1.82-.11,2.59,2.59,0,0,1-.73-.17c0-.05,1.14.17,2.54.12a8.12,8.12,0,0,0,1.77-.25A6.38,6.38,0,0,1,591.71,109.08Z"/><path class="cls-6" d="M578.28,109.42a3,3,0,0,1-.62.57,7.23,7.23,0,0,1-3.81,1.42,3.93,3.93,0,0,1-.84,0,5.7,5.7,0,0,1,.83-.1,8.73,8.73,0,0,0,3.75-1.4A6.48,6.48,0,0,1,578.28,109.42Z"/><path class="cls-6" d="M576.7,109.35a4.05,4.05,0,0,1-1.66.14,3.9,3.9,0,0,1-1.61-.4,12.94,12.94,0,0,0,1.63.23C576,109.39,576.69,109.3,576.7,109.35Z"/><path class="cls-6" d="M583.91,89.91a3.56,3.56,0,0,1-.82.37,10.6,10.6,0,0,1-2.08.54,11.89,11.89,0,0,1-2.15.14,3.33,3.33,0,0,1-.89-.1h.89a15,15,0,0,0,2.12-.18,16.53,16.53,0,0,0,2.08-.49A5.28,5.28,0,0,1,583.91,89.91Z"/><path class="cls-6" d="M583.41,88.06c.05,0,.09.14.09.32s0,.32-.08.32-.08-.14-.09-.32S583.37,88.06,583.41,88.06Z"/><path class="cls-6" d="M583.41,86.79c.05,0,.09.14.08.32s0,.32-.08.32-.08-.15-.08-.32S583.37,86.79,583.41,86.79Z"/><path class="cls-6" d="M583.44,85.52a.68.68,0,0,1,.07.32c0,.17,0,.32-.09.32s-.08-.15-.07-.32S583.39,85.52,583.44,85.52Z"/><path class="cls-6" d="M583.49,84.25a.68.68,0,0,1,.07.32c0,.17,0,.32-.1.32s-.07-.15-.07-.32S583.45,84.25,583.49,84.25Z"/><path class="cls-6" d="M583.57,83a.77.77,0,0,1,.06.33c0,.18-.06.31-.1.31s-.08-.15-.07-.32S583.52,83,583.57,83Z"/><path class="cls-6" d="M583.67,81.72a.66.66,0,0,1,.05.32c0,.17-.06.31-.11.31s-.07-.15-.05-.32S583.62,81.71,583.67,81.72Z"/><path class="cls-6" d="M583.77,80.68a.36.36,0,0,1,.06.21c0,.11-.06.2-.1.2s-.08-.1-.07-.22S583.72,80.68,583.77,80.68Z"/><path class="cls-6" d="M573.55,135.4c.05,0,.06.16,0,.33s-.1.3-.14.29,0-.15,0-.32S573.51,135.39,573.55,135.4Z"/><path class="cls-6" d="M573.8,134.16c.05,0,.06.15,0,.32s-.1.31-.14.3,0-.16,0-.33S573.76,134.15,573.8,134.16Z"/><path class="cls-6" d="M574.05,132.91c.05,0,.06.16,0,.33s-.1.3-.14.29-.06-.15,0-.33S574,132.9,574.05,132.91Z"/><path class="cls-6" d="M574.3,131.66c.05,0,.05.16,0,.33s-.1.31-.14.3-.06-.16,0-.33S574.26,131.66,574.3,131.66Z"/><path class="cls-6" d="M574.55,130.42c.05,0,.05.15,0,.33s-.1.3-.14.29-.06-.15,0-.33S574.51,130.41,574.55,130.42Z"/><path class="cls-6" d="M574.8,129.17a.63.63,0,0,1,0,.33c0,.17-.1.31-.15.3s0-.16,0-.33S574.75,129.16,574.8,129.17Z"/><path class="cls-6" d="M575.05,127.93a.62.62,0,0,1,0,.33c0,.18-.1.3-.15.29s0-.15,0-.33S575,127.92,575.05,127.93Z"/><path class="cls-6" d="M575.3,126.68a.63.63,0,0,1,0,.33c0,.17-.1.3-.15.3s0-.16,0-.33S575.25,126.67,575.3,126.68Z"/><path class="cls-6" d="M575.55,125.44a.62.62,0,0,1,0,.33c0,.18-.1.3-.15.29s0-.15,0-.33S575.5,125.43,575.55,125.44Z"/><path class="cls-6" d="M575.8,124.19a.63.63,0,0,1,0,.33c0,.17-.09.3-.14.3s0-.16,0-.33S575.75,124.18,575.8,124.19Z"/><path class="cls-6" d="M576.05,123a.59.59,0,0,1,0,.32c0,.17-.09.31-.14.3s0-.16,0-.33S576,122.94,576.05,123Z"/><path class="cls-6" d="M576.29,121.7c.05,0,.06.16,0,.33s-.1.3-.14.29,0-.15,0-.32S576.25,121.69,576.29,121.7Z"/><path class="cls-6" d="M576.54,120.46c.05,0,.06.15,0,.32s-.1.31-.14.3,0-.16,0-.33S576.5,120.45,576.54,120.46Z"/><path class="cls-6" d="M576.79,119.21c.05,0,.06.16,0,.33s-.1.3-.14.29-.06-.15,0-.32S576.75,119.2,576.79,119.21Z"/><path class="cls-6" d="M577,118s0,.15,0,.32-.1.31-.14.3-.06-.16,0-.33A1.44,1.44,0,0,1,577,118Z"/><path class="cls-6" d="M577.29,116.72c.05,0,.05.16,0,.33s-.1.3-.14.29-.06-.15,0-.32S577.25,116.71,577.29,116.72Z"/><path class="cls-6" d="M577.54,115.48a.59.59,0,0,1,0,.32c0,.17-.1.31-.14.3s-.06-.16,0-.33S577.5,115.47,577.54,115.48Z"/><path class="cls-6" d="M577.79,114.23a.63.63,0,0,1,0,.33c0,.17-.1.3-.15.29s0-.15,0-.32S577.74,114.22,577.79,114.23Z"/><path class="cls-6" d="M578,113a.63.63,0,0,1,0,.33c0,.17-.1.31-.15.3s0-.16,0-.33A.45.45,0,0,1,578,113Z"/><path class="cls-6" d="M578.29,111.74a.63.63,0,0,1,0,.33c0,.17-.1.3-.15.29s0-.15,0-.33S578.24,111.73,578.29,111.74Z"/><path class="cls-6" d="M578.54,110.49a.63.63,0,0,1,0,.33c0,.17-.1.31-.15.3s0-.16,0-.33S578.49,110.49,578.54,110.49Z"/><path class="cls-6" d="M578.79,109.25a.62.62,0,0,1,0,.33c0,.18-.09.3-.14.29s0-.15,0-.33S578.74,109.24,578.79,109.25Z"/><path class="cls-6" d="M579,108s.06.16,0,.33-.1.31-.14.3,0-.16,0-.33A.46.46,0,0,1,579,108Z"/><path class="cls-6" d="M579.28,106.76c.05,0,.06.15,0,.33s-.1.3-.14.29,0-.15,0-.33S579.24,106.75,579.28,106.76Z"/><path class="cls-6" d="M579.53,105.51c.05,0,.06.16,0,.33s-.1.3-.14.3,0-.16,0-.33S579.49,105.5,579.53,105.51Z"/><path class="cls-6" d="M579.78,104.27c.05,0,.06.15,0,.33s-.1.3-.14.29-.06-.16,0-.33S579.74,104.26,579.78,104.27Z"/><path class="cls-6" d="M580,103s0,.16,0,.33-.1.3-.14.29-.06-.15,0-.32A1.75,1.75,0,0,1,580,103Z"/><path class="cls-6" d="M580.28,101.78c.05,0,.05.15,0,.32s-.1.31-.14.3-.06-.16,0-.33S580.24,101.77,580.28,101.78Z"/><path class="cls-6" d="M580.53,100.53a.63.63,0,0,1,0,.33c0,.17-.1.3-.15.29s0-.15,0-.32S580.48,100.52,580.53,100.53Z"/><path class="cls-6" d="M580.78,99.29a.59.59,0,0,1,0,.32c0,.17-.1.31-.15.3s0-.16,0-.33S580.73,99.28,580.78,99.29Z"/><path class="cls-6" d="M581,98a.63.63,0,0,1,0,.33c0,.17-.1.3-.15.29s0-.15,0-.32A.45.45,0,0,1,581,98Z"/><path class="cls-6" d="M581.28,96.8a.59.59,0,0,1,0,.32c0,.17-.1.31-.15.3s0-.16,0-.33S581.23,96.79,581.28,96.8Z"/><path class="cls-6" d="M581.53,95.55a.63.63,0,0,1,0,.33c0,.17-.09.3-.14.29s0-.15,0-.32S581.48,95.54,581.53,95.55Z"/><path class="cls-6" d="M581.77,94.3c.05,0,.06.16,0,.33s-.09.31-.14.3,0-.16,0-.33S581.73,94.3,581.77,94.3Z"/><path class="cls-6" d="M582,93.06s.06.16,0,.33-.1.3-.14.29,0-.15,0-.33A.37.37,0,0,1,582,93.06Z"/><path class="cls-6" d="M582.27,91.81c.05,0,.06.16,0,.33s-.1.31-.14.3,0-.16,0-.33S582.23,91.81,582.27,91.81Z"/><path class="cls-6" d="M582.52,90.57c.05,0,.06.15,0,.33s-.1.3-.14.29-.06-.15,0-.33S582.48,90.56,582.52,90.57Z"/><path class="cls-13" d="M607.42,52.16S609.54,49,609.59,49h0s1.91-3.22,2.55-3.22.4.66-.25,1.81a4.64,4.64,0,0,0-.64,1.64l1.57.94s1-.4,1.09.57a6,6,0,0,1-.18,1.33c-.06.34-.22.72-.55.58a.41.41,0,0,1-.28-.39c0-.57.09-.79,0-.79s-1.13,3-1.13,3Z"/><path class="cls-13" d="M611.69,49.68a5.09,5.09,0,0,1,.5-.3,1,1,0,0,1,.58-.09.44.44,0,0,1,.31.17.46.46,0,0,1,.06.48,1.43,1.43,0,0,1-.25.43"/><path class="cls-13" d="M611,49a2,2,0,0,1,.47-.28,1,1,0,0,1,.54-.09.45.45,0,0,1,.3.16.48.48,0,0,1,.06.45,3.79,3.79,0,0,1-.49.63"/><path class="cls-13" d="M608.16,50.38l-3,6.53,3.36,3.44,1.76-4.87s.94.19,1.32-.44a16.2,16.2,0,0,0,1-2.7Z"/><path class="cls-14" d="M610.34,50.2a1.77,1.77,0,0,1,.36-.91,1.56,1.56,0,0,1,.53-.46c.15-.09.26-.12.27-.1a4.34,4.34,0,0,0-.66.66C610.54,49.8,610.39,50.22,610.34,50.2Z"/><path class="cls-14" d="M613.73,50.22a1,1,0,0,1-.29-.06,1,1,0,0,0-.67.1,1.56,1.56,0,0,0-.5.49c-.11.15-.18.25-.2.24s0-.13.1-.3a1.32,1.32,0,0,1,.52-.58,1,1,0,0,1,.77-.07C613.66,50.11,613.74,50.21,613.73,50.22Z"/><path class="cls-14" d="M612.59,49.3a5.09,5.09,0,0,0-.71.42c-.35.31-.51.66-.56.64a1.16,1.16,0,0,1,.45-.76,1.33,1.33,0,0,1,.56-.3C612.49,49.27,612.59,49.28,612.59,49.3Z"/><path class="cls-14" d="M613.34,50.71a.56.56,0,0,1,0,.49c-.13.25-.42.3-.43.25s.17-.14.29-.34S613.3,50.72,613.34,50.71Z"/><path class="cls-13" d="M607.43,52s-.11-2,.37-2.39,1.82,0,1.82,0"/><path class="cls-14" d="M609.81,48.73a5.67,5.67,0,0,1-.7,1.12,6.12,6.12,0,0,1-.83,1,5,5,0,0,1,.7-1.11A5,5,0,0,1,609.81,48.73Z"/><path class="cls-13" d="M576.9,50.51c.05-.26.11-.57.2-.92a2.68,2.68,0,0,1,.39-.86,4.93,4.93,0,0,1,.74-.9.36.36,0,0,0-.16-.66,3,3,0,0,0-1.69,1.59c-.56,1-.89-.78-1-1.43a10.38,10.38,0,0,0-.87-2.77c-.34-.18-.59.16-.44.8s.45,2.63.1,2.68-1-3.28-1-3.28,0-.73-.42-.68c-.73.08.2,3.57.29,3.9s-.31.3-.36.05-.55-3.33-1.29-3.25c-.57.06.73,2.88.48,3.57s-.77-2.24-1.32-2.15c-.2,0-.34.08.2,1.72.26.79,1.27,4.52,1.27,4.52l-.58,3.06,4.64,1.17Z"/><path class="cls-13" d="M582.77,34V49.21l6.53.31.19-3.7a2.48,2.48,0,0,0,2.91-1.69c.38-1.38.29-12,.29-12Z"/><path class="cls-8" d="M593.5,33.15c-1,.3-1.25,2-1.25,2l-1.62,3.56c-.82-.64-1.92-.61-2.13.84-.15,1,1.15,1.25,1.15,1.25a19.27,19.27,0,0,1-2.37,3.55,3.52,3.52,0,0,1-3.15,1.47h-1.42s-.7-2.26-2-7.91c-1.43-6.27,6-5.46,7.37-7.06C590.32,28.22,596.74,32.23,593.5,33.15Z"/><path class="cls-8" d="M580.86,38.48c-1.2-.81-1.31-3.07-.61-4.42a4.33,4.33,0,0,1,3.7-2.3,2.08,2.08,0,0,0,.61-.07,1.76,1.76,0,0,0,.65-.62c1.07-1.39,2.13-2.77,4.13-2.77a2.24,2.24,0,0,1,1.26.32,1.94,1.94,0,0,1,.76,1,4.1,4.1,0,0,1,1.17-.42,1.45,1.45,0,0,1,1.17.28.89.89,0,0,1,.19,1.13,1.42,1.42,0,0,1,1.42,1.18c.1.67-.85,1.14-.95,1.19a1.33,1.33,0,0,1-.7,1.75h0a1.47,1.47,0,0,1-1.23-.09"/><path class="cls-6" d="M585.63,39.94a2.53,2.53,0,0,1,0,1.16,2.3,2.3,0,0,1-.46,1.06s.16-.49.3-1.1S585.58,40,585.63,39.94Z"/><path class="cls-6" d="M586.41,39.2a2.6,2.6,0,0,1-.06,1.11,2.87,2.87,0,0,1-.34,1.06,5.07,5.07,0,0,1,.18-1.09A6.46,6.46,0,0,1,586.41,39.2Z"/><path class="cls-6" d="M588.68,36.69a4.73,4.73,0,0,0-.41.43,4.07,4.07,0,0,0-.7,1.21,10.72,10.72,0,0,0-.39,1.37,2.38,2.38,0,0,1-.16.58,2,2,0,0,1,0-.6,7.65,7.65,0,0,1,.35-1.41,3.53,3.53,0,0,1,.78-1.23C588.45,36.77,588.67,36.67,588.68,36.69Z"/><path class="cls-6" d="M589.59,35a1.58,1.58,0,0,1,.13.41,2.82,2.82,0,0,1-.06,1,2.53,2.53,0,0,1-.44.94c-.16.21-.29.32-.31.3a5.5,5.5,0,0,0,.59-1.28A5.24,5.24,0,0,0,589.59,35Z"/><path class="cls-6" d="M581.8,38.78a.87.87,0,0,1-.45-.16c-.23-.16-.38-.26-.36-.3s.22,0,.44.16S581.82,38.74,581.8,38.78Z"/><path class="cls-6" d="M585,37.15a1.53,1.53,0,0,1-.18.66c-.18.33-.48.51-.5.48a5,5,0,0,1,.36-.56A4.08,4.08,0,0,1,585,37.15Z"/><path class="cls-6" d="M585.92,36.63a1.26,1.26,0,0,1-.29.79A1.32,1.32,0,0,1,585,38s.23-.3.47-.67A5.28,5.28,0,0,1,585.92,36.63Z"/><path class="cls-6" d="M590.74,30.26a4.13,4.13,0,0,0-.36-.23,2.45,2.45,0,0,0-1.09-.28,3,3,0,0,0-1.6.43,4,4,0,0,0-1.37,1.53,7.23,7.23,0,0,0-.56,1.42v.1h-.09a3.19,3.19,0,0,0-1.45-.37A3.35,3.35,0,0,0,583,33a6.13,6.13,0,0,0-1,.48l.22-.19a3.13,3.13,0,0,1,.72-.39,3.41,3.41,0,0,1,2.75.15l-.12.05a6.78,6.78,0,0,1,.56-1.46,4.06,4.06,0,0,1,1.44-1.58,2.88,2.88,0,0,1,1.69-.41,2.23,2.23,0,0,1,1.12.34,1.57,1.57,0,0,1,.25.2C590.72,30.23,590.75,30.26,590.74,30.26Z"/><path class="cls-6" d="M594.17,31.09a.4.4,0,0,1,.38.17.65.65,0,0,1,.15.48.76.76,0,0,1-.38.54,1.14,1.14,0,0,1-.79.11,2.5,2.5,0,0,1-.82-.4,8.72,8.72,0,0,0-.8-.55,3.2,3.2,0,0,0-1-.34,4,4,0,0,0-2,.14,5.43,5.43,0,0,0-1.46.74,12.23,12.23,0,0,0-1.16,1,1.35,1.35,0,0,1,.26-.32,6,6,0,0,1,.83-.76,5.55,5.55,0,0,1,1.48-.79,4,4,0,0,1,2-.15,3.52,3.52,0,0,1,1,.36,9.08,9.08,0,0,1,.81.57,2,2,0,0,0,.76.38.9.9,0,0,0,.7-.07.66.66,0,0,0,.35-.46.57.57,0,0,0-.11-.42A.63.63,0,0,0,594.17,31.09Z"/><path class="cls-3" d="M576.13,49.91l-8,14.26a4,4,0,0,0,.61,3.79l-.16-.24A3.44,3.44,0,0,0,571.26,69h.15a3.42,3.42,0,0,0,3.12-2l1.87-2.84Z"/><path class="cls-3" d="M593.41,48.89a10.73,10.73,0,0,0-4.8-1,55.77,55.77,0,0,0-6.84-.11s-6.45-.19-6.48,4.8l.85,19.18L574.76,80l19.32.58-.14-9.69c.24-5-.27-12.19-.27-12.19.3-2.72,1.78-3.94,2-5.7A4.34,4.34,0,0,0,593.41,48.89Z"/><path class="cls-8" d="M588,72a2.33,2.33,0,0,1-.28.27,5.26,5.26,0,0,1-.88.6A7.19,7.19,0,0,1,580,73a7.6,7.6,0,0,1-.9-.57c-.2-.16-.3-.25-.29-.26a10.43,10.43,0,0,0,1.25.73,7.27,7.27,0,0,0,6.67-.12C587.53,72.36,587.94,72,588,72Z"/><path class="cls-8" d="M575.29,52.55a.61.61,0,0,1,0,.19v.54a17.53,17.53,0,0,0,.09,2c.07,1.7.17,4,.27,6.58s.23,4.88.3,6.58c0,.82.08,1.5.1,2V71l0-.54c0-.47-.1-1.15-.15-2-.12-1.69-.24-4-.35-6.58s-.18-4.9-.23-6.59V52.73A1.1,1.1,0,0,1,575.29,52.55Z"/><path class="cls-3" d="M571.24,54.21s-.73,2.14-.86,2.43A69.68,69.68,0,0,0,568,65.38L573.76,55Z"/><path class="cls-8" d="M574.08,53.58a.34.34,0,0,1-.06.15l-.22.42c-.2.36-.49.88-.86,1.51-.73,1.26-1.84,3-3,4.89-.56,1-1,1.92-1.44,2.79a5.21,5.21,0,0,0-.56,2.45,3.86,3.86,0,0,0,.45,1.63c.19.36.35.53.33.54l-.11-.12a3.37,3.37,0,0,1-.28-.38,3.92,3.92,0,0,1-.51-1.67,5.2,5.2,0,0,1,.54-2.51c.41-.89.88-1.84,1.44-2.81,1.12-1.94,2.23-3.62,3-4.87l.9-1.48.25-.41A.8.8,0,0,1,574.08,53.58Z"/><path class="cls-3" d="M609.61,58.9,605.14,56l-2.82,4.89s-3.91-5.44-5.69-8.62a7.36,7.36,0,0,0-4.77-3.94.45.45,0,0,0-.53.37.57.57,0,0,0,0,.13l1.54,10.57a89.67,89.67,0,0,0,5.22,7.6c3,3.93,7.44,1.41,8.66-1.34C607.71,63.44,609.21,60.13,609.61,58.9Z"/><path class="cls-3" d="M603.6,65.28a3.27,3.27,0,0,1-.08-.7,13.23,13.23,0,0,0-.22-1.66,5.41,5.41,0,0,0-.57-1.56c-.21-.38-.39-.58-.37-.59a1.54,1.54,0,0,1,.47.53,4.52,4.52,0,0,1,.63,1.58,8.1,8.1,0,0,1,.17,1.7A2.06,2.06,0,0,1,603.6,65.28Z"/><path class="cls-3" d="M604.91,63.09a1.53,1.53,0,0,0-.16-.57,3.24,3.24,0,0,0-.71-1.2,1.91,1.91,0,0,0-1.19-.65,2.2,2.2,0,0,0-.57.1.72.72,0,0,1,.57-.21,1.85,1.85,0,0,1,1.31.65,3,3,0,0,1,.71,1.28A1.35,1.35,0,0,1,604.91,63.09Z"/><path class="cls-3" d="M591.57,49.62a.63.63,0,0,1-.11.12l-.14.14-.17.21a4.55,4.55,0,0,0-.77,1.5,6,6,0,0,0-.17,2.5,5.92,5.92,0,0,0,.38,1.43,14.78,14.78,0,0,0,.73,1.43c1.09,1.92,2.22,3.59,3,4.79.41.58.74,1,1,1.41a4.8,4.8,0,0,1,.36.52s0,0-.11-.12l-.3-.36c-.25-.32-.6-.8-1-1.39a53.79,53.79,0,0,1-3.1-4.8c-.26-.48-.52-1-.73-1.45a5.79,5.79,0,0,1-.38-1.47,5.94,5.94,0,0,1,.21-2.55A4.22,4.22,0,0,1,591.1,50l.19-.2.15-.13Z"/><path class="cls-8" d="M591.58,77.7l-.14.06-.4.14-.64.2c-.25.07-.54.15-.86.22a21.78,21.78,0,0,1-2.28.42,22.42,22.42,0,0,1-5.67,0,19.6,19.6,0,0,1-2.29-.41c-.32-.07-.61-.15-.86-.22s-.44-.12-.65-.19l-.4-.14c-.09,0-.14,0-.13-.06h.14l.41.11.65.16c.26.06.54.14.87.2.64.14,1.41.26,2.27.37a26.64,26.64,0,0,0,2.82.15,24.25,24.25,0,0,0,2.82-.17c.86-.11,1.63-.24,2.27-.38.33-.06.61-.14.87-.2l.64-.17.41-.11Z"/><path class="cls-8" d="M669,140.81s-31,.08-69.25.08-69.26,0-69.26-.08,31-.09,69.26-.09S669,140.76,669,140.81Z"/></svg>